<?xml version="1.0" encoding="UTF-8" standalone="no"?>
<svg
   xmlns:dc="http://purl.org/dc/elements/1.1/"
   xmlns:cc="http://creativecommons.org/ns#"
   xmlns:rdf="http://www.w3.org/1999/02/22-rdf-syntax-ns#"
   xmlns:svg="http://www.w3.org/2000/svg"
   xmlns="http://www.w3.org/2000/svg"
   xmlns:sodipodi="http://sodipodi.sourceforge.net/DTD/sodipodi-0.dtd"
   xmlns:inkscape="http://www.inkscape.org/namespaces/inkscape"
   width="362mm"
   height="382mm"
   viewBox="-162 -191 362 382"
   version="1.1"
   id="svg2964"
   sodipodi:docname="dodecahedron.svg"
   inkscape:version="0.92.3 (31483c3120, 2018-12-23, custom)">
  <metadata
     id="metadata2970">
    <rdf:RDF>
      <cc:Work
         rdf:about="">
        <dc:format>image/svg+xml</dc:format>
        <dc:type
           rdf:resource="http://purl.org/dc/dcmitype/StillImage" />
        <dc:title>OpenSCAD Model</dc:title>
      </cc:Work>
    </rdf:RDF>
  </metadata>
  <defs
     id="defs2968" />
  <sodipodi:namedview
     pagecolor="#ffffff"
     bordercolor="#666666"
     borderopacity="1"
     objecttolerance="10"
     gridtolerance="10"
     guidetolerance="10"
     inkscape:pageopacity="0"
     inkscape:pageshadow="2"
     inkscape:window-width="3840"
     inkscape:window-height="2104"
     id="namedview2966"
     showgrid="false"
     inkscape:document-units="mm"
     inkscape:zoom="2.3854923"
     inkscape:cx="943.21853"
     inkscape:cy="695.55627"
     inkscape:window-x="3840"
     inkscape:window-y="0"
     inkscape:window-maximized="1"
     inkscape:current-layer="svg2964" />
  <title
     id="title2960">OpenSCAD Model</title>
  <path
     style="fill:none;stroke-width:0.2;stroke-miterlimit:4;stroke-dasharray:none;stroke:#aad400"
     d="M 200,0 61.8034,-190.211 -161.803,-117.557 v 235.114 l 223.6064,72.654 z"
     id="path3807" />
  <path
     style="fill:none;stroke-width:0.2;stroke-miterlimit:4;stroke-dasharray:none;stroke:#ff00ff"
     d="m 43.2736,-177.811 16.2122,-5.267 87.5692,120.5278 z"
     id="path3805" />
  <path
     style="fill:none;stroke-width:0.2;stroke-miterlimit:4;stroke-dasharray:none;stroke:#008000"
     d="m 22.8384,-169.405 14.5462,-6.476 93.1164,103.4161 z"
     id="path3803" />
  <path
     style="fill:none;stroke-width:0.2;stroke-miterlimit:4;stroke-dasharray:none;stroke:#aa0000"
     d="m 4.67574,-159.6 12.88056,-7.437 96.5987,86.9781 z"
     id="path3801" />
  <path
     style="fill:none;stroke-width:0.2;stroke-miterlimit:4;stroke-dasharray:none;stroke:#aa0000"
     d="m -155.736,-113.149 141.6895,-46.037 -141.6895,63.0838 z"
     id="path3799" />
  <path
     style="fill:none;stroke-width:0.2;stroke-miterlimit:4;stroke-dasharray:none;stroke:#ff00ff"
     d="M -11.2394,-148.719 0,-156.885 98.2289,-85.5175 Z"
     id="path3797" />
  <path
     style="fill:none;stroke-width:0.2;stroke-miterlimit:4;stroke-dasharray:none;stroke:#008000"
     d="M -155.72,-89.9051 -28.5913,-146.507 -154.056,-74.0695 Z"
     id="path3795" />
  <path
     style="fill:none;stroke-width:0.2;stroke-miterlimit:4;stroke-dasharray:none;stroke:#008000"
     d="m -24.9616,-137.057 9.6437,-8.683 98.219,56.7066 z"
     id="path3793" />
  <path
     style="fill:none;stroke-width:0.2;stroke-miterlimit:4;stroke-dasharray:none;stroke:#aa0000"
     d="m -36.5703,-124.884 8.1108,-9.007 96.7785,43.0881 z"
     id="path3791" />
  <path
     style="fill:none;stroke-width:0.2;stroke-miterlimit:4;stroke-dasharray:none;stroke:#aa0000"
     d="M -153.436,-68.3142 -40.8648,-133.307 -150.344,-53.7661 Z"
     id="path3789" />
  <path
     style="fill:none;stroke-width:0.2;stroke-miterlimit:4;stroke-dasharray:none;stroke:#ff00ff"
     d="m -46.1658,-112.441 6.6551,-9.16 94.1106,30.578 z"
     id="path3787" />
  <path
     style="fill:none;stroke-width:0.2;stroke-miterlimit:4;stroke-dasharray:none;stroke:#ff00ff"
     d="m -149.206,-48.4801 98.2284,-71.3679 -93.9354,84.5806 z"
     id="path3785" />
  <path
     style="fill:none;stroke-width:0.2;stroke-miterlimit:4;stroke-dasharray:none;stroke:#008000"
     d="m -53.8648,-99.9462 5.288,-9.1588 90.4107,19.2171 z"
     id="path3783" />
  <path
     style="fill:none;stroke-width:0.2;stroke-miterlimit:4;stroke-dasharray:none;stroke:#008000"
     d="m -143.341,-30.468 84.2831,-75.888 -79.0041,87.743 z"
     id="path3781" />
  <path
     style="fill:none;stroke-width:0.2;stroke-miterlimit:4;stroke-dasharray:none;stroke:#aa0000"
     d="m -59.7969,-87.587 4.0181,-9.0247 85.8645,9.0247 z"
     id="path3779" />
  <path
     style="fill:none;stroke-width:0.2;stroke-miterlimit:4;stroke-dasharray:none;stroke:#aa0000"
     d="m -136.133,-14.3081 70.886,-78.7267 -64.825,89.22415 z"
     id="path3777" />
  <path
     style="fill:none;stroke-width:0.2;stroke-miterlimit:4;stroke-dasharray:none;stroke:#ff00ff"
     d="m -61.2493,-84.3025 h 80.6459 l -83.4974,8.776 z"
     id="path3775" />
  <path
     style="fill:none;stroke-width:0.2;stroke-miterlimit:4;stroke-dasharray:none;stroke:#ff00ff"
     d="m 52.0218,-84.3025 h 9.2276 l 24.9209,76.69894 z"
     id="path3773" />
  <path
     style="fill:none;stroke-width:0.2;stroke-miterlimit:4;stroke-dasharray:none;stroke:#008000"
     d="m 40.0951,-83.3931 8.5721,-0.9009 30.6393,68.8171 z"
     id="path3771" />
  <path
     style="fill:none;stroke-width:0.2;stroke-miterlimit:4;stroke-dasharray:none;stroke:#aa0000"
     d="m 64.8219,-83.9361 9.8247,1.0327 17.9506,84.45073 z"
     id="path3769" />
  <path
     style="fill:none;stroke-width:0.2;stroke-miterlimit:4;stroke-dasharray:none;stroke:#aa0000"
     d="m 29.1045,-81.3838 7.8752,-1.6739 35.1819,60.9369 z"
     id="path3767" />
  <path
     style="fill:none;stroke-width:0.2;stroke-miterlimit:4;stroke-dasharray:none;stroke:#008000"
     d="m 78.4094,-82.1135 10.3448,2.1989 9.6616,91.9242 z"
     id="path3765" />
  <path
     style="fill:none;stroke-width:0.2;stroke-miterlimit:4;stroke-dasharray:none;stroke:#ff00ff"
     d="m 19.0909,-78.4441 7.1522,-2.324 38.6325,53.1731 z"
     id="path3763" />
  <path
     style="fill:none;stroke-width:0.2;stroke-miterlimit:4;stroke-dasharray:none;stroke:#008000"
     d="m -65.1294,-72.3335 74.91701,-7.8741 -76.70911,16.305 z"
     id="path3761" />
  <path
     style="fill:none;stroke-width:0.2;stroke-miterlimit:4;stroke-dasharray:none;stroke:#ff00ff"
     d="M -127.859,3.05176e-5 -69.6957,-80.0552 -121.204,9.16 Z"
     id="path3759" />
  <path
     style="fill:none;stroke-width:0.2;stroke-miterlimit:4;stroke-dasharray:none;stroke:#ff00ff"
     d="m 92.6721,-78.6525 10.7679,3.4988 V 23.8 Z"
     id="path3757" />
  <path
     style="fill:none;stroke-width:0.2;stroke-miterlimit:4;stroke-dasharray:none;stroke:#008000"
     d="m 10.0756,-74.7356 6.4173,-2.8572 41.0797,45.6237 z"
     id="path3755" />
  <path
     style="fill:none;stroke-width:0.2;stroke-miterlimit:4;stroke-dasharray:none;stroke:#aa0000"
     d="M -67.5652,-60.836 1.26102,-75.4655 -68.4068,-52.829 Z"
     id="path3753" />
  <path
     style="fill:none;stroke-width:0.2;stroke-miterlimit:4;stroke-dasharray:none;stroke:#aa0000"
     d="M 2.06279,-70.4103 7.74524,-73.691 50.3614,-35.3193 Z"
     id="path3751" />
  <path
     style="fill:none;stroke-width:0.2;stroke-miterlimit:4;stroke-dasharray:none;stroke:#aa0000"
     d="m 107.47,-73.3715 11.074,4.9302 -11.074,105.3569 z"
     id="path3749" />
  <path
     style="fill:none;stroke-width:0.2;stroke-miterlimit:4;stroke-dasharray:none;stroke:#ff00ff"
     d="M -68.7054,-49.9174 -6.19684,-70.2277 -68.7054,-42.397 Z"
     id="path3747" />
  <path
     style="fill:none;stroke-width:0.2;stroke-miterlimit:4;stroke-dasharray:none;stroke:#ff00ff"
     d="M -4.95845,-65.6099 0,-69.2124 l 43.3353,31.485 z"
     id="path3745" />
  <path
     style="fill:none;stroke-width:0.2;stroke-miterlimit:4;stroke-dasharray:none;stroke:#008000"
     d="M -118.776,12.4839 -72.561,-67.5633 -111.7,20.3434 Z"
     id="path3743" />
  <path
     style="fill:none;stroke-width:0.2;stroke-miterlimit:4;stroke-dasharray:none;stroke:#008000"
     d="m 122.635,-66.0928 11.239,6.4884 -23.58,110.9353 z"
     id="path3741" />
  <path
     style="fill:none;stroke-width:0.2;stroke-miterlimit:4;stroke-dasharray:none;stroke:#008000"
     d="m -68.6985,-39.6631 56.085,-24.9707 -55.3508,31.9568 z"
     id="path3739" />
  <path
     style="fill:none;stroke-width:0.2;stroke-miterlimit:4;stroke-dasharray:none;stroke:#008000"
     d="m -11.0122,-60.4649 4.25446,-3.8308 43.33094,25.0172 z"
     id="path3737" />
  <path
     style="fill:none;stroke-width:0.2;stroke-miterlimit:4;stroke-dasharray:none;stroke:#aa0000"
     d="m -16.1336,-55.0944 3.5782,-3.974 42.6954,19.0092 z"
     id="path3735" />
  <path
     style="fill:none;stroke-width:0.2;stroke-miterlimit:4;stroke-dasharray:none;stroke:#aa0000"
     d="m -67.6909,-30.138 49.6627,-28.6728 -48.2985,35.091 z"
     id="path3733" />
  <path
     style="fill:none;stroke-width:0.2;stroke-miterlimit:4;stroke-dasharray:none;stroke:#ff00ff"
     d="m 137.967,-56.646 11.239,8.1659 -37.52,115.475 z"
     id="path3731" />
  <path
     style="fill:none;stroke-width:0.2;stroke-miterlimit:4;stroke-dasharray:none;stroke:#aa0000"
     d="M -109.12,23.1941 -74.0032,-55.679 -101.778,29.8044 Z"
     id="path3729" />
  <path
     style="fill:none;stroke-width:0.2;stroke-miterlimit:4;stroke-dasharray:none;stroke:#ff00ff"
     d="m -20.3668,-49.6053 2.936,-4.0411 41.5184,13.4902 z"
     id="path3727" />
  <path
     style="fill:none;stroke-width:0.2;stroke-miterlimit:4;stroke-dasharray:none;stroke:#ff00ff"
     d="m -65.8249,-21.3878 43.3353,-31.4849 -41.4413,37.3139 z"
     id="path3725" />
  <path
     style="fill:none;stroke-width:0.2;stroke-miterlimit:4;stroke-dasharray:none;stroke:#008000"
     d="m -23.7633,-44.0929 2.3329,-4.0407 39.8861,8.4781 z"
     id="path3723" />
  <path
     style="fill:none;stroke-width:0.2;stroke-miterlimit:4;stroke-dasharray:none;stroke:#008000"
     d="m -63.2371,-13.4415 37.1827,-33.4794 -34.8541,38.70949 z"
     id="path3721" />
  <path
     style="fill:none;stroke-width:0.2;stroke-miterlimit:4;stroke-dasharray:none;stroke:#aa0000"
     d="m 153.234,-44.8722 11.053,9.952 -52.871,118.7485 z"
     id="path3719" />
  <path
     style="fill:none;stroke-width:0.2;stroke-miterlimit:4;stroke-dasharray:none;stroke:#ff00ff"
     d="m -99.1035,32.2007 24.921,-76.6989 -17.4557,82.1227 z"
     id="path3717" />
  <path
     style="fill:none;stroke-width:0.2;stroke-miterlimit:4;stroke-dasharray:none;stroke:#aa0000"
     d="m -26.3803,-38.6404 1.7726,-3.9814 37.8805,3.9814 z"
     id="path3715" />
  <path
     style="fill:none;stroke-width:0.2;stroke-miterlimit:4;stroke-dasharray:none;stroke:#aa0000"
     d="M -60.0572,-6.31227 -28.7848,-41.0438 -57.3834,-1.68111 Z"
     id="path3713" />
  <path
     style="fill:none;stroke-width:0.2;stroke-miterlimit:4;stroke-dasharray:none;stroke:#ff00ff"
     d="M -27.0211,-37.1914 H 8.55714 l -36.83624,3.8717 z"
     id="path3711" />
  <path
     style="fill:none;stroke-width:0.2;stroke-miterlimit:4;stroke-dasharray:none;stroke:#ff00ff"
     d="m 22.9502,-37.1914 h 4.0709 l 10.9943,33.83694 z"
     id="path3709" />
  <path
     style="fill:none;stroke-width:0.2;stroke-miterlimit:4;stroke-dasharray:none;stroke:#008000"
     d="m 17.6886,-36.7902 3.7817,-0.3975 13.517,30.3598 z"
     id="path3707" />
  <path
     style="fill:none;stroke-width:0.2;stroke-miterlimit:4;stroke-dasharray:none;stroke:#aa0000"
     d="m 28.5972,-37.0297 4.3343,0.4555 7.9192,37.256802 z"
     id="path3705" />
  <path
     style="fill:none;stroke-width:0.2;stroke-miterlimit:4;stroke-dasharray:none;stroke:#aa0000"
     d="m 12.8399,-35.9038 3.4742,-0.7384 15.5211,26.88326 z"
     id="path3703" />
  <path
     style="fill:none;stroke-width:0.2;stroke-miterlimit:4;stroke-dasharray:none;stroke:#008000"
     d="m 34.5916,-36.2257 4.5638,0.9701 4.2623,40.5538 z"
     id="path3701" />
  <path
     style="fill:none;stroke-width:0.2;stroke-miterlimit:4;stroke-dasharray:none;stroke:#ff00ff"
     d="M -155.736,113.149 V -35.8323 l 16.212,154.2483 z"
     id="path3699" />
  <path
     style="fill:none;stroke-width:0.2;stroke-miterlimit:4;stroke-dasharray:none;stroke:#ff00ff"
     d="m 8.42223,-34.6069 3.15527,-1.0252 17.0434,23.4581 z"
     id="path3697" />
  <path
     style="fill:none;stroke-width:0.2;stroke-miterlimit:4;stroke-dasharray:none;stroke:#008000"
     d="m -28.7329,-31.9111 33.05086,-3.4738 -33.84146,7.1932 z"
     id="path3695" />
  <path
     style="fill:none;stroke-width:0.2;stroke-miterlimit:4;stroke-dasharray:none;stroke:#ff00ff"
     d="M -56.4072,0 -30.7474,-35.3177 -53.4712,4.04111 Z"
     id="path3693" />
  <path
     style="fill:none;stroke-width:0.2;stroke-miterlimit:4;stroke-dasharray:none;stroke:#ff00ff"
     d="m 40.8838,-34.6989 4.7506,1.5436 -10e-5,43.655 z"
     id="path3691" />
  <path
     style="fill:none;stroke-width:0.2;stroke-miterlimit:4;stroke-dasharray:none;stroke:#008000"
     d="M 4.44498,-32.9708 7.27605,-34.2313 25.399,-14.1037 Z"
     id="path3689" />
  <path
     style="fill:none;stroke-width:0.2;stroke-miterlimit:4;stroke-dasharray:none;stroke:#008000"
     d="m -88.9194,39.5894 15.662,-73.6835 -8.1975,77.9932 z"
     id="path3687" />
  <path
     style="fill:none;stroke-width:0.2;stroke-miterlimit:4;stroke-dasharray:none;stroke:#aa0000"
     d="m -29.8075,-26.8388 30.363805,-6.454 -30.735005,9.9864 z"
     id="path3685" />
  <path
     style="fill:none;stroke-width:0.2;stroke-miterlimit:4;stroke-dasharray:none;stroke:#aa0000"
     d="M 0.910004,-31.0626 3.4169,-32.51 22.2177,-15.5817 Z"
     id="path3683" />
  <path
     style="fill:none;stroke-width:0.2;stroke-miterlimit:4;stroke-dasharray:none;stroke:#aa0000"
     d="m 47.4123,-32.3691 4.8853,2.1751 -4.8853,46.4799 z"
     id="path3681" />
  <path
     style="fill:none;stroke-width:0.2;stroke-miterlimit:4;stroke-dasharray:none;stroke:#ff00ff"
     d="m -30.3105,-22.0219 27.57666,-8.9602 -27.57666,12.278 z"
     id="path3679" />
  <path
     style="fill:none;stroke-width:0.2;stroke-miterlimit:4;stroke-dasharray:none;stroke:#008000"
     d="m 168.171,-30.6282 10.654,11.8329 -69.58,120.5163 z"
     id="path3677" />
  <path
     style="fill:none;stroke-width:0.2;stroke-miterlimit:4;stroke-dasharray:none;stroke:#ff00ff"
     d="M -2.18752,-28.9448 -3.05176e-5,-30.5341 19.118,-16.6441 Z"
     id="path3675" />
  <path
     style="fill:none;stroke-width:0.2;stroke-miterlimit:4;stroke-dasharray:none;stroke:#008000"
     d="M -52.4001,5.50746 -32.0115,-29.8067 -49.2781,8.97484 Z"
     id="path3673" />
  <path
     style="fill:none;stroke-width:0.2;stroke-miterlimit:4;stroke-dasharray:none;stroke:#008000"
     d="m 54.1026,-29.1579 4.9579,2.8625 -10.4027,48.9408 z"
     id="path3671" />
  <path
     style="fill:none;stroke-width:0.2;stroke-miterlimit:4;stroke-dasharray:none;stroke:#008000"
     d="M -30.3074,-17.498 -5.56465,-28.5142 -29.9835,-14.416 Z"
     id="path3669" />
  <path
     style="fill:none;stroke-width:0.2;stroke-miterlimit:4;stroke-dasharray:none;stroke:#008000"
     d="m -4.85822,-26.6751 1.87691,-1.6899 19.11611,11.0367 z"
     id="path3667" />
  <path
     style="fill:none;stroke-width:0.2;stroke-miterlimit:4;stroke-dasharray:none;stroke:#aa0000"
     d="M -26.4952,-2.78474 -5.53902,-26.0589 23.0719,-13.3205 19.7982,17.8264 -10.8359,24.3379 Z"
     id="path3665" />
  <path
     style="fill:none;stroke-width:0.2;stroke-miterlimit:4;stroke-dasharray:none;stroke:#aa0000"
     d="M -29.8629,-13.2958 -7.95341,-25.9453 -29.2611,-10.4644 Z"
     id="path3663" />
  <path
     style="fill:none;stroke-width:0.2;stroke-miterlimit:4;stroke-dasharray:none;stroke:#ff00ff"
     d="m 60.8664,-24.9903 4.9585,3.6025 -16.5526,50.9437 z"
     id="path3661" />
  <path
     style="fill:none;stroke-width:0.2;stroke-miterlimit:4;stroke-dasharray:none;stroke:#aa0000"
     d="m -48.14,10.2325 15.4923,-34.7962 -12.2535,37.7124 z"
     id="path3659" />
  <path
     style="fill:none;stroke-width:0.2;stroke-miterlimit:4;stroke-dasharray:none;stroke:#aa0000"
     d="m -78.7373,45.459 7.3551,-69.9784 v 73.2531 z"
     id="path3657" />
  <path
     style="fill:none;stroke-width:0.2;stroke-miterlimit:4;stroke-dasharray:none;stroke:#aa0000"
     d="M -29.0397,-9.43556 -9.92166,-23.3256 -28.2041,-6.864 Z"
     id="path3655" />
  <path
     style="fill:none;stroke-width:0.2;stroke-miterlimit:4;stroke-dasharray:none;stroke:#ff00ff"
     d="m -27.898,-5.9299 16.4037,-14.77 -15.3764,17.0773 z"
     id="path3653" />
  <path
     style="fill:none;stroke-width:0.2;stroke-miterlimit:4;stroke-dasharray:none;stroke:#aa0000"
     d="m 67.6016,-19.7961 4.8762,4.3905 -23.3246,52.3878 z"
     id="path3651" />
  <path
     style="fill:none;stroke-width:0.2;stroke-miterlimit:4;stroke-dasharray:none;stroke:#ff00ff"
     d="m -43.7211,14.2058 10.9943,-33.8369 -7.7009,36.2298 z"
     id="path3649" />
  <path
     style="fill:none;stroke-width:0.2;stroke-miterlimit:4;stroke-dasharray:none;stroke:#008000"
     d="M -133.625,120.316 -148.171,-18.0811 -118.05,123.627 Z"
     id="path3647" />
  <path
     style="fill:none;stroke-width:0.2;stroke-miterlimit:4;stroke-dasharray:none;stroke:#ff00ff"
     d="M -68.7054,49.9174 V -15.808 l 7.1523,68.0493 z"
     id="path3645" />
  <path
     style="fill:none;stroke-width:0.2;stroke-miterlimit:4;stroke-dasharray:none;stroke:#008000"
     d="m -39.2282,17.4655 6.9095,-32.5067 -3.6164,34.408 z"
     id="path3643" />
  <path
     style="fill:none;stroke-width:0.2;stroke-miterlimit:4;stroke-dasharray:none;stroke:#ff00ff"
     d="M 182.48,-13.7909 192.5,0 104.931,120.528 Z"
     id="path3641" />
  <path
     style="fill:none;stroke-width:0.2;stroke-miterlimit:4;stroke-dasharray:none;stroke:#008000"
     d="M 74.1913,-13.5121 78.8917,-8.29185 48.1953,44.8758 Z"
     id="path3639" />
  <path
     style="fill:none;stroke-width:0.2;stroke-miterlimit:4;stroke-dasharray:none;stroke:#008000"
     d="m 23.8682,-12.8635 2.1873,1.2629 -4.5893,21.59099 z"
     id="path3637" />
  <path
     style="fill:none;stroke-width:0.2;stroke-miterlimit:4;stroke-dasharray:none;stroke:#ff00ff"
     d="M 26.8522,-11.0249 29.0397,-9.43555 21.7372,13.039 Z"
     id="path3635" />
  <path
     style="fill:none;stroke-width:0.2;stroke-miterlimit:4;stroke-dasharray:none;stroke:#aa0000"
     d="m -34.7362,20.0549 3.2448,-30.872 v 32.3167 z"
     id="path3633" />
  <path
     style="fill:none;stroke-width:0.2;stroke-miterlimit:4;stroke-dasharray:none;stroke:#aa0000"
     d="m 29.8235,-8.73338 2.1512,1.93696 -10.29,23.11172 z"
     id="path3631" />
  <path
     style="fill:none;stroke-width:0.2;stroke-miterlimit:4;stroke-dasharray:none;stroke:#008000"
     d="M -58.9509,53.0796 -65.3681,-7.97676 -52.0798,54.5401 Z"
     id="path3629" />
  <path
     style="fill:none;stroke-width:0.2;stroke-miterlimit:4;stroke-dasharray:none;stroke:#ff00ff"
     d="M -30.3105,22.0219 V -6.97394 l 3.1553,30.02104 z"
     id="path3627" />
  <path
     style="fill:none;stroke-width:0.2;stroke-miterlimit:4;stroke-dasharray:none;stroke:#ff00ff"
     d="M 80.5042,-6.08411 84.9245,-1.52588e-5 46.2921,53.173 Z"
     id="path3625" />
  <path
     style="fill:none;stroke-width:0.2;stroke-miterlimit:4;stroke-dasharray:none;stroke:#008000"
     d="M 32.7307,-5.96111 34.8043,-3.65807 21.2621,19.7977 Z"
     id="path3623" />
  <path
     style="fill:none;stroke-width:0.2;stroke-miterlimit:4;stroke-dasharray:none;stroke:#008000"
     d="m -26.0071,23.4169 -2.8311,-26.93597 5.8624,27.58027 z"
     id="path3621" />
  <path
     style="fill:none;stroke-width:0.2;stroke-miterlimit:4;stroke-dasharray:none;stroke:#ff00ff"
     d="M 35.5157,-2.68411 37.4658,0 20.4225,23.4581 Z"
     id="path3619" />
  <path
     style="fill:none;stroke-width:0.2;stroke-miterlimit:4;stroke-dasharray:none;stroke:#aa0000"
     d="M -112.385,124.816 -139.411,-2.32956 -97.5934,126.371 Z"
     id="path3617" />
  <path
     style="fill:none;stroke-width:0.2;stroke-miterlimit:4;stroke-dasharray:none;stroke:#aa0000"
     d="M -49.5805,55.0648 -61.5034,-1.02769 -43.0549,55.7506 Z"
     id="path3615" />
  <path
     style="fill:none;stroke-width:0.2;stroke-miterlimit:4;stroke-dasharray:none;stroke:#aa0000"
     d="m -21.8732,24.2927 -5.26,-24.746084 8.1388,25.048684 z"
     id="path3613" />
  <path
     style="fill:none;stroke-width:0.2;stroke-miterlimit:4;stroke-dasharray:none;stroke:#aa0000"
     d="M 38.1143,1.11659 39.8902,4.19261 19.1189,27.2614 Z"
     id="path3611" />
  <path
     style="fill:none;stroke-width:0.2;stroke-miterlimit:4;stroke-dasharray:none;stroke:#aa0000"
     d="M -17.9475,24.7026 -25.2499,2.22804 -15.2436,24.7027 Z"
     id="path3609" />
  <path
     style="fill:none;stroke-width:0.2;stroke-miterlimit:4;stroke-dasharray:none;stroke:#aa0000"
     d="M 86.3944,2.53105 90.4199,9.50349 43.3373,61.7941 Z"
     id="path3607" />
  <path
     style="fill:none;stroke-width:0.2;stroke-miterlimit:4;stroke-dasharray:none;stroke:#ff00ff"
     d="m -23.2387,4.53511 11.4899,19.90109 -2.5118,0.2639 z"
     id="path3605" />
  <path
     style="fill:none;stroke-width:0.2;stroke-miterlimit:4;stroke-dasharray:none;stroke:#ff00ff"
     d="M -40.682,55.994 -57.2346,5.05035 -34.553,55.994 Z"
     id="path3603" />
  <path
     style="fill:none;stroke-width:0.2;stroke-miterlimit:4;stroke-dasharray:none;stroke:#008000"
     d="M 40.4556,5.45404 42.0023,8.92784 17.3054,31.165 Z"
     id="path3601" />
  <path
     style="fill:none;stroke-width:0.2;stroke-miterlimit:4;stroke-dasharray:none;stroke:#008000"
     d="m -52.6757,10.2798 26.0444,45.1102 -5.6936,0.5984 z"
     id="path3599" />
  <path
     style="fill:none;stroke-width:0.2;stroke-miterlimit:4;stroke-dasharray:none;stroke:#ff00ff"
     d="m 42.4631,10.3342 1.258,3.8716 -28.7834,20.9124 z"
     id="path3597" />
  <path
     style="fill:none;stroke-width:0.2;stroke-miterlimit:4;stroke-dasharray:none;stroke:#ff00ff"
     d="M -92.2147,126.923 -129.735,11.4477 -78.322,126.923 Z"
     id="path3595" />
  <path
     style="fill:none;stroke-width:0.2;stroke-miterlimit:4;stroke-dasharray:none;stroke:#008000"
     d="m 91.7016,12.3628 3.5058,7.8741 -55.9809,50.4055 z"
     id="path3593" />
  <path
     style="fill:none;stroke-width:0.2;stroke-miterlimit:4;stroke-dasharray:none;stroke:#aa0000"
     d="m -47.93,14.6927 28.5987,39.3627 -5.2307,1.1118 z"
     id="path3591" />
  <path
     style="fill:none;stroke-width:0.2;stroke-miterlimit:4;stroke-dasharray:none;stroke:#aa0000"
     d="m 44.0544,15.7548 0.9061,4.2629 -32.9862,19.0446 z"
     id="path3589" />
  <path
     style="fill:none;stroke-width:0.2;stroke-miterlimit:4;stroke-dasharray:none;stroke:#ff00ff"
     d="m -43.0906,18.3288 30.4104,33.7741 -4.7506,1.5435 z"
     id="path3587" />
  <path
     style="fill:none;stroke-width:0.2;stroke-miterlimit:4;stroke-dasharray:none;stroke:#008000"
     d="m 19.6096,18.725 -0.5251,2.4705 -21.95248,2.3072 z"
     id="path3585" />
  <path
     style="fill:none;stroke-width:0.2;stroke-miterlimit:4;stroke-dasharray:none;stroke:#008000"
     d="m -38.2399,21.234 31.54772,28.4056 -4.26242,1.8978 z"
     id="path3583" />
  <path
     style="fill:none;stroke-width:0.2;stroke-miterlimit:4;stroke-dasharray:none;stroke:#008000"
     d="M 45.1421,21.7042 45.6298,26.3444 8.37791,42.9299 Z"
     id="path3581" />
  <path
     style="fill:none;stroke-width:0.2;stroke-miterlimit:4;stroke-dasharray:none;stroke:#ff00ff"
     d="M -5.68365,24.7026 18.7831,22.1311 17.9475,24.7027 Z"
     id="path3579" />
  <path
     style="fill:none;stroke-width:0.2;stroke-miterlimit:4;stroke-dasharray:none;stroke:#008000"
     d="m -119.401,23.3015 59.0353,102.2515 -12.9058,1.357 z"
     id="path3577" />
  <path
     style="fill:none;stroke-width:0.2;stroke-miterlimit:4;stroke-dasharray:none;stroke:#ff00ff"
     d="m 96.252,23.4247 2.8515,8.776 -65.244,47.4025 z"
     id="path3575" />
  <path
     style="fill:none;stroke-width:0.2;stroke-miterlimit:4;stroke-dasharray:none;stroke:#aa0000"
     d="m -33.4502,23.4592 32.08013,23.3075 -3.77431,2.1791 z"
     id="path3573" />
  <path
     style="fill:none;stroke-width:0.2;stroke-miterlimit:4;stroke-dasharray:none;stroke:#ff00ff"
     d="M -28.7834,25.0587 3.29346,43.5783 3.05176e-5,45.9711 Z"
     id="path3571" />
  <path
     style="fill:none;stroke-width:0.2;stroke-miterlimit:4;stroke-dasharray:none;stroke:#aa0000"
     d="m -8.8158,25.6651 h 26.3377 l -1.1774,2.6445 z"
     id="path3569" />
  <path
     style="fill:none;stroke-width:0.2;stroke-miterlimit:4;stroke-dasharray:none;stroke:#008000"
     d="M -24.292,26.0889 7.31438,40.161 4.48854,42.7054 Z"
     id="path3567" />
  <path
     style="fill:none;stroke-width:0.2;stroke-miterlimit:4;stroke-dasharray:none;stroke:#008000"
     d="m -12.2583,26.3393 28.042,2.9473 -1.5495,2.6839 z"
     id="path3565" />
  <path
     style="fill:none;stroke-width:0.2;stroke-miterlimit:4;stroke-dasharray:none;stroke:#aa0000"
     d="M -20.0191,26.6075 10.716,36.5939 8.33934,39.2334 Z"
     id="path3563" />
  <path
     style="fill:none;stroke-width:0.2;stroke-miterlimit:4;stroke-dasharray:none;stroke:#ff00ff"
     d="m -15.9991,26.6719 29.5268,6.2761 -1.9501,2.6841 z"
     id="path3561" />
  <path
     style="fill:none;stroke-width:0.2;stroke-miterlimit:4;stroke-dasharray:none;stroke:#ff00ff"
     d="m 45.6344,28.1603 -10e-5,4.995 -41.51835,13.4901 z"
     id="path3559" />
  <path
     style="fill:none;stroke-width:0.2;stroke-miterlimit:4;stroke-dasharray:none;stroke:#aa0000"
     d="m -108.644,33.3042 64.8253,89.2238 -11.8565,2.521 z"
     id="path3557" />
  <path
     style="fill:none;stroke-width:0.2;stroke-miterlimit:4;stroke-dasharray:none;stroke:#aa0000"
     d="m 45.436,35.0892 -0.559,5.3183 -45.71457,9.7169 z"
     id="path3555" />
  <path
     style="fill:none;stroke-width:0.2;stroke-miterlimit:4;stroke-dasharray:none;stroke:#aa0000"
     d="m 99.859,35.7116 2.054,9.663 -74.7705,43.1687 z"
     id="path3553" />
  <path
     style="fill:none;stroke-width:0.2;stroke-miterlimit:4;stroke-dasharray:none;stroke:#ff00ff"
     d="m -97.6742,41.5461 68.9317,76.5569 -10.7682,3.498 z"
     id="path3551" />
  <path
     style="fill:none;stroke-width:0.2;stroke-miterlimit:4;stroke-dasharray:none;stroke:#008000"
     d="m 44.4494,42.4443 -1.1902,5.5999 -49.76016,5.23 z"
     id="path3549" />
  <path
     style="fill:none;stroke-width:0.2;stroke-miterlimit:4;stroke-dasharray:none;stroke:#008000"
     d="m -86.6791,48.1314 71.5097,64.3876 -9.6616,4.302 z"
     id="path3547" />
  <path
     style="fill:none;stroke-width:0.2;stroke-miterlimit:4;stroke-dasharray:none;stroke:#008000"
     d="m 102.324,49.1973 1.106,10.518 -84.4396,37.5949 z"
     id="path3545" />
  <path
     style="fill:none;stroke-width:0.2;stroke-miterlimit:4;stroke-dasharray:none;stroke:#ff00ff"
     d="M -12.8833,55.994 42.576,50.165 40.682,55.994 Z"
     id="path3543" />
  <path
     style="fill:none;stroke-width:0.2;stroke-miterlimit:4;stroke-dasharray:none;stroke:#aa0000"
     d="m -75.8222,53.1754 72.71656,52.8316 -8.55526,4.939 z"
     id="path3541" />
  <path
     style="fill:none;stroke-width:0.2;stroke-miterlimit:4;stroke-dasharray:none;stroke:#ff00ff"
     d="M -65.244,56.8011 7.46527,98.7798 1.52588e-5,104.204 Z"
     id="path3539" />
  <path
     style="fill:none;stroke-width:0.2;stroke-miterlimit:4;stroke-dasharray:none;stroke:#aa0000"
     d="m -19.983,58.1756 h 59.7003 l -2.6688,5.9942 z"
     id="path3537" />
  <path
     style="fill:none;stroke-width:0.2;stroke-miterlimit:4;stroke-dasharray:none;stroke:#008000"
     d="m -55.0632,59.1363 71.6428,31.8974 -6.4054,5.7675 z"
     id="path3535" />
  <path
     style="fill:none;stroke-width:0.2;stroke-miterlimit:4;stroke-dasharray:none;stroke:#008000"
     d="m -27.7862,59.7038 63.5634,6.6808 -3.5123,6.0835 z"
     id="path3533" />
  <path
     style="fill:none;stroke-width:0.2;stroke-miterlimit:4;stroke-dasharray:none;stroke:#aa0000"
     d="m -45.3777,60.3116 69.6678,22.6365 -5.3872,5.9831 z"
     id="path3531" />
  <path
     style="fill:none;stroke-width:0.2;stroke-miterlimit:4;stroke-dasharray:none;stroke:#ff00ff"
     d="M -36.2654,60.4578 30.6635,74.684 26.2431,80.7681 Z"
     id="path3529" />
  <path
     style="fill:none;stroke-width:0.2;stroke-miterlimit:4;stroke-dasharray:none;stroke:#ff00ff"
     d="M 103.44,63.8314 V 75.1538 L 9.32968,105.732 Z"
     id="path3527" />
  <path
     style="fill:none;stroke-width:0.2;stroke-miterlimit:4;stroke-dasharray:none;stroke:#aa0000"
     d="M 102.991,79.5374 101.724,91.5924 -1.89859,113.618 Z"
     id="path3525" />
  <path
     style="fill:none;stroke-width:0.2;stroke-miterlimit:4;stroke-dasharray:none;stroke:#008000"
     d="M 100.754,96.2094 98.0564,108.903 -14.7359,120.758 Z"
     id="path3523" />
  <path
     style="fill:none;stroke-width:0.2;stroke-miterlimit:4;stroke-dasharray:none;stroke:#ff00ff"
     d="M -29.2029,126.923 96.5077,113.71 92.2147,126.923 Z"
     id="path3521" />
  <path
     style="fill:none;stroke-width:0.2;stroke-miterlimit:4;stroke-dasharray:none;stroke:#aa0000"
     d="M -45.2959,131.868 H 90.0279 l -6.0495,13.587 z"
     id="path3519" />
  <path
     style="fill:none;stroke-width:0.2;stroke-miterlimit:4;stroke-dasharray:none;stroke:#008000"
     d="m -62.9837,135.332 144.0805,15.143 -7.9614,13.79 z"
     id="path3517" />
  <path
     style="fill:none;stroke-width:0.2;stroke-miterlimit:4;stroke-dasharray:none;stroke:#ff00ff"
     d="m -82.2036,137.041 151.709,32.246 -10.0196,13.791 z"
     id="path2962" />
</svg>
