<?xml version="1.0" encoding="UTF-8" standalone="no"?>
<svg
   xmlns:dc="http://purl.org/dc/elements/1.1/"
   xmlns:cc="http://creativecommons.org/ns#"
   xmlns:rdf="http://www.w3.org/1999/02/22-rdf-syntax-ns#"
   xmlns:svg="http://www.w3.org/2000/svg"
   xmlns="http://www.w3.org/2000/svg"
   xmlns:sodipodi="http://sodipodi.sourceforge.net/DTD/sodipodi-0.dtd"
   xmlns:inkscape="http://www.inkscape.org/namespaces/inkscape"
   width="100mm"
   height="100mm"
   viewBox="-50 -50 100 100"
   version="1.1"
   id="svg1593"
   sodipodi:docname="twisty_slats_disk.svg"
   inkscape:version="0.92.3 (31483c3120, 2018-12-23, custom)">
  <metadata
     id="metadata1599">
    <rdf:RDF>
      <cc:Work
         rdf:about="">
        <dc:format>image/svg+xml</dc:format>
        <dc:type
           rdf:resource="http://purl.org/dc/dcmitype/StillImage" />
      </cc:Work>
    </rdf:RDF>
  </metadata>
  <defs
     id="defs1597" />
  <sodipodi:namedview
     pagecolor="#ffffff"
     bordercolor="#666666"
     borderopacity="1"
     objecttolerance="10"
     gridtolerance="10"
     guidetolerance="10"
     inkscape:pageopacity="0"
     inkscape:pageshadow="2"
     inkscape:window-width="3840"
     inkscape:window-height="2104"
     id="namedview1595"
     showgrid="false"
     inkscape:zoom="4.5562904"
     inkscape:cx="120.28014"
     inkscape:cy="188.97638"
     inkscape:window-x="3840"
     inkscape:window-y="0"
     inkscape:window-maximized="1"
     inkscape:current-layer="svg1593" />
  <title
     id="title1589">OpenSCAD Model</title>
  <path
     style="stroke:#0000ff;fill:none;stroke-width:0.1;stroke-miterlimit:4;stroke-dasharray:none"
     d="m 5.22641,49.7261 5.16919,-0.8187 5.0552,-1.3546 4.886,-1.8755 4.6632,-2.376 4.3893,-2.8505 4.0672,-3.2936 3.7007,-3.7007 3.2936,-4.0672 2.8505,-4.3893 2.376,-4.6632 1.8755,-4.886 1.3546,-5.0552 L 49.7261,5.22641 50,0 l -0.2739,-5.22641 -0.8187,-5.16919 -1.3546,-5.0552 -1.8755,-4.886 -2.376,-4.6632 -2.8505,-4.3893 -3.2936,-4.0672 -3.7007,-3.7007 -4.0672,-3.2936 -4.3893,-2.8505 -4.6632,-2.376 -4.886,-1.8755 -5.0552,-1.3546 L 5.22641,-49.7261 0,-50 l -5.22641,0.2739 -5.16919,0.8187 -5.0552,1.3546 -4.886,1.8755 -4.6632,2.376 -4.3893,2.8505 -4.0672,3.2936 -3.7007,3.7007 -3.2936,4.0672 -2.8505,4.3893 -2.376,4.6632 -1.8755,4.886 -1.3546,5.0552 -0.8187,5.16919 L -50,0 l 0.2739,5.22641 0.8187,5.16919 1.3546,5.0552 1.8755,4.886 2.376,4.6632 2.8505,4.3893 3.2936,4.0672 3.7007,3.7007 4.0672,3.2936 4.3893,2.8505 4.6632,2.376 4.886,1.8755 5.0552,1.3546 5.16919,0.8187 L 0,50 Z"
     id="path2218" />
  <path
     style="stroke:#ff0000;fill:none;stroke-width:0.1;stroke-miterlimit:4;stroke-dasharray:none"
     d="m -13.2161,-35.7842 -0.0409,-0.0073 -0.04,-0.0114 -0.0385,-0.0156 -0.0367,-0.0195 -0.0344,-0.0232 -0.0318,-0.0267 -0.0289,-0.0299 -0.0256,-0.0327 -0.022,-0.0352 -0.0182,-0.0374 -0.0142,-0.039 -0.01,-0.0403 -0.0058,-0.0412 -0.0015,-0.0415 0.0029,-0.0414 0.0072,-0.0409 0.0115,-0.04 0.0155,-0.0385 0.9829,-1.8484 1.1706,-1.7355 1.3456,-1.6037 1.50591,-1.4542 1.64966,-1.2888 1.77534,-1.1094 1.88156,-0.9177 0.8488,-0.3089 0.01682,-0.0147 0.03404,-0.0238 0.03633,-0.0201 0.03824,-0.0163 0.03973,-0.0121 0.04076,-0.0079 0.0414,-0.0037 0.04153,8e-4 0.04123,0.005 0.04047,0.0094 0.03929,0.0135 0.03764,0.0176 0.03562,0.0214 0.03317,0.025 0.03038,0.0283 0.02725,0.0313 0.02384,0.0341 0.02012,0.0363 0.01625,0.0382 0.01213,0.0398 0.00795,0.0407 0.00362,0.0414 -7.3e-4,0.0416 -0.00507,0.0412 -0.00935,0.0405 -0.01352,0.0393 -0.01755,0.0376 -0.02141,0.0356 -0.02499,0.0332 -0.02834,0.0304 -0.03134,0.0272 -0.03403,0.0239 -0.03634,0.0201 -0.03822,0.0162 0.00898,0.0248 -0.94455,0.3437 -1.8069,0.8813 -1.70486,1.0654 -1.5842,1.2377 -1.44612,1.3965 -1.29224,1.54 -1.1242,1.6666 -0.9633,1.8117 -0.0232,0.0345 -0.0267,0.0318 -0.0299,0.0289 -0.0327,0.0255 -0.0353,0.0221 -0.0373,0.0182 -0.039,0.0142 -0.0403,0.01 -0.0412,0.0058 -0.0415,0.0014 z"
     id="path2216" />
  <path
     style="stroke:#ff0000;fill:none;stroke-width:0.1;stroke-miterlimit:4;stroke-dasharray:none"
     d="m -6.72002,-37.5197 -0.04115,-0.0058 -0.0403,-0.0101 -0.03905,-0.0142 -0.03733,-0.0182 -0.03522,-0.022 -0.03275,-0.0256 -0.02987,-0.0288 -0.02671,-0.0318 -0.02322,-0.0345 -0.0195,-0.0367 -0.01558,-0.0385 -0.01144,-0.0399 -0.00721,-0.0409 -0.00291,-0.0415 0.00146,-0.0415 0.00577,-0.0411 0.01006,-0.0403 0.0142,-0.0391 0.01822,-0.0373 0.02201,-0.0352 1.28885,-1.6497 1.45422,-1.5059 1.60367,-1.3456 1.735532,-1.1706 1.848388,-0.9828 1.94099,-0.7843 2.01235,-0.577 0.88954,-0.1568 0.0191,-0.0115 0.03766,-0.0176 0.03928,-0.0135 0.04048,-0.0094 0.04123,-0.005 0.04152,-7e-4 0.0414,0.0036 0.04077,0.0079 0.03973,0.0122 0.03824,0.0162 0.03633,0.0201 0.03403,0.0239 0.03136,0.0272 0.02833,0.0304 0.02499,0.0332 0.0214,0.0356 0.01756,0.0376 0.01352,0.0393 0.00935,0.0405 0.00505,0.0412 7.4e-4,0.0416 -0.00362,0.0413 -0.00793,0.0408 -0.01215,0.0397 -0.01624,0.0383 -0.02014,0.0363 -0.02382,0.034 -0.02726,0.0314 -0.03038,0.0283 -0.03316,0.025 -0.03562,0.0214 -0.03764,0.0176 -0.03929,0.0135 -0.04047,0.0094 0.00457,0.0259 -0.9899,0.1745 -1.93248,0.5541 -1.86397,0.7531 -1.775025,0.9438 -1.666655,1.1242 -1.54003,1.2922 -1.39649,1.4462 -1.26328,1.6169 -0.02885,0.0299 -0.03183,0.0267 -0.03444,0.0232 -0.03669,0.0195 -0.03851,0.0156 -0.03993,0.0114 -0.04091,0.0072 -0.04144,0.0029 z"
     id="path2214" />
  <path
     style="stroke:#ff0000;fill:none;stroke-width:0.1;stroke-miterlimit:4;stroke-dasharray:none"
     d="m -19.3121,-32.95 -0.0406,-0.0086 -0.0395,-0.0129 -0.038,-0.0169 -0.0359,-0.0207 -0.0336,-0.0245 -0.0309,-0.0278 -0.0278,-0.0308 -0.0244,-0.0336 -0.0208,-0.036 -0.0169,-0.0379 -0.0128,-0.0396 -0.0087,-0.0406 -0.0043,-0.0413 v -0.0415 l 0.0043,-0.0414 0.0087,-0.0406 0.6469,-1.991 0.8515,-1.9124 1.0467,-1.813 1.2305,-1.6936 1.4007,-1.5557 1.5558,-1.4008 1.6936,-1.2305 0.7822,-0.4516 0.0141,-0.0174 0.0294,-0.0293 0.0322,-0.0262 0.0349,-0.0226 0.037,-0.0189 0.0388,-0.0148 0.0401,-0.0108 0.041,-0.0065 0.0415,-0.0022 0.0415,0.0022 0.041,0.0065 0.04016,0.0107 0.03878,0.0149 0.03701,0.0189 0.03485,0.0226 0.03227,0.0262 0.02937,0.0293 0.02614,0.0323 0.02265,0.0349 0.01884,0.037 0.01491,0.0387 0.01074,0.0402 0.0065,0.041 0.00217,0.0415 -0.00218,0.0415 -0.00649,0.041 -0.01076,0.0401 -0.01489,0.0388 -0.01886,0.037 -0.02261,0.0349 -0.02614,0.0323 -0.02937,0.0293 -0.03231,0.0262 -0.03482,0.0226 0.01315,0.0228 -0.87051,0.5026 -1.6264,1.1816 -1.494,1.3452 -1.3452,1.494 -1.1816,1.6264 -1.0052,1.7411 -0.8177,1.8365 -0.6341,1.9514 -0.0169,0.038 -0.0207,0.036 -0.0245,0.0336 -0.0277,0.0309 -0.0309,0.0278 -0.0336,0.0244 -0.036,0.0207 -0.038,0.0169 -0.0395,0.0129 -0.0406,0.0086 -0.0413,0.0044 h -0.0416 z"
     id="path2212" />
  <path
     style="stroke:#ff0000;fill:none;stroke-width:0.1;stroke-miterlimit:4;stroke-dasharray:none"
     d="m -0.020752,-38.1037 -0.0413208,-0.0043 -0.0406192,-0.0086 -0.03952,-0.0129 -0.037933,-0.0169 -0.035996,-0.0207 -0.0336,-0.0245 -0.030868,-0.0278 -0.027817,-0.0308 -0.024414,-0.0336 -0.020752,-0.036 -0.016907,-0.038 -0.012832,-0.0395 -0.008637,-0.0406 -0.004349,-0.0413 v -0.0416 l 0.004349,-0.0413 0.008637,-0.0406 0.012832,-0.0395 0.016907,-0.038 0.020767,-0.0359 0.024414,-0.0337 0.027787,-0.0308 1.555714,-1.4008 1.69363,-1.2305 1.81297,-1.0467 1.91245,-0.8515 1.99098,-0.6469 2.04768,-0.4352 2.082,-0.2189 h 0.9032 l 0.0208,-0.008 0.0402,-0.0107 0.041,-0.0065 0.0415,-0.0022 0.0415,0.0022 0.041,0.0065 0.0401,0.0107 0.0388,0.0149 0.037,0.0189 0.0349,0.0226 0.0323,0.0262 0.0293,0.0293 0.0262,0.0323 0.0226,0.0349 0.0189,0.037 0.0149,0.0387 0.0107,0.0402 0.0065,0.041 0.0022,0.0415 -0.0022,0.0415 -0.0065,0.041 -0.0107,0.0401 -0.0149,0.0388 -0.0189,0.037 -0.0226,0.0349 -0.0262,0.0323 -0.0293,0.0293 -0.0323,0.0262 -0.0349,0.0226 -0.037,0.0189 -0.0388,0.0148 -0.0401,0.0108 -0.041,0.0065 -0.0415,0.0022 v 0.0263 h -1.0052 l -1.9993,0.2101 -1.96644,0.418 -1.91197,0.6212 -1.83656,0.8177 -1.74101,1.0052 -1.62641,1.1817 -1.524839,1.3729 -0.033615,0.0245 -0.03598,0.0207 -0.037949,0.0169 -0.039505,0.0129 -0.0406492,0.0086 -0.0412903,0.0043 z"
     id="path2210" />
  <path
     style="stroke:#ff0000;fill:none;stroke-width:0.1;stroke-miterlimit:4;stroke-dasharray:none"
     d="m -24.7819,-29.0974 -0.0411,-0.0057 -0.0403,-0.0101 -0.0391,-0.0142 -0.0373,-0.0182 -0.0352,-0.022 -0.0328,-0.0256 -0.0299,-0.0288 -0.0267,-0.0319 -0.0232,-0.0344 -0.0195,-0.0367 -0.0156,-0.0385 -0.0114,-0.0399 -0.0072,-0.041 -0.0029,-0.0414 0.0014,-0.0415 0.2914,-2.073 0.5064,-2.0313 0.716,-1.9672 0.9177,-1.8816 1.1094,-1.7753 1.2888,-1.6496 1.4543,-1.5059 0.6919,-0.5806 0.0108,-0.0196 0.0238,-0.034 0.0273,-0.0313 0.0304,-0.0284 0.0331,-0.025 0.0356,-0.0213 0.0377,-0.0176 0.0393,-0.0135 0.0404,-0.0094 0.0413,-0.005 0.0415,-8e-4 0.0414,0.0037 0.0408,0.0079 0.0397,0.0121 0.0383,0.0163 0.0363,0.0201 0.034,0.0238 0.0314,0.0273 0.0283,0.0303 0.025,0.0332 0.0214,0.0356 0.0176,0.0377 0.0135,0.0393 0.0093,0.0405 0.0051,0.0412 7e-4,0.0415 -0.0036,0.0414 -0.0079,0.0408 -0.0122,0.0397 -0.0162,0.0382 -0.0201,0.0364 -0.0239,0.034 -0.0272,0.0314 -0.0304,0.0283 0.0169,0.0201 -0.77,0.6462 -1.3965,1.4461 -1.2377,1.5842 -1.0654,1.7049 -0.8812,1.8068 -0.6876,1.8892 -0.4864,1.9506 -0.2855,2.0319 -0.0101,0.0403 -0.0142,0.0391 -0.0182,0.0373 -0.022,0.0352 -0.0256,0.0328 -0.0288,0.0298 -0.0319,0.0267 -0.0344,0.0233 -0.0367,0.0195 -0.0385,0.0155 -0.0399,0.0115 -0.0409,0.0072 -0.0415,0.0029 z"
     id="path2208" />
  <path
     style="stroke:#ff0000;fill:none;stroke-width:0.1;stroke-miterlimit:4;stroke-dasharray:none"
     d="M 6.6371,-37.5212 6.59619,-37.5284 6.55624,-37.5398 6.51773,-37.5554 6.48106,-37.5749 6.44662,-37.5981 6.41479,-37.6248 6.38593,-37.6547 6.36035,-37.6875 6.33833,-37.7227 6.32013,-37.76 6.30592,-37.7991 6.29588,-37.8394 6.2901,-37.8805 6.28864,-37.922 l 0.00291,-0.0415 0.0072,-0.0409 0.01145,-0.0399 0.01558,-0.0385 0.01948,-0.0367 0.02324,-0.0344 0.0267,-0.0319 0.02989,-0.0288 0.03272,-0.0256 1.77533,-1.1093 1.88156,-0.9177 1.9672,-0.716 2.0312,-0.5065 2.0731,-0.2913 2.0922,-0.0731 2.0883,0.146 0.8896,0.1569 0.0219,-0.0043 0.0413,-0.0036 0.0416,8e-4 0.0412,0.005 0.0405,0.0094 0.0392,0.0135 0.0377,0.0175 0.0356,0.0214 0.0332,0.025 0.0304,0.0284 0.0272,0.0313 0.0239,0.034 0.0201,0.0364 0.0162,0.0382 0.0122,0.0397 0.0079,0.0408 0.0036,0.0414 -7e-4,0.0415 -0.0051,0.0413 -0.0093,0.0404 -0.0135,0.0393 -0.0176,0.0377 -0.0214,0.0356 -0.025,0.0332 -0.0283,0.0303 -0.0314,0.0273 -0.034,0.0238 -0.0363,0.0202 -0.0383,0.0162 -0.0397,0.0121 -0.0408,0.008 -0.0414,0.0036 -0.0415,-8e-4 -0.0412,-0.005 -0.0046,0.0259 -0.9899,-0.1745 -2.0055,-0.1403 -2.0091,0.0702 -1.9908,0.2798 -1.9506,0.4863 -1.8891,0.6876 -1.80693,0.8813 -1.7401,1.0873 -0.03734,0.0182 -0.03903,0.0142 -0.04032,0.0101 -0.04113,0.0058 -0.04152,0.0014 z"
     id="path2206" />
  <path
     style="stroke:#ff0000;fill:none;stroke-width:0.1;stroke-miterlimit:4;stroke-dasharray:none"
     d="m -29.5411,-24.3534 -0.0409,-0.0072 -0.0399,-0.0115 -0.0385,-0.0155 -0.0367,-0.0195 -0.0345,-0.0233 -0.0318,-0.0267 -0.0288,-0.0298 -0.0256,-0.0328 -0.022,-0.0352 -0.0182,-0.0374 -0.0142,-0.039 -0.0101,-0.0403 -0.0058,-0.0411 -0.073,-2.0922 0.146,-2.0883 0.3635,-2.0616 0.5771,-2.0124 0.7842,-1.941 0.9828,-1.8484 1.1706,-1.7355 0.5806,-0.692 0.0073,-0.0211 0.0175,-0.0376 0.0214,-0.0356 0.025,-0.0332 0.0284,-0.0304 0.0313,-0.0272 0.0341,-0.0239 0.0363,-0.0201 0.0382,-0.0162 0.0398,-0.0122 0.0407,-0.0079 0.0414,-0.0036 0.0416,7e-4 0.0412,0.0051 0.0405,0.0093 0.0392,0.0135 0.0377,0.0176 0.0356,0.0214 0.0332,0.025 0.0304,0.0283 0.0272,0.0314 0.0238,0.034 0.0202,0.0363 0.0162,0.0383 0.0122,0.0397 0.0079,0.0408 0.0036,0.0414 -7e-4,0.0415 -0.0051,0.0412 -0.0093,0.0405 -0.0136,0.0393 -0.0175,0.0376 -0.0214,0.0357 -0.025,0.0331 0.0202,0.0169 -0.6461,0.77 -1.1242,1.6667 -0.9438,1.775 -0.7531,1.864 -0.5542,1.9325 -0.3491,1.9798 -0.1402,2.0055 0.0716,2.0506 -0.0029,0.0414 -0.0072,0.0409 -0.0114,0.04 -0.0156,0.0385 -0.0195,0.0367 -0.0232,0.0344 -0.0267,0.0318 -0.0299,0.0289 -0.0328,0.0256 -0.0352,0.022 -0.0373,0.0182 -0.0391,0.0142 -0.0403,0.0101 -0.0411,0.0057 -0.0415,0.0015 z"
     id="path2204" />
  <path
     style="stroke:#ff0000;fill:none;stroke-width:0.1;stroke-miterlimit:4;stroke-dasharray:none"
     d="m 13.1332,-35.7828 -0.0412,-0.0058 -0.0403,-0.01 -0.039,-0.0142 -0.0373,-0.0182 -0.0353,-0.0221 -0.0327,-0.0255 -0.0299,-0.0289 -0.0267,-0.0318 -0.0232,-0.0344 -0.0195,-0.0367 -0.0156,-0.0386 -0.0114,-0.0399 -0.0072,-0.0409 -0.0029,-0.0414 0.0014,-0.0416 0.0058,-0.0411 0.0101,-0.0403 0.0142,-0.039 0.0182,-0.0374 0.022,-0.0352 0.0255,-0.0327 0.0289,-0.0299 0.0318,-0.0267 0.0345,-0.0232 0.0366,-0.0195 1.941,-0.7843 2.0124,-0.577 2.0616,-0.3635 2.0883,-0.146 2.0922,0.073 2.0731,0.2914 2.0312,0.5064 0.8488,0.309 0.0223,-4e-4 0.0414,0.0036 0.0408,0.0079 0.0397,0.0121 0.0382,0.0163 0.0364,0.0201 0.034,0.0239 0.0314,0.0272 0.0283,0.0304 0.025,0.0332 0.0214,0.0356 0.0175,0.0376 0.0136,0.0393 0.0093,0.0405 0.0051,0.0412 7e-4,0.0415 -0.0036,0.0414 -0.008,0.0408 -0.0121,0.0397 -0.0162,0.0383 -0.0202,0.0363 -0.0238,0.034 -0.0272,0.0314 -0.0304,0.0283 -0.0332,0.025 -0.0356,0.0214 -0.0377,0.0176 -0.0393,0.0135 -0.0404,0.0093 -0.0412,0.0051 -0.0416,7e-4 -0.0414,-0.0036 -0.0407,-0.0079 -0.0398,-0.0121 -0.009,0.0247 -0.9445,-0.3438 -1.9507,-0.4864 -1.9908,-0.2797 -2.0091,-0.0702 -2.0055,0.1402 -1.9798,0.3491 -1.9324,0.5542 -1.9025,0.7686 -0.04,0.0114 -0.0409,0.0073 -0.0414,0.0029 z"
     id="path2202" />
  <path
     style="stroke:#ff0000;fill:none;stroke-width:0.1;stroke-miterlimit:4;stroke-dasharray:none"
     d="M -3.65849,34.8083 -7.2769,34.2352 -10.8156,33.287 -14.2358,31.9741 -17.5,30.3109 -20.5725,28.3156 -23.4196,26.0101 -26.0101,23.4196 -28.3156,20.5725 -30.3109,17.5 -31.9741,14.2358 -33.287,10.8156 -34.2352,7.2769 -34.8083,3.65849 -35,0 l 0.1917,-3.65849 0.5731,-3.61841 0.9482,-3.5387 1.3129,-3.4202 1.6632,-3.2642 1.9953,-3.0725 2.3055,-2.8471 2.5905,-2.5905 2.8471,-2.3055 3.0725,-1.9953 3.2642,-1.6632 3.4202,-1.3129 3.5387,-0.9482 3.61841,-0.5731 L 0,-35 l 3.65849,0.1917 3.61841,0.5731 3.5387,0.9482 3.4202,1.3129 3.2642,1.6632 3.0725,1.9953 2.8471,2.3055 2.5905,2.5905 2.3055,2.8471 1.9953,3.0725 1.6632,3.2642 1.3129,3.4202 0.9482,3.5387 0.5731,3.61841 L 35,0 34.8083,3.65849 34.2352,7.2769 33.287,10.8156 31.9741,14.2358 30.3109,17.5 28.3156,20.5725 26.0101,23.4196 23.4196,26.0101 20.5725,28.3156 17.5,30.3109 14.2358,31.9741 10.8156,33.287 7.2769,34.2352 3.65849,34.8083 0,35 Z"
     id="path2200" />
  <path
     style="stroke:#ff0000;fill:none;stroke-width:0.1;stroke-miterlimit:4;stroke-dasharray:none"
     d="m -33.3627,-18.8537 -0.0414,-0.0043 -0.0406,-0.0087 -0.0395,-0.0128 -0.038,-0.0169 -0.0359,-0.0208 -0.0336,-0.0244 -0.0309,-0.0278 -0.0278,-0.0308 -0.0244,-0.0336 -0.0208,-0.036 -0.0169,-0.038 -0.0128,-0.0395 -0.4353,-2.0477 -0.2188,-2.0819 v -2.0935 l 0.2188,-2.0819 0.4353,-2.0477 0.6469,-1.991 0.8515,-1.9125 0.4516,-0.7822 0.0035,-0.022 0.0108,-0.0402 0.0148,-0.0387 0.0189,-0.0371 0.0226,-0.0348 0.0262,-0.0323 0.0293,-0.0294 0.0323,-0.0261 0.0349,-0.0226 0.037,-0.0189 0.0388,-0.0149 0.0401,-0.0107 0.041,-0.0065 0.0415,-0.0022 0.0415,0.0022 0.041,0.0065 0.0401,0.0107 0.0388,0.0149 0.037,0.0189 0.0349,0.0226 0.0323,0.0261 0.0293,0.0294 0.0262,0.0323 0.0226,0.0348 0.0189,0.0371 0.0149,0.0388 0.0107,0.0401 0.0065,0.041 0.0022,0.0415 -0.0022,0.0415 -0.0065,0.041 -0.0107,0.0401 -0.0149,0.0388 -0.0189,0.037 0.0228,0.0132 -0.5026,0.8705 -0.8177,1.8366 -0.6212,1.9119 -0.418,1.9664 -0.2101,1.9994 v 2.0103 l 0.2101,1.9994 0.4266,2.007 0.0044,0.0413 v 0.0416 l -0.0044,0.0413 -0.0086,0.0406 -0.0129,0.0395 -0.0168,0.038 -0.0208,0.0359 -0.0244,0.0337 -0.0278,0.0308 -0.0309,0.0278 -0.0336,0.0244 -0.036,0.0208 -0.0379,0.0169 -0.0395,0.0128 -0.0407,0.0087 -0.0413,0.0043 z"
     id="path2198" />
  <path
     style="stroke:#ff0000;fill:none;stroke-width:0.1;stroke-miterlimit:4;stroke-dasharray:none"
     d="m 34.0837,-30.9889 -0.041,-0.0065 -0.0401,-0.0107 -0.0388,-0.0149 -0.037,-0.0189 -0.0132,0.0228 -0.8705,-0.5026 -1.8366,-0.8177 -1.9119,-0.6212 -1.9664,-0.418 -1.9994,-0.2101 h -2.0103 l -1.9994,0.2101 -2.007,0.4266 -0.0413,0.0044 h -0.0416 l -0.0413,-0.0044 -0.0406,-0.0086 -0.0395,-0.0129 -0.038,-0.0168 -0.0359,-0.0208 -0.0337,-0.0244 -0.0308,-0.0278 -0.0278,-0.0309 -0.0244,-0.0336 -0.0208,-0.036 -0.0169,-0.0379 -0.0128,-0.0395 -0.0087,-0.0407 -0.0043,-0.0413 v -0.0415 l 0.0043,-0.0414 0.0087,-0.0406 0.0128,-0.0395 0.0169,-0.038 0.0208,-0.0359 0.0244,-0.0336 0.0278,-0.0309 0.0308,-0.0278 0.0336,-0.0244 0.036,-0.0208 0.038,-0.0169 0.0395,-0.0128 2.0477,-0.4353 2.0819,-0.2188 h 2.0935 l 2.0819,0.2188 2.0477,0.4353 1.991,0.6469 1.9125,0.8515 0.7822,0.4516 0.022,0.0035 0.0402,0.0108 0.0387,0.0148 0.0371,0.0189 0.0348,0.0226 0.0323,0.0262 0.0294,0.0293 0.0261,0.0323 0.0226,0.0349 0.0189,0.037 0.0149,0.0388 0.0107,0.0401 0.0065,0.041 0.0022,0.0415 -0.0022,0.0415 -0.0065,0.041 -0.0107,0.0401 -0.0149,0.0388 -0.0189,0.037 -0.0226,0.0349 -0.0261,0.0323 -0.0294,0.0293 -0.0323,0.0262 -0.0348,0.0226 -0.0371,0.0189 -0.0388,0.0149 -0.0401,0.0107 -0.041,0.0065 -0.0415,0.0022 z"
     id="path2196" />
  <path
     style="stroke:#ff0000;fill:none;stroke-width:0.1;stroke-miterlimit:4;stroke-dasharray:none"
     d="m 39.0288,-24.5851 -0.0412,-0.0051 -0.0405,-0.0093 -0.0393,-0.0136 -0.0376,-0.0175 -0.0357,-0.0214 -0.0331,-0.025 -0.0169,0.0202 -0.77,-0.6461 -1.6667,-1.1242 -1.775,-0.9438 -1.864,-0.7531 -1.9325,-0.5542 -1.9798,-0.3491 -2.0055,-0.1402 -2.0506,0.0716 -0.0414,-0.0029 -0.0409,-0.0072 -0.04,-0.0114 -0.0385,-0.0156 -0.0367,-0.0195 -0.0344,-0.0232 -0.0318,-0.0267 -0.0289,-0.0299 -0.0256,-0.0328 -0.022,-0.0352 -0.0182,-0.0373 -0.0142,-0.0391 -0.0101,-0.0403 -0.0057,-0.0411 -0.0015,-0.0415 0.0029,-0.0415 0.0072,-0.0409 0.0115,-0.0399 0.0155,-0.0385 0.0195,-0.0367 0.0233,-0.0345 0.0267,-0.0318 0.0298,-0.0288 0.0328,-0.0256 0.0352,-0.022 0.0374,-0.0182 0.039,-0.0142 0.0403,-0.0101 0.0411,-0.0058 2.0922,-0.073 2.0883,0.146 2.0616,0.3635 2.0124,0.5771 1.941,0.7842 1.8484,0.9828 1.7355,1.1706 0.692,0.5806 0.0211,0.0073 0.0376,0.0175 0.0356,0.0214 0.0332,0.025 0.0304,0.0284 0.0272,0.0313 0.0239,0.0341 0.0201,0.0363 0.0162,0.0382 0.0122,0.0398 0.0079,0.0407 0.0036,0.0414 -7e-4,0.0416 -0.0051,0.0412 -0.0093,0.0405 -0.0135,0.0392 -0.0176,0.0377 -0.0214,0.0356 -0.025,0.0332 -0.0283,0.0304 -0.0314,0.0272 -0.034,0.0238 -0.0363,0.0202 -0.0383,0.0162 -0.0397,0.0122 -0.0408,0.0079 -0.0414,0.0036 z"
     id="path2194" />
  <path
     style="stroke:#ff0000;fill:none;stroke-width:0.1;stroke-miterlimit:4;stroke-dasharray:none"
     d="m -36.2128,-12.7724 -0.0411,-0.0058 -0.0403,-0.0101 -0.039,-0.0142 -0.0374,-0.0182 -0.0352,-0.022 -0.0327,-0.0255 -0.0299,-0.0289 -0.0267,-0.0318 -0.0232,-0.0345 -0.0195,-0.0366 -0.7843,-1.941 -0.577,-2.0124 -0.3635,-2.0616 -0.146,-2.0883 0.073,-2.0922 0.2914,-2.0731 0.5064,-2.0312 0.309,-0.8488 -4e-4,-0.0223 0.0036,-0.0414 0.0079,-0.0408 0.0121,-0.0397 0.0163,-0.0382 0.0201,-0.0364 0.0239,-0.034 0.0272,-0.0314 0.0304,-0.0283 0.0332,-0.025 0.0356,-0.0214 0.0376,-0.0175 0.0393,-0.0136 0.0405,-0.0093 0.0412,-0.0051 0.0415,-7e-4 0.0414,0.0036 0.0408,0.008 0.0397,0.0121 0.0383,0.0162 0.0363,0.0202 0.034,0.0238 0.0314,0.0272 0.0283,0.0304 0.025,0.0332 0.0214,0.0356 0.0176,0.0377 0.0135,0.0393 0.0093,0.0404 0.0051,0.0412 7e-4,0.0416 -0.0036,0.0414 -0.0079,0.0407 -0.0121,0.0398 0.0247,0.009 -0.3438,0.9445 -0.4864,1.9507 -0.2797,1.9908 -0.0702,2.0091 0.1402,2.0055 0.3491,1.9798 0.5542,1.9324 0.7686,1.9025 0.0114,0.04 0.0073,0.0409 0.0029,0.0414 -0.0015,0.0415 -0.0058,0.0412 -0.01,0.0403 -0.0142,0.039 -0.0182,0.0373 -0.0221,0.0353 -0.0255,0.0327 -0.0289,0.0299 -0.0318,0.0267 -0.0344,0.0232 -0.0367,0.0195 -0.0386,0.0156 -0.0399,0.0114 -0.0409,0.0072 -0.0414,0.0029 z"
     id="path2192" />
  <path
     style="stroke:#ff0000;fill:none;stroke-width:0.1;stroke-miterlimit:4;stroke-dasharray:none"
     d="m 42.7458,-17.4264 -0.0408,-0.0079 -0.0397,-0.0122 -0.0382,-0.0162 -0.0364,-0.0201 -0.034,-0.0239 -0.0314,-0.0272 -0.0283,-0.0304 -0.0201,0.0169 -0.6462,-0.77 -1.4461,-1.3965 -1.5842,-1.2377 -1.7049,-1.0654 -1.8068,-0.8812 -1.8892,-0.6876 -1.9506,-0.4864 -2.0319,-0.2855 -0.0403,-0.0101 -0.0391,-0.0142 -0.0373,-0.0182 -0.0352,-0.022 -0.0328,-0.0256 -0.0298,-0.0288 -0.0267,-0.0319 -0.0233,-0.0344 -0.0195,-0.0367 -0.0155,-0.0385 -0.0115,-0.0399 -0.0072,-0.0409 -0.0029,-0.0415 0.0015,-0.0415 0.0057,-0.0411 0.0101,-0.0403 0.0142,-0.0391 0.0182,-0.0373 0.022,-0.0352 0.0256,-0.0328 0.0288,-0.0299 0.0319,-0.0267 0.0344,-0.0232 0.0367,-0.0195 0.0385,-0.0156 0.0399,-0.0114 0.041,-0.0072 0.0414,-0.0029 0.0415,0.0014 2.073,0.2914 2.0313,0.5064 1.9672,0.716 1.8816,0.9177 1.7753,1.1094 1.6496,1.2888 1.5059,1.4543 0.5806,0.6919 0.0196,0.0108 0.034,0.0238 0.0313,0.0273 0.0284,0.0304 0.025,0.0331 0.0213,0.0356 0.0176,0.0377 0.0135,0.0393 0.0094,0.0404 0.005,0.0413 8e-4,0.0415 -0.0037,0.0414 -0.0079,0.0408 -0.0121,0.0397 -0.0163,0.0383 -0.0201,0.0363 -0.0238,0.034 -0.0273,0.0314 -0.0303,0.0283 -0.0332,0.025 -0.0356,0.0214 -0.0377,0.0176 -0.0393,0.0135 -0.0405,0.0093 -0.0412,0.0051 -0.0415,7e-4 z"
     id="path2190" />
  <path
     style="stroke:#ff0000;fill:none;stroke-width:0.1;stroke-miterlimit:4;stroke-dasharray:none"
     d="m -37.9635,-6.29155 -0.0409,-0.0072 -0.0399,-0.01145 -0.0385,-0.01558 -0.0367,-0.01948 -0.0344,-0.02324 -0.0319,-0.0267 -0.0288,-0.02989 -0.0256,-0.03272 -1.1093,-1.77533 -0.9177,-1.88156 -0.716,-1.9672 -0.5065,-2.0312 -0.2913,-2.0731 -0.0731,-2.0922 0.146,-2.0883 0.1569,-0.8896 -0.0043,-0.0219 -0.0036,-0.0413 8e-4,-0.0416 0.005,-0.0412 0.0094,-0.0405 0.0135,-0.0392 0.0175,-0.0377 0.0214,-0.0356 0.025,-0.0332 0.0284,-0.0304 0.0313,-0.0272 0.034,-0.0239 0.0364,-0.0201 0.0382,-0.0162 0.0397,-0.0122 0.0408,-0.0079 0.0414,-0.0036 0.0415,7e-4 0.0413,0.0051 0.0404,0.0093 0.0393,0.0135 0.0377,0.0176 0.0356,0.0214 0.0332,0.025 0.0303,0.0283 0.0273,0.0314 0.0238,0.034 0.0202,0.0363 0.0162,0.0383 0.0121,0.0397 0.008,0.0408 0.0036,0.0414 -8e-4,0.0415 -0.005,0.0412 0.0259,0.0046 -0.1745,0.9899 -0.1403,2.0055 0.0702,2.0091 0.2798,1.9908 0.4863,1.9506 0.6876,1.8891 0.8813,1.80693 1.0873,1.7401 0.0182,0.03734 0.0142,0.03903 0.0101,0.04032 0.0058,0.04113 0.0014,0.04152 -0.0029,0.04143 -0.0072,0.04091 -0.0114,0.03995 -0.0156,0.03851 -0.0195,0.03667 -0.0232,0.03444 -0.0267,0.03183 -0.0299,0.02886 -0.0328,0.02558 -0.0352,0.02202 -0.0373,0.0182 -0.0391,0.01421 -0.0403,0.01004 -0.0411,0.00578 -0.0415,0.00146 z"
     id="path2188" />
  <path
     style="stroke:#ff0000;fill:none;stroke-width:0.1;stroke-miterlimit:4;stroke-dasharray:none"
     d="m 45.2036,-9.72169 -0.041,-0.00649 -0.0401,-0.01076 -0.0388,-0.01489 -0.037,-0.01886 -0.0349,-0.02261 -0.0323,-0.02614 -0.0293,-0.02937 -0.0262,-0.03231 -0.0226,-0.03482 -0.0228,0.01315 -0.5026,-0.87051 -1.1816,-1.6264 -1.3452,-1.494 -1.494,-1.3452 -1.6264,-1.1816 -1.7411,-1.0052 -1.8365,-0.8177 -1.9514,-0.6341 -0.038,-0.0169 -0.036,-0.0207 -0.0336,-0.0245 -0.0309,-0.0277 -0.0278,-0.0309 -0.0244,-0.0336 -0.0207,-0.036 -0.0169,-0.038 -0.0129,-0.0395 -0.0086,-0.0406 -0.0044,-0.0413 v -0.0416 l 0.0044,-0.0413 0.0086,-0.0406 0.0129,-0.0395 0.0169,-0.038 0.0207,-0.0359 0.0245,-0.0336 0.0278,-0.0309 0.0308,-0.0278 0.0336,-0.0244 0.036,-0.0208 0.0379,-0.0169 0.0396,-0.0128 0.0406,-0.0087 0.0413,-0.0043 h 0.0415 l 0.0414,0.0043 0.0406,0.0087 1.991,0.6469 1.9124,0.8515 1.813,1.0467 1.6936,1.2305 1.5557,1.4007 1.4008,1.5558 1.2305,1.6936 0.4516,0.7822 0.0174,0.0141 0.0293,0.0294 0.0262,0.0322 0.0226,0.0349 0.0189,0.037 0.0148,0.0388 0.0108,0.0401 0.0065,0.041 0.0022,0.0415 -0.0022,0.0415 -0.0065,0.041 -0.0107,0.04016 -0.0149,0.03878 -0.0189,0.03701 -0.0226,0.03485 -0.0262,0.03227 -0.0293,0.02937 -0.0323,0.02614 -0.0349,0.02265 -0.037,0.01884 -0.0387,0.01491 -0.0402,0.01074 -0.041,0.0065 -0.0415,0.00217 z"
     id="path2186" />
  <path
     style="stroke:#ff0000;fill:none;stroke-width:0.1;stroke-miterlimit:4;stroke-dasharray:none"
     d="m -38.5208,0.396317 -0.0413,-0.004349 -0.0406,-0.008637 -0.0395,-0.012832 -0.038,-0.016907 -0.0359,-0.020767 -0.0337,-0.024414 -0.0308,-0.027787 -1.4008,-1.555714 -1.2305,-1.69363 -1.0467,-1.81297 -0.8515,-1.91245 -0.6469,-1.99098 -0.4352,-2.04768 -0.2189,-2.082 v -0.9032 l -0.008,-0.0208 -0.0107,-0.0402 -0.0065,-0.041 -0.0022,-0.0415 0.0022,-0.0415 0.0065,-0.041 0.0107,-0.0401 0.0149,-0.0388 0.0189,-0.037 0.0226,-0.0349 0.0262,-0.0323 0.0293,-0.0293 0.0323,-0.0262 0.0349,-0.0226 0.037,-0.0189 0.0387,-0.0149 0.0402,-0.0107 0.041,-0.0065 0.0415,-0.0022 0.0415,0.0022 0.041,0.0065 0.0401,0.0107 0.0388,0.0149 0.037,0.0189 0.0349,0.0226 0.0323,0.0262 0.0293,0.0293 0.0262,0.0323 0.0226,0.0349 0.0189,0.037 0.0148,0.0388 0.0108,0.0401 0.0065,0.041 0.0022,0.0415 h 0.0263 v 1.0052 l 0.2101,1.9993 0.418,1.96644 0.6212,1.91197 0.8177,1.83656 1.0052,1.74101 1.1817,1.62641 1.3729,1.524839 0.0245,0.033615 0.0207,0.03598 0.0169,0.037949 0.0129,0.039505 0.0086,0.0406492 0.0043,0.0412903 V 0.020752 l -0.0043,0.0413208 -0.0086,0.0406192 -0.0129,0.03952 -0.0169,0.037933 -0.0207,0.035996 -0.0245,0.0336 -0.0278,0.030868 -0.0308,0.027817 -0.0336,0.024414 -0.036,0.020752 -0.038,0.016907 -0.0395,0.012832 -0.0406,0.008637 -0.0413,0.004349 z"
     id="path2184" />
  <path
     style="stroke:#ff0000;fill:none;stroke-width:0.1;stroke-miterlimit:4;stroke-dasharray:none"
     d="m 46.2867,-1.71005 -0.0412,-0.00507 -0.0405,-0.00935 -0.0393,-0.01352 -0.0376,-0.01755 -0.0356,-0.02141 -0.0332,-0.02499 -0.0304,-0.02834 -0.0272,-0.03134 -0.0239,-0.03403 -0.0201,-0.03634 -0.0162,-0.03822 -0.0248,0.00898 -0.3437,-0.94455 -0.8813,-1.8069 -1.0654,-1.70486 -1.2377,-1.5842 -1.3965,-1.44612 -1.54,-1.29224 -1.6666,-1.1242 -1.8117,-0.9633 -0.0345,-0.0232 -0.0318,-0.0267 -0.0289,-0.0299 -0.0255,-0.0327 -0.0221,-0.0353 -0.0182,-0.0373 -0.0142,-0.039 -0.01,-0.0403 -0.0058,-0.0412 -0.0014,-0.0415 0.0028,-0.0414 0.0073,-0.0409 0.0114,-0.04 0.0156,-0.0385 0.0195,-0.0367 0.0232,-0.0344 0.0267,-0.0318 0.0299,-0.0289 0.0327,-0.0256 0.0352,-0.022 0.0374,-0.0182 0.039,-0.0142 0.0403,-0.01 0.0412,-0.0058 0.0415,-0.0015 0.0414,0.0029 0.0409,0.0072 0.04,0.0115 0.0385,0.0155 1.8484,0.9829 1.7355,1.1706 1.6037,1.3456 1.4542,1.50591 1.2888,1.64966 1.1094,1.77534 0.9177,1.88156 0.3089,0.8488 0.0147,0.01682 0.0238,0.03404 0.0201,0.03633 0.0163,0.03824 0.0121,0.03973 0.0079,0.04076 0.0037,0.0414 -8e-4,0.04153 -0.005,0.04123 -0.0094,0.04047 -0.0135,0.03929 -0.0176,0.03764 -0.0214,0.03562 -0.025,0.03317 -0.0283,0.03038 -0.0313,0.02725 -0.0341,0.02384 -0.0363,0.02012 -0.0382,0.01625 -0.0398,0.01213 -0.0407,0.00795 -0.0414,0.00362 z"
     id="path2182" />
  <path
     style="stroke:#ff0000;fill:none;stroke-width:0.1;stroke-miterlimit:4;stroke-dasharray:none"
     d="M 45.9213,6.36145 45.8805,6.35352 45.8408,6.34137 45.8025,6.32513 45.7662,6.30499 45.7322,6.28117 45.7008,6.25391 45.6725,6.22353 45.6475,6.19037 45.6261,6.15475 45.6085,6.11711 45.595,6.07782 45.5856,6.03735 45.5597,6.04192 45.3852,5.05202 44.8311,3.11954 44.078,1.25557 43.1342,-0.519455 42.01,-2.18611 l -1.2922,-1.54003 -1.4462,-1.39649 -1.6169,-1.26328 -0.0299,-0.02885 -0.0267,-0.03183 -0.0232,-0.03444 -0.0195,-0.03669 -0.0156,-0.03851 -0.0114,-0.03993 -0.0072,-0.04091 -0.0029,-0.04144 0.0014,-0.04151 0.0058,-0.04115 0.0101,-0.0403 0.0142,-0.03905 0.0182,-0.03733 0.022,-0.03522 0.0256,-0.03275 0.0288,-0.02987 0.0318,-0.02671 0.0345,-0.02322 0.0367,-0.0195 0.0385,-0.01558 0.0399,-0.01144 0.0409,-0.00721 0.0415,-0.00291 0.0415,0.00146 0.0411,0.00577 0.0403,0.01006 0.0391,0.0142 0.0373,0.01822 0.0352,0.02201 1.6497,1.28885 1.5059,1.45422 1.3456,1.60367 1.1706,1.735532 0.9828,1.848388 0.7843,1.94099 0.577,2.01235 0.1568,0.88954 0.0115,0.0191 0.0176,0.03766 0.0135,0.03928 0.0094,0.04048 0.005,0.04123 7e-4,0.04152 -0.0036,0.0414 -0.0079,0.04077 -0.0122,0.03973 -0.0162,0.03824 -0.0201,0.03633 -0.0239,0.03403 -0.0272,0.03136 -0.0304,0.02833 -0.0332,0.02499 -0.0356,0.0214 -0.0376,0.01756 -0.0393,0.01352 -0.0405,0.00935 -0.0412,0.00505 -0.0416,7.4e-4 z"
     id="path2180" />
  <path
     style="stroke:#ff0000;fill:none;stroke-width:0.1;stroke-miterlimit:4;stroke-dasharray:none"
     d="m -37.9497,7.0808 -0.0411,-0.00577 -0.0403,-0.01006 -0.0391,-0.0142 -0.0373,-0.01822 -0.0352,-0.02201 -1.6497,-1.28885 -1.5059,-1.45422 -1.3456,-1.60367 -1.1706,-1.735532 -0.9828,-1.848388 -0.7843,-1.94099 -0.577,-2.01235 -0.1568,-0.88954 -0.0115,-0.0191 -0.0176,-0.03766 -0.0135,-0.03928 -0.0094,-0.04048 -0.005,-0.04123 -7e-4,-0.04152 0.0036,-0.0414 0.0079,-0.04077 0.0122,-0.03973 0.0162,-0.03824 0.0201,-0.03633 0.0239,-0.03403 0.0272,-0.03136 0.0304,-0.02833 0.0332,-0.02499 0.0356,-0.0214 0.0376,-0.01756 0.0393,-0.01352 0.0405,-0.00935 0.0412,-0.00505 0.0416,-7.4e-4 0.0413,0.00362 0.0408,0.00793 0.0397,0.01215 0.0383,0.01624 0.0363,0.02014 0.034,0.02382 0.0314,0.02726 0.0283,0.03038 0.025,0.03316 0.0214,0.03562 0.0176,0.03764 0.0135,0.03929 0.0094,0.04047 0.0259,-0.00457 0.1745,0.9899 0.5541,1.93248 0.7531,1.86397 0.9438,1.775025 1.1242,1.666655 1.2922,1.54003 1.4462,1.39649 1.6169,1.26328 0.0299,0.02885 0.0267,0.03183 0.0232,0.03444 0.0195,0.03669 0.0156,0.03851 0.0114,0.03993 0.0072,0.04091 0.0029,0.04144 -0.0014,0.04151 -0.0058,0.04115 -0.0101,0.0403 -0.0142,0.03905 -0.0182,0.03733 -0.022,0.03522 -0.0256,0.03275 -0.0288,0.02987 -0.0318,0.02671 -0.0345,0.02322 -0.0367,0.0195 -0.0385,0.01558 -0.0399,0.01144 -0.0409,0.00721 -0.0415,0.00291 z"
     id="path2178" />
  <path
     style="stroke:#ff0000;fill:none;stroke-width:0.1;stroke-miterlimit:4;stroke-dasharray:none"
     d="M 44.2001,14.2562 44.1591,14.2497 44.119,14.239 44.0802,14.2241 44.0432,14.2052 44.0083,14.1826 43.976,14.1564 43.9467,14.1271 43.9205,14.0948 43.8979,14.0599 43.879,14.0229 43.8642,13.9841 43.8534,13.944 43.8469,13.903 43.8447,13.8615 H 43.8184 V 12.8563 L 43.6083,10.857 43.1903,8.89056 42.5691,6.97859 41.7514,5.14203 40.7462,3.40102 39.5645,1.77461 38.1916,0.249771 38.1671,0.216156 38.1464,0.180176 38.1295,0.142227 38.1166,0.102722 38.108,0.0620728 38.1037,0.0207825 V -0.020752 l 0.0043,-0.0413208 0.0086,-0.0406192 0.0129,-0.03952 0.0169,-0.037933 0.0207,-0.035996 0.0245,-0.0336 0.0278,-0.030868 0.0308,-0.027817 0.0336,-0.024414 0.036,-0.020752 0.038,-0.016907 0.0395,-0.012832 0.0406,-0.008637 0.0413,-0.004349 h 0.0416 l 0.0413,0.004349 0.0406,0.008637 0.0395,0.012832 0.038,0.016907 0.0359,0.020767 0.0337,0.024414 0.0308,0.027787 1.4008,1.555714 1.2305,1.69363 1.0467,1.81297 0.8515,1.91245 0.6469,1.99098 0.4352,2.04768 0.2189,2.082 v 0.9032 l 0.008,0.0208 0.0107,0.0402 0.0065,0.041 0.0022,0.0415 -0.0022,0.0415 -0.0065,0.041 -0.0107,0.0401 -0.0149,0.0388 -0.0189,0.037 -0.0226,0.0349 -0.0262,0.0323 -0.0293,0.0293 -0.0323,0.0262 -0.0349,0.0226 -0.037,0.0189 -0.0387,0.0149 -0.0402,0.0107 -0.041,0.0065 -0.0415,0.0022 z"
     id="path2176" />
  <path
     style="stroke:#ff0000;fill:none;stroke-width:0.1;stroke-miterlimit:4;stroke-dasharray:none"
     d="m -36.2265,13.5617 -0.0409,-0.0072 -0.04,-0.0115 -0.0385,-0.0155 -1.8484,-0.9829 -1.7355,-1.1706 -1.6037,-1.3456 -1.4542,-1.50591 -1.2888,-1.64966 -1.1094,-1.77534 -0.9177,-1.88156 -0.3089,-0.8488 -0.0147,-0.01682 -0.0238,-0.03404 -0.0201,-0.03633 -0.0163,-0.03824 -0.0121,-0.03973 -0.0079,-0.04076 -0.0037,-0.0414 8e-4,-0.04153 0.005,-0.04123 0.0094,-0.04047 0.0135,-0.03929 0.0176,-0.03764 0.0214,-0.03562 0.025,-0.03317 0.0283,-0.03038 0.0313,-0.02725 0.0341,-0.02384 0.0363,-0.02012 0.0382,-0.01625 0.0398,-0.01213 0.0407,-0.00795 0.0414,-0.00362 0.0416,7.3e-4 0.0412,0.00507 0.0405,0.00935 0.0393,0.01352 0.0376,0.01755 0.0356,0.02141 0.0332,0.02499 0.0304,0.02834 0.0272,0.03134 0.0239,0.03403 0.0201,0.03634 0.0162,0.03822 0.0248,-0.00898 0.3437,0.94455 0.8813,1.8069 1.0654,1.70486 1.2377,1.5842 1.3965,1.44612 1.54,1.29224 1.6666,1.1242 1.8117,0.9633 0.0345,0.0232 0.0318,0.0267 0.0289,0.0299 0.0255,0.0327 0.0221,0.0353 0.0182,0.0373 0.0142,0.039 0.01,0.0403 0.0058,0.0412 0.0014,0.0415 -0.0028,0.0414 -0.0073,0.0409 -0.0114,0.04 -0.0156,0.0385 -0.0195,0.0367 -0.0232,0.0344 -0.0267,0.0318 -0.0299,0.0289 -0.0327,0.0256 -0.0352,0.022 -0.0374,0.0182 -0.039,0.0142 -0.0403,0.01 -0.0412,0.0058 -0.0415,0.0015 z"
     id="path2174" />
  <path
     style="stroke:#ff0000;fill:none;stroke-width:0.1;stroke-miterlimit:4;stroke-dasharray:none"
     d="m 41.1348,21.7293 -0.0413,-0.0051 -0.0404,-0.0093 -0.0393,-0.0135 -0.0377,-0.0176 -0.0356,-0.0214 -0.0332,-0.025 -0.0303,-0.0283 -0.0273,-0.0314 -0.0238,-0.034 -0.0202,-0.0363 -0.0162,-0.0383 -0.0121,-0.0397 -0.008,-0.0408 -0.0036,-0.0414 8e-4,-0.0415 0.005,-0.0412 L 40.7457,21.2599 40.9202,20.27 41.0605,18.2645 40.9903,16.2554 40.7105,14.2646 40.2242,12.314 39.5366,10.4249 38.6553,8.61797 37.568,6.87787 37.5498,6.84053 37.5356,6.8015 37.5255,6.76118 37.5197,6.72005 37.5183,6.67853 37.5212,6.6371 37.5284,6.59619 37.5398,6.55624 37.5554,6.51773 37.5749,6.48106 37.5981,6.44662 37.6248,6.41479 37.6547,6.38593 37.6875,6.36035 37.7227,6.33833 37.76,6.32013 37.7991,6.30592 37.8394,6.29588 37.8805,6.2901 37.922,6.28864 l 0.0415,0.00291 0.0409,0.0072 0.0399,0.01145 0.0385,0.01558 0.0367,0.01948 0.0344,0.02324 0.0319,0.0267 0.0288,0.02989 0.0256,0.03272 1.1093,1.77533 0.9177,1.88156 0.716,1.9672 0.5065,2.0312 0.2913,2.0731 0.0731,2.0922 -0.146,2.0883 -0.1569,0.8896 0.0043,0.0219 0.0036,0.0413 -8e-4,0.0416 -0.005,0.0412 -0.0094,0.0405 -0.0135,0.0392 -0.0175,0.0377 -0.0214,0.0356 -0.025,0.0332 -0.0284,0.0304 -0.0313,0.0272 -0.034,0.0239 -0.0364,0.0201 -0.0382,0.0162 -0.0397,0.0122 -0.0408,0.0079 -0.0414,0.0036 z"
     id="path2172" />
  <path
     style="stroke:#ff0000;fill:none;stroke-width:0.1;stroke-miterlimit:4;stroke-dasharray:none"
     d="m -33.4041,19.642 -0.0406,-0.0087 -1.991,-0.6469 -1.9124,-0.8515 -1.813,-1.0467 -1.6936,-1.2305 -1.5557,-1.4007 -1.4008,-1.5558 -1.2305,-1.6936 -0.4516,-0.7822 -0.0174,-0.0141 -0.0293,-0.0294 -0.0262,-0.0322 -0.0226,-0.0349 -0.0189,-0.037 -0.0148,-0.0388 -0.0108,-0.0401 -0.0065,-0.041 -0.0022,-0.0415 0.0022,-0.0415 0.0065,-0.041 0.0107,-0.04016 0.0149,-0.03878 0.0189,-0.03701 0.0226,-0.03485 0.0262,-0.03227 0.0293,-0.02937 0.0323,-0.02614 0.0349,-0.02265 0.037,-0.01884 0.0387,-0.01491 0.0402,-0.01074 0.041,-0.0065 0.0415,-0.00217 0.0415,0.00218 0.041,0.00649 0.0401,0.01076 0.0388,0.01489 0.037,0.01886 0.0349,0.02261 0.0323,0.02614 0.0293,0.02937 0.0262,0.03231 0.0226,0.03482 0.0228,-0.01315 0.5026,0.87051 1.1816,1.6264 1.3452,1.494 1.494,1.3452 1.6264,1.1816 1.7411,1.0052 1.8365,0.8177 1.9514,0.6341 0.038,0.0169 0.036,0.0207 0.0336,0.0245 0.0309,0.0277 0.0278,0.0309 0.0244,0.0336 0.0207,0.036 0.0169,0.038 0.0129,0.0395 0.0086,0.0406 0.0044,0.0413 v 0.0416 l -0.0044,0.0413 -0.0086,0.0406 -0.0129,0.0395 -0.0169,0.038 -0.0207,0.0359 -0.0245,0.0336 -0.0278,0.0309 -0.0308,0.0278 -0.0336,0.0244 -0.036,0.0208 -0.0379,0.0169 -0.0396,0.0128 -0.0406,0.0087 -0.0413,0.0043 h -0.0415 z"
     id="path2170" />
  <path
     style="stroke:#ff0000;fill:none;stroke-width:0.1;stroke-miterlimit:4;stroke-dasharray:none"
     d="m 36.7774,28.5501 -0.0408,-0.008 -0.0397,-0.0121 -0.0383,-0.0162 -0.0363,-0.0202 -0.034,-0.0238 -0.0314,-0.0272 -0.0283,-0.0304 -0.025,-0.0332 -0.0214,-0.0356 -0.0176,-0.0377 -0.0135,-0.0393 -0.0093,-0.0404 -0.0051,-0.0412 -7e-4,-0.0416 0.0036,-0.0414 0.0079,-0.0407 0.0121,-0.0398 -0.0247,-0.009 0.3438,-0.9445 0.4864,-1.9507 0.2797,-1.9908 0.0702,-2.0091 -0.1402,-2.0055 -0.3491,-1.9798 -0.5542,-1.9324 -0.7686,-1.9025 -0.0114,-0.04 -0.0073,-0.0409 -0.0029,-0.0414 0.0015,-0.0415 0.0058,-0.0412 0.01,-0.0403 0.0142,-0.039 0.0182,-0.0373 0.0221,-0.0353 0.0255,-0.0327 0.0289,-0.0299 0.0318,-0.0267 0.0344,-0.0232 0.0367,-0.0195 0.0386,-0.0156 0.0399,-0.0114 0.0409,-0.0072 0.0414,-0.0029 0.0416,0.0014 0.0411,0.0058 0.0403,0.0101 0.039,0.0142 0.0374,0.0182 0.0352,0.022 0.0327,0.0255 0.0299,0.0289 0.0267,0.0318 0.0232,0.0345 0.0195,0.0366 0.7843,1.941 0.577,2.0124 0.3635,2.0616 0.146,2.0883 -0.073,2.0922 -0.2914,2.0731 -0.5064,2.0312 -0.309,0.8488 4e-4,0.0223 -0.0036,0.0414 -0.0079,0.0408 -0.0121,0.0397 -0.0163,0.0382 -0.0201,0.0364 -0.0239,0.034 -0.0272,0.0314 -0.0304,0.0283 -0.0332,0.025 -0.0356,0.0214 -0.0376,0.0175 -0.0393,0.0136 -0.0405,0.0093 -0.0412,0.0051 -0.0415,7e-4 z"
     id="path2168" />
  <path
     style="stroke:#ff0000;fill:none;stroke-width:0.1;stroke-miterlimit:4;stroke-dasharray:none"
     d="m -29.5273,25.1427 -2.073,-0.2914 -2.0313,-0.5064 -1.9672,-0.716 -1.8816,-0.9177 -1.7753,-1.1094 -1.6496,-1.2888 -1.5059,-1.4543 -0.5806,-0.6919 -0.0196,-0.0108 -0.034,-0.0238 -0.0313,-0.0273 -0.0284,-0.0304 -0.025,-0.0331 -0.0213,-0.0356 -0.0176,-0.0377 -0.0135,-0.0393 -0.0094,-0.0404 -0.005,-0.0413 -8e-4,-0.0415 0.0037,-0.0414 0.0079,-0.0408 0.0121,-0.0397 0.0163,-0.0383 0.0201,-0.0363 0.0238,-0.034 0.0273,-0.0314 0.0303,-0.0283 0.0332,-0.025 0.0356,-0.0214 0.0377,-0.0176 0.0393,-0.0135 0.0405,-0.0093 0.0412,-0.0051 0.0415,-7e-4 0.0414,0.0036 0.0408,0.0079 0.0397,0.0122 0.0382,0.0162 0.0364,0.0201 0.034,0.0239 0.0314,0.0272 0.0283,0.0304 0.0201,-0.0169 0.6462,0.77 1.4461,1.3965 1.5842,1.2377 1.7049,1.0654 1.8068,0.8812 1.8892,0.6876 1.9506,0.4864 2.0319,0.2855 0.0403,0.0101 0.0391,0.0142 0.0373,0.0182 0.0352,0.022 0.0328,0.0256 0.0298,0.0288 0.0267,0.0319 0.0233,0.0344 0.0195,0.0367 0.0155,0.0385 0.0115,0.0399 0.0072,0.0409 0.0029,0.0415 -0.0015,0.0415 -0.0057,0.0411 -0.0101,0.0403 -0.0142,0.0391 -0.0182,0.0373 -0.022,0.0352 -0.0256,0.0328 -0.0288,0.0299 -0.0319,0.0267 -0.0344,0.0232 -0.0367,0.0195 -0.0385,0.0156 -0.0399,0.0114 -0.041,0.0072 -0.0414,0.0029 z"
     id="path2166" />
  <path
     style="stroke:#ff0000;fill:none;stroke-width:0.1;stroke-miterlimit:4;stroke-dasharray:none"
     d="m 31.3421,34.5199 -0.041,-0.0065 -0.0401,-0.0107 -0.0388,-0.0149 -0.037,-0.0189 -0.0349,-0.0226 -0.0323,-0.0261 -0.0293,-0.0294 -0.0262,-0.0323 -0.0226,-0.0348 -0.0189,-0.0371 -0.0149,-0.0388 -0.0107,-0.0401 -0.0065,-0.041 -0.0022,-0.0415 0.0022,-0.0415 0.0065,-0.041 0.0107,-0.0401 0.0149,-0.0388 0.0189,-0.037 -0.0228,-0.0132 0.5026,-0.8705 0.8177,-1.8366 0.6212,-1.9119 0.418,-1.9664 0.2101,-1.9994 V 23.3185 L 33.3766,21.3191 32.95,19.3121 32.9456,19.2708 v -0.0416 l 0.0044,-0.0413 0.0086,-0.0406 0.0129,-0.0395 0.0168,-0.038 0.0208,-0.0359 0.0244,-0.0337 0.0278,-0.0308 0.0309,-0.0278 0.0336,-0.0244 0.036,-0.0208 0.0379,-0.0169 0.0395,-0.0128 0.0407,-0.0087 0.0413,-0.0043 h 0.0415 l 0.0414,0.0043 0.0406,0.0087 0.0395,0.0128 0.038,0.0169 0.0359,0.0208 0.0336,0.0244 0.0309,0.0278 0.0278,0.0308 0.0244,0.0336 0.0208,0.036 0.0169,0.038 0.0128,0.0395 0.4353,2.0477 0.2188,2.0819 v 2.0935 l -0.2188,2.0819 -0.4353,2.0477 -0.6469,1.991 -0.8515,1.9125 -0.4516,0.7822 -0.0035,0.022 -0.0108,0.0402 -0.0148,0.0387 -0.0189,0.0371 -0.0226,0.0348 -0.0262,0.0323 -0.0293,0.0294 -0.0323,0.0261 -0.0349,0.0226 -0.037,0.0189 -0.0388,0.0149 -0.0401,0.0107 -0.041,0.0065 -0.0415,0.0022 z"
     id="path2164" />
  <path
     style="stroke:#ff0000;fill:none;stroke-width:0.1;stroke-miterlimit:4;stroke-dasharray:none"
     d="m 24.9533,39.4524 -0.0412,-0.0051 -0.0405,-0.0093 -0.0392,-0.0135 -0.0377,-0.0176 -0.0356,-0.0214 -0.0332,-0.025 -0.0304,-0.0283 -0.0272,-0.0314 -0.0238,-0.034 -0.0202,-0.0363 -0.0162,-0.0383 -0.0122,-0.0397 -0.0079,-0.0408 -0.0036,-0.0414 7e-4,-0.0415 0.0051,-0.0412 0.0093,-0.0405 0.0136,-0.0393 0.0175,-0.0376 0.0214,-0.0357 0.025,-0.0331 -0.0202,-0.0169 0.6461,-0.77 1.1242,-1.6667 0.9438,-1.775 0.7531,-1.864 0.5542,-1.9325 0.3491,-1.9798 0.1402,-2.0055 -0.0716,-2.0506 0.0029,-0.0414 0.0072,-0.0409 0.0114,-0.04 0.0156,-0.0385 0.0195,-0.0367 0.0232,-0.0344 0.0267,-0.0318 0.0299,-0.0289 0.0328,-0.0256 0.0352,-0.022 0.0373,-0.0182 0.0391,-0.0142 0.0403,-0.0101 0.0411,-0.0057 0.0415,-0.0015 0.0415,0.0029 0.0409,0.0072 0.0399,0.0115 0.0385,0.0155 0.0367,0.0195 0.0345,0.0233 0.0318,0.0267 0.0288,0.0298 0.0256,0.0328 0.022,0.0352 0.0182,0.0374 0.0142,0.039 0.0101,0.0403 0.0058,0.0411 0.073,2.0922 -0.146,2.0883 -0.3635,2.0616 -0.5771,2.0124 -0.7842,1.941 -0.9828,1.8484 -1.1706,1.7355 -0.5806,0.692 -0.0073,0.0211 -0.0175,0.0376 -0.0214,0.0356 -0.025,0.0332 -0.0284,0.0304 -0.0313,0.0272 -0.0341,0.0239 -0.0363,0.0201 -0.0382,0.0162 -0.0398,0.0122 -0.0407,0.0079 -0.0414,0.0036 z"
     id="path2162" />
  <path
     style="stroke:#ff0000;fill:none;stroke-width:0.1;stroke-miterlimit:4;stroke-dasharray:none"
     d="m -28.8932,29.8151 -2.0616,-0.3635 -2.0124,-0.5771 -1.941,-0.7842 -1.8484,-0.9828 -1.7355,-1.1706 -0.692,-0.5806 -0.0211,-0.0073 -0.0376,-0.0175 -0.0356,-0.0214 -0.0332,-0.025 -0.0304,-0.0284 -0.0272,-0.0313 -0.0239,-0.0341 -0.0201,-0.0363 -0.0162,-0.0382 -0.0122,-0.0398 -0.0079,-0.0407 -0.0036,-0.0414 7e-4,-0.0416 0.0051,-0.0412 0.0093,-0.0405 0.0135,-0.0392 0.0176,-0.0377 0.0214,-0.0356 0.025,-0.0332 0.0283,-0.0304 0.0314,-0.0272 0.034,-0.0238 0.0363,-0.0202 0.0383,-0.0162 0.0397,-0.0122 0.0408,-0.0079 0.0414,-0.0036 0.0415,7e-4 0.0412,0.0051 0.0405,0.0093 0.0393,0.0136 0.0376,0.0175 0.0357,0.0214 0.0331,0.025 0.0169,-0.0202 0.77,0.6461 1.6667,1.1242 1.775,0.9438 1.864,0.7531 1.9325,0.5542 1.9798,0.3491 2.0055,0.1402 2.0506,-0.0716 0.0414,0.0029 0.0409,0.0072 0.04,0.0114 0.0385,0.0156 0.0367,0.0195 0.0344,0.0232 0.0318,0.0267 0.0289,0.0299 0.0256,0.0328 0.022,0.0352 0.0182,0.0373 0.0142,0.0391 0.0101,0.0403 0.0057,0.0411 0.0015,0.0415 -0.0029,0.0415 -0.0072,0.0409 -0.0115,0.0399 -0.0155,0.0385 -0.0195,0.0367 -0.0233,0.0345 -0.0267,0.0318 -0.0298,0.0288 -0.0328,0.0256 -0.0352,0.022 -0.0374,0.0182 -0.039,0.0142 -0.0403,0.0101 -0.0411,0.0058 -2.0922,0.073 z"
     id="path2160" />
  <path
     style="stroke:#ff0000;fill:none;stroke-width:0.1;stroke-miterlimit:4;stroke-dasharray:none"
     d="m 17.7642,43.194 -0.0408,-0.0079 -0.0397,-0.0121 -0.0383,-0.0163 -0.0363,-0.0201 -0.034,-0.0238 -0.0314,-0.0273 -0.0283,-0.0303 -0.025,-0.0332 -0.0214,-0.0356 -0.0176,-0.0377 -0.0135,-0.0393 -0.0093,-0.0405 -0.0051,-0.0412 -7e-4,-0.0415 0.0036,-0.0414 0.0079,-0.0408 0.0122,-0.0397 0.0162,-0.0382 0.0201,-0.0364 0.0239,-0.034 0.0272,-0.0314 0.0304,-0.0283 -0.0169,-0.0201 0.77,-0.6462 1.3965,-1.4461 1.2377,-1.5842 1.0654,-1.7049 0.8812,-1.8068 0.6876,-1.8892 0.4864,-1.9506 0.2855,-2.0319 0.0101,-0.0403 0.0142,-0.0391 0.0182,-0.0373 0.022,-0.0352 0.0256,-0.0328 0.0288,-0.0298 0.0319,-0.0267 0.0344,-0.0233 0.0367,-0.0195 0.0385,-0.0155 0.0399,-0.0115 0.0409,-0.0072 0.0415,-0.0029 0.0415,0.0015 0.0411,0.0057 0.0403,0.0101 0.0391,0.0142 0.0373,0.0182 0.0352,0.022 0.0328,0.0256 0.0299,0.0288 0.0267,0.0319 0.0232,0.0344 0.0195,0.0367 0.0156,0.0385 0.0114,0.0399 0.0072,0.041 0.0029,0.0414 -0.0014,0.0415 -0.2914,2.073 -0.5064,2.0313 -0.716,1.9672 -0.9177,1.8816 -1.1094,1.7753 -1.2888,1.6496 -1.4543,1.5059 -0.6919,0.5806 -0.0108,0.0196 -0.0238,0.034 -0.0273,0.0313 -0.0304,0.0284 -0.0331,0.025 -0.0356,0.0213 -0.0377,0.0176 -0.0393,0.0135 -0.0404,0.0094 -0.0413,0.005 -0.0415,8e-4 z"
     id="path2158" />
  <path
     style="stroke:#ff0000;fill:none;stroke-width:0.1;stroke-miterlimit:4;stroke-dasharray:none"
     d="m -25.3704,34.3794 -2.0819,-0.2188 -2.0477,-0.4353 -1.991,-0.6469 -1.9125,-0.8515 -0.7822,-0.4516 -0.022,-0.0035 -0.0402,-0.0108 -0.0387,-0.0148 -0.0371,-0.0189 -0.0348,-0.0226 -0.0323,-0.0262 -0.0294,-0.0293 -0.0261,-0.0323 -0.0226,-0.0349 -0.0189,-0.037 -0.0149,-0.0388 -0.0107,-0.0401 -0.0065,-0.041 -0.0022,-0.0415 0.0022,-0.0415 0.0065,-0.041 0.0107,-0.0401 0.0149,-0.0388 0.0189,-0.037 0.0226,-0.0349 0.0261,-0.0323 0.0294,-0.0293 0.0323,-0.0262 0.0348,-0.0226 0.0371,-0.0189 0.0388,-0.0149 0.0401,-0.0107 0.041,-0.0065 0.0415,-0.0022 0.0415,0.0022 0.041,0.0065 0.0401,0.0107 0.0388,0.0149 0.037,0.0189 0.0132,-0.0228 0.8705,0.5026 1.8366,0.8177 1.9119,0.6212 1.9664,0.418 1.9994,0.2101 h 2.0103 l 1.9994,-0.2101 2.007,-0.4266 0.0413,-0.0044 h 0.0416 l 0.0413,0.0044 0.0406,0.0086 0.0395,0.0129 0.038,0.0168 0.0359,0.0208 0.0337,0.0244 0.0308,0.0278 0.0278,0.0309 0.0244,0.0336 0.0208,0.036 0.0169,0.0379 0.0128,0.0395 0.0087,0.0407 0.0043,0.0413 v 0.0415 l -0.0043,0.0414 -0.0087,0.0406 -0.0128,0.0395 -0.0169,0.038 -0.0208,0.0359 -0.0244,0.0336 -0.0278,0.0309 -0.0308,0.0278 -0.0336,0.0244 -0.036,0.0208 -0.038,0.0169 -0.0395,0.0128 -2.0477,0.4353 -2.0819,0.2188 z"
     id="path2156" />
  <path
     style="stroke:#ff0000;fill:none;stroke-width:0.1;stroke-miterlimit:4;stroke-dasharray:none"
     d="M 10.0749,45.6398 10.0339,45.6333 9.99374,45.6226 9.95496,45.6077 9.91795,45.5888 9.8831,45.5662 9.85083,45.54 9.82146,45.5107 9.79532,45.4784 9.77267,45.4435 9.75383,45.4065 9.73892,45.3678 9.72818,45.3276 9.72168,45.2866 9.71951,45.2451 9.72169,45.2036 9.72818,45.1626 9.73894,45.1225 9.75383,45.0837 9.77269,45.0467 9.7953,45.0118 9.82144,44.9795 9.85081,44.9502 9.88312,44.924 9.91794,44.9014 9.90479,44.8786 10.7753,44.376 l 1.6264,-1.1816 1.494,-1.3452 1.3452,-1.494 1.1816,-1.6264 1.0052,-1.7411 0.8177,-1.8365 0.6341,-1.9514 0.0169,-0.038 0.0207,-0.036 0.0245,-0.0336 0.0277,-0.0309 0.0309,-0.0278 0.0336,-0.0244 0.036,-0.0207 0.038,-0.0169 0.0395,-0.0129 0.0406,-0.0086 0.0413,-0.0044 h 0.0416 l 0.0413,0.0044 0.0406,0.0086 0.0395,0.0129 0.038,0.0169 0.0359,0.0207 0.0336,0.0245 0.0309,0.0278 0.0278,0.0308 0.0244,0.0336 0.0208,0.036 0.0169,0.0379 0.0128,0.0396 0.0087,0.0406 0.0043,0.0413 v 0.0415 l -0.0043,0.0414 -0.0087,0.0406 -0.6469,1.991 -0.8515,1.9124 -1.0467,1.813 -1.2305,1.6936 -1.4007,1.5557 -1.5558,1.4008 -1.6936,1.2305 -0.7822,0.4516 -0.0141,0.0174 -0.0294,0.0293 -0.0322,0.0262 -0.0349,0.0226 -0.037,0.0189 -0.0388,0.0148 -0.0401,0.0108 -0.041,0.0065 -0.0415,0.0022 z"
     id="path2154" />
  <path
     style="stroke:#ff0000;fill:none;stroke-width:0.1;stroke-miterlimit:4;stroke-dasharray:none"
     d="m -23.1955,38.3356 -2.0731,-0.2914 -2.0312,-0.5064 -0.8488,-0.309 -0.0223,4e-4 -0.0414,-0.0036 -0.0408,-0.0079 -0.0397,-0.0121 -0.0382,-0.0163 -0.0364,-0.0201 -0.034,-0.0239 -0.0314,-0.0272 -0.0283,-0.0304 -0.025,-0.0332 -0.0214,-0.0356 -0.0175,-0.0376 -0.0136,-0.0393 -0.0093,-0.0405 -0.0051,-0.0412 -7e-4,-0.0415 0.0036,-0.0414 0.008,-0.0408 0.0121,-0.0397 0.0162,-0.0383 0.0202,-0.0363 0.0238,-0.034 0.0272,-0.0314 0.0304,-0.0283 0.0332,-0.025 0.0356,-0.0214 0.0377,-0.0176 0.0393,-0.0135 0.0404,-0.0093 0.0412,-0.0051 0.0416,-7e-4 0.0414,0.0036 0.0407,0.0079 0.0398,0.0121 0.009,-0.0247 0.9445,0.3438 1.9507,0.4864 1.9908,0.2797 2.0091,0.0702 2.0055,-0.1402 1.9798,-0.3491 1.9324,-0.5542 1.9025,-0.7686 0.04,-0.0114 0.0409,-0.0073 0.0414,-0.0029 0.0415,0.0015 0.0412,0.0058 0.0403,0.01 0.039,0.0142 0.0373,0.0182 0.0353,0.0221 0.0327,0.0255 0.0299,0.0289 0.0267,0.0318 0.0232,0.0344 0.0195,0.0367 0.0156,0.0386 0.0114,0.0399 0.0072,0.0409 0.0029,0.0414 -0.0014,0.0416 -0.0058,0.0411 -0.0101,0.0403 -0.0142,0.039 -0.0182,0.0374 -0.022,0.0352 -0.0255,0.0327 -0.0289,0.0299 -0.0318,0.0267 -0.0345,0.0232 -0.0366,0.0195 -1.941,0.7843 -2.0124,0.577 -2.0616,0.3635 -2.0883,0.146 z"
     id="path2152" />
  <path
     style="stroke:#ff0000;fill:none;stroke-width:0.1;stroke-miterlimit:4;stroke-dasharray:none"
     d="M 2.07828,46.7103 2.03705,46.7053 1.99658,46.6959 1.95729,46.6824 1.91965,46.6648 1.88403,46.6434 1.85086,46.6184 1.82048,46.5901 1.79323,46.5588 1.76939,46.5247 1.74927,46.4884 1.73302,46.4502 1.72089,46.4104 1.71294,46.3697 1.70932,46.3283 1.71005,46.2867 1.71512,46.2455 1.72447,46.205 1.73799,46.1657 1.75554,46.1281 1.77695,46.0925 1.80194,46.0593 1.83028,46.0289 1.86162,46.0017 1.89565,45.9778 1.93199,45.9577 1.97021,45.9415 1.96123,45.9167 2.90578,45.573 l 1.8069,-0.8813 1.70486,-1.0654 1.5842,-1.2377 1.44612,-1.3965 1.29224,-1.54 1.1242,-1.6666 0.9633,-1.8117 0.0232,-0.0345 0.0267,-0.0318 0.0299,-0.0289 0.0327,-0.0255 0.0353,-0.0221 0.0373,-0.0182 0.039,-0.0142 0.0403,-0.01 0.0412,-0.0058 0.0415,-0.0014 0.0414,0.0028 0.0409,0.0073 0.04,0.0114 0.0385,0.0156 0.0367,0.0195 0.0344,0.0232 0.0318,0.0267 0.0289,0.0299 0.0256,0.0327 0.022,0.0352 0.0182,0.0374 0.0142,0.039 0.01,0.0403 0.0058,0.0412 0.0015,0.0415 -0.0029,0.0414 -0.0072,0.0409 -0.0115,0.04 -0.0155,0.0385 -0.9829,1.8484 -1.1706,1.7355 -1.3456,1.6037 -1.50591,1.4542 -1.64966,1.2888 -1.77534,1.1094 -1.88156,0.9177 -0.8488,0.3089 -0.01682,0.0147 -0.03404,0.0238 -0.03633,0.0201 -0.03824,0.0163 -0.03973,0.0121 -0.04076,0.0079 -0.0414,0.0037 z"
     id="path2150" />
  <path
     style="stroke:#ff0000;fill:none;stroke-width:0.1;stroke-miterlimit:4;stroke-dasharray:none"
     d="m -20.3667,41.7081 -0.8896,-0.1569 -0.0219,0.0043 -0.0413,0.0036 -0.0416,-8e-4 -0.0412,-0.005 -0.0405,-0.0094 -0.0392,-0.0135 -0.0377,-0.0175 -0.0356,-0.0214 -0.0332,-0.025 -0.0304,-0.0284 -0.0272,-0.0313 -0.0239,-0.034 -0.0201,-0.0364 -0.0162,-0.0382 -0.0122,-0.0397 -0.0079,-0.0408 -0.0036,-0.0414 7e-4,-0.0415 0.0051,-0.0413 0.0093,-0.0404 0.0135,-0.0393 0.0176,-0.0377 0.0214,-0.0356 0.025,-0.0332 0.0283,-0.0303 0.0314,-0.0273 0.034,-0.0238 0.0363,-0.0202 0.0383,-0.0162 0.0397,-0.0121 0.0408,-0.008 0.0414,-0.0036 0.0415,8e-4 0.0412,0.005 0.0046,-0.0259 0.9899,0.1745 2.0055,0.1403 2.0091,-0.0702 1.9908,-0.2798 1.9506,-0.4863 1.8891,-0.6876 1.80693,-0.8813 1.7401,-1.0873 0.03734,-0.0182 0.03903,-0.0142 0.04032,-0.0101 0.04113,-0.0058 0.04152,-0.0014 0.04143,0.0029 0.04091,0.0072 0.03995,0.0114 0.03851,0.0156 0.03667,0.0195 0.03444,0.0232 0.03183,0.0267 0.02886,0.0299 0.02558,0.0328 0.02202,0.0352 0.0182,0.0373 0.01421,0.0391 0.01004,0.0403 0.00578,0.0411 0.00146,0.0415 -0.00291,0.0415 -0.0072,0.0409 -0.01145,0.0399 -0.01558,0.0385 -0.01948,0.0367 -0.02324,0.0344 -0.0267,0.0319 -0.02989,0.0288 -0.03272,0.0256 -1.77533,1.1093 -1.88156,0.9177 -1.9672,0.716 -2.0312,0.5065 -2.0731,0.2913 -2.0922,0.0731 z"
     id="path2148" />
  <path
     style="stroke:#ff0000;fill:none;stroke-width:0.1;stroke-miterlimit:4;stroke-dasharray:none"
     d="m -6.02367,46.3695 -0.04077,-0.0079 -0.03973,-0.0122 -0.03824,-0.0162 -0.03633,-0.0201 -0.03403,-0.0239 -0.03136,-0.0272 -0.02833,-0.0304 -0.02499,-0.0332 -0.0214,-0.0356 -0.01756,-0.0376 -0.01352,-0.0393 -0.00935,-0.0405 -0.00505,-0.0412 -7.4e-4,-0.0416 0.00362,-0.0413 0.00793,-0.0408 0.01215,-0.0397 0.01624,-0.0383 0.02014,-0.0363 0.02382,-0.034 0.02726,-0.0314 0.03038,-0.0283 0.03316,-0.025 0.03562,-0.0214 0.03764,-0.0176 0.03929,-0.0135 0.04047,-0.0094 -0.00457,-0.0259 0.9899,-0.1745 1.93248,-0.5541 1.86397,-0.7531 1.775025,-0.9438 1.666655,-1.1242 1.54003,-1.2922 1.39649,-1.4462 1.26328,-1.6169 0.02885,-0.0299 0.03183,-0.0267 0.03444,-0.0232 0.03669,-0.0195 0.03851,-0.0156 0.03993,-0.0114 0.04091,-0.0072 0.04144,-0.0029 0.04151,0.0014 0.04115,0.0058 0.0403,0.0101 0.03905,0.0142 0.03733,0.0182 0.03522,0.022 0.03275,0.0256 0.02987,0.0288 0.02671,0.0318 0.02322,0.0345 0.0195,0.0367 0.01558,0.0385 0.01144,0.0399 0.00721,0.0409 0.00291,0.0415 -0.00146,0.0415 -0.00577,0.0411 -0.01006,0.0403 -0.0142,0.0391 -0.01822,0.0373 -0.02201,0.0352 -1.28885,1.6497 -1.45422,1.5059 -1.60367,1.3456 -1.735532,1.1706 -1.848388,0.9828 -1.94099,0.7843 -2.01235,0.577 -0.88954,0.1568 -0.0191,0.0115 -0.03766,0.0176 -0.03928,0.0135 -0.04048,0.0094 -0.04123,0.005 -0.04152,7e-4 z"
     id="path2146" />
  <path
     style="stroke:#ff0000;fill:none;stroke-width:0.1;stroke-miterlimit:4;stroke-dasharray:none"
     d="m -13.903,44.6363 -0.041,-0.0065 -0.0401,-0.0107 -0.0388,-0.0149 -0.037,-0.0189 -0.0349,-0.0226 -0.0323,-0.0262 -0.0293,-0.0293 -0.0262,-0.0323 -0.0226,-0.0349 -0.0189,-0.037 -0.0149,-0.0387 -0.0107,-0.0402 -0.0065,-0.041 -0.0022,-0.0415 0.0022,-0.0415 0.0065,-0.041 0.0107,-0.0401 0.0149,-0.0388 0.0189,-0.037 0.0226,-0.0349 0.0262,-0.0323 0.0293,-0.0293 0.0323,-0.0262 0.0349,-0.0226 0.037,-0.0189 0.0388,-0.0148 0.0401,-0.0108 0.041,-0.0065 0.0415,-0.0022 v -0.0263 h 1.0052 l 1.9993,-0.2101 1.96644,-0.418 1.91197,-0.6212 1.83656,-0.8177 1.74101,-1.0052 1.62641,-1.1817 1.524839,-1.3729 0.033615,-0.0245 0.03598,-0.0207 0.037949,-0.0169 0.039505,-0.0129 0.0406492,-0.0086 0.0412903,-0.0043 H 0.020752 l 0.0413208,0.0043 0.0406192,0.0086 0.03952,0.0129 0.037933,0.0169 0.035996,0.0207 0.0336,0.0245 0.030868,0.0278 0.027817,0.0308 0.024414,0.0336 0.020752,0.036 0.016907,0.038 0.012832,0.0395 0.008637,0.0406 0.004349,0.0413 v 0.0416 l -0.004349,0.0413 -0.008637,0.0406 -0.012832,0.0395 -0.016907,0.038 -0.020767,0.0359 -0.024414,0.0337 -0.027787,0.0308 -1.555714,1.4008 -1.69363,1.2305 -1.81297,1.0467 -1.91245,0.8515 -1.99098,0.6469 -2.04768,0.4352 -2.082,0.2189 h -0.9032 l -0.0208,0.008 -0.0402,0.0107 -0.041,0.0065 -0.0415,0.0022 z"
     id="path1591" />
</svg>
