<?xml version="1.0" encoding="UTF-8" standalone="no"?>
<svg
   xmlns:dc="http://purl.org/dc/elements/1.1/"
   xmlns:cc="http://creativecommons.org/ns#"
   xmlns:rdf="http://www.w3.org/1999/02/22-rdf-syntax-ns#"
   xmlns:svg="http://www.w3.org/2000/svg"
   xmlns="http://www.w3.org/2000/svg"
   xmlns:sodipodi="http://sodipodi.sourceforge.net/DTD/sodipodi-0.dtd"
   xmlns:inkscape="http://www.inkscape.org/namespaces/inkscape"
   width="35mm"
   height="41mm"
   viewBox="0 -41 35 41"
   version="1.1"
   id="svg4572"
   sodipodi:docname="tree_earring.svg"
   inkscape:version="0.92.3 (8f024d7827, 2018-11-21, custom)">
  <metadata
     id="metadata4578">
    <rdf:RDF>
      <cc:Work
         rdf:about="">
        <dc:format>image/svg+xml</dc:format>
        <dc:type
           rdf:resource="http://purl.org/dc/dcmitype/StillImage" />
      </cc:Work>
    </rdf:RDF>
  </metadata>
  <defs
     id="defs4576" />
  <sodipodi:namedview
     pagecolor="#ffffff"
     bordercolor="#666666"
     borderopacity="1"
     objecttolerance="10"
     gridtolerance="10"
     guidetolerance="10"
     inkscape:pageopacity="0"
     inkscape:pageshadow="2"
     inkscape:window-width="3840"
     inkscape:window-height="2104"
     id="namedview4574"
     showgrid="false"
     inkscape:zoom="11.92561"
     inkscape:cx="66.141732"
     inkscape:cy="77.480315"
     inkscape:window-x="3840"
     inkscape:window-y="0"
     inkscape:window-maximized="1"
     inkscape:current-layer="svg4572" />
  <title
     id="title4568">OpenSCAD Model</title>
  <g
     id="g4670">
    <path
       id="path4638"
       d="m 18.3909,-0.0246887 1.8463,-0.1971593 1.8149,-0.392074 1.763,-0.582568 1.6912,-0.76646 1.6003,-0.94171 1.4912,-1.10631 1.3654,-1.25839 1.2239,-1.39624 1.0689,-1.51831 0.9015,-1.62322 0.7242,-1.70977 0.5384,-1.777 0.3468,-1.8241 0.1511,-1.8506 -0.0462,-1.8562 -0.2431,-1.8408 -0.4372,-1.8046 -0.6262,-1.748 -0.8084,-1.6716 -0.9813,-1.5763 -1.1431,-1.4632 -1.292,-1.3336 -1.4262,-1.1889 -1.5445,-1.0306 -1.6452,-0.8609 -1.7272,-0.6813 -0.3658,-0.155 -0.3371,-0.2101 -0.3002,-0.2601 -0.256,-0.3038 -0.2056,-0.3399 -0.15,-0.3678 -0.0908,-0.3867 -0.0294,-0.3962 -0.0495,-0.6273 -0.1524,-0.6105 -0.251,-0.577 -0.3428,-0.5277 -0.4252,-0.4639 -0.4959,-0.3874 -0.553,-0.3002 -0.5949,-0.2048 -0.6207,-0.1039 h -0.6292 l -0.6207,0.1039 -0.5949,0.2048 -0.5531,0.3002 -0.4959,0.3874 -0.4251,0.4639 -0.3428,0.5277 -0.251,0.577 -0.1524,0.6105 -0.0495,0.6273 -0.0294,0.3962 -0.0908,0.3867 -0.15,0.3678 -0.2056,0.3399 -0.256,0.3038 -0.3002,0.2601 -0.3371,0.2101 -0.3658,0.155 -1.7273,0.6813 -1.64511,0.8609 -1.54446,1.0306 -1.42629,1.1889 -1.29201,1.3336 -1.14308,1.4632 -0.98127,1.5763 -0.80835,1.6716 -0.626301,1.748 -0.437149,1.8046 -0.2430573,1.8408 -0.04624943,1.8562 0.15112273,1.8506 0.346756,1.8241 0.538478,1.777 0.72413,1.70977 0.90156,1.62322 1.06882,1.51831 1.224,1.39624 1.36532,1.25839 1.49123,1.10631 1.60027,0.94171 1.69124,0.76646 1.763,0.582568 1.8149,0.392074 1.8463,0.1971593 z"
       style="fill:none;stroke:#000080;stroke-width:0.1;stroke-miterlimit:4;stroke-dasharray:none"
       inkscape:connector-curvature="0" />
    <path
       id="path4636"
       d="m 18.3637,-34.9017 -0.9012,-0.0233 -0.9012,0.0233 -0.2568,-0.1801 -0.2216,-0.222 -0.1798,-0.257 -0.1324,-0.2844 -0.081,-0.303 -0.0272,-0.3125 0.0275,-0.3125 0.0813,-0.3029 0.1326,-0.2843 0.18,-0.2569 0.2219,-0.2217 0.2569,-0.1799 0.2843,-0.1325 0.303,-0.0812 0.3125,-0.0273 0.3125,0.0273 0.303,0.0812 0.2843,0.1325 0.2569,0.1799 0.2219,0.2217 0.18,0.2569 0.1326,0.2843 0.0813,0.3029 0.0275,0.3125 -0.0272,0.3125 -0.081,0.303 -0.1324,0.2844 -0.1798,0.257 -0.2216,0.222 z"
       style="fill:none;stroke:#000000;stroke-width:0.1;stroke-miterlimit:4;stroke-dasharray:none"
       inkscape:connector-curvature="0" />
    <path
       id="path4634"
       d="m 18.488,-29.893 -0.0748,-0.0039 -0.0699,-0.0145 -0.0701,-0.0267 -0.0757,-0.0433 -0.0784,-0.0627 -0.0779,-0.0859 -0.0607,-0.0935 -0.0382,-0.085 -0.0317,-0.1113 -0.0221,-0.1449 -0.0306,-0.3004 -0.1428,-0.7155 -0.0156,-0.2378 0.0135,-0.1537 0.0362,-0.1483 0.0617,-0.1448 0.0665,-0.1073 0.0668,-0.08 0.0639,-0.0577 0.0603,-0.0405 0.0627,-0.0294 0.0621,-0.0175 0.075,-0.0094 0.0893,2e-4 0.2153,0.0221 0.3785,0.0355 0.2824,0.047 0.1596,0.0532 0.1039,0.0538 0.0822,0.0591 0.0851,0.0832 0.0802,0.1079 0.0615,0.119 0.0382,0.1185 0.027,0.1696 0.032,0.6117 -0.0183,0.179 -0.032,0.1192 -0.0401,0.0885 -0.0564,0.085 -0.0889,0.0989 -0.3046,0.2442 -0.432,0.2794 -0.2025,0.0905 -0.1379,0.0377 z"
       style="fill:none;stroke:#000000;stroke-width:0.1;stroke-miterlimit:4;stroke-dasharray:none"
       inkscape:connector-curvature="0" />
    <path
       id="path4632"
       d="m 14.7915,-28.0784 -0.041,-0.0128 -0.042,-0.0209 -0.0473,-0.0331 -0.0532,-0.0508 -0.0607,-0.0775 -0.0688,-0.1182 -0.0714,-0.1696 -0.0565,-0.1955 -0.0773,-0.3631 -0.1932,-0.8634 -0.0922,-0.4085 -0.1284,-0.3695 -0.2075,-0.3961 -0.0589,-0.1693 -0.029,-0.1518 -0.0058,-0.1481 0.0139,-0.1124 0.0211,-0.0745 0.0301,-0.0661 0.0354,-0.0532 0.0468,-0.0506 0.0641,-0.0508 0.0894,-0.0514 0.1555,-0.0608 0.3345,-0.0762 0.3359,-0.0349 0.2178,0.0114 0.143,0.03 0.1295,0.0489 0.1328,0.0756 0.162,0.1243 0.3509,0.3311 0.0359,0.0335 0.5073,0.4806 0.1485,0.1924 0.0815,0.1509 0.0532,0.1555 0.0432,0.2451 0.04,0.4802 0.0136,0.4131 -0.0236,0.1778 -0.0371,0.1227 -0.0509,0.1028 -0.0642,0.0888 -0.095,0.0962 -0.1644,0.1198 -0.5851,0.2782 -0.4088,0.252 -0.2135,0.1133 -0.1264,0.0449 -0.0805,0.0151 -0.0577,0.0014 z"
       style="fill:none;stroke:#000000;stroke-width:0.1;stroke-miterlimit:4;stroke-dasharray:none"
       inkscape:connector-curvature="0" />
    <path
       id="path4630"
       d="m 22.3802,-27.2073 -0.0602,-0.0137 -0.0401,-0.0162 -0.0251,-0.015 -0.0202,-0.0164 -0.0174,-0.0196 -0.043,-0.0609 -0.105,-0.189 -0.0824,-0.2238 -0.0824,-0.4739 -0.0866,-1.0783 -0.0392,-0.3421 -0.0012,-0.0056 -0.0021,-0.0053 -0.0033,-0.0054 -0.0047,-0.0058 -0.0072,-0.0065 -0.0082,-0.006 -0.0328,-0.0202 -0.0131,-0.0098 -0.0069,-0.0072 -0.0038,-0.0054 -0.003,-0.0062 -0.207,-0.8075 -0.0551,-0.4159 -0.002,-0.1324 0.0174,-0.184 0.0268,-0.1049 0.0377,-0.0872 0.045,-0.0701 0.0702,-0.077 0.1024,-0.0817 0.2263,-0.1485 0.0797,0.0078 0.747,0.1003 0.3119,0.093 0.2059,0.0999 0.1318,0.0911 0.1194,0.1121 0.1044,0.1366 0.0812,0.1526 0.0656,0.1897 0.0349,0.1208 0.0463,0.1607 0.0519,0.2013 0.0455,0.2906 -7e-4,0.1959 -0.0389,0.2225 -0.0948,0.2905 -0.4483,0.9856 -0.264,0.5693 -0.1988,0.3158 -0.1303,0.1503 -0.0951,0.0799 -0.074,0.0441 -0.0548,0.0219 -0.0533,0.0125 -0.0485,0.0035 z"
       style="fill:none;stroke:#000000;stroke-width:0.1;stroke-miterlimit:4;stroke-dasharray:none"
       inkscape:connector-curvature="0" />
    <path
       id="path4628"
       d="m 12.5244,-28.58 -0.325,-0.0389 -0.2699,-0.0511 -0.1858,-0.0692 -0.2274,-0.1296 -0.4751,-0.3922 -0.5383,-0.541 -0.118,-0.1529 -0.0598,-0.1089 -0.042,-0.1165 -0.0199,-0.105 -0.003,-0.1024 0.0169,-0.1214 0.0363,-0.1154 0.0535,-0.1057 0.0608,-0.0837 0.0744,-0.0741 0.0991,-0.0732 0.1248,-0.0714 0.704,-0.3864 0.1735,-0.0824 0.1204,-0.0351 0.0699,-0.0101 0.1044,-8e-4 0.1239,0.0184 0.1449,0.045 0.1629,0.0807 0.1508,0.1095 0.1329,0.1343 0.1312,0.1804 0.1443,0.2759 0.2641,0.7552 0.1053,0.4129 0.0172,0.2112 -0.0128,0.1632 -0.0401,0.165 -0.0618,0.1462 -0.0661,0.1053 -0.0543,0.0628 -0.037,0.0335 -0.0491,0.0344 -0.0536,0.0261 -0.0535,0.0159 -0.0659,0.0092 -0.0944,10e-5 z"
       style="fill:none;stroke:#000000;stroke-width:0.1;stroke-miterlimit:4;stroke-dasharray:none"
       inkscape:connector-curvature="0" />
    <path
       id="path4626"
       d="m 25.0591,-28.6741 -0.0795,-0.0268 -0.0706,-0.0372 -0.0577,-0.0427 -0.0465,-0.047 -0.0014,-0.0017 -0.0321,-0.0447 -0.0241,-0.0477 -0.015,-0.0479 -0.0086,-0.0576 10e-5,-0.0725 0.0129,-0.0908 0.0434,-0.1489 0.1346,-0.3142 0.0567,-0.1693 0.0587,-0.2851 0.0282,-0.0774 0.0074,-0.0151 0.0254,-0.0415 0.0301,-0.0355 0.0395,-0.0338 0.0531,-0.0329 0.0791,-0.0327 0.092,-0.0217 0.0896,-0.0077 0.0638,0.0022 0.1022,0.0169 0.1101,0.0364 0.1222,0.0624 0.1713,0.1256 0.1322,0.1295 0.0656,0.0885 0.038,0.0734 0.0241,0.0704 0.0126,0.0716 5e-4,0.0666 -0.0099,0.0617 -0.022,0.0678 -0.038,0.0749 -0.058,0.0807 -0.0848,0.0852 -0.2217,0.154 -0.1281,0.1117 -0.2271,0.232 -0.0832,0.0623 -0.0553,0.0299 -0.0777,0.0275 -0.0836,0.0143 -0.0846,3e-4 z"
       style="fill:none;stroke:#000000;stroke-width:0.1;stroke-miterlimit:4;stroke-dasharray:none"
       inkscape:connector-curvature="0" />
    <path
       id="path4624"
       d="m 19.8989,-22.4224 -0.041,-0.0089 -0.0307,-0.0113 -0.0324,-0.0178 -0.0337,-0.0259 -0.0359,-0.0357 -0.0708,-0.0868 -0.0722,-0.082 -0.1254,-0.0933 -0.0531,-0.0433 -0.0332,-0.0378 -0.0311,-0.0488 -0.0361,-0.08 -0.0354,-0.1077 -0.1726,-0.6304 -0.0232,-0.1784 0.0025,-0.1089 0.0183,-0.1017 0.135,-0.3218 0.0535,-0.1439 0.02,-0.1049 0.0036,-0.1312 -0.0213,-0.2109 -0.0788,-0.5312 -0.1226,-0.5597 -0.1079,-0.2678 -0.226,-0.3741 -0.0477,-0.1102 -0.0299,-0.1175 -0.0133,-0.1412 0.0102,-0.1697 0.0426,-0.1964 0.076,-0.1981 0.1379,-0.2414 0.3469,-0.4892 0.3543,-0.6719 0.0164,-0.0337 0.1094,-0.1891 0.096,-0.1174 0.0888,-0.0785 0.078,-0.0492 0.0613,-0.0264 0.0657,-0.0168 0.0687,-0.0055 0.071,0.0059 0.0782,0.0193 0.071,0.0304 0.0418,0.0248 0.0632,0.0496 0.0615,0.0661 0.059,0.0872 0.0545,0.1161 0.0403,0.139 0.019,0.1463 -0.0038,0.2519 0.0095,0.1353 0.031,0.1228 0.1053,0.2417 0.2189,0.4366 0.1379,0.3552 0.0519,0.2466 0.012,0.2845 -0.0487,0.4813 -0.0905,0.755 0.0078,0.5564 -0.0229,0.1694 -0.0515,0.1687 -0.0973,0.2099 -0.3382,0.5569 -0.1584,0.3139 -0.077,0.24 -0.0606,0.5576 -0.0274,0.125 -0.0132,0.0378 -0.0279,0.0593 -0.0331,0.0497 -0.0413,0.0446 -0.0475,0.0369 -0.0625,0.0344 -0.0652,0.0244 -0.069,0.0151 -0.0593,0.0043 z"
       style="fill:none;stroke:#000000;stroke-width:0.1;stroke-miterlimit:4;stroke-dasharray:none"
       inkscape:connector-curvature="0" />
    <path
       id="path4622"
       d="m 14.3898,-22.2319 -0.0543,-0.0153 -0.062,-0.0293 -0.0603,-0.041 -0.1147,-0.1065 -0.5253,-0.5271 -0.4117,-0.4765 -0.2424,-0.3893 -0.2182,-0.4835 -0.3396,-0.7257 -0.4111,-0.8267 -0.1652,-0.4047 -0.0748,-0.1242 -0.069,-0.0814 -0.1091,-0.0927 -0.1328,-0.0811 -0.1732,-0.0732 -0.2046,-0.0586 -0.7057,-0.1415 -0.2718,-0.0879 -0.15688,-0.0789 -0.10498,-0.0756 -0.14425,-0.1377 -0.24604,-0.3091 -0.27997,-0.4815 -0.13617,-0.3473 -0.04572,-0.2068 -0.00758,-0.1022 -3e-5,-0.0062 1.8e-4,-8e-4 3.7e-4,-0.0011 9.1e-4,-0.0022 0.00208,-0.0045 0.00447,-0.009 0.00932,-0.0178 0.01856,-0.0342 0.03463,-0.0619 0.05808,-0.1005 0.11894,-0.1878 0.01557,-0.0187 0.23506,0.0971 0.06732,0.0384 0.0426,0.0343 0.0157,0.0169 0.01024,0.0159 0.01062,0.0246 0.00807,0.0305 0.01415,0.0943 0.00983,0.0402 0.01025,0.0242 0.01115,0.0177 0.09609,0.1053 0.21986,0.1858 0.37997,0.2346 0.7454,0.3161 1.0128,0.3055 0.3322,0.1115 0.1269,0.0744 0.4858,0.3874 0.4608,0.2855 0.4658,0.2883 0.1839,0.1613 0.1183,0.1437 0.1651,0.2723 0.1823,0.3365 0.4539,0.8346 0.1992,0.4691 0.0653,0.2543 0.0146,0.1557 -0.0297,0.3265 -0.0442,0.4305 -0.0147,0.0863 -0.0237,0.0824 -0.0265,0.0549 -0.0444,0.0628 -0.1716,0.1784 -0.1528,0.1901 -0.0725,0.0814 -0.0507,0.0416 -0.0418,0.0243 -0.0599,0.0217 -0.077,0.0164 -0.0667,0.0037 z"
       style="fill:none;stroke:#000000;stroke-width:0.1;stroke-miterlimit:4;stroke-dasharray:none"
       inkscape:connector-curvature="0" />
    <path
       id="path4620"
       d="m 24.6301,-26.6562 -0.1714,-0.0248 -0.1024,-0.0314 -0.1038,-0.0508 -0.0983,-0.0706 -0.0742,-0.0739 -0.0459,-0.0636 -0.0156,-0.0286 -0.0164,-0.0401 -0.0087,-0.035 -0.0032,-0.0326 0.002,-0.0307 0.0073,-0.0322 0.0158,-0.0392 0.0251,-0.0413 0.0405,-0.0485 0.0649,-0.0579 0.105,-0.0692 0.143,-0.0667 0.1682,-0.0492 0.3958,-0.0707 0.1607,-0.0525 0.1981,-0.1006 0.5164,-0.3222 0.6955,-0.3291 0.4254,-0.2925 0.1334,-0.0802 0.1061,-0.0417 0.1071,-0.0227 0.1275,-0.0064 0.1264,0.014 0.1094,0.0294 0.1021,0.0457 0.0856,0.0568 0.088,0.0803 0.1161,0.1436 0.075,0.1242 0.0331,0.0814 0.0134,0.0581 0.0029,0.039 -0.0029,0.0368 -0.0076,0.0314 -0.0135,0.0321 -0.0221,0.0361 -0.0351,0.042 -0.0615,0.0556 -0.0602,0.0445 -0.1511,0.0942 -0.2147,0.114 -0.484,0.2543 -0.3228,0.2225 -0.1431,0.1199 -0.1479,0.0968 -0.2796,0.1191 -0.6866,0.2073 -0.3566,0.0424 z"
       style="fill:none;stroke:#000000;stroke-width:0.1;stroke-miterlimit:4;stroke-dasharray:none"
       inkscape:connector-curvature="0" />
    <path
       id="path4618"
       d="M 9.77887,-24.8854 9.64995,-24.9079 9.54129,-24.9435 9.4446,-24.9929 9.33466,-25.0742 9.18625,-25.2197 8.93539,-25.473 8.82495,-25.5536 8.689,-25.6239 l -0.16727,-0.056 -0.19539,-0.0334 -0.20943,-0.0078 -0.56373,0.0318 -0.38341,-0.0091 -0.1208,-0.0176 -0.20203,-0.0541 -0.22067,-0.0983 -0.61312,-0.3668 -0.1575,-0.1283 -0.09041,-0.1 -0.07516,-0.1136 -0.04317,-0.0957 -0.02014,-0.0745 -0.00641,-0.0566 0.00215,-0.0534 0.0112,-0.0556 0.02361,-0.0654 0.03683,-0.073 0.26543,-0.4351 0.14152,-0.1962 0.17177,-0.1672 0.43735,-0.3367 0.12199,-0.0889 0.13143,-0.0767 0.09073,-0.035 0.07304,-0.0153 0.06705,-0.0032 0.08481,0.0087 0.10418,0.0262 0.16591,0.069 0.16545,0.0951 0.21234,0.1639 0.24563,0.259 0.42547,0.6241 0.37857,0.5821 0.20729,0.2236 0.28055,0.22 0.45639,0.2658 0.41455,0.207 0.0835,0.0513 0.0442,0.0377 0.0254,0.0297 0.0196,0.0316 0.0154,0.0368 0.0112,0.0457 0.0049,0.0538 -0.0041,0.0683 -0.0188,0.0837 -0.0297,0.074 -0.0378,0.0639 -0.0422,0.0506 -0.0456,0.0392 -0.0562,0.0349 -0.0719,0.0306 -0.1099,0.0284 -0.18766,0.0205 z"
       style="fill:none;stroke:#000000;stroke-width:0.1;stroke-miterlimit:4;stroke-dasharray:none"
       inkscape:connector-curvature="0" />
    <path
       id="path4616"
       d="m 16.9537,-23.412 -0.0943,-0.028 -0.1029,-0.0498 -0.1163,-0.0802 -0.0579,-0.0507 -0.0863,-0.0942 -0.0592,-0.0864 -0.04,-0.0816 -0.0253,-0.0817 -0.0147,-0.1137 0.0065,-0.1919 0.0191,-0.3109 -0.0149,-0.1361 -0.0383,-0.1383 -0.0691,-0.1532 -0.1029,-0.1586 -0.127,-0.1494 -0.2868,-0.3007 -0.1518,-0.2 -0.1059,-0.1915 -0.0739,-0.2001 -0.0323,-0.1658 -0.005,-0.1282 0.0141,-0.1223 0.032,-0.1123 0.0562,-0.1216 0.0886,-0.1333 0.1426,-0.1536 0.2322,-0.183 0.5537,-0.4446 0.3463,-0.2693 0.0549,-0.0329 0.0794,-0.0365 0.0563,-0.0155 0.0394,-0.0046 0.0381,0.0015 0.0379,0.0079 0.0395,0.0152 0.0459,0.0263 0.0547,0.0432 0.0656,0.0691 0.0925,0.134 0.0729,0.1507 0.1001,0.2848 0.3361,0.7479 0.1906,0.5191 0.0682,0.314 0.0327,0.4171 -0.0277,0.3307 -0.0632,0.2512 -0.0678,0.1649 -0.3139,0.5212 -0.308,0.4632 -0.1171,0.1278 -0.0849,0.0673 -0.0685,0.0381 -0.0568,0.0207 -0.0585,0.0114 -0.0575,0.0018 z"
       style="fill:none;stroke:#000000;stroke-width:0.1;stroke-miterlimit:4;stroke-dasharray:none"
       inkscape:connector-curvature="0" />
    <path
       id="path4614"
       d="m 27.9283,-23.9798 -0.2477,-0.051 -0.7523,-0.132 -0.2018,-0.0588 -0.0585,-0.0249 -0.1221,-0.0685 -0.1178,-0.0936 -0.1149,-0.1256 -0.0839,-0.1264 -0.0583,-0.1241 -0.038,-0.1311 -0.0143,-0.124 0.0062,-0.1513 0.0395,-0.2031 0.1113,-0.3395 0.1121,-0.2593 0.0682,-0.1058 0.059,-0.0654 0.05,-0.0404 0.0532,-0.0308 0.0649,-0.0246 0.1214,-0.0306 0.2293,-0.0715 0.3401,-0.158 0.5834,-0.3669 0.152,-0.1 0.2887,-0.1599 0.212,-0.0766 0.1717,-0.0361 0.1933,-0.0126 0.1344,0.0118 0.1108,0.0259 0.1029,0.0415 0.089,0.0545 0.1199,0.1026 0.2644,0.273 0.2049,0.2194 0.0781,0.1195 0.0537,0.1232 0.0405,0.1544 0.0201,0.1939 -0.0101,0.2215 -0.0499,0.2516 -0.0975,0.2663 -0.1806,0.329 -0.2852,0.3825 -0.2271,0.2208 -0.1979,0.1383 -0.2071,0.0997 -0.1745,0.0565 -0.2751,0.0471 -0.2587,8e-4 z"
       style="fill:none;stroke:#000000;stroke-width:0.1;stroke-miterlimit:4;stroke-dasharray:none"
       inkscape:connector-curvature="0" />
    <path
       id="path4612"
       d="m 22.0874,-22.8204 -0.0706,-0.0189 -0.2366,-0.0798 -0.0563,-0.229 -0.0326,-0.16 -0.0036,-0.0888 0.013,-0.0944 0.0526,-0.1814 0.111,-0.2401 0.3048,-0.4546 0.5044,-0.5871 0.408,-0.4253 0.3016,-0.2212 0.1484,-0.0766 0.1093,-0.0357 0.1314,-0.0183 0.2131,-0.0024 0.5938,0.0798 0.0993,0.0171 0.0079,0.0026 0.008,0.0042 0.0087,0.0063 0.0096,0.0094 0.0092,0.0111 0.0305,0.0423 0.0201,0.0211 0.1617,0.141 0.0588,0.0635 0.0323,0.0485 0.0887,0.1745 0.0602,0.1655 0.0224,0.1149 0.0019,0.1691 -0.0443,0.3561 -0.0816,0.28 -0.0973,0.2039 -0.1014,0.146 -0.0984,0.1029 -0.1098,0.0839 -0.1024,0.0561 -0.0704,0.027 -0.1546,0.0345 -0.2777,0.0151 -0.0784,-0.0068 -0.2948,-0.0757 -0.0804,-0.0097 -0.0603,0.0027 -0.0709,0.0147 -0.114,0.0424 -0.1588,0.0875 -0.1967,0.1214 -0.0098,0.0072 -0.0106,0.0107 -0.0165,0.0217 -0.0215,0.0276 -0.0105,0.0098 -0.0093,0.0061 -0.1356,0.0509 -0.3932,0.159 -0.1679,0.0634 -0.0515,0.01 -0.0418,0.0011 z"
       style="fill:none;stroke:#000000;stroke-width:0.1;stroke-miterlimit:4;stroke-dasharray:none"
       inkscape:connector-curvature="0" />
    <path
       id="path4610"
       d="M 10.0275,-19.5153 9.78029,-19.565 9.4472,-19.6881 8.89864,-19.9804 8.15344,-20.3616 7.59093,-20.6339 7.35507,-20.8006 7.20796,-20.9449 7.11475,-21.072 7.04044,-21.2172 6.96527,-21.444 l -0.18024,-0.9415 -0.12027,-0.4038 -0.12037,-0.2493 -0.16921,-0.2359 -0.287,-0.3684 -0.10649,-0.1989 -0.06783,-0.1926 -0.03598,-0.1908 -0.00508,-0.1434 0.01311,-0.1208 0.0276,-0.1054 0.0149,-0.0389 0.04348,-0.0846 0.0558,-0.0758 0.0714,-0.0692 0.08151,-0.0564 0.11068,-0.0524 0.40129,0.0953 0.12135,0.0206 0.02135,0.0071 0.01881,0.0098 0.02383,0.0176 0.04082,0.0383 0.08608,0.0863 0.42718,0.4122 0.13651,0.1455 0.13736,0.1832 0.19552,0.3184 0.10503,0.1193 0.20666,0.1718 0.33849,0.2802 1.34929,1.3516 0.20555,0.1485 0.4115,0.3611 0.5691,0.5843 0.1718,0.2344 0.0352,0.0625 0.0542,0.1265 0.0254,0.1029 0.0059,0.066 -0.0055,0.0574 -0.0156,0.0593 -0.0276,0.0628 -0.0342,0.053 -0.0361,0.0412 -0.0398,0.0333 -0.0733,0.0424 -0.1374,0.0579 -0.1877,0.0495 -0.3213,0.0374 -0.2438,0.0292 z"
       style="fill:none;stroke:#000000;stroke-width:0.1;stroke-miterlimit:4;stroke-dasharray:none"
       inkscape:connector-curvature="0" />
    <path
       id="path4608"
       d="M 5.16847,-21.3023 4.7263,-21.418 3.85114,-21.6297 3.63036,-21.7003 3.49261,-21.7695 3.47565,-21.78 l -0.12464,-0.0935 -0.0995,-0.102 -0.07307,-0.1012 -0.05117,-0.099 -0.01715,-0.045 -0.02382,-0.0932 -0.00909,-0.0997 0.00708,-0.1195 0.04465,-0.2004 0.12187,-0.3127 0.29822,-0.5981 0.09408,-0.1871 0.08661,-0.1338 0.06648,-0.0738 0.05458,-0.0441 0.05747,-0.0331 0.06874,-0.0262 0.09824,-0.02 0.11659,-0.0049 0.15573,0.0161 0.22986,0.0592 0.11064,0.0412 0.25679,0.1308 0.22328,0.1647 0.18628,0.1913 0.14737,0.2109 0.10699,0.2219 0.20873,0.673 0.10234,0.3018 0.02921,0.1915 -0.00174,0.18 -0.02372,0.1375 -0.03375,0.0979 -0.03357,0.0638 -0.03656,0.0502 -0.04144,0.0416 -0.0452,0.0327 -0.05681,0.0289 -0.08911,0.0282 -0.10769,0.0165 -0.1539,0.0019 z"
       style="fill:none;stroke:#000000;stroke-width:0.1;stroke-miterlimit:4;stroke-dasharray:none"
       inkscape:connector-curvature="0" />
    <path
       id="path4606"
       d="m 15.6741,-15.9387 -0.0054,-6e-4 -0.0051,-0.0015 -0.0051,-0.0023 -0.0053,-0.0036 -0.007,-0.0065 -0.009,-0.0113 -0.022,-0.0348 -0.0109,-0.0141 -0.0079,-0.0075 -0.0067,-0.0045 -0.4517,-0.1689 -0.1951,-0.0851 -0.1144,-0.0734 -0.0516,-0.0433 -0.1329,-0.14 -0.1199,-0.1739 -0.1107,-0.2258 -0.0914,-0.2623 -0.1884,-0.7268 -0.038,-0.1221 -0.0036,-0.0068 -0.0051,-0.007 -0.0077,-0.0077 -0.0093,-0.0075 -0.0295,-0.0197 -0.0152,-0.012 -0.0078,-0.0085 -0.0044,-0.0065 -0.0034,-0.0074 -0.3194,-1.1302 -0.033,-0.1019 -0.0049,-0.0103 -0.0073,-0.0106 -0.0155,-0.0161 -0.0156,-0.0127 -0.5084,-0.514 -0.2,-0.1733 -0.2841,-0.1515 -0.0955,-0.0612 -0.0559,-0.0502 -0.0395,-0.0494 -0.1509,-0.2724 -0.2385,-0.6644 -0.225,-0.6077 -0.1634,-0.2812 -0.0774,-0.095 -0.1077,-0.0978 -0.2306,-0.154 -0.6292,-0.3251 -0.4922,-0.1622 -0.0469,-0.0163 -0.0227,-0.0121 -0.0158,-0.0123 -0.0131,-0.014 -0.0128,-0.0191 -0.01603,-0.034 -0.0281,-0.091 -0.07305,-0.2987 0.12238,-0.134 0.1989,-0.1998 0.0836,-0.061 0.0531,-0.0271 0.0403,-0.0127 0.0542,-0.0055 0.3816,-0.0216 0.4089,0.0116 0.2254,0.0431 0.1395,0.0495 0.1257,0.0674 0.1032,0.0791 0.0879,0.0931 0.0829,0.1225 0.114,0.2129 0.0911,0.1854 0.1278,0.27 0.0757,0.1567 0.3566,0.7778 0.112,0.2086 0.096,0.126 0.1151,0.1078 0.1778,0.1175 0.2779,0.132 0.4807,0.2203 0.1835,0.1263 0.1446,0.133 0.1006,0.1229 0.0556,0.0935 0.0467,0.1195 0.0546,0.2431 0.0646,0.5577 0.0835,0.3534 0.112,0.2838 0.1076,0.1814 0.1199,0.1404 0.38,0.3426 0.1403,0.1675 0.2124,0.3562 0.2205,0.5466 0.2219,0.8843 0.0226,0.1127 2e-4,0.009 -0.0014,0.0099 -0.0038,0.0127 -0.007,0.0142 -0.0124,0.0181 -0.0219,0.0239 -0.0577,0.0464 -0.1345,0.0779 -0.2762,0.1112 -0.0829,0.0208 -0.0172,0.0015 z"
       style="fill:none;stroke:#000000;stroke-width:0.1;stroke-miterlimit:4;stroke-dasharray:none"
       inkscape:connector-curvature="0" />
    <path
       id="path4604"
       d="m 21.1631,-18.1413 -0.0677,-0.007 -0.0585,-0.0156 -0.0527,-0.0238 -0.0441,-0.0294 -0.0437,-0.0408 -0.0382,-0.0495 -0.036,-0.0653 -0.0322,-0.0878 -0.0279,-0.1448 -0.006,-0.1809 0.0259,-0.2255 0.0652,-0.2385 0.0887,-0.2153 0.4124,-0.8387 0.3865,-0.736 0.3003,-0.4124 0.2654,-0.2631 0.2296,-0.164 0.2385,-0.1167 0.3293,-0.1042 0.7187,-0.1519 0.664,-0.2158 1.2202,-0.5919 0.6386,-0.2458 0.4649,-0.0974 0.3559,0.0041 0.5451,0.0731 0.2883,0.0831 0.1522,0.0708 0.0873,0.0591 0.0561,0.0535 0.0591,0.0744 0.0526,0.0824 0.0192,0.0443 0.007,0.0266 0.0024,0.0226 -0.001,0.0209 -0.0041,0.0186 -0.0045,0.0125 -0.011,0.0212 -0.0175,0.0245 -0.0287,0.0315 -0.0283,0.0279 -0.2124,0.219 -0.1917,0.207 -0.1746,0.1804 -0.3164,0.2727 -0.2988,0.1772 -0.8019,0.3401 -1.2229,0.4943 -0.43,0.1593 -0.1183,0.0626 -0.1154,0.0906 -0.2136,0.2334 -0.3117,0.4289 -0.157,0.2811 -0.0657,0.0839 -0.0644,0.0584 -0.152,0.0988 -1.235,0.6436 -0.5832,0.3241 -0.4781,0.1557 z"
       style="fill:none;stroke:#000000;stroke-width:0.1;stroke-miterlimit:4;stroke-dasharray:none"
       inkscape:connector-curvature="0" />
    <path
       id="path4602"
       d="m 28.92,-19.372 -0.7802,-0.1246 -0.3435,-0.0755 -0.1864,-0.073 -0.1779,-0.1035 -0.1079,-0.0837 -0.1317,-0.133 -0.0823,-0.1154 -0.047,-0.0957 -0.0222,-0.071 -0.01,-0.0641 v -0.0627 l 0.0092,-0.0572 0.0203,-0.0614 0.037,-0.073 0.063,-0.0886 0.1032,-0.1054 0.1289,-0.0951 0.1664,-0.0897 0.331,-0.125 0.207,-0.0489 0.1376,-0.0108 0.1423,0.0112 0.2979,0.0782 0.1967,0.0487 0.0713,0.0057 0.0444,-0.0035 0.0279,-0.0066 0.024,-0.0097 0.0208,-0.0125 0.0197,-0.0163 0.021,-0.0239 0.0223,-0.0342 0.0295,-0.065 0.0376,-0.1264 0.0794,-0.3199 0.073,-0.1806 0.0902,-0.1502 0.1017,-0.1218 0.0752,-0.0687 0.11,-0.0768 0.1129,-0.0549 0.1138,-0.0344 0.1371,-0.0178 0.3227,0.005 0.1937,-0.007 0.1326,-0.0278 0.5305,-0.2039 0.1609,-0.0411 0.1808,-0.0224 0.1113,0.0033 7e-4,10e-5 0.0893,0.0165 0.059,0.0207 0.049,0.0259 0.042,0.0313 0.0403,0.0418 0.037,0.0533 0.0351,0.0718 0.0304,0.0977 0.0199,0.1315 -0.0014,0.1734 -0.0284,0.1655 -0.0505,0.1465 -0.078,0.1499 -0.3617,0.5088 -0.0906,0.1738 -0.0961,0.2892 -0.033,0.0682 -0.0449,0.0633 -0.0682,0.069 -0.1189,0.0933 -0.3431,0.3024 -0.1352,0.1157 -0.156,0.0904 -0.2442,0.0968 -0.5907,0.2013 -0.2159,0.0497 -0.2188,0.0134 z"
       style="fill:none;stroke:#000000;stroke-width:0.1;stroke-miterlimit:4;stroke-dasharray:none"
       inkscape:connector-curvature="0" />
    <path
       id="path4600"
       d="m 19.1251,-17.7225 -0.1381,-0.0297 -0.1289,-0.0503 -0.1241,-0.0725 -0.1214,-0.0955 -0.2282,-0.223 -0.3599,-0.3599 -0.0982,-0.1346 -0.0551,-0.1101 -0.0353,-0.1194 -0.0253,-0.1808 -0.0478,-0.3784 -0.0969,-0.2551 -0.0315,-0.1044 -0.0118,-0.1087 0.0147,-0.2706 -0.001,-0.4698 0.0128,-0.4744 0.0333,-0.1826 0.035,-0.1004 0.0333,-0.0616 0.0273,-0.036 0.0276,-0.0272 0.0289,-0.0209 0.0316,-0.0159 0.0353,-0.011 0.046,-0.0071 0.0684,-5e-4 0.1284,0.0187 0.0772,0.0187 0.2,0.0721 0.1981,0.109 0.1994,0.1542 0.2011,0.2125 0.1964,0.2842 0.169,0.3452 0.1959,0.6337 0.0975,0.5416 0.0065,0.3331 -0.1343,0.7941 -0.0347,0.148 -0.0315,0.0811 -0.0288,0.0491 -0.0244,0.0298 -0.0277,0.0248 -0.0326,0.0205 -0.0382,0.0161 -0.0499,0.0124 -0.0668,0.0064 z"
       style="fill:none;stroke:#000000;stroke-width:0.1;stroke-miterlimit:4;stroke-dasharray:none"
       inkscape:connector-curvature="0" />
    <path
       id="path4598"
       d="m 10.6731,-16.4651 -0.0047,-9e-4 -0.0042,-0.0016 -0.0044,-0.0025 -0.0047,-0.0038 -0.0061,-0.0066 -0.0094,-0.0141 -0.0175,-0.0312 -0.0087,-0.0122 -0.0062,-0.0063 -0.0045,-0.0034 -0.0044,-0.0024 -0.0047,-0.0016 -0.079,-0.0072 -0.1474,-0.0106 -0.1798,-0.0098 -1.02097,-0.0334 -0.41945,-0.0276 -0.00643,-0.0011 -0.00611,-0.002 -0.00621,-0.0033 -0.00667,-0.0049 -0.00751,-0.0075 -0.00697,-0.0086 -0.01354,-0.02 -0.01892,-0.0264 -0.0099,-0.0098 -0.14511,-0.0994 -0.65512,-0.4318 -0.74611,-0.3136 -1.05486,-0.4127 -0.6716,-0.2934 -0.16171,-0.0882 -0.14006,-0.1114 -0.27664,-0.288 -0.09882,-0.1005 -0.15413,-0.1293 -0.2408,-0.14 -0.28822,-0.1135 -0.64012,-0.177 -0.21689,-0.0889 -0.1329,-0.0803 -0.12154,-0.1025 -0.10547,-0.1231 -0.10179,-0.1657 -0.1051,-0.2529 0.07264,-0.0765 0.30486,-0.3178 0.04343,-0.036 0.00978,-0.0059 0.00424,-0.0017 0.00227,-5e-4 0.00991,-1e-4 0.07391,1e-4 0.96434,0.0503 0.67779,0.1305 0.46819,0.172 0.34808,0.1967 0.13468,0.1017 0.15938,0.1799 0.08654,0.0888 0.10543,0.0722 0.53408,0.291 0.91184,0.4708 0.07487,0.0514 0.10032,0.0914 0.17863,0.1811 0.09047,0.0708 0.07359,0.0403 0.42356,0.1456 0.65115,0.1285 0.94169,0.0765 1.1253,0.0775 0.1131,0.0142 0.0076,0.0018 0.0075,0.0032 0.0079,0.0049 0.0087,0.0072 0.0118,0.0132 0.0044,0.0059 0.0253,0.0359 0.0574,0.0584 0.3347,0.3055 0.1347,0.1594 0.1388,0.2291 0.0406,0.1004 0.0173,0.0749 0.0038,0.0526 -0.0041,0.0507 -0.0113,0.0457 -0.0203,0.0481 -0.0309,0.0499 -0.0521,0.0594 -0.0691,0.0574 -0.1001,0.0607 -0.1632,0.0664 -0.2427,0.0555 -0.3478,0.0296 -0.3433,0.0027 z"
       style="fill:none;stroke:#000000;stroke-width:0.1;stroke-miterlimit:4;stroke-dasharray:none"
       inkscape:connector-curvature="0" />
    <path
       id="path4596"
       d="m 29.0068,-17.0521 -0.8733,-0.1329 -0.4814,-0.1485 -0.3522,-0.1761 -0.2829,-0.2008 -0.1445,-0.1403 -0.0452,-0.0566 -0.0553,-0.0888 -0.0269,-0.063 -0.0152,-0.0574 -0.0058,-0.055 3e-4,-0.0269 0.0072,-0.0534 0.0179,-0.0601 0.033,-0.0694 0.0526,-0.0772 0.0782,-0.0825 0.0819,-0.063 0.0774,-0.0431 0.0737,-0.0277 0.071,-0.0146 0.0844,-0.0035 0.1114,0.0132 0.165,0.0418 0.3381,0.0877 0.6906,0.0905 0.3561,0.0264 0.8194,4e-4 0.5168,-0.0811 0.5306,-0.1789 0.916,-0.4065 0.3027,-0.0971 0.183,-0.0284 0.1307,0.0011 0.0931,0.0155 0.0846,0.0279 0.0813,0.0427 0.0781,0.0589 0.0829,0.0853 0.0836,0.1181 0.0797,0.163 0.0232,0.0655 0.038,0.1592 0.0123,0.1412 -0.0086,0.1331 -0.0277,0.12 -0.0494,0.1226 -0.071,0.1201 -0.109,0.1337 -0.1525,0.1372 -0.1967,0.1286 -0.2615,0.1156 -0.3231,0.0844 -0.8955,0.0916 -1.0149,0.1083 z"
       style="fill:none;stroke:#000000;stroke-width:0.1;stroke-miterlimit:4;stroke-dasharray:none"
       inkscape:connector-curvature="0" />
    <path
       id="path4594"
       d="m 3.91191,-17.1708 -0.16858,-0.0055 -0.12527,-0.0036 -0.10817,-0.0222 -0.2446,-0.0916 -0.23521,-0.1059 -0.2668,-0.1216 -0.1353,-0.0753 -0.0662,-0.0516 -0.01301,-0.0127 -0.03275,-0.039 -0.01884,-0.0313 -0.01352,-0.0333 -0.00792,-0.0361 -0.00215,-0.0401 0.0049,-0.0489 0.01878,-0.0694 0.03338,-0.0734 0.05321,-0.0804 0.0627,-0.068 0.06577,-0.052 0.06971,-0.0392 0.06041,-0.0224 0.05574,-0.0116 0.05593,-0.0026 0.05203,0.0062 0.06634,0.0187 0.19855,0.0987 0.52498,0.2826 0.0242,0.0154 0.17952,0.1353 0.08092,0.0826 0.0466,0.066 0.02737,0.0557 0.01888,0.0617 0.00886,0.0703 -0.00189,0.0638 -0.01095,0.06 -0.01511,0.0425 -0.01598,0.0289 -0.01527,0.0195 -0.01384,0.0129 -0.01515,0.0103 -0.01567,0.0072 -0.01943,0.0055 -0.02575,0.0034 -0.02923,3e-4 z"
       style="fill:none;stroke:#000000;stroke-width:0.1;stroke-miterlimit:4;stroke-dasharray:none"
       inkscape:connector-curvature="0" />
    <path
       id="path4592"
       d="m 20.7508,-13.0257 -0.0896,-0.0835 -0.0462,-0.0592 -0.0281,-0.0514 -0.061,-0.172 -0.0385,-0.2034 -0.0076,-0.2417 0.036,-0.2949 0.102,-0.364 0.2345,-0.505 0.3061,-0.4532 0.3361,-0.3629 0.3074,-0.2391 0.4718,-0.2855 0.5841,-0.3272 0.8928,-0.5369 0.1092,-0.0676 0.0488,-0.0432 0.1216,-0.1281 0.0452,-0.0367 0.0333,-0.0192 0.026,-0.0099 0.027,-0.0057 0.1127,-8e-4 0.2818,0.0124 0.1331,0.0213 0.0605,0.0201 0.0392,0.0208 0.0323,0.0252 0.032,0.0345 0.0701,0.0924 0.0982,0.1078 0.0691,0.0601 0.3907,0.2949 0.2001,0.1215 0.1343,0.0554 0.0671,0.0172 0.2756,0.0269 0.892,0.1013 0.0827,0.0154 0.4326,0.1146 0.2251,0.0987 0.1271,0.0816 0.0834,0.0746 0.05,0.0614 0.0364,0.0615 0.0254,0.0646 0.0144,0.0662 0.0071,0.0704 0.0108,0.2095 -0.0073,0.0867 -0.0114,0.0462 -0.0161,0.0381 -0.0232,0.0372 -0.0322,0.0391 -0.0743,0.0754 -0.1481,0.1684 -0.0672,0.07 -0.0489,0.0369 -0.336,0.1671 -0.111,0.0471 -0.0173,0.0044 -0.007,7e-4 -0.0037,-3e-4 -0.0023,-5e-4 -0.0015,-6e-4 -0.0012,-7e-4 -10e-4,-8e-4 -7e-4,-8e-4 -6e-4,-0.0011 -6e-4,-0.0013 -5e-4,-0.0016 -2e-4,-0.0022 10e-5,-0.0037 0.0013,-0.0071 0.006,-0.0199 0.0052,-0.0164 0.0064,-0.0283 0.0012,-0.0196 -0.0013,-0.0139 -0.0032,-0.013 -0.0053,-0.0127 -0.0048,-0.0079 -0.0093,-0.0119 -0.0134,-0.0123 -0.0197,-0.0133 -0.0317,-0.0148 -0.7494,-0.2452 -0.3031,-0.1056 -0.0081,-0.004 -0.0077,-0.0055 -0.0084,-0.0079 -0.0083,-0.0101 -0.0099,-0.014 -0.002,-0.0029 -0.0187,-0.0252 -0.0097,-0.0093 -0.0085,-0.0058 -0.0421,-0.0172 -0.9052,-0.2871 -0.1459,-0.0293 -0.4818,-0.0295 -0.1429,0.0063 -0.0828,0.0168 -0.0517,0.0191 -0.0438,0.024 -0.0396,0.0308 -0.1,0.1092 -0.0876,0.133 -0.0828,0.17 -0.1782,0.4927 -0.1854,0.6142 -0.0244,0.1742 0.0017,0.0726 0.0147,0.0654 0.0018,0.0097 3e-4,0.0056 -7e-4,0.0055 -0.0017,0.0057 -0.0033,0.007 -0.0057,0.009 -0.0398,0.0448 -0.0542,0.0546 -0.1589,0.1763 -0.124,0.1387 -0.0673,0.0538 -0.122,0.0633 -0.5719,0.212 -0.6098,0.1362 -0.7582,0.053 z"
       style="fill:none;stroke:#000000;stroke-width:0.1;stroke-miterlimit:4;stroke-dasharray:none"
       inkscape:connector-curvature="0" />
    <path
       id="path4590"
       d="m 3.30432,-14.819 -0.21884,-0.0549 -0.23618,-0.1005 -0.1492,-0.0935 -0.09169,-0.0801 -0.05622,-0.0664 -0.04056,-0.0651 -0.03061,-0.0731 -0.01729,-0.0738 -0.00662,-0.088 0.00952,-0.11 0.02846,-0.1112 0.04107,-0.0955 0.05257,-0.0836 0.05609,-0.0637 0.06722,-0.0555 0.09391,-0.0546 0.12085,-0.0463 0.15732,-0.036 0.33972,-0.031 0.13976,-0.0052 0.78108,-0.0394 0.40637,-0.0794 0.42859,-0.1804 0.20061,-0.0701 0.17909,-0.0323 0.1415,-0.0023 0.10711,0.0156 0.0806,0.0249 0.07182,0.0353 0.07343,0.0516 0.07998,0.074 0.42074,0.5092 0.10743,0.1773 0.05086,0.1247 0.02174,0.0949 0.00484,0.0686 -0.00563,0.0669 -0.01564,0.0621 -0.03223,0.0741 -0.04783,0.0743 -0.0688,0.0774 -0.09366,0.0764 -0.09348,0.0544 -0.09346,0.0365 -0.09904,0.0215 -0.13691,0.0078 -0.14115,-0.0086 -0.98046,-0.0361 -0.64576,-0.004 -0.55114,0.1146 -0.21032,0.0163 z"
       style="fill:none;stroke:#000000;stroke-width:0.1;stroke-miterlimit:4;stroke-dasharray:none"
       inkscape:connector-curvature="0" />
    <path
       id="path4588"
       d="m 30.2359,-14.3076 -0.2638,-0.0592 -0.1728,-0.0682 -0.1562,-0.0916 -0.1378,-0.1155 -0.1168,-0.1358 -0.1189,-0.196 0.0797,-0.0921 0.2232,-0.3504 0.1011,-0.1347 0.0436,-0.045 0.0184,-0.0131 0.0232,-0.0116 0.0361,-0.0118 0.0513,-0.0104 0.0889,-0.0184 0.0337,-0.013 0.0106,-0.0061 0.0088,-0.0072 0.0091,-0.0098 0.0267,-0.0364 0.0128,-0.0147 0.0095,-0.0079 0.0087,-0.0051 0.1134,-0.0426 0.1877,-0.0658 0.3299,-0.1074 0.5647,-0.198 0.0551,-0.0193 0.0376,-0.0067 0.0311,-4e-4 0.5472,0.0542 0.2584,0.065 0.1598,0.0681 0.1051,0.0666 0.0657,0.0576 0.054,0.0643 0.0432,0.0739 0.0323,0.0631 0.0753,0.1556 0.0452,0.1288 0.0162,0.0905 8e-4,0.0771 -0.021,0.1395 -0.0535,0.1705 -0.0762,0.1518 -0.0907,0.1271 -0.0282,0.0322 -0.1018,0.0933 -0.1087,0.0718 -0.1043,0.0485 -0.1093,0.0313 -0.4427,0.0293 -0.9631,0.0602 z"
       style="fill:none;stroke:#000000;stroke-width:0.1;stroke-miterlimit:4;stroke-dasharray:none"
       inkscape:connector-curvature="0" />
    <path
       id="path4586"
       d="m 15.7547,-11.7299 -0.005,-0.0018 -0.0052,-0.0027 -0.0055,-0.004 -0.0083,-0.0087 -0.0102,-0.0143 -0.0231,-0.0358 -0.0091,-0.0103 -0.0077,-0.0062 -0.0199,-0.0102 -0.1128,-0.0519 -0.3389,-0.1344 -0.3897,-0.1771 -0.1435,-0.0939 -0.0924,-0.0887 -0.1108,-0.1435 -0.3736,-0.4634 -0.3555,-0.3742 -0.2075,-0.1539 -0.3231,-0.1622 -1.3903,-0.4872 -0.0424,-0.0148 -0.1517,-0.0658 -0.0819,-0.052 -0.0698,-0.0615 -0.0667,-0.0809 -0.0761,-0.1282 -0.1313,-0.3287 0.2383,-0.2585 0.3113,-0.2299 0.4128,-0.2775 0.287,-0.1455 0.1827,-0.0608 0.1009,-0.015 0.1334,0.0016 0.4942,0.1019 0.0336,0.007 0.0083,0.0026 0.0084,0.0042 0.0089,0.0063 0.0113,0.011 0.0182,0.0234 0.0218,0.0297 0.3257,0.2962 0.1569,0.1668 0.1294,0.2013 0.3668,0.8025 0.1704,0.2972 0.0197,0.0241 0.0234,0.0206 0.034,0.0216 0.0516,0.023 0.1408,0.0467 0.062,0.0278 0.0348,0.0231 0.033,0.0308 0.0521,0.0611 0.048,0.0513 0.0359,0.0267 0.0674,0.0354 0.1628,0.0656 0.0696,0.037 0.042,0.0317 0.2488,0.2512 0.1574,0.2177 0.1849,0.3875 0.0829,0.275 0.0275,0.182 2e-4,0.0339 -0.005,0.0306 -0.0105,0.0319 -0.0177,0.0345 -0.0321,0.0434 -0.0446,0.0436 -0.0668,0.0481 -0.0937,0.0476 -0.0908,0.0293 -0.0588,0.0093 -0.0213,6e-4 z"
       style="fill:none;stroke:#000000;stroke-width:0.1;stroke-miterlimit:4;stroke-dasharray:none"
       inkscape:connector-curvature="0" />
    <path
       id="path4584"
       d="M 9.10509,-14.1037 8.96428,-14.14 8.78207,-14.2162 8.4211,-14.3929 l -0.15546,-0.0983 -0.09392,-0.0829 -0.07228,-0.0883 -0.05314,-0.09 -0.0347,-0.0856 -0.01941,-0.0806 -0.00518,-0.045 0.00118,-0.0776 0.01323,-0.0722 0.02733,-0.078 0.04403,-0.0821 0.06609,-0.0862 0.05272,-0.0519 0.08209,-0.0611 0.08392,-0.0434 0.10055,-0.0334 0.12368,-0.0218 0.21349,-0.0058 0.08143,0.0045 0.24799,0.037 0.15424,0.0479 0.13719,0.067 0.13843,0.0974 0.16577,0.1599 0.08841,0.1164 0.04554,0.0852 0.02272,0.0667 0.00869,0.0499 8.7e-4,0.048 -0.00898,0.0586 -0.02098,0.0656 -0.12143,0.2283 -0.115,0.177 -0.06224,0.0685 -0.04596,0.0372 -0.04859,0.0283 -0.06396,0.024 -0.07375,0.0147 -0.09585,0.0043 z"
       style="fill:none;stroke:#000000;stroke-width:0.1;stroke-miterlimit:4;stroke-dasharray:none"
       inkscape:connector-curvature="0" />
    <path
       id="path4582"
       d="m 22.8415,-3.35876 -0.17,-0.05179 -0.1692,-0.08316 -0.1904,-0.13306 -0.1769,-0.16513 -0.491,-0.57484 -0.49,-0.42109 -0.1556,-0.14094 -0.0906,-0.11603 -0.0681,-0.09294 -0.0311,-0.03079 -0.0346,-0.02478 -0.0627,-0.03022 -0.1291,-0.04504 -0.1253,-0.05925 -0.1048,-0.07285 -0.1007,-0.09652 -0.0995,-0.13036 -0.0987,-0.17964 -0.1099,-0.2997 -0.1036,-0.4877 -0.0824,-0.88567 0.0433,-0.93714 0.1787,-0.93317 0.2157,-0.63513 0.2254,-0.4292 0.1967,-0.2656 0.223,-0.2212 0.273,-0.1958 0.3673,-0.1875 0.5109,-0.1729 0.6278,-0.1801 0.251,-0.1208 0.2477,-0.1724 0.2715,-0.2548 0.3892,-0.4918 0.3582,-0.5317 0.2688,-0.3146 0.2666,-0.2246 0.2114,-0.1291 0.1935,-0.0833 0.1843,-0.0488 0.1803,-0.0184 0.2174,0.0138 0.2241,0.051 0.2337,0.0905 0.5283,0.2586 0.2767,0.0916 0.3059,0.0498 0.5279,0.0064 1.1595,-0.0757 0.8208,0.0389 0.767,0.1511 0.4973,0.1809 0.4822,0.2662 0.2847,0.2194 0.156,0.1651 0.0901,0.1327 0.0465,0.0979 0.0304,0.1028 0.012,0.096 -0.0031,0.1173 -0.0262,0.1477 -0.0495,0.16 -0.3493,0.7352 -0.6683,1.28222 -0.5984,0.90416 -0.9262,1.1422 -0.9486,1.03994 -0.2115,0.27739 -0.1193,0.16724 -0.0756,0.07387 -0.1129,0.07843 -0.3307,0.1797 -0.2118,0.15772 -0.451,0.38658 -0.8114,0.55333 -1.0931,0.63049 -0.9589,0.46728 -0.5502,0.19133 -0.3385,0.06138 -0.2467,0.00427 z"
       style="fill:none;stroke:#000000;stroke-width:0.1;stroke-miterlimit:4;stroke-dasharray:none"
       inkscape:connector-curvature="0" />
    <path
       id="path4570"
       d="M 12.045,-3.15665 11.7633,-3.22458 11.36,-3.39029 10.7963,-3.71138 10.1369,-4.14163 8.8103,-4.99509 7.64226,-5.81163 6.84425,-6.49788 6.30853,-7.0703 5.56445,-8.02997 4.22542,-10.002 l -0.58818,-0.977 -0.32672,-0.7219 -0.22084,-0.7659 -0.01131,-0.058 -0.03464,-0.2775 0.00513,-0.163 0.02186,-0.1127 0.03325,-0.0907 0.04979,-0.0888 0.07425,-0.0946 0.10895,-0.1021 0.15982,-0.1097 0.22398,-0.1085 0.27007,-0.0834 0.33078,-0.0492 0.07989,-0.0052 h 1.14435 l 0.81055,-0.0261 0.41801,0.0443 0.37293,0.1047 0.43399,0.1917 0.67422,0.4011 0.42005,0.2294 0.32739,0.1133 0.36343,0.0654 0.51719,0.0074 h 0.60519 l 0.3538,0.0654 0.3664,0.1314 0.4185,0.2268 0.4522,0.3411 0.5704,0.5734 0.9804,1.1486 0.3021,0.39092 0.55,0.83104 0.3224,0.67597 0.1456,0.49019 0.0639,0.48375 -0.0141,0.55204 -0.1153,0.63381 -0.2535,0.71669 -0.3622,0.65889 -0.4724,0.62309 -0.528,0.54245 -0.3157,0.2392 -0.1586,0.08915 -0.1765,0.07187 -0.1717,0.04048 -0.1861,0.01371 z"
       style="fill:none;stroke:#000000;stroke-width:0.1;stroke-miterlimit:4;stroke-dasharray:none"
       inkscape:connector-curvature="0" />
  </g>
</svg>
