<?xml version="1.0" standalone="no"?>
<!DOCTYPE svg PUBLIC "-//W3C//DTD SVG 1.1//EN" "http://www.w3.org/Graphics/SVG/1.1/DTD/svg11.dtd">
<svg width="35mm" height="41mm" viewBox="0 -41 35 41" xmlns="http://www.w3.org/2000/svg" version="1.1">
<title>OpenSCAD Model</title>
<path d="
M 18.3909,-0.0246887 L 20.2372,-0.221848 L 22.0521,-0.613922 L 23.8151,-1.19649 L 25.5063,-1.96295 L 27.1066,-2.90466
 L 28.5978,-4.01097 L 29.9632,-5.26936 L 31.1871,-6.6656 L 32.256,-8.18391 L 33.1575,-9.80713 L 33.8817,-11.5169
 L 34.4201,-13.2939 L 34.7669,-15.118 L 34.918,-16.9686 L 34.8718,-18.8248 L 34.6287,-20.6656 L 34.1915,-22.4702
 L 33.5653,-24.2182 L 32.7569,-25.8898 L 31.7756,-27.4661 L 30.6325,-28.9293 L 29.3405,-30.2629 L 27.9143,-31.4518
 L 26.3698,-32.4824 L 24.7246,-33.3433 L 22.9974,-34.0246 L 22.6316,-34.1796 L 22.2945,-34.3897 L 21.9943,-34.6498
 L 21.7383,-34.9536 L 21.5327,-35.2935 L 21.3827,-35.6613 L 21.2919,-36.048 L 21.2625,-36.4442 L 21.213,-37.0715
 L 21.0606,-37.682 L 20.8096,-38.259 L 20.4668,-38.7867 L 20.0416,-39.2506 L 19.5457,-39.638 L 18.9927,-39.9382
 L 18.3978,-40.143 L 17.7771,-40.2469 L 17.1479,-40.2469 L 16.5272,-40.143 L 15.9323,-39.9382 L 15.3792,-39.638
 L 14.8833,-39.2506 L 14.4582,-38.7867 L 14.1154,-38.259 L 13.8644,-37.682 L 13.712,-37.0715 L 13.6625,-36.4442
 L 13.6331,-36.048 L 13.5423,-35.6613 L 13.3923,-35.2935 L 13.1867,-34.9536 L 12.9307,-34.6498 L 12.6305,-34.3897
 L 12.2934,-34.1796 L 11.9276,-34.0246 L 10.2003,-33.3433 L 8.55519,-32.4824 L 7.01073,-31.4518 L 5.58444,-30.2629
 L 4.29243,-28.9293 L 3.14935,-27.4661 L 2.16808,-25.8898 L 1.35973,-24.2182 L 0.733429,-22.4702 L 0.29628,-20.6656
 L 0.0532227,-18.8248 L 0.00697327,-16.9686 L 0.158096,-15.118 L 0.504852,-13.2939 L 1.04333,-11.5169 L 1.76746,-9.80713
 L 2.66902,-8.18391 L 3.73784,-6.6656 L 4.96184,-5.26936 L 6.32716,-4.01097 L 7.81839,-2.90466 L 9.41866,-1.96295
 L 11.1099,-1.19649 L 12.8729,-0.613922 L 14.6878,-0.221848 L 16.5341,-0.0246887 z
M 18.3637,-34.9017 L 17.4625,-34.925 L 16.5613,-34.9017 L 16.3045,-35.0818 L 16.0829,-35.3038 L 15.9031,-35.5608
 L 15.7707,-35.8452 L 15.6897,-36.1482 L 15.6625,-36.4607 L 15.69,-36.7732 L 15.7713,-37.0761 L 15.9039,-37.3604
 L 16.0839,-37.6173 L 16.3058,-37.839 L 16.5627,-38.0189 L 16.847,-38.1514 L 17.15,-38.2326 L 17.4625,-38.2599
 L 17.775,-38.2326 L 18.078,-38.1514 L 18.3623,-38.0189 L 18.6192,-37.839 L 18.8411,-37.6173 L 19.0211,-37.3604
 L 19.1537,-37.0761 L 19.235,-36.7732 L 19.2625,-36.4607 L 19.2353,-36.1482 L 19.1543,-35.8452 L 19.0219,-35.5608
 L 18.8421,-35.3038 L 18.6205,-35.0818 z
M 18.488,-29.893 L 18.4132,-29.8969 L 18.3433,-29.9114 L 18.2732,-29.9381 L 18.1975,-29.9814 L 18.1191,-30.0441
 L 18.0412,-30.13 L 17.9805,-30.2235 L 17.9423,-30.3085 L 17.9106,-30.4198 L 17.8885,-30.5647 L 17.8579,-30.8651
 L 17.7151,-31.5806 L 17.6995,-31.8184 L 17.713,-31.9721 L 17.7492,-32.1204 L 17.8109,-32.2652 L 17.8774,-32.3725
 L 17.9442,-32.4525 L 18.0081,-32.5102 L 18.0684,-32.5507 L 18.1311,-32.5801 L 18.1932,-32.5976 L 18.2682,-32.607
 L 18.3575,-32.6068 L 18.5728,-32.5847 L 18.9513,-32.5492 L 19.2337,-32.5022 L 19.3933,-32.449 L 19.4972,-32.3952
 L 19.5794,-32.3361 L 19.6645,-32.2529 L 19.7447,-32.145 L 19.8062,-32.026 L 19.8444,-31.9075 L 19.8714,-31.7379
 L 19.9034,-31.1262 L 19.8851,-30.9472 L 19.8531,-30.828 L 19.813,-30.7395 L 19.7566,-30.6545 L 19.6677,-30.5556
 L 19.3631,-30.3114 L 18.9311,-30.032 L 18.7286,-29.9415 L 18.5907,-29.9038 z
M 14.7915,-28.0784 L 14.7505,-28.0912 L 14.7085,-28.1121 L 14.6612,-28.1452 L 14.608,-28.196 L 14.5473,-28.2735
 L 14.4785,-28.3917 L 14.4071,-28.5613 L 14.3506,-28.7568 L 14.2733,-29.1199 L 14.0801,-29.9833 L 13.9879,-30.3918
 L 13.8595,-30.7613 L 13.652,-31.1574 L 13.5931,-31.3267 L 13.5641,-31.4785 L 13.5583,-31.6266 L 13.5722,-31.739
 L 13.5933,-31.8135 L 13.6234,-31.8796 L 13.6588,-31.9328 L 13.7056,-31.9834 L 13.7697,-32.0342 L 13.8591,-32.0856
 L 14.0146,-32.1464 L 14.3491,-32.2226 L 14.685,-32.2575 L 14.9028,-32.2461 L 15.0458,-32.2161 L 15.1753,-32.1672
 L 15.3081,-32.0916 L 15.4701,-31.9673 L 15.821,-31.6362 L 15.8569,-31.6027 L 16.3642,-31.1221 L 16.5127,-30.9297
 L 16.5942,-30.7788 L 16.6474,-30.6233 L 16.6906,-30.3782 L 16.7306,-29.898 L 16.7442,-29.4849 L 16.7206,-29.3071
 L 16.6835,-29.1844 L 16.6326,-29.0816 L 16.5684,-28.9928 L 16.4734,-28.8966 L 16.309,-28.7768 L 15.7239,-28.4986
 L 15.3151,-28.2466 L 15.1016,-28.1333 L 14.9752,-28.0884 L 14.8947,-28.0733 L 14.837,-28.0719 z
M 22.3802,-27.2073 L 22.32,-27.221 L 22.2799,-27.2372 L 22.2548,-27.2522 L 22.2346,-27.2686 L 22.2172,-27.2882
 L 22.1742,-27.3491 L 22.0692,-27.5381 L 21.9868,-27.7619 L 21.9044,-28.2358 L 21.8178,-29.3141 L 21.7786,-29.6562
 L 21.7774,-29.6618 L 21.7753,-29.6671 L 21.772,-29.6725 L 21.7673,-29.6783 L 21.7601,-29.6848 L 21.7519,-29.6908
 L 21.7191,-29.711 L 21.706,-29.7208 L 21.6991,-29.728 L 21.6953,-29.7334 L 21.6923,-29.7396 L 21.4853,-30.5471
 L 21.4302,-30.963 L 21.4282,-31.0954 L 21.4456,-31.2794 L 21.4724,-31.3843 L 21.5101,-31.4715 L 21.5551,-31.5416
 L 21.6253,-31.6186 L 21.7277,-31.7003 L 21.954,-31.8488 L 22.0337,-31.841 L 22.7807,-31.7407 L 23.0926,-31.6477
 L 23.2985,-31.5478 L 23.4303,-31.4567 L 23.5497,-31.3446 L 23.6541,-31.208 L 23.7353,-31.0554 L 23.8009,-30.8657
 L 23.8358,-30.7449 L 23.8821,-30.5842 L 23.934,-30.3829 L 23.9795,-30.0923 L 23.9788,-29.8964 L 23.9399,-29.6739
 L 23.8451,-29.3834 L 23.3968,-28.3978 L 23.1328,-27.8285 L 22.934,-27.5127 L 22.8037,-27.3624 L 22.7086,-27.2825
 L 22.6346,-27.2384 L 22.5798,-27.2165 L 22.5265,-27.204 L 22.478,-27.2005 z
M 12.5244,-28.58 L 12.1994,-28.6189 L 11.9295,-28.67 L 11.7437,-28.7392 L 11.5163,-28.8688 L 11.0412,-29.261
 L 10.5029,-29.802 L 10.3849,-29.9549 L 10.3251,-30.0638 L 10.2831,-30.1803 L 10.2632,-30.2853 L 10.2602,-30.3877
 L 10.2771,-30.5091 L 10.3134,-30.6245 L 10.3669,-30.7302 L 10.4277,-30.8139 L 10.5021,-30.888 L 10.6012,-30.9612
 L 10.726,-31.0326 L 11.43,-31.419 L 11.6035,-31.5014 L 11.7239,-31.5365 L 11.7938,-31.5466 L 11.8982,-31.5474
 L 12.0221,-31.529 L 12.167,-31.484 L 12.3299,-31.4033 L 12.4807,-31.2938 L 12.6136,-31.1595 L 12.7448,-30.9791
 L 12.8891,-30.7032 L 13.1532,-29.948 L 13.2585,-29.5351 L 13.2757,-29.3239 L 13.2629,-29.1607 L 13.2228,-28.9957
 L 13.161,-28.8495 L 13.0949,-28.7442 L 13.0406,-28.6814 L 13.0036,-28.6479 L 12.9545,-28.6135 L 12.9009,-28.5874
 L 12.8474,-28.5715 L 12.7815,-28.5623 L 12.6871,-28.5622 z
M 25.0591,-28.6741 L 24.9796,-28.7009 L 24.909,-28.7381 L 24.8513,-28.7808 L 24.8048,-28.8278 L 24.8034,-28.8295
 L 24.7713,-28.8742 L 24.7472,-28.9219 L 24.7322,-28.9698 L 24.7236,-29.0274 L 24.7237,-29.0999 L 24.7366,-29.1907
 L 24.78,-29.3396 L 24.9146,-29.6538 L 24.9713,-29.8231 L 25.03,-30.1082 L 25.0582,-30.1856 L 25.0656,-30.2007
 L 25.091,-30.2422 L 25.1211,-30.2777 L 25.1606,-30.3115 L 25.2137,-30.3444 L 25.2928,-30.3771 L 25.3848,-30.3988
 L 25.4744,-30.4065 L 25.5382,-30.4043 L 25.6404,-30.3874 L 25.7505,-30.351 L 25.8727,-30.2886 L 26.044,-30.163
 L 26.1762,-30.0335 L 26.2418,-29.945 L 26.2798,-29.8716 L 26.3039,-29.8012 L 26.3165,-29.7296 L 26.317,-29.663
 L 26.3071,-29.6013 L 26.2851,-29.5335 L 26.2471,-29.4586 L 26.1891,-29.3779 L 26.1043,-29.2927 L 25.8826,-29.1387
 L 25.7545,-29.027 L 25.5274,-28.795 L 25.4442,-28.7327 L 25.3889,-28.7028 L 25.3112,-28.6753 L 25.2276,-28.661
 L 25.143,-28.6607 z
M 19.8989,-22.4224 L 19.8579,-22.4313 L 19.8272,-22.4426 L 19.7948,-22.4604 L 19.7611,-22.4863 L 19.7252,-22.522
 L 19.6544,-22.6088 L 19.5822,-22.6908 L 19.4568,-22.7841 L 19.4037,-22.8274 L 19.3705,-22.8652 L 19.3394,-22.914
 L 19.3033,-22.994 L 19.2679,-23.1017 L 19.0953,-23.7321 L 19.0721,-23.9105 L 19.0746,-24.0194 L 19.0929,-24.1211
 L 19.2279,-24.4429 L 19.2814,-24.5868 L 19.3014,-24.6917 L 19.305,-24.8229 L 19.2837,-25.0338 L 19.2049,-25.565
 L 19.0823,-26.1247 L 18.9744,-26.3925 L 18.7484,-26.7666 L 18.7007,-26.8768 L 18.6708,-26.9943 L 18.6575,-27.1355
 L 18.6677,-27.3052 L 18.7103,-27.5016 L 18.7863,-27.6997 L 18.9242,-27.9411 L 19.2711,-28.4303 L 19.6254,-29.1022
 L 19.6418,-29.1359 L 19.7512,-29.325 L 19.8472,-29.4424 L 19.936,-29.5209 L 20.014,-29.5701 L 20.0753,-29.5965
 L 20.141,-29.6133 L 20.2097,-29.6188 L 20.2807,-29.6129 L 20.3589,-29.5936 L 20.4299,-29.5632 L 20.4717,-29.5384
 L 20.5349,-29.4888 L 20.5964,-29.4227 L 20.6554,-29.3355 L 20.7099,-29.2194 L 20.7502,-29.0804 L 20.7692,-28.9341
 L 20.7654,-28.6822 L 20.7749,-28.5469 L 20.8059,-28.4241 L 20.9112,-28.1824 L 21.1301,-27.7458 L 21.268,-27.3906
 L 21.3199,-27.144 L 21.3319,-26.8595 L 21.2832,-26.3782 L 21.1927,-25.6232 L 21.2005,-25.0668 L 21.1776,-24.8974
 L 21.1261,-24.7287 L 21.0288,-24.5188 L 20.6906,-23.9619 L 20.5322,-23.648 L 20.4552,-23.408 L 20.3946,-22.8504
 L 20.3672,-22.7254 L 20.354,-22.6876 L 20.3261,-22.6283 L 20.293,-22.5786 L 20.2517,-22.534 L 20.2042,-22.4971
 L 20.1417,-22.4627 L 20.0765,-22.4383 L 20.0075,-22.4232 L 19.9482,-22.4189 z
M 14.3898,-22.2319 L 14.3355,-22.2472 L 14.2735,-22.2765 L 14.2132,-22.3175 L 14.0985,-22.424 L 13.5732,-22.9511
 L 13.1615,-23.4276 L 12.9191,-23.8169 L 12.7009,-24.3004 L 12.3613,-25.0261 L 11.9502,-25.8528 L 11.785,-26.2575
 L 11.7102,-26.3817 L 11.6412,-26.4631 L 11.5321,-26.5558 L 11.3993,-26.6369 L 11.2261,-26.7101 L 11.0215,-26.7687
 L 10.3158,-26.9102 L 10.044,-26.9981 L 9.88712,-27.077 L 9.78214,-27.1526 L 9.63789,-27.2903 L 9.39185,-27.5994
 L 9.11188,-28.0809 L 8.97571,-28.4282 L 8.92999,-28.635 L 8.92241,-28.7372 L 8.92238,-28.7434 L 8.92256,-28.7442
 L 8.92293,-28.7453 L 8.92384,-28.7475 L 8.92592,-28.752 L 8.93039,-28.761 L 8.93971,-28.7788 L 8.95827,-28.813
 L 8.9929,-28.8749 L 9.05098,-28.9754 L 9.16992,-29.1632 L 9.18549,-29.1819 L 9.42055,-29.0848 L 9.48787,-29.0464
 L 9.53047,-29.0121 L 9.54617,-28.9952 L 9.55641,-28.9793 L 9.56703,-28.9547 L 9.5751,-28.9242 L 9.58925,-28.8299
 L 9.59908,-28.7897 L 9.60933,-28.7655 L 9.62048,-28.7478 L 9.71657,-28.6425 L 9.93643,-28.4567 L 10.3164,-28.2221
 L 11.0618,-27.906 L 12.0746,-27.6005 L 12.4068,-27.489 L 12.5337,-27.4146 L 13.0195,-27.0272 L 13.4803,-26.7417
 L 13.9461,-26.4534 L 14.13,-26.2921 L 14.2483,-26.1484 L 14.4134,-25.8761 L 14.5957,-25.5396 L 15.0496,-24.705
 L 15.2488,-24.2359 L 15.3141,-23.9816 L 15.3287,-23.8259 L 15.299,-23.4994 L 15.2548,-23.0689 L 15.2401,-22.9826
 L 15.2164,-22.9002 L 15.1899,-22.8453 L 15.1455,-22.7825 L 14.9739,-22.6041 L 14.8211,-22.414 L 14.7486,-22.3326
 L 14.6979,-22.291 L 14.6561,-22.2667 L 14.5962,-22.245 L 14.5192,-22.2286 L 14.4525,-22.2249 z
M 24.6301,-26.6562 L 24.4587,-26.681 L 24.3563,-26.7124 L 24.2525,-26.7632 L 24.1542,-26.8338 L 24.08,-26.9077
 L 24.0341,-26.9713 L 24.0185,-26.9999 L 24.0021,-27.04 L 23.9934,-27.075 L 23.9902,-27.1076 L 23.9922,-27.1383
 L 23.9995,-27.1705 L 24.0153,-27.2097 L 24.0404,-27.251 L 24.0809,-27.2995 L 24.1458,-27.3574 L 24.2508,-27.4266
 L 24.3938,-27.4933 L 24.562,-27.5425 L 24.9578,-27.6132 L 25.1185,-27.6657 L 25.3166,-27.7663 L 25.833,-28.0885
 L 26.5285,-28.4176 L 26.9539,-28.7101 L 27.0873,-28.7903 L 27.1934,-28.832 L 27.3005,-28.8547 L 27.428,-28.8611
 L 27.5544,-28.8471 L 27.6638,-28.8177 L 27.7659,-28.772 L 27.8515,-28.7152 L 27.9395,-28.6349 L 28.0556,-28.4913
 L 28.1306,-28.3671 L 28.1637,-28.2857 L 28.1771,-28.2276 L 28.18,-28.1886 L 28.1771,-28.1518 L 28.1695,-28.1204
 L 28.156,-28.0883 L 28.1339,-28.0522 L 28.0988,-28.0102 L 28.0373,-27.9546 L 27.9771,-27.9101 L 27.826,-27.8159
 L 27.6113,-27.7019 L 27.1273,-27.4476 L 26.8045,-27.2251 L 26.6614,-27.1052 L 26.5135,-27.0084 L 26.2339,-26.8893
 L 25.5473,-26.682 L 25.1907,-26.6396 z
M 9.77887,-24.8854 L 9.64995,-24.9079 L 9.54129,-24.9435 L 9.4446,-24.9929 L 9.33466,-25.0742 L 9.18625,-25.2197
 L 8.93539,-25.473 L 8.82495,-25.5536 L 8.689,-25.6239 L 8.52173,-25.6799 L 8.32634,-25.7133 L 8.11691,-25.7211
 L 7.55318,-25.6893 L 7.16977,-25.6984 L 7.04897,-25.716 L 6.84694,-25.7701 L 6.62627,-25.8684 L 6.01315,-26.2352
 L 5.85565,-26.3635 L 5.76524,-26.4635 L 5.69008,-26.5771 L 5.64691,-26.6728 L 5.62677,-26.7473 L 5.62036,-26.8039
 L 5.62251,-26.8573 L 5.63371,-26.9129 L 5.65732,-26.9783 L 5.69415,-27.0513 L 5.95958,-27.4864 L 6.1011,-27.6826
 L 6.27287,-27.8498 L 6.71022,-28.1865 L 6.83221,-28.2754 L 6.96364,-28.3521 L 7.05437,-28.3871 L 7.12741,-28.4024
 L 7.19446,-28.4056 L 7.27927,-28.3969 L 7.38345,-28.3707 L 7.54936,-28.3017 L 7.71481,-28.2066 L 7.92715,-28.0427
 L 8.17278,-27.7837 L 8.59825,-27.1596 L 8.97682,-26.5775 L 9.18411,-26.3539 L 9.46466,-26.1339 L 9.92105,-25.8681
 L 10.3356,-25.6611 L 10.4191,-25.6098 L 10.4633,-25.5721 L 10.4887,-25.5424 L 10.5083,-25.5108 L 10.5237,-25.474
 L 10.5349,-25.4283 L 10.5398,-25.3745 L 10.5357,-25.3062 L 10.5169,-25.2225 L 10.4872,-25.1485 L 10.4494,-25.0846
 L 10.4072,-25.034 L 10.3616,-24.9948 L 10.3054,-24.9599 L 10.2335,-24.9293 L 10.1236,-24.9009 L 9.93594,-24.8804
 z
M 16.9537,-23.412 L 16.8594,-23.44 L 16.7565,-23.4898 L 16.6402,-23.57 L 16.5823,-23.6207 L 16.496,-23.7149
 L 16.4368,-23.8013 L 16.3968,-23.8829 L 16.3715,-23.9646 L 16.3568,-24.0783 L 16.3633,-24.2702 L 16.3824,-24.5811
 L 16.3675,-24.7172 L 16.3292,-24.8555 L 16.2601,-25.0087 L 16.1572,-25.1673 L 16.0302,-25.3167 L 15.7434,-25.6174
 L 15.5916,-25.8174 L 15.4857,-26.0089 L 15.4118,-26.209 L 15.3795,-26.3748 L 15.3745,-26.503 L 15.3886,-26.6253
 L 15.4206,-26.7376 L 15.4768,-26.8592 L 15.5654,-26.9925 L 15.708,-27.1461 L 15.9402,-27.3291 L 16.4939,-27.7737
 L 16.8402,-28.043 L 16.8951,-28.0759 L 16.9745,-28.1124 L 17.0308,-28.1279 L 17.0702,-28.1325 L 17.1083,-28.131
 L 17.1462,-28.1231 L 17.1857,-28.1079 L 17.2316,-28.0816 L 17.2863,-28.0384 L 17.3519,-27.9693 L 17.4444,-27.8353
 L 17.5173,-27.6846 L 17.6174,-27.3998 L 17.9535,-26.6519 L 18.1441,-26.1328 L 18.2123,-25.8188 L 18.245,-25.4017
 L 18.2173,-25.071 L 18.1541,-24.8198 L 18.0863,-24.6549 L 17.7724,-24.1337 L 17.4644,-23.6705 L 17.3473,-23.5427
 L 17.2624,-23.4754 L 17.1939,-23.4373 L 17.1371,-23.4166 L 17.0786,-23.4052 L 17.0211,-23.4034 z
M 27.9283,-23.9798 L 27.6806,-24.0308 L 26.9283,-24.1628 L 26.7265,-24.2216 L 26.668,-24.2465 L 26.5459,-24.315
 L 26.4281,-24.4086 L 26.3132,-24.5342 L 26.2293,-24.6606 L 26.171,-24.7847 L 26.133,-24.9158 L 26.1187,-25.0398
 L 26.1249,-25.1911 L 26.1644,-25.3942 L 26.2757,-25.7337 L 26.3878,-25.993 L 26.456,-26.0988 L 26.515,-26.1642
 L 26.565,-26.2046 L 26.6182,-26.2354 L 26.6831,-26.26 L 26.8045,-26.2906 L 27.0338,-26.3621 L 27.3739,-26.5201
 L 27.9573,-26.887 L 28.1093,-26.987 L 28.398,-27.1469 L 28.61,-27.2235 L 28.7817,-27.2596 L 28.975,-27.2722
 L 29.1094,-27.2604 L 29.2202,-27.2345 L 29.3231,-27.193 L 29.4121,-27.1385 L 29.532,-27.0359 L 29.7964,-26.7629
 L 30.0013,-26.5435 L 30.0794,-26.424 L 30.1331,-26.3008 L 30.1736,-26.1464 L 30.1937,-25.9525 L 30.1836,-25.731
 L 30.1337,-25.4794 L 30.0362,-25.2131 L 29.8556,-24.8841 L 29.5704,-24.5016 L 29.3433,-24.2808 L 29.1454,-24.1425
 L 28.9383,-24.0428 L 28.7638,-23.9863 L 28.4887,-23.9392 L 28.23,-23.9384 z
M 22.0874,-22.8204 L 22.0168,-22.8393 L 21.7802,-22.9191 L 21.7239,-23.1481 L 21.6913,-23.3081 L 21.6877,-23.3969
 L 21.7007,-23.4913 L 21.7533,-23.6727 L 21.8643,-23.9128 L 22.1691,-24.3674 L 22.6735,-24.9545 L 23.0815,-25.3798
 L 23.3831,-25.601 L 23.5315,-25.6776 L 23.6408,-25.7133 L 23.7722,-25.7316 L 23.9853,-25.734 L 24.5791,-25.6542
 L 24.6784,-25.6371 L 24.6863,-25.6345 L 24.6943,-25.6303 L 24.703,-25.624 L 24.7126,-25.6146 L 24.7218,-25.6035
 L 24.7523,-25.5612 L 24.7724,-25.5401 L 24.9341,-25.3991 L 24.9929,-25.3356 L 25.0252,-25.2871 L 25.1139,-25.1126
 L 25.1741,-24.9471 L 25.1965,-24.8322 L 25.1984,-24.6631 L 25.1541,-24.307 L 25.0725,-24.027 L 24.9752,-23.8231
 L 24.8738,-23.6771 L 24.7754,-23.5742 L 24.6656,-23.4903 L 24.5632,-23.4342 L 24.4928,-23.4072 L 24.3382,-23.3727
 L 24.0605,-23.3576 L 23.9821,-23.3644 L 23.6873,-23.4401 L 23.6069,-23.4498 L 23.5466,-23.4471 L 23.4757,-23.4324
 L 23.3617,-23.39 L 23.2029,-23.3025 L 23.0062,-23.1811 L 22.9964,-23.1739 L 22.9858,-23.1632 L 22.9693,-23.1415
 L 22.9478,-23.1139 L 22.9373,-23.1041 L 22.928,-23.098 L 22.7924,-23.0471 L 22.3992,-22.8881 L 22.2313,-22.8247
 L 22.1798,-22.8147 L 22.138,-22.8136 z
M 10.0275,-19.5153 L 9.78029,-19.565 L 9.4472,-19.6881 L 8.89864,-19.9804 L 8.15344,-20.3616 L 7.59093,-20.6339
 L 7.35507,-20.8006 L 7.20796,-20.9449 L 7.11475,-21.072 L 7.04044,-21.2172 L 6.96527,-21.444 L 6.78503,-22.3855
 L 6.66476,-22.7893 L 6.54439,-23.0386 L 6.37518,-23.2745 L 6.08818,-23.6429 L 5.98169,-23.8418 L 5.91386,-24.0344
 L 5.87788,-24.2252 L 5.8728,-24.3686 L 5.88591,-24.4894 L 5.91351,-24.5948 L 5.92841,-24.6337 L 5.97189,-24.7183
 L 6.02769,-24.7941 L 6.09909,-24.8633 L 6.1806,-24.9197 L 6.29128,-24.9721 L 6.69257,-24.8768 L 6.81392,-24.8562
 L 6.83527,-24.8491 L 6.85408,-24.8393 L 6.87791,-24.8217 L 6.91873,-24.7834 L 7.00481,-24.6971 L 7.43199,-24.2849
 L 7.5685,-24.1394 L 7.70586,-23.9562 L 7.90138,-23.6378 L 8.00641,-23.5185 L 8.21307,-23.3467 L 8.55156,-23.0665
 L 9.90085,-21.7149 L 10.1064,-21.5664 L 10.5179,-21.2053 L 11.087,-20.621 L 11.2588,-20.3866 L 11.294,-20.3241
 L 11.3482,-20.1976 L 11.3736,-20.0947 L 11.3795,-20.0287 L 11.374,-19.9713 L 11.3584,-19.912 L 11.3308,-19.8492
 L 11.2966,-19.7962 L 11.2605,-19.755 L 11.2207,-19.7217 L 11.1474,-19.6793 L 11.01,-19.6214 L 10.8223,-19.5719
 L 10.501,-19.5345 L 10.2572,-19.5053 z
M 5.16847,-21.3023 L 4.7263,-21.418 L 3.85114,-21.6297 L 3.63036,-21.7003 L 3.49261,-21.7695 L 3.47565,-21.78
 L 3.35101,-21.8735 L 3.25151,-21.9755 L 3.17844,-22.0767 L 3.12727,-22.1757 L 3.11012,-22.2207 L 3.0863,-22.3139
 L 3.07721,-22.4136 L 3.08429,-22.5331 L 3.12894,-22.7335 L 3.25081,-23.0462 L 3.54903,-23.6443 L 3.64311,-23.8314
 L 3.72972,-23.9652 L 3.7962,-24.039 L 3.85078,-24.0831 L 3.90825,-24.1162 L 3.97699,-24.1424 L 4.07523,-24.1624
 L 4.19182,-24.1673 L 4.34755,-24.1512 L 4.57741,-24.092 L 4.68805,-24.0508 L 4.94484,-23.92 L 5.16812,-23.7553
 L 5.3544,-23.564 L 5.50177,-23.3531 L 5.60876,-23.1312 L 5.81749,-22.4582 L 5.91983,-22.1564 L 5.94904,-21.9649
 L 5.9473,-21.7849 L 5.92358,-21.6474 L 5.88983,-21.5495 L 5.85626,-21.4857 L 5.8197,-21.4355 L 5.77826,-21.3939
 L 5.73306,-21.3612 L 5.67625,-21.3323 L 5.58714,-21.3041 L 5.47945,-21.2876 L 5.32555,-21.2857 z
M 15.6741,-15.9387 L 15.6687,-15.9393 L 15.6636,-15.9408 L 15.6585,-15.9431 L 15.6532,-15.9467 L 15.6462,-15.9532
 L 15.6372,-15.9645 L 15.6152,-15.9993 L 15.6043,-16.0134 L 15.5964,-16.0209 L 15.5897,-16.0254 L 15.138,-16.1943
 L 14.9429,-16.2794 L 14.8285,-16.3528 L 14.7769,-16.3961 L 14.644,-16.5361 L 14.5241,-16.71 L 14.4134,-16.9358
 L 14.322,-17.1981 L 14.1336,-17.9249 L 14.0956,-18.047 L 14.092,-18.0538 L 14.0869,-18.0608 L 14.0792,-18.0685
 L 14.0699,-18.076 L 14.0404,-18.0957 L 14.0252,-18.1077 L 14.0174,-18.1162 L 14.013,-18.1227 L 14.0096,-18.1301
 L 13.6902,-19.2603 L 13.6572,-19.3622 L 13.6523,-19.3725 L 13.645,-19.3831 L 13.6295,-19.3992 L 13.6139,-19.4119
 L 13.1055,-19.9259 L 12.9055,-20.0992 L 12.6214,-20.2507 L 12.5259,-20.3119 L 12.47,-20.3621 L 12.4305,-20.4115
 L 12.2796,-20.6839 L 12.0411,-21.3483 L 11.8161,-21.956 L 11.6527,-22.2372 L 11.5753,-22.3322 L 11.4676,-22.43
 L 11.237,-22.584 L 10.6078,-22.9091 L 10.1156,-23.0713 L 10.0687,-23.0876 L 10.046,-23.0997 L 10.0302,-23.112
 L 10.0171,-23.126 L 10.0043,-23.1451 L 9.98827,-23.1791 L 9.96017,-23.2701 L 9.88712,-23.5688 L 10.0095,-23.7028
 L 10.2084,-23.9026 L 10.292,-23.9636 L 10.3451,-23.9907 L 10.3854,-24.0034 L 10.4396,-24.0089 L 10.8212,-24.0305
 L 11.2301,-24.0189 L 11.4555,-23.9758 L 11.595,-23.9263 L 11.7207,-23.8589 L 11.8239,-23.7798 L 11.9118,-23.6867
 L 11.9947,-23.5642 L 12.1087,-23.3513 L 12.1998,-23.1659 L 12.3276,-22.8959 L 12.4033,-22.7392 L 12.7599,-21.9614
 L 12.8719,-21.7528 L 12.9679,-21.6268 L 13.083,-21.519 L 13.2608,-21.4015 L 13.5387,-21.2695 L 14.0194,-21.0492
 L 14.2029,-20.9229 L 14.3475,-20.7899 L 14.4481,-20.667 L 14.5037,-20.5735 L 14.5504,-20.454 L 14.605,-20.2109
 L 14.6696,-19.6532 L 14.7531,-19.2998 L 14.8651,-19.016 L 14.9727,-18.8346 L 15.0926,-18.6942 L 15.4726,-18.3516
 L 15.6129,-18.1841 L 15.8253,-17.8279 L 16.0458,-17.2813 L 16.2677,-16.397 L 16.2903,-16.2843 L 16.2905,-16.2753
 L 16.2891,-16.2654 L 16.2853,-16.2527 L 16.2783,-16.2385 L 16.2659,-16.2204 L 16.244,-16.1965 L 16.1863,-16.1501
 L 16.0518,-16.0722 L 15.7756,-15.961 L 15.6927,-15.9402 L 15.6755,-15.9387 z
M 21.1631,-18.1413 L 21.0954,-18.1483 L 21.0369,-18.1639 L 20.9842,-18.1877 L 20.9401,-18.2171 L 20.8964,-18.2579
 L 20.8582,-18.3074 L 20.8222,-18.3727 L 20.79,-18.4605 L 20.7621,-18.6053 L 20.7561,-18.7862 L 20.782,-19.0117
 L 20.8472,-19.2502 L 20.9359,-19.4655 L 21.3483,-20.3042 L 21.7348,-21.0402 L 22.0351,-21.4526 L 22.3005,-21.7157
 L 22.5301,-21.8797 L 22.7686,-21.9964 L 23.0979,-22.1006 L 23.8166,-22.2525 L 24.4806,-22.4683 L 25.7008,-23.0602
 L 26.3394,-23.306 L 26.8043,-23.4034 L 27.1602,-23.3993 L 27.7053,-23.3262 L 27.9936,-23.2431 L 28.1458,-23.1723
 L 28.2331,-23.1132 L 28.2892,-23.0597 L 28.3483,-22.9853 L 28.4009,-22.9029 L 28.4201,-22.8586 L 28.4271,-22.832
 L 28.4295,-22.8094 L 28.4285,-22.7885 L 28.4244,-22.7699 L 28.4199,-22.7574 L 28.4089,-22.7362 L 28.3914,-22.7117
 L 28.3627,-22.6802 L 28.3344,-22.6523 L 28.122,-22.4333 L 27.9303,-22.2263 L 27.7557,-22.0459 L 27.4393,-21.7732
 L 27.1405,-21.596 L 26.3386,-21.2559 L 25.1157,-20.7616 L 24.6857,-20.6023 L 24.5674,-20.5397 L 24.452,-20.4491
 L 24.2384,-20.2157 L 23.9267,-19.7868 L 23.7697,-19.5057 L 23.704,-19.4218 L 23.6396,-19.3634 L 23.4876,-19.2646
 L 22.2526,-18.621 L 21.6694,-18.2969 L 21.1913,-18.1412 z
M 28.92,-19.372 L 28.1398,-19.4966 L 27.7963,-19.5721 L 27.6099,-19.6451 L 27.432,-19.7486 L 27.3241,-19.8323
 L 27.1924,-19.9653 L 27.1101,-20.0807 L 27.0631,-20.1764 L 27.0409,-20.2474 L 27.0309,-20.3115 L 27.0309,-20.3742
 L 27.0401,-20.4314 L 27.0604,-20.4928 L 27.0974,-20.5658 L 27.1604,-20.6544 L 27.2636,-20.7598 L 27.3925,-20.8549
 L 27.5589,-20.9446 L 27.8899,-21.0696 L 28.0969,-21.1185 L 28.2345,-21.1293 L 28.3768,-21.1181 L 28.6747,-21.0399
 L 28.8714,-20.9912 L 28.9427,-20.9855 L 28.9871,-20.989 L 29.015,-20.9956 L 29.039,-21.0053 L 29.0598,-21.0178
 L 29.0795,-21.0341 L 29.1005,-21.058 L 29.1228,-21.0922 L 29.1523,-21.1572 L 29.1899,-21.2836 L 29.2693,-21.6035
 L 29.3423,-21.7841 L 29.4325,-21.9343 L 29.5342,-22.0561 L 29.6094,-22.1248 L 29.7194,-22.2016 L 29.8323,-22.2565
 L 29.9461,-22.2909 L 30.0832,-22.3087 L 30.4059,-22.3037 L 30.5996,-22.3107 L 30.7322,-22.3385 L 31.2627,-22.5424
 L 31.4236,-22.5835 L 31.6044,-22.6059 L 31.7157,-22.6026 L 31.7164,-22.6025 L 31.8057,-22.586 L 31.8647,-22.5653
 L 31.9137,-22.5394 L 31.9557,-22.5081 L 31.996,-22.4663 L 32.033,-22.413 L 32.0681,-22.3412 L 32.0985,-22.2435
 L 32.1184,-22.112 L 32.117,-21.9386 L 32.0886,-21.7731 L 32.0381,-21.6266 L 31.9601,-21.4767 L 31.5984,-20.9679
 L 31.5078,-20.7941 L 31.4117,-20.5049 L 31.3787,-20.4367 L 31.3338,-20.3734 L 31.2656,-20.3044 L 31.1467,-20.2111
 L 30.8036,-19.9087 L 30.6684,-19.793 L 30.5124,-19.7026 L 30.2682,-19.6058 L 29.6775,-19.4045 L 29.4616,-19.3548
 L 29.2428,-19.3414 z
M 19.1251,-17.7225 L 18.987,-17.7522 L 18.8581,-17.8025 L 18.734,-17.875 L 18.6126,-17.9705 L 18.3844,-18.1935
 L 18.0245,-18.5534 L 17.9263,-18.688 L 17.8712,-18.7981 L 17.8359,-18.9175 L 17.8106,-19.0983 L 17.7628,-19.4767
 L 17.6659,-19.7318 L 17.6344,-19.8362 L 17.6226,-19.9449 L 17.6373,-20.2155 L 17.6363,-20.6853 L 17.6491,-21.1597
 L 17.6824,-21.3423 L 17.7174,-21.4427 L 17.7507,-21.5043 L 17.778,-21.5403 L 17.8056,-21.5675 L 17.8345,-21.5884
 L 17.8661,-21.6043 L 17.9014,-21.6153 L 17.9474,-21.6224 L 18.0158,-21.6229 L 18.1442,-21.6042 L 18.2214,-21.5855
 L 18.4214,-21.5134 L 18.6195,-21.4044 L 18.8189,-21.2502 L 19.02,-21.0377 L 19.2164,-20.7535 L 19.3854,-20.4083
 L 19.5813,-19.7746 L 19.6788,-19.233 L 19.6853,-18.8999 L 19.551,-18.1058 L 19.5163,-17.9578 L 19.4848,-17.8767
 L 19.456,-17.8276 L 19.4316,-17.7978 L 19.4039,-17.773 L 19.3713,-17.7525 L 19.3331,-17.7364 L 19.2832,-17.724
 L 19.2164,-17.7176 z
M 10.6731,-16.4651 L 10.6684,-16.466 L 10.6642,-16.4676 L 10.6598,-16.4701 L 10.6551,-16.4739 L 10.649,-16.4805
 L 10.6396,-16.4946 L 10.6221,-16.5258 L 10.6134,-16.538 L 10.6072,-16.5443 L 10.6027,-16.5477 L 10.5983,-16.5501
 L 10.5936,-16.5517 L 10.5146,-16.5589 L 10.3672,-16.5695 L 10.1874,-16.5793 L 9.16643,-16.6127 L 8.74698,-16.6403
 L 8.74055,-16.6414 L 8.73444,-16.6434 L 8.72823,-16.6467 L 8.72156,-16.6516 L 8.71405,-16.6591 L 8.70708,-16.6677
 L 8.69354,-16.6877 L 8.67462,-16.7141 L 8.66472,-16.7239 L 8.51961,-16.8233 L 7.86449,-17.2551 L 7.11838,-17.5687
 L 6.06352,-17.9814 L 5.39192,-18.2748 L 5.23021,-18.363 L 5.09015,-18.4744 L 4.81351,-18.7624 L 4.71469,-18.8629
 L 4.56056,-18.9922 L 4.31976,-19.1322 L 4.03154,-19.2457 L 3.39142,-19.4227 L 3.17453,-19.5116 L 3.04163,-19.5919
 L 2.92009,-19.6944 L 2.81462,-19.8175 L 2.71283,-19.9832 L 2.60773,-20.2361 L 2.68037,-20.3126 L 2.98523,-20.6304
 L 3.02866,-20.6664 L 3.03844,-20.6723 L 3.04268,-20.674 L 3.04495,-20.6745 L 3.05486,-20.6746 L 3.12877,-20.6745
 L 4.09311,-20.6242 L 4.7709,-20.4937 L 5.23909,-20.3217 L 5.58717,-20.125 L 5.72185,-20.0233 L 5.88123,-19.8434
 L 5.96777,-19.7546 L 6.0732,-19.6824 L 6.60728,-19.3914 L 7.51912,-18.9206 L 7.59399,-18.8692 L 7.69431,-18.7778
 L 7.87294,-18.5967 L 7.96341,-18.5259 L 8.037,-18.4856 L 8.46056,-18.34 L 9.11171,-18.2115 L 10.0534,-18.135
 L 11.1787,-18.0575 L 11.2918,-18.0433 L 11.2994,-18.0415 L 11.3069,-18.0383 L 11.3148,-18.0334 L 11.3235,-18.0262
 L 11.3353,-18.013 L 11.3397,-18.0071 L 11.365,-17.9712 L 11.4224,-17.9128 L 11.7571,-17.6073 L 11.8918,-17.4479
 L 12.0306,-17.2188 L 12.0712,-17.1184 L 12.0885,-17.0435 L 12.0923,-16.9909 L 12.0882,-16.9402 L 12.0769,-16.8945
 L 12.0566,-16.8464 L 12.0257,-16.7965 L 11.9736,-16.7371 L 11.9045,-16.6797 L 11.8044,-16.619 L 11.6412,-16.5526
 L 11.3985,-16.4971 L 11.0507,-16.4675 L 10.7074,-16.4648 z
M 29.0068,-17.0521 L 28.1335,-17.185 L 27.6521,-17.3335 L 27.2999,-17.5096 L 27.017,-17.7104 L 26.8725,-17.8507
 L 26.8273,-17.9073 L 26.772,-17.9961 L 26.7451,-18.0591 L 26.7299,-18.1165 L 26.7241,-18.1715 L 26.7244,-18.1984
 L 26.7316,-18.2518 L 26.7495,-18.3119 L 26.7825,-18.3813 L 26.8351,-18.4585 L 26.9133,-18.541 L 26.9952,-18.604
 L 27.0726,-18.6471 L 27.1463,-18.6748 L 27.2173,-18.6894 L 27.3017,-18.6929 L 27.4131,-18.6797 L 27.5781,-18.6379
 L 27.9162,-18.5502 L 28.6068,-18.4597 L 28.9629,-18.4333 L 29.7823,-18.4329 L 30.2991,-18.514 L 30.8297,-18.6929
 L 31.7457,-19.0994 L 32.0484,-19.1965 L 32.2314,-19.2249 L 32.3621,-19.2238 L 32.4552,-19.2083 L 32.5398,-19.1804
 L 32.6211,-19.1377 L 32.6992,-19.0788 L 32.7821,-18.9935 L 32.8657,-18.8754 L 32.9454,-18.7124 L 32.9686,-18.6469
 L 33.0066,-18.4877 L 33.0189,-18.3465 L 33.0103,-18.2134 L 32.9826,-18.0934 L 32.9332,-17.9708 L 32.8622,-17.8507
 L 32.7532,-17.717 L 32.6007,-17.5798 L 32.404,-17.4512 L 32.1425,-17.3356 L 31.8194,-17.2512 L 30.9239,-17.1596
 L 29.909,-17.0513 z
M 3.91191,-17.1708 L 3.74333,-17.1763 L 3.61806,-17.1799 L 3.50989,-17.2021 L 3.26529,-17.2937 L 3.03008,-17.3996
 L 2.76328,-17.5212 L 2.62798,-17.5965 L 2.56178,-17.6481 L 2.54877,-17.6608 L 2.51602,-17.6998 L 2.49718,-17.7311
 L 2.48366,-17.7644 L 2.47574,-17.8005 L 2.47359,-17.8406 L 2.47849,-17.8895 L 2.49727,-17.9589 L 2.53065,-18.0323
 L 2.58386,-18.1127 L 2.64656,-18.1807 L 2.71233,-18.2327 L 2.78204,-18.2719 L 2.84245,-18.2943 L 2.89819,-18.3059
 L 2.95412,-18.3085 L 3.00615,-18.3023 L 3.07249,-18.2836 L 3.27104,-18.1849 L 3.79602,-17.9023 L 3.82022,-17.8869
 L 3.99974,-17.7516 L 4.08066,-17.669 L 4.12726,-17.603 L 4.15463,-17.5473 L 4.17351,-17.4856 L 4.18237,-17.4153
 L 4.18048,-17.3515 L 4.16953,-17.2915 L 4.15442,-17.249 L 4.13844,-17.2201 L 4.12317,-17.2006 L 4.10933,-17.1877
 L 4.09418,-17.1774 L 4.07851,-17.1702 L 4.05908,-17.1647 L 4.03333,-17.1613 L 4.0041,-17.161 z
M 20.7508,-13.0257 L 20.6612,-13.1092 L 20.615,-13.1684 L 20.5869,-13.2198 L 20.5259,-13.3918 L 20.4874,-13.5952
 L 20.4798,-13.8369 L 20.5158,-14.1318 L 20.6178,-14.4958 L 20.8523,-15.0008 L 21.1584,-15.454 L 21.4945,-15.8169
 L 21.8019,-16.056 L 22.2737,-16.3415 L 22.8578,-16.6687 L 23.7506,-17.2056 L 23.8598,-17.2732 L 23.9086,-17.3164
 L 24.0302,-17.4445 L 24.0754,-17.4812 L 24.1087,-17.5004 L 24.1347,-17.5103 L 24.1617,-17.516 L 24.2744,-17.5168
 L 24.5562,-17.5044 L 24.6893,-17.4831 L 24.7498,-17.463 L 24.789,-17.4422 L 24.8213,-17.417 L 24.8533,-17.3825
 L 24.9234,-17.2901 L 25.0216,-17.1823 L 25.0907,-17.1222 L 25.4814,-16.8273 L 25.6815,-16.7058 L 25.8158,-16.6504
 L 25.8829,-16.6332 L 26.1585,-16.6063 L 27.0505,-16.505 L 27.1332,-16.4896 L 27.5658,-16.375 L 27.7909,-16.2763
 L 27.918,-16.1947 L 28.0014,-16.1201 L 28.0514,-16.0587 L 28.0878,-15.9972 L 28.1132,-15.9326 L 28.1276,-15.8664
 L 28.1347,-15.796 L 28.1455,-15.5865 L 28.1382,-15.4998 L 28.1268,-15.4536 L 28.1107,-15.4155 L 28.0875,-15.3783
 L 28.0553,-15.3392 L 27.981,-15.2638 L 27.8329,-15.0954 L 27.7657,-15.0254 L 27.7168,-14.9885 L 27.3808,-14.8214
 L 27.2698,-14.7743 L 27.2525,-14.7699 L 27.2455,-14.7692 L 27.2418,-14.7695 L 27.2395,-14.77 L 27.238,-14.7706
 L 27.2368,-14.7713 L 27.2358,-14.7721 L 27.2351,-14.7729 L 27.2345,-14.774 L 27.2339,-14.7753 L 27.2334,-14.7769
 L 27.2332,-14.7791 L 27.2333,-14.7828 L 27.2346,-14.7899 L 27.2406,-14.8098 L 27.2458,-14.8262 L 27.2522,-14.8545
 L 27.2534,-14.8741 L 27.2521,-14.888 L 27.2489,-14.901 L 27.2436,-14.9137 L 27.2388,-14.9216 L 27.2295,-14.9335
 L 27.2161,-14.9458 L 27.1964,-14.9591 L 27.1647,-14.9739 L 26.4153,-15.2191 L 26.1122,-15.3247 L 26.1041,-15.3287
 L 26.0964,-15.3342 L 26.088,-15.3421 L 26.0797,-15.3522 L 26.0698,-15.3662 L 26.0678,-15.3691 L 26.0491,-15.3943
 L 26.0394,-15.4036 L 26.0309,-15.4094 L 25.9888,-15.4266 L 25.0836,-15.7137 L 24.9377,-15.743 L 24.4559,-15.7725
 L 24.313,-15.7662 L 24.2302,-15.7494 L 24.1785,-15.7303 L 24.1347,-15.7063 L 24.0951,-15.6755 L 23.9951,-15.5663
 L 23.9075,-15.4333 L 23.8247,-15.2633 L 23.6465,-14.7706 L 23.4611,-14.1564 L 23.4367,-13.9822 L 23.4384,-13.9096
 L 23.4531,-13.8442 L 23.4549,-13.8345 L 23.4552,-13.8289 L 23.4545,-13.8234 L 23.4528,-13.8177 L 23.4495,-13.8107
 L 23.4438,-13.8017 L 23.404,-13.7569 L 23.3498,-13.7023 L 23.1909,-13.526 L 23.0669,-13.3873 L 22.9996,-13.3335
 L 22.8776,-13.2702 L 22.3057,-13.0582 L 21.6959,-12.922 L 20.9377,-12.869 z
M 3.30432,-14.819 L 3.08548,-14.8739 L 2.8493,-14.9744 L 2.7001,-15.0679 L 2.60841,-15.148 L 2.55219,-15.2144
 L 2.51163,-15.2795 L 2.48102,-15.3526 L 2.46373,-15.4264 L 2.45711,-15.5144 L 2.46663,-15.6244 L 2.49509,-15.7356
 L 2.53616,-15.8311 L 2.58873,-15.9147 L 2.64482,-15.9784 L 2.71204,-16.0339 L 2.80595,-16.0885 L 2.9268,-16.1348
 L 3.08412,-16.1708 L 3.42384,-16.2018 L 3.5636,-16.207 L 4.34468,-16.2464 L 4.75105,-16.3258 L 5.17964,-16.5062
 L 5.38025,-16.5763 L 5.55934,-16.6086 L 5.70084,-16.6109 L 5.80795,-16.5953 L 5.88855,-16.5704 L 5.96037,-16.5351
 L 6.0338,-16.4835 L 6.11378,-16.4095 L 6.53452,-15.9003 L 6.64195,-15.723 L 6.69281,-15.5983 L 6.71455,-15.5034
 L 6.71939,-15.4348 L 6.71376,-15.3679 L 6.69812,-15.3058 L 6.66589,-15.2317 L 6.61806,-15.1574 L 6.54926,-15.08
 L 6.4556,-15.0036 L 6.36212,-14.9492 L 6.26866,-14.9127 L 6.16962,-14.8912 L 6.03271,-14.8834 L 5.89156,-14.892
 L 4.9111,-14.9281 L 4.26534,-14.9321 L 3.7142,-14.8175 L 3.50388,-14.8012 z
M 30.2359,-14.3076 L 29.9721,-14.3668 L 29.7993,-14.435 L 29.6431,-14.5266 L 29.5053,-14.6421 L 29.3885,-14.7779
 L 29.2696,-14.9739 L 29.3493,-15.066 L 29.5725,-15.4164 L 29.6736,-15.5511 L 29.7172,-15.5961 L 29.7356,-15.6092
 L 29.7588,-15.6208 L 29.7949,-15.6326 L 29.8462,-15.643 L 29.9351,-15.6614 L 29.9688,-15.6744 L 29.9794,-15.6805
 L 29.9882,-15.6877 L 29.9973,-15.6975 L 30.024,-15.7339 L 30.0368,-15.7486 L 30.0463,-15.7565 L 30.055,-15.7616
 L 30.1684,-15.8042 L 30.3561,-15.87 L 30.686,-15.9774 L 31.2507,-16.1754 L 31.3058,-16.1947 L 31.3434,-16.2014
 L 31.3745,-16.2018 L 31.9217,-16.1476 L 32.1801,-16.0826 L 32.3399,-16.0145 L 32.445,-15.9479 L 32.5107,-15.8903
 L 32.5647,-15.826 L 32.6079,-15.7521 L 32.6402,-15.689 L 32.7155,-15.5334 L 32.7607,-15.4046 L 32.7769,-15.3141
 L 32.7777,-15.237 L 32.7567,-15.0975 L 32.7032,-14.927 L 32.627,-14.7752 L 32.5363,-14.6481 L 32.5081,-14.6159
 L 32.4063,-14.5226 L 32.2976,-14.4508 L 32.1933,-14.4023 L 32.084,-14.371 L 31.6413,-14.3417 L 30.6782,-14.2815
 z
M 15.7547,-11.7299 L 15.7497,-11.7317 L 15.7445,-11.7344 L 15.739,-11.7384 L 15.7307,-11.7471 L 15.7205,-11.7614
 L 15.6974,-11.7972 L 15.6883,-11.8075 L 15.6806,-11.8137 L 15.6607,-11.8239 L 15.5479,-11.8758 L 15.209,-12.0102
 L 14.8193,-12.1873 L 14.6758,-12.2812 L 14.5834,-12.3699 L 14.4726,-12.5134 L 14.099,-12.9768 L 13.7435,-13.351
 L 13.536,-13.5049 L 13.2129,-13.6671 L 11.8226,-14.1543 L 11.7802,-14.1691 L 11.6285,-14.2349 L 11.5466,-14.2869
 L 11.4768,-14.3484 L 11.4101,-14.4293 L 11.334,-14.5575 L 11.2027,-14.8862 L 11.441,-15.1447 L 11.7523,-15.3746
 L 12.1651,-15.6521 L 12.4521,-15.7976 L 12.6348,-15.8584 L 12.7357,-15.8734 L 12.8691,-15.8718 L 13.3633,-15.7699
 L 13.3969,-15.7629 L 13.4052,-15.7603 L 13.4136,-15.7561 L 13.4225,-15.7498 L 13.4338,-15.7388 L 13.452,-15.7154
 L 13.4738,-15.6857 L 13.7995,-15.3895 L 13.9564,-15.2227 L 14.0858,-15.0214 L 14.4526,-14.2189 L 14.623,-13.9217
 L 14.6427,-13.8976 L 14.6661,-13.877 L 14.7001,-13.8554 L 14.7517,-13.8324 L 14.8925,-13.7857 L 14.9545,-13.7579
 L 14.9893,-13.7348 L 15.0223,-13.704 L 15.0744,-13.6429 L 15.1224,-13.5916 L 15.1583,-13.5649 L 15.2257,-13.5295
 L 15.3885,-13.4639 L 15.4581,-13.4269 L 15.5001,-13.3952 L 15.7489,-13.144 L 15.9063,-12.9263 L 16.0912,-12.5388
 L 16.1741,-12.2638 L 16.2016,-12.0818 L 16.2018,-12.0479 L 16.1968,-12.0173 L 16.1863,-11.9854 L 16.1686,-11.9509
 L 16.1365,-11.9075 L 16.0919,-11.8639 L 16.0251,-11.8158 L 15.9314,-11.7682 L 15.8406,-11.7389 L 15.7818,-11.7296
 L 15.7605,-11.729 z
M 9.10509,-14.1037 L 8.96428,-14.14 L 8.78207,-14.2162 L 8.4211,-14.3929 L 8.26564,-14.4912 L 8.17172,-14.5741
 L 8.09944,-14.6624 L 8.0463,-14.7524 L 8.0116,-14.838 L 7.99219,-14.9186 L 7.98701,-14.9636 L 7.98819,-15.0412
 L 8.00142,-15.1134 L 8.02875,-15.1914 L 8.07278,-15.2735 L 8.13887,-15.3597 L 8.19159,-15.4116 L 8.27368,-15.4727
 L 8.3576,-15.5161 L 8.45815,-15.5495 L 8.58183,-15.5713 L 8.79532,-15.5771 L 8.87675,-15.5726 L 9.12474,-15.5356
 L 9.27898,-15.4877 L 9.41617,-15.4207 L 9.5546,-15.3233 L 9.72037,-15.1634 L 9.80878,-15.047 L 9.85432,-14.9618
 L 9.87704,-14.8951 L 9.88573,-14.8452 L 9.8866,-14.7972 L 9.87762,-14.7386 L 9.85664,-14.673 L 9.73521,-14.4447
 L 9.62021,-14.2677 L 9.55797,-14.1992 L 9.51201,-14.162 L 9.46342,-14.1337 L 9.39946,-14.1097 L 9.32571,-14.095
 L 9.22986,-14.0907 z
M 22.8415,-3.35876 L 22.6715,-3.41055 L 22.5023,-3.49371 L 22.3119,-3.62677 L 22.135,-3.7919 L 21.644,-4.36674
 L 21.154,-4.78783 L 20.9984,-4.92877 L 20.9078,-5.0448 L 20.8397,-5.13774 L 20.8086,-5.16853 L 20.774,-5.19331
 L 20.7113,-5.22353 L 20.5822,-5.26857 L 20.4569,-5.32782 L 20.3521,-5.40067 L 20.2514,-5.49719 L 20.1519,-5.62755
 L 20.0532,-5.80719 L 19.9433,-6.10689 L 19.8397,-6.59459 L 19.7573,-7.48026 L 19.8006,-8.4174 L 19.9793,-9.35057
 L 20.195,-9.9857 L 20.4204,-10.4149 L 20.6171,-10.6805 L 20.8401,-10.9017 L 21.1131,-11.0975 L 21.4804,-11.285
 L 21.9913,-11.4579 L 22.6191,-11.638 L 22.8701,-11.7588 L 23.1178,-11.9312 L 23.3893,-12.186 L 23.7785,-12.6778
 L 24.1367,-13.2095 L 24.4055,-13.5241 L 24.6721,-13.7487 L 24.8835,-13.8778 L 25.077,-13.9611 L 25.2613,-14.0099
 L 25.4416,-14.0283 L 25.659,-14.0145 L 25.8831,-13.9635 L 26.1168,-13.873 L 26.6451,-13.6144 L 26.9218,-13.5228
 L 27.2277,-13.473 L 27.7556,-13.4666 L 28.9151,-13.5423 L 29.7359,-13.5034 L 30.5029,-13.3523 L 31.0002,-13.1714
 L 31.4824,-12.9052 L 31.7671,-12.6858 L 31.9231,-12.5207 L 32.0132,-12.388 L 32.0597,-12.2901 L 32.0901,-12.1873
 L 32.1021,-12.0913 L 32.099,-11.974 L 32.0728,-11.8263 L 32.0233,-11.6663 L 31.674,-10.9311 L 31.0057,-9.64888
 L 30.4073,-8.74472 L 29.4811,-7.60252 L 28.5325,-6.56258 L 28.321,-6.28519 L 28.2017,-6.11795 L 28.1261,-6.04408
 L 28.0132,-5.96565 L 27.6825,-5.78595 L 27.4707,-5.62823 L 27.0197,-5.24165 L 26.2083,-4.68832 L 25.1152,-4.05783
 L 24.1563,-3.59055 L 23.6061,-3.39922 L 23.2676,-3.33784 L 23.0209,-3.33357 z
M 12.045,-3.15665 L 11.7633,-3.22458 L 11.36,-3.39029 L 10.7963,-3.71138 L 10.1369,-4.14163 L 8.8103,-4.99509
 L 7.64226,-5.81163 L 6.84425,-6.49788 L 6.30853,-7.0703 L 5.56445,-8.02997 L 4.22542,-10.002 L 3.63724,-10.979
 L 3.31052,-11.7009 L 3.08968,-12.4668 L 3.07837,-12.5248 L 3.04373,-12.8023 L 3.04886,-12.9653 L 3.07072,-13.078
 L 3.10397,-13.1687 L 3.15376,-13.2575 L 3.22801,-13.3521 L 3.33696,-13.4542 L 3.49678,-13.5639 L 3.72076,-13.6724
 L 3.99083,-13.7558 L 4.32161,-13.805 L 4.4015,-13.8102 L 5.54585,-13.8102 L 6.3564,-13.8363 L 6.77441,-13.792
 L 7.14734,-13.6873 L 7.58133,-13.4956 L 8.25555,-13.0945 L 8.6756,-12.8651 L 9.00299,-12.7518 L 9.36642,-12.6864
 L 9.88361,-12.679 L 10.4888,-12.679 L 10.8426,-12.6136 L 11.209,-12.4822 L 11.6275,-12.2554 L 12.0797,-11.9143
 L 12.6501,-11.3409 L 13.6305,-10.1923 L 13.9326,-9.80138 L 14.4826,-8.97034 L 14.805,-8.29437 L 14.9506,-7.80418
 L 15.0145,-7.32043 L 15.0004,-6.76839 L 14.8851,-6.13458 L 14.6316,-5.41789 L 14.2694,-4.759 L 13.797,-4.13591
 L 13.269,-3.59346 L 12.9533,-3.35426 L 12.7947,-3.26511 L 12.6182,-3.19324 L 12.4465,-3.15276 L 12.2604,-3.13905
 z
" stroke="black" fill="lightgray" stroke-width="0.5"/>
</svg>
