<?xml version="1.0" standalone="no"?>
<!DOCTYPE svg PUBLIC "-//W3C//DTD SVG 1.1//EN" "http://www.w3.org/Graphics/SVG/1.1/DTD/svg11.dtd">
<svg width="132mm" height="118mm" viewBox="-66 -59 132 118" xmlns="http://www.w3.org/2000/svg" version="1.1">
<title>OpenSCAD Model</title>
<path d="
M 29.6255,58.405 L 31.4729,57.7779 L 33.2817,56.9845 L 34.7484,55.6982 L 36.2016,54.3605 L 37.1416,52.6234
 L 38.0045,50.8737 L 38.3296,48.9255 L 38.4572,46.9788 L 38.3694,46.4523 L 41.5053,42.9695 L 44.6412,37.538
 L 45.5812,35.8009 L 46.9,31.7422 L 47.2251,29.794 L 46.9788,28.3177 L 48.3556,27.3173 L 49.8087,25.9796
 L 54.0053,21.3188 L 57.1412,15.8874 L 58.0813,14.1503 L 59.4381,9.97443 L 60.1951,9.64238 L 61.8172,8.55852
 L 63.2704,7.22079 L 64.3542,5.59868 L 65.2943,3.8616 L 65.6749,1.9482 L 66,-0 L 65.6749,-1.9482
 L 65.2943,-3.8616 L 64.3542,-5.59868 L 63.2704,-7.22079 L 61.8172,-8.55852 L 60.1951,-9.64238 L 59.4381,-9.97443
 L 58.0813,-14.1503 L 57.1412,-15.8874 L 54.0053,-21.3188 L 51.0232,-24.6308 L 49.57,-25.9686 L 47.9725,-26.6693
 L 47.8444,-27.888 L 47.5193,-29.8362 L 45.5812,-35.8009 L 44.6412,-37.538 L 41.5053,-42.9695 L 38.3694,-46.4523
 L 38.4572,-46.9788 L 38.3296,-48.9255 L 38.0045,-50.8737 L 37.1416,-52.6234 L 36.2016,-54.3605 L 34.7484,-55.6982
 L 33.2817,-56.9845 L 31.4729,-57.7779 L 29.6255,-58.405 L 27.6572,-58.5681 L 25.7104,-58.4405 L 23.7957,-57.9556
 L 22.046,-57.0928 L 21.0764,-56.4593 L 17.1087,-57.3027 L 15.1404,-57.4658 L 8.86868,-57.4658 L 4.79036,-56.5989
 L 2.87566,-56.114 L 1.22215,-55.0337 L 1.02023,-54.7743 L 0.0522003,-55.2053 L -1.75658,-55.9987 L -7.89125,-57.3027
 L -9.85962,-57.4658 L -16.1313,-57.4658 L -20.9739,-56.4364 L -21.1745,-56.6211 L -22.9242,-57.484 L -24.733,-58.2774
 L -26.7014,-58.4405 L -28.6481,-58.5681 L -30.5628,-58.0832 L -32.4102,-57.4561 L -34.0637,-56.3759 L -35.5304,-55.0895
 L -36.7436,-53.5309 L -37.6064,-51.7812 L -38.2478,-49.913 L -38.3754,-47.9663 L -38.3754,-46.4293 L -40.8342,-43.6985
 L -42.0473,-42.1399 L -45.1832,-36.7084 L -45.8245,-34.8403 L -47.1433,-30.7815 L -47.1433,-28.8064 L -46.965,-28.2871
 L -49.1376,-26.7087 L -53.3342,-22.0479 L -54.5473,-20.4892 L -57.6832,-15.0578 L -58.3245,-13.1897 L -59.3239,-10.1138
 L -60.9771,-9.03372 L -62.5992,-7.94986 L -63.8124,-6.3912 L -64.8962,-4.76909 L -65.5376,-2.90097 L -65.9182,-0.987564
 L -65.9182,0.987564 L -65.5376,2.90096 L -64.8962,4.76907 L -63.8124,6.39119 L -62.5992,7.94984 L -60.9771,9.03371
 L -59.3239,10.1138 L -58.3245,13.1896 L -57.6832,15.0578 L -54.5473,20.4892 L -53.3342,22.0479 L -50.352,25.3599
 L -48.6985,26.4402 L -48,26.6171 L -47.7626,28.8755 L -45.8245,34.8403 L -45.1832,36.7084 L -42.0473,42.1399
 L -40.8342,43.6985 L -38.3754,46.4293 L -38.3754,47.9663 L -38.2478,49.913 L -37.6064,51.7812 L -36.7436,53.5309
 L -35.5304,55.0895 L -34.0637,56.3759 L -32.4102,57.4561 L -30.5628,58.0832 L -28.6481,58.5681 L -26.7014,58.4405
 L -24.733,58.2774 L -22.9242,57.484 L -21.1745,56.6211 L -20.9739,56.4364 L -16.1313,57.4658 L -9.85962,57.4658
 L -7.89125,57.3027 L -3.81293,56.4358 L -2.00415,55.6424 L -1.10904,54.8184 L 0.819305,55.6769 L 2.73401,56.1618
 L 8.86868,57.4658 L 15.1404,57.4658 L 17.1087,57.3027 L 21.0764,56.4593 L 22.046,57.0928 L 23.7957,57.9556
 L 25.7104,58.4405 L 27.6572,58.5681 z
M -39.9063,-33.8527 L -36.7705,-39.2842 L -32.5739,-43.945 L -31.4841,-44.7368 L -31.8301,-45.1314 L -32.4572,-46.9788
 L -32.3296,-48.9255 L -31.4667,-50.6752 L -30,-51.9615 L -28.1526,-52.5886 L -26.2059,-52.461 L -24.4562,-51.5981
 L -23.1699,-50.1314 L -23.0012,-49.6344 L -21.7705,-50.1823 L -15.6358,-51.4863 L -9.36415,-51.4863 L -3.22948,-50.1823
 L -0.649292,-49.0335 L -1.16335,-48.6601 L -2.14024,-47.4429 L -2.43953,-46.5218 L -6.99756,-45.4695 L -11.5448,-43.3491
 L -13.0448,-42.2592 L -17.0519,-39.2397 L -17.9684,-38.1853 L -20.2349,-38.1458 L -25.1237,-37.0171 L -29.671,-34.8967
 L -31.171,-33.8069 L -33.8235,-31.8081 L -34.2499,-31.9957 L -35.8102,-32.0297 L -37.6643,-32.0297 L -39.1189,-31.4641
 L -40.6189,-30.3743 L -41.2251,-29.7939 z
M 40.6301,-25.4445 L 38.9882,-25.4445 L 36.2986,-28.3287 L 34.7986,-29.4185 L 30.6886,-32.2964 L 26.0701,-34.2568
 L 24.2509,-34.6105 L 23.3374,-36.1308 L 19.9156,-39.8003 L 18.4156,-40.8901 L 14.3056,-43.7679 L 10.5425,-45.3652
 L 10.0768,-46.7987 L 9.32607,-48.167 L 8.10887,-49.1439 L 6.60887,-50.2337 L 5.28583,-50.6194 L 9.36415,-51.4863
 L 15.6358,-51.4863 L 21.7705,-50.1823 L 23.0012,-49.6344 L 23.1699,-50.1314 L 24.4562,-51.5981 L 26.2059,-52.461
 L 28.1526,-52.5886 L 30,-51.9615 L 31.4667,-50.6752 L 32.3296,-48.9255 L 32.4572,-46.9788 L 31.8301,-45.1314
 L 31.4841,-44.7368 L 32.5739,-43.945 L 36.7705,-39.2842 L 39.9063,-33.8527 L 41.8444,-27.888 L 42.1254,-25.2144
 z
M 16.5039,-33.5661 L 12.551,-34.2631 L 10.6969,-34.2631 L 6.68542,-34.123 L 5.84384,-33.9132 L 4.46858,-34.8408
 L 0.746964,-36.3445 L -3.20595,-37.0415 L -5.06004,-37.0415 L -7.23048,-36.9657 L -7.25278,-37.0024 L -8.25967,-37.7407
 L -9.75967,-38.8305 L -10.9725,-39.1273 L -12.434,-39.1273 L -10.6178,-40.4959 L -6.07051,-42.6163 L -1.18175,-43.745
 L -0.104202,-43.7638 L -0.149933,-44.1812 L 0.286804,-45.6795 L 1.2637,-46.8967 L 2.63203,-47.6474 L 4.18347,-47.8173
 L 5.68182,-47.3806 L 6.89902,-46.4037 L 7.6497,-45.0354 L 7.81963,-43.4839 L 7.70212,-43.0808 L 8.76003,-42.8752
 L 13.3785,-40.9147 L 17.4885,-38.0369 L 20.9104,-34.3674 L 21.7285,-33.0057 L 21.4202,-33.0057 L 20.2215,-32.6563
 L 19.6976,-32.2757 z
M -18.0054,-25.1304 L -18.9851,-25.3253 L -20.8392,-25.3253 L -21.7203,-25.15 L -21.3898,-25.7716 L -18.8097,-28.8464
 L -15.6468,-31.3176 L -14.8719,-31.6955 L -15.0461,-31.9827 L -15.2361,-33.2168 L -14.9393,-34.4295 L -14.201,-35.4364
 L -13.1336,-36.0842 L -11.8995,-36.2741 L -10.6867,-35.9773 L -9.67982,-35.239 L -9.03209,-34.1716 L -8.98099,-33.8396
 L -8.14442,-34.0482 L -4.133,-34.1883 L -0.180084,-33.4913 L 3.54153,-31.9877 L 4.13803,-31.5853 L 3.5813,-31.1808
 L 2.84836,-30.5381 L -0.0169983,-30.3879 L -3.11868,-29.5568 L -5.97981,-28.099 L -7.18689,-27.222 L -7.32002,-27.2431
 L -9.17412,-27.2431 L -12.3808,-27.075 L -15.4825,-26.2439 L -17.8594,-25.0329 z
M -40.3794,-11.0527 L -39.9421,-16.0509 L -38.4751,-20.8491 L -37.9527,-21.7916 L -38.337,-21.9607 L -39.4162,-23.0882
 L -39.9819,-24.5428 L -39.9478,-26.1031 L -39.3193,-27.5317 L -38.1919,-28.6109 L -36.7373,-29.1766 L -35.1769,-29.1425
 L -33.7484,-28.514 L -33.458,-28.2106 L -32.751,-29.024 L -28.7439,-32.0435 L -24.1967,-34.164 L -19.3079,-35.2926
 L -17.6494,-35.3216 L -17.9393,-34.4295 L -18.2361,-33.2168 L -18.2,-32.9824 L -21.2368,-30.6097 L -23.8169,-27.5349
 L -25.7013,-23.9909 L -26.2742,-22.2275 L -26.2838,-22.1943 L -26.8584,-21.914 L -28.3584,-20.8242 L -31.5214,-18.353
 L -34.1015,-15.2782 L -35.7911,-12.1005 L -36.2849,-12.0897 L -37.4277,-11.5869 L -38.9277,-10.497 L -39.7911,-9.59511
 L -40.1022,-8.79521 z
M 29.4075,-12.3585 L 28.4617,-12.6796 L 28.0676,-12.6796 L 26.7278,-14.7426 L 24.4572,-17.0132 L 22.9572,-18.103
 L 20.2642,-19.8519 L 19.843,-20.0136 L 19.4258,-21.1005 L 17.6769,-23.7936 L 15.4063,-26.0641 L 13.9063,-27.154
 L 12.6944,-27.941 L 12.2535,-29.298 L 11.9324,-30.2438 L 11.2738,-30.9948 L 10.7447,-31.3792 L 11.6239,-31.4099
 L 15.5768,-30.7129 L 19.2984,-29.2093 L 20.0132,-28.7272 L 20.1748,-29.0217 L 21.1485,-29.8032 L 22.3472,-30.1526
 L 23.5884,-30.0166 L 24.683,-29.4161 L 25.4645,-28.4424 L 25.8139,-27.2437 L 25.678,-26.0025 L 25.0775,-24.9078
 L 24.8155,-24.6976 L 25.4144,-24.0774 L 27.5414,-20.6734 L 28.9143,-16.9016 L 29.4729,-12.9268 L 29.4319,-12.3408
 z
M 38.8116,1.65021 L 37.775,0.897049 L 37.3866,-1.86652 L 36.8136,-3.62987 L 35.4408,-7.40169 L 33.3138,-10.8057
 L 32.3914,-11.7608 L 32.4729,-12.9268 L 31.9143,-16.9016 L 31.3413,-18.665 L 29.9685,-22.4368 L 28.3572,-25.0153
 L 28.678,-26.0025 L 28.8139,-27.2437 L 28.4645,-28.4424 L 27.8916,-30.2057 L 27.8535,-30.2532 L 29.7616,-29.4432
 L 33.8716,-26.5654 L 37.2934,-22.8959 L 37.8484,-21.9721 L 38.1871,-22.2204 L 39.703,-22.5914 L 41.2456,-22.354
 L 42.5799,-21.5443 L 43.5028,-20.2857 L 43.8737,-18.7697 L 43.6363,-17.2271 L 42.8266,-15.8928 L 41.568,-14.97
 L 41.1602,-14.8702 L 41.511,-13.8512 L 42.1225,-8.87122 L 41.6852,-3.87296 L 40.2183,0.925171 L 39.468,2.27859
 z
M 14.158,-20.4797 L 11.7441,-21.3583 L 9.20018,-21.7158 L 7.95953,-21.7158 L 6.71413,-22.6207 L 4.53558,-23.982
 L 2.12161,-24.8606 L 0.15918,-25.1364 L -0.310211,-25.6267 L -1.81021,-26.7165 L -1.93636,-26.772 L 0.910049,-27.5347
 L 4.11676,-27.7028 L 4.79799,-27.5949 L 4.81557,-27.863 L 5.25735,-28.7589 L 6.00835,-29.4175 L 6.95419,-29.7386
 L 7.95091,-29.6732 L 8.84676,-29.2314 L 9.50536,-28.4805 L 9.82643,-27.5346 L 9.76111,-26.5379 L 9.64224,-26.2969
 L 10.2862,-26.0497 L 12.9792,-24.3008 L 15.2498,-22.0302 L 16.9747,-19.3741 L 16.5089,-19.3741 L 16.0141,-19.3199
 z
M -23.3907,-14.5555 L -21.9329,-17.4166 L -21.4989,-17.9526 L -21.7223,-18.1019 L -22.2772,-18.9324 L -22.4721,-19.9121
 L -22.2772,-20.8918 L -21.7223,-21.7223 L -20.8918,-22.2772 L -19.9121,-22.4721 L -18.9324,-22.2772 L -18.1019,-21.7223
 L -17.9526,-21.4989 L -17.4166,-21.9329 L -14.5555,-23.3907 L -11.4538,-24.2218 L -8.34084,-24.385 L -8.57774,-23.6559
 L -9.57655,-23.1248 L -11.0766,-22.035 L -13.0444,-20.3837 L -14.626,-18.3594 L -14.8867,-17.8249 L -15.1526,-17.7487
 L -17.4209,-16.5426 L -18.9209,-15.4528 L -20.8887,-13.8016 L -21.8242,-12.6042 L -22.1858,-12.6042 L -22.9619,-12.4143
 L -24.2068,-11.5098 z
M -8.52986,-18.998 L -9.12567,-19.2298 L -9.89117,-19.2298 L -8.64951,-20.2716 L -6.38132,-21.4777 L -5.85091,-21.6297
 L -5.92882,-21.8301 L -5.91139,-22.629 L -5.58955,-23.3604 L -5.01233,-23.913 L -4.26756,-24.2026 L -3.46867,-24.1852
 L -2.73726,-23.8634 L -2.18468,-23.2861 L -1.89505,-22.5414 L -1.89975,-22.3264 L -1.3493,-22.3649 L 1.19456,-22.0074
 L 3.60854,-21.1288 L 5.21289,-20.1263 L 5.09534,-20.0409 L 4.5607,-20.1065 L 2.7066,-20.1065 L 0.659317,-19.9274
 L -1.306,-19.3266 L -1.62454,-19.15 L -3.60013,-19.3925 L -5.45422,-19.3925 L -7.50151,-19.2134 L -8.43394,-18.9284
 z
M -49.2705,17.6335 L -52.4064,12.2021 L -54.3444,6.23734 L -54.4852,4.89758 L -55,4.99998 L -56.9134,4.61937
 L -58.5355,3.53551 L -59.6194,1.91339 L -60,-0 L -59.6194,-1.91341 L -58.5355,-3.53552 L -56.9134,-4.61938
 L -55,-5 L -54.4852,-4.8976 L -54.3444,-6.23735 L -52.4064,-12.2021 L -49.2705,-17.6335 L -45.0739,-22.2943
 L -42.7904,-23.9534 L -42.4089,-22.7794 L -41.8433,-21.3248 L -41.453,-20.9171 L -41.4751,-20.8491 L -42.9421,-16.0509
 L -43.3794,-11.0527 L -42.7679,-6.07269 L -42.1949,-4.30934 L -42.0233,-3.81073 L -42.6453,-2.68852 L -43.2183,-0.925171
 L -44.6852,3.87296 L -45.1225,8.87122 L -44.541,13.6069 L -45.2537,14.1295 L -46.0633,15.4638 L -46.6363,17.2271
 L -46.8737,18.7697 L -46.5028,20.2857 L -46.2883,20.9456 z
M 42.4089,22.7794 L 41.8433,21.3248 L 41.453,20.9171 L 41.4751,20.8491 L 42.9421,16.0509 L 43.3794,11.0527
 L 42.7679,6.07269 L 42.1949,4.30934 L 42.0233,3.81073 L 42.6453,2.68852 L 43.2183,0.925171 L 44.6852,-3.87296
 L 45.1225,-8.87122 L 44.541,-13.6069 L 45.2537,-14.1295 L 46.0633,-15.4638 L 46.6363,-17.2271 L 46.8737,-18.7697
 L 46.5028,-20.2857 L 46.2883,-20.9456 L 49.2705,-17.6335 L 52.4064,-12.2021 L 54.3444,-6.23735 L 54.4852,-4.8976
 L 55,-5 L 56.9134,-4.61938 L 58.5355,-3.53552 L 59.6194,-1.91341 L 60,-0 L 59.6194,1.91341
 L 58.5355,3.53552 L 56.9134,4.61938 L 55,5 L 54.4852,4.8976 L 54.3444,6.23735 L 52.4064,12.2021
 L 49.2705,17.6335 L 45.0739,22.2943 L 42.7904,23.9534 z
M -33.0137,5.63834 L -34.3866,1.86652 L -34.9452,-2.10829 L -34.8851,-2.96835 L -35.2209,-2.96103 L -36.3846,-3.41356
 L -37.2865,-4.27696 L -37.7894,-5.41982 L -37.8166,-6.66809 L -37.3641,-7.83176 L -36.5007,-8.73369 L -35.3578,-9.23654
 L -34.1095,-9.26379 L -33.7965,-9.14204 L -33.5588,-9.97081 L -31.6744,-13.5149 L -29.0944,-16.5897 L -25.9314,-19.0609
 L -25.3584,-19.3403 L -25.2772,-18.9324 L -24.9692,-17.9843 L -25.8178,-16.3188 L -26.3907,-14.5555 L -27.2218,-11.4538
 L -27.3899,-8.24707 L -27.2466,-7.34247 L -27.6729,-6.81612 L -29.1307,-3.95499 L -29.7036,-2.19164 L -30.5347,0.910049
 L -30.6497,3.10443 L -31.1859,3.494 L -31.8445,4.245 L -32.1656,5.19084 L -32.5514,6.37823 z
M 19.934,-5.679 L 19.8241,-5.73929 L 19.1857,-7.24319 L 18.007,-8.92664 L 16.5039,-10.3282 L 15.6522,-10.947
 L 15.29,-12.0619 L 14.487,-13.9537 L 13.3082,-15.6371 L 12.189,-16.6808 L 12.1562,-16.8942 L 11.7422,-18.1684
 L 13.231,-17.6265 L 15.4095,-16.2652 L 15.8065,-15.8819 L 15.941,-16.0496 L 16.6416,-16.4339 L 17.4359,-16.5209
 L 18.2031,-16.2973 L 18.8263,-15.7971 L 19.2106,-15.0966 L 19.2976,-14.3022 L 19.074,-13.535 L 18.5739,-12.9118
 L 18.3854,-12.8084 L 18.6939,-12.351 L 19.6563,-9.96916 L 20.1024,-7.4393 L 20.0382,-5.60326 z
M 11.2252,-12.4923 L 9.80133,-13.3144 L 8.2377,-13.8224 L 7.96999,-13.8506 L 7.04958,-14.6793 L 5.54958,-15.7691
 L 4.12575,-16.5912 L 3.58096,-16.7682 L 3.35385,-17.1081 L 3.20546,-17.2159 L 3.63365,-17.2534 L 5.67343,-17.0029
 L 6.09082,-16.8592 L 6.1317,-17.0262 L 6.5097,-17.5418 L 7.05623,-17.8734 L 7.68805,-17.9707 L 8.30901,-17.8187
 L 8.82454,-17.4407 L 9.15617,-16.8942 L 9.25342,-16.2624 L 9.10149,-15.6414 L 8.99979,-15.5027 L 9.37816,-15.2754
 L 10.8812,-13.8738 L 12.0599,-12.1903 L 12.2468,-11.75 z
M -13.125,-11.7735 L -11.8882,-13.4148 L -11.5551,-13.7044 L -11.6793,-13.8233 L -11.9368,-14.4085 L -11.9507,-15.0476
 L -11.719,-15.6434 L -11.277,-16.1052 L -10.6918,-16.3626 L -10.0527,-16.3766 L -9.45691,-16.1449 L -8.99512,-15.7028
 L -8.92586,-15.5454 L -8.53978,-15.7594 L -6.57446,-16.3603 L -4.52718,-16.5394 L -4.27011,-16.5078 L -5.54956,-15.7691
 L -7.04956,-14.6793 L -7.96999,-13.8506 L -8.2377,-13.8224 L -9.80133,-13.3144 L -11.2252,-12.4923 L -12.7252,-11.4025
 L -12.7706,-11.3616 L -13.2422,-11.3616 L -13.3195,-11.3566 z
M 1.16957,-13.3961 L -0.0882111,-13.7807 L -1.39848,-13.8953 L -2.71455,-13.8953 L -1.63507,-14.246 L -1.28387,-14.283
 L -1.31071,-14.4179 L -1.21094,-14.9195 L -0.926804,-15.3447 L -0.501572,-15.6288 L 0,-15.7286 L 0.501572,-15.6289
 L 0.926804,-15.3447 L 1.21094,-14.9195 L 1.31071,-14.4179 L 1.28387,-14.283 L 1.63507,-14.246 L 3.1987,-13.738
 L 3.71768,-13.4384 L 1.97034,-13.4384 L 1.25241,-13.3502 z
M 24.98,4.43173 L 24.8221,4.317 L 24.8805,2.64511 L 24.4344,0.11525 L 23.8615,-1.6481 L 22.8991,-4.02992
 L 22.8288,-4.13426 L 23.0127,-4.87198 L 23.1024,-7.4393 L 22.6563,-9.96916 L 22.0833,-11.7325 L 21.7536,-12.5487
 L 22.074,-13.535 L 22.2976,-14.3022 L 22.214,-15.066 L 24.3008,-12.9792 L 26.0497,-10.2862 L 26.2969,-9.64224
 L 26.5379,-9.76111 L 27.5346,-9.82643 L 28.4805,-9.50536 L 29.2314,-8.84676 L 29.6732,-7.95091 L 29.7386,-6.95419
 L 29.4175,-6.00835 L 28.7589,-5.25735 L 27.863,-4.81557 L 27.5949,-4.79799 L 27.7028,-4.11674 L 27.5347,-0.910049
 L 26.7036,2.19164 L 25.3235,4.90022 z
M -21.8805,-2.64511 L -21.7908,-5.21243 L -21.6574,-5.74783 L -21.8698,-5.78053 L -22.553,-6.19508 L -23.0255,-6.83951
 L -23.2154,-7.61569 L -23.0939,-8.40549 L -22.6793,-9.08862 L -22.0349,-9.56113 L -21.2587,-9.75107 L -20.4689,-9.62952
 L -20.2851,-9.51797 L -20.0433,-10.0139 L -18.4617,-12.0382 L -16.4938,-13.6895 L -14.9391,-14.5161 L -14.9368,-14.4085
 L -14.9243,-14.37 L -15.5521,-13.5369 L -16.4206,-11.6743 L -16.9935,-9.91095 L -17.4198,-8.06445 L -17.7774,-7.75368
 L -19.0142,-6.11238 L -19.8827,-4.24983 L -20.4556,-2.48648 L -20.5514,-2.07159 L -21.1374,-1.64587 L -21.634,-1.24728
 z
M -5.92218,-10.4079 L -5.85995,-10.8123 L -5.64771,-11.162 L -5.31776,-11.404 L -4.92035,-11.5012 L -4.51598,-11.439
 L -4.1662,-11.2267 L -3.92429,-10.8968 L -3.89812,-10.7899 L -3.631,-10.8819 L -3.34235,-10.9173 L -3.80756,-10.5793
 L -4.31572,-10.5793 L -5.3577,-10.4329 L -5.88162,-10.2422 z
M 7.68291,-8.46037 L 7.37418,-8.62453 L 6.77592,-9.39026 L 5.96988,-10.0666 L 5.85876,-10.1473 L 6.05241,-10.3327
 L 6.43373,-10.481 L 6.84277,-10.4721 L 7.21725,-10.3073 L 7.50017,-10.0118 L 7.64845,-9.63045 L 7.63953,-9.22142
 L 7.47476,-8.84692 L 7.39525,-8.77081 L 7.60846,-8.58546 L 7.7267,-8.42856 z
M 2.2516,-9.47119 L 1.50157,-9.85336 L 1.37665,-9.88684 L 1.42076,-9.90625 L 1.74799,-9.91339 L 2.05304,-9.79475
 L 2.28947,-9.56842 L 2.37015,-9.38506 z
M -13.155,-5.707 L -13.0114,-6.02962 L -13.1416,-6.07384 L -13.5261,-6.41104 L -13.7523,-6.86972 L -13.7858,-7.38004
 L -13.6214,-7.86432 L -13.2842,-8.24881 L -12.8255,-8.47501 L -12.3152,-8.50845 L -11.8309,-8.34407 L -11.7275,-8.25336
 L -11.5199,-8.53905 L -10.2981,-9.63916 L -9.9548,-9.83737 L -10.1454,-9.56517 L -10.6593,-8.35445 L -10.8912,-7.6409
 L -11.4363,-7.24487 L -12.3982,-6.34785 L -13.1526,-5.27045 L -13.3432,-4.82135 z
M 13.0428,-4.54674 L 12.2513,-5.59715 L 12.0971,-5.73112 L 11.9559,-6.343 L 11.3829,-8.10635 L 10.936,-9.06482
 L 11.5199,-8.53905 L 11.7275,-8.25334 L 11.8309,-8.34407 L 12.3152,-8.50845 L 12.8255,-8.47501 L 13.2842,-8.24881
 L 13.6214,-7.8643 L 13.7858,-7.38004 L 13.7523,-6.86971 L 13.5261,-6.41104 L 13.1416,-6.07384 L 13.0114,-6.02962
 L 13.155,-5.707 L 13.4968,-4.09883 L 13.4968,-3.57312 z
M 1.57504,7.71161 L 1.37817,7.53896 L 1.26236,7.30412 L 1.25777,7.23383 L 1.07918,7.26212 L 0.238556,7.21806
 L -0.574524,7.0002 L -1.32455,6.61803 L -1.69328,6.31944 L -2.16191,6.39366 L -3.00253,6.34961 L -3.81563,6.13174
 L -4.56566,5.74959 L -4.70618,5.63579 L -4.7453,5.69437 L -4.96303,5.83984 L -5.21983,5.89093 L -5.47665,5.83984
 L -5.69437,5.69437 L -5.83984,5.47665 L -5.89093,5.21983 L -5.83984,4.96303 L -5.69437,4.7453 L -5.63579,4.70618
 L -5.74959,4.56566 L -6.13174,3.81563 L -6.34961,3.00253 L -6.39366,2.16191 L -6.31944,1.69328 L -6.61803,1.32455
 L -7.0002,0.574524 L -7.21806,-0.238556 L -7.26212,-1.07918 L -7.23383,-1.25777 L -7.30412,-1.26236 L -7.53896,-1.37817
 L -7.71161,-1.57504 L -7.79578,-1.823 L -7.77866,-2.08427 L -7.66284,-2.31912 L -7.46597,-2.49176 L -7.21803,-2.57593
 L -6.95674,-2.55881 L -6.89355,-2.52765 L -6.82877,-2.69646 L -6.3703,-3.40242 L -5.77509,-3.99765 L -5.06911,-4.45612
 L -4.62614,-4.62614 L -4.45612,-5.06911 L -3.99765,-5.77509 L -3.40242,-6.3703 L -2.69646,-6.82877 L -2.52765,-6.89355
 L -2.55881,-6.95674 L -2.57593,-7.21803 L -2.49176,-7.46597 L -2.31912,-7.66284 L -2.08427,-7.77866 L -1.823,-7.79578
 L -1.57504,-7.71161 L -1.37817,-7.53896 L -1.26236,-7.30412 L -1.25777,-7.23383 L -1.07918,-7.26212 L -0.238556,-7.21806
 L 0.574524,-7.0002 L 1.32455,-6.61803 L 1.69328,-6.31944 L 2.16191,-6.39366 L 3.00253,-6.34961 L 3.81563,-6.13174
 L 4.56566,-5.74959 L 4.70618,-5.63579 L 4.7453,-5.69437 L 4.96303,-5.83984 L 5.21983,-5.89091 L 5.47665,-5.83984
 L 5.69437,-5.69437 L 5.83984,-5.47665 L 5.89093,-5.21983 L 5.83984,-4.96303 L 5.69437,-4.7453 L 5.63579,-4.70618
 L 5.74959,-4.56566 L 6.13174,-3.81563 L 6.34961,-3.00253 L 6.39366,-2.16191 L 6.31944,-1.69328 L 6.61803,-1.32455
 L 7.0002,-0.574524 L 7.21806,0.238556 L 7.26212,1.07918 L 7.23383,1.25777 L 7.30412,1.26236 L 7.53896,1.37817
 L 7.71161,1.57504 L 7.79578,1.823 L 7.77866,2.08427 L 7.66284,2.31912 L 7.46597,2.49176 L 7.21803,2.57593
 L 6.95674,2.55881 L 6.89355,2.52765 L 6.82877,2.69646 L 6.3703,3.40242 L 5.77509,3.99765 L 5.06911,4.45612
 L 4.62614,4.62614 L 4.45612,5.06911 L 3.99765,5.77509 L 3.40242,6.3703 L 2.69646,6.82877 L 2.52765,6.89355
 L 2.55881,6.95674 L 2.57593,7.21803 L 2.49176,7.46597 L 2.31912,7.66284 L 2.08427,7.77866 L 1.823,7.79578
 z
M -7.86867,-6.18355 L -7.71124,-6.4705 L -7.45598,-6.67537 L -7.14175,-6.76695 L -6.91772,-6.74242 L -6.94341,-6.67552
 L -7.89012,-5.98769 z
M 25.2772,18.9324 L 24.9692,17.9843 L 25.8178,16.3188 L 26.3907,14.5555 L 27.2218,11.4538 L 27.3899,8.24707
 L 27.2466,7.34247 L 27.6729,6.81612 L 29.1307,3.95499 L 29.7036,2.19164 L 30.5347,-0.910049 L 30.6497,-3.10443
 L 31.1859,-3.494 L 31.8445,-4.245 L 32.1656,-5.19084 L 32.5514,-6.37823 L 33.0137,-5.63834 L 34.3866,-1.86652
 L 34.9452,2.10829 L 34.8851,2.96835 L 35.2209,2.96103 L 36.3846,3.41356 L 37.2865,4.27696 L 37.7894,5.41982
 L 37.8166,6.66808 L 37.3641,7.83176 L 36.5007,8.73369 L 35.3578,9.23654 L 34.1095,9.26379 L 33.7965,9.14204
 L 33.5588,9.97081 L 31.6744,13.5149 L 29.0944,16.5897 L 25.9314,19.0609 L 25.3584,19.3403 z
M 16.4968,4.09885 L 16.4968,2.45476 L 16.155,0.846588 L 15.8799,-0 L 16.155,-0.846588 L 16.4968,-2.45476
 L 16.4968,-4.09883 L 16.2418,-5.29849 L 16.4459,-5.92654 L 16.7587,-5.47984 L 17.5617,-3.5881 L 17.6459,-3.15479
 L 17.811,-3.20291 L 18.4465,-3.13332 L 19.0069,-2.82584 L 19.4071,-2.32727 L 19.586,-1.71355 L 19.5164,-1.07808
 L 19.2089,-0.517609 L 18.7103,-0.117477 L 18.0966,0.0614014 L 17.9256,0.0426788 L 17.9179,0.484039 L 17.4556,2.48648
 L 16.5871,4.34903 L 16.3873,4.61426 z
M -24.3008,12.9792 L -26.0497,10.2862 L -26.2969,9.64224 L -26.5379,9.76111 L -27.5346,9.82643 L -28.4805,9.50536
 L -29.2314,8.84676 L -29.6732,7.95091 L -29.7386,6.95419 L -29.4175,6.00835 L -28.7589,5.25735 L -27.863,4.81557
 L -27.5949,4.79799 L -27.7028,4.11674 L -27.5347,0.910049 L -26.7036,-2.19164 L -25.3235,-4.90022 L -24.98,-4.43173
 L -24.8221,-4.317 L -24.8805,-2.64511 L -24.4344,-0.11525 L -23.8615,1.6481 L -22.8991,4.02992 L -22.8288,4.13426
 L -23.0127,4.87198 L -23.1024,7.4393 L -22.6563,9.96916 L -22.0833,11.7325 L -21.7536,12.5487 L -22.074,13.535
 L -22.2976,14.3022 L -22.214,15.066 z
M -16.7587,5.47984 L -17.5617,3.5881 L -17.6459,3.15479 L -17.811,3.20291 L -18.4465,3.13332 L -19.0069,2.82584
 L -19.4071,2.32727 L -19.586,1.71355 L -19.5164,1.07808 L -19.2089,0.517609 L -18.7103,0.117477 L -18.0966,-0.0614014
 L -17.9256,-0.0426788 L -17.9179,-0.484039 L -17.4556,-2.48648 L -16.5871,-4.34903 L -16.3873,-4.61426 L -16.4968,-4.09885
 L -16.4968,-2.45474 L -16.155,-0.846588 L -15.8799,-0 L -16.155,0.846588 L -16.4968,2.45476 L -16.4968,4.09883
 L -16.2418,5.29849 L -16.4459,5.92654 z
M 9.34961,-3.00253 L 9.13174,-3.81563 L 9.12207,-3.84541 L 9.28944,-3.72269 L 9.45924,-3.44289 L 9.50903,-3.11938
 L 9.43124,-2.80145 L 9.36488,-2.71095 z
M -11.9746,-0.0751801 L -12.2937,-0.331268 L -12.4905,-0.689972 L -12.535,-1.09666 L -12.4205,-1.48946 L -12.1644,-1.80853
 L -11.8057,-2.00533 L -11.399,-2.04987 L -11.2934,-2.01906 L -11.2395,-2.29639 L -11.2101,-2.36555 L -11.1972,-1.99556
 L -11.1577,-1.83716 L -11.2066,-1.71616 L -11.7601,-0.0126648 z
M -29.7616,29.4432 L -33.8716,26.5654 L -37.2934,22.8959 L -37.8484,21.9721 L -38.1871,22.2204 L -39.7031,22.5914
 L -41.2456,22.3539 L -42.5799,21.5443 L -43.5028,20.2857 L -43.8737,18.7697 L -43.6363,17.2271 L -42.8266,15.8928
 L -41.568,14.97 L -41.1602,14.8702 L -41.511,13.8512 L -42.1225,8.87122 L -41.6852,3.87296 L -40.2183,-0.925171
 L -39.468,-2.27859 L -38.8116,-1.65021 L -37.775,-0.897049 L -37.3866,1.86652 L -36.8136,3.62987 L -35.4408,7.40169
 L -33.3138,10.8057 L -32.3914,11.7608 L -32.4729,12.9268 L -31.9143,16.9016 L -31.3413,18.665 L -29.9685,22.4368
 L -28.3572,25.0153 L -28.678,26.0025 L -28.8139,27.2437 L -28.4645,28.4424 L -27.8916,30.2057 L -27.8535,30.2531
 z
M 11.1972,1.99556 L 11.1577,1.83716 L 11.2066,1.71616 L 11.7601,0.0126648 L 11.9746,0.0751801 L 12.2937,0.331268
 L 12.4905,0.689972 L 12.535,1.09666 L 12.4205,1.48946 L 12.1644,1.80853 L 11.8057,2.00533 L 11.399,2.04987
 L 11.2934,2.01906 L 11.2395,2.29639 L 11.2101,2.36555 z
M 14.9368,14.4085 L 14.9243,14.37 L 15.5521,13.5369 L 16.4206,11.6743 L 16.9935,9.91095 L 17.4198,8.06447
 L 17.7774,7.75368 L 19.0142,6.11238 L 19.8827,4.24983 L 20.4556,2.48648 L 20.5514,2.07159 L 21.1374,1.64587
 L 21.634,1.24728 L 21.8805,2.64511 L 21.7908,5.21243 L 21.6574,5.74783 L 21.8698,5.78053 L 22.553,6.19508
 L 23.0255,6.83951 L 23.2154,7.61569 L 23.0939,8.40549 L 22.6793,9.08862 L 22.0349,9.56113 L 21.2587,9.75107
 L 20.4689,9.62952 L 20.2851,9.51797 L 20.0433,10.0139 L 18.4617,12.0382 L 16.4938,13.6895 L 14.9391,14.5161
 z
M -9.28944,3.7227 L -9.45924,3.44289 L -9.50903,3.11938 L -9.43124,2.80145 L -9.36488,2.71095 L -9.34961,3.00253
 L -9.13174,3.81563 L -9.12206,3.84543 z
M -11.5199,8.53905 L -11.7275,8.25334 L -11.8309,8.34407 L -12.3152,8.50845 L -12.8255,8.47501 L -13.2842,8.24881
 L -13.6214,7.8643 L -13.7858,7.38004 L -13.7523,6.86971 L -13.5261,6.41104 L -13.1416,6.07384 L -13.0114,6.02962
 L -13.155,5.707 L -13.4968,4.09883 L -13.4968,3.57312 L -13.0428,4.54674 L -12.2513,5.59715 L -12.0971,5.73112
 L -11.9559,6.343 L -11.3829,8.10635 L -10.936,9.06482 z
M 10.1454,9.56517 L 10.6593,8.35445 L 10.8912,7.6409 L 11.4363,7.24487 L 12.3982,6.34785 L 13.1526,5.27045
 L 13.3432,4.82135 L 13.155,5.707 L 13.0114,6.02962 L 13.1416,6.07384 L 13.5261,6.41104 L 13.7523,6.86972
 L 13.7858,7.38004 L 13.6214,7.86432 L 13.2842,8.24881 L 12.8255,8.47501 L 12.3152,8.50845 L 11.8309,8.34407
 L 11.7275,8.25336 L 11.5199,8.53905 L 10.2981,9.63916 L 9.9548,9.83737 z
M -13.231,17.6265 L -15.4095,16.2652 L -15.8065,15.8819 L -15.941,16.0496 L -16.6416,16.4339 L -17.4359,16.5209
 L -18.2031,16.2973 L -18.8263,15.7971 L -19.2106,15.0966 L -19.2976,14.3022 L -19.074,13.535 L -18.5739,12.9118
 L -18.3854,12.8084 L -18.6939,12.351 L -19.6563,9.96916 L -20.1024,7.4393 L -20.0382,5.60326 L -19.934,5.679
 L -19.8241,5.73929 L -19.1857,7.24319 L -18.007,8.92664 L -16.5039,10.3282 L -15.6522,10.947 L -15.29,12.0619
 L -14.487,13.9537 L -13.3082,15.6371 L -12.189,16.6808 L -12.1562,16.8942 L -11.7422,18.1684 z
M 6.91772,6.74242 L 6.94341,6.67552 L 7.89012,5.98769 L 7.86867,6.18355 L 7.71124,6.4705 L 7.45598,6.67537
 L 7.14175,6.76695 z
M -6.84277,10.4721 L -7.21725,10.3073 L -7.50017,10.0118 L -7.64845,9.63045 L -7.63953,9.22142 L -7.47476,8.84692
 L -7.39525,8.77081 L -7.60846,8.58546 L -7.7267,8.42856 L -7.68291,8.46037 L -7.37418,8.62453 L -6.77592,9.39026
 L -5.96988,10.0666 L -5.85876,10.1473 L -6.05241,10.3327 L -6.43373,10.481 z
M 17.9393,34.4295 L 18.2361,33.2168 L 18.2,32.9824 L 21.2368,30.6097 L 23.8169,27.5349 L 25.7013,23.9909
 L 26.2742,22.2275 L 26.2838,22.1943 L 26.8584,21.914 L 28.3584,20.8242 L 31.5214,18.353 L 34.1015,15.2782
 L 35.7911,12.1005 L 36.2849,12.0897 L 37.4277,11.5869 L 38.9277,10.497 L 39.7911,9.59511 L 40.1022,8.79521
 L 40.3794,11.0527 L 39.9421,16.0509 L 38.4751,20.8491 L 37.9527,21.7916 L 38.337,21.9607 L 39.4162,23.0882
 L 39.9819,24.5428 L 39.9478,26.1031 L 39.3193,27.5317 L 38.1919,28.6109 L 36.7373,29.1766 L 35.1769,29.1425
 L 33.7484,28.514 L 33.458,28.2106 L 32.751,29.024 L 28.7439,32.0435 L 24.1967,34.164 L 19.3079,35.2926
 L 17.6494,35.3216 z
M -2.05304,9.79475 L -2.28947,9.56842 L -2.37015,9.38506 L -2.2516,9.47119 L -1.50157,9.85336 L -1.37665,9.88684
 L -1.42076,9.90625 L -1.74799,9.91339 z
M 4.51598,11.439 L 4.1662,11.2267 L 3.92429,10.8968 L 3.89812,10.7899 L 3.631,10.8819 L 3.34235,10.9173
 L 3.80756,10.5793 L 4.31572,10.5793 L 5.3577,10.4329 L 5.88162,10.2422 L 5.92218,10.4079 L 5.85995,10.8123
 L 5.64771,11.162 L 5.31776,11.404 L 4.92035,11.5012 z
M 4.27011,16.5078 L 5.54956,15.7691 L 7.04956,14.6793 L 7.96999,13.8506 L 8.2377,13.8224 L 9.80133,13.3144
 L 11.2252,12.4923 L 12.7252,11.4025 L 12.7706,11.3616 L 13.2422,11.3616 L 13.3194,11.3566 L 13.125,11.7735
 L 11.8882,13.4148 L 11.5551,13.7044 L 11.6793,13.8233 L 11.9368,14.4085 L 11.9507,15.0476 L 11.719,15.6434
 L 11.277,16.1052 L 10.6918,16.3626 L 10.0527,16.3766 L 9.45691,16.1449 L 8.99512,15.7028 L 8.92586,15.5454
 L 8.53978,15.7594 L 6.57446,16.3603 L 4.52718,16.5394 z
M 8.57773,23.6559 L 9.57655,23.1248 L 11.0766,22.035 L 13.0444,20.3837 L 14.626,18.3594 L 14.8867,17.8249
 L 15.1526,17.7487 L 17.4209,16.5426 L 18.9209,15.4528 L 20.8887,13.8016 L 21.8242,12.6042 L 22.1858,12.6042
 L 22.9619,12.4143 L 24.2068,11.5098 L 23.3907,14.5555 L 21.9329,17.4166 L 21.4989,17.9526 L 21.7223,18.1019
 L 22.2772,18.9324 L 22.4721,19.9121 L 22.2772,20.8918 L 21.7223,21.7223 L 20.8918,22.2772 L 19.9121,22.4721
 L 18.9324,22.2772 L 18.1019,21.7223 L 17.9526,21.4989 L 17.4166,21.9329 L 14.5555,23.3907 L 11.4538,24.2218
 L 8.34082,24.385 z
M -8.30901,17.8187 L -8.82454,17.4407 L -9.15617,16.8942 L -9.25342,16.2624 L -9.10149,15.6414 L -8.99979,15.5027
 L -9.37816,15.2754 L -10.8812,13.8738 L -12.0599,12.1903 L -12.2468,11.75 L -11.2252,12.4923 L -9.80133,13.3144
 L -8.2377,13.8224 L -7.96999,13.8506 L -7.04958,14.6793 L -5.54958,15.7691 L -4.12575,16.5912 L -3.58096,16.7682
 L -3.35385,17.1081 L -3.20546,17.2159 L -3.63365,17.2534 L -5.67343,17.0029 L -6.09082,16.8592 L -6.1317,17.0262
 L -6.5097,17.5418 L -7.05623,17.8734 L -7.68805,17.9707 z
M -15.5768,30.7129 L -19.2984,29.2093 L -20.0132,28.7272 L -20.1748,29.0217 L -21.1485,29.8032 L -22.3472,30.1526
 L -23.5884,30.0166 L -24.683,29.4161 L -25.4645,28.4424 L -25.8139,27.2437 L -25.678,26.0025 L -25.0775,24.9078
 L -24.8155,24.6976 L -25.4144,24.0774 L -27.5414,20.6734 L -28.9143,16.9016 L -29.4729,12.9268 L -29.4319,12.3408
 L -29.4075,12.3585 L -28.4617,12.6796 L -28.0676,12.6796 L -26.7278,14.7426 L -24.4572,17.0132 L -22.9572,18.103
 L -20.2642,19.8519 L -19.843,20.0136 L -19.4258,21.1005 L -17.6769,23.7936 L -15.4063,26.0641 L -13.9063,27.154
 L -12.6944,27.941 L -12.2535,29.298 L -11.9324,30.2438 L -11.2738,30.9948 L -10.7447,31.3792 L -11.6239,31.4099
 z
M -0.501572,15.6289 L -0.926804,15.3447 L -1.21094,14.9195 L -1.31071,14.4179 L -1.28387,14.283 L -1.63507,14.246
 L -3.1987,13.738 L -3.71768,13.4384 L -1.97034,13.4384 L -1.25241,13.3502 L -1.16957,13.3961 L 0.0882111,13.7807
 L 1.39848,13.8953 L 2.71455,13.8953 L 1.63507,14.246 L 1.28387,14.283 L 1.31071,14.4179 L 1.21094,14.9195
 L 0.926804,15.3447 L 0.501572,15.6288 L 0,15.7286 z
M 3.46867,24.1852 L 2.73726,23.8634 L 2.18468,23.2861 L 1.89505,22.5414 L 1.89975,22.3264 L 1.3493,22.3649
 L -1.19456,22.0074 L -3.60854,21.1288 L -5.21289,20.1263 L -5.09534,20.0409 L -4.5607,20.1065 L -2.7066,20.1065
 L -0.659317,19.9274 L 1.306,19.3266 L 1.62454,19.15 L 3.60013,19.3925 L 5.45422,19.3925 L 7.50151,19.2134
 L 8.43394,18.9284 L 8.52986,18.998 L 9.12567,19.2298 L 9.89117,19.2298 L 8.64951,20.2716 L 6.3813,21.4777
 L 5.85089,21.6297 L 5.92882,21.8301 L 5.91138,22.629 L 5.58955,23.3604 L 5.01231,23.913 L 4.26756,24.2026
 z
M -7.95091,29.6732 L -8.84676,29.2314 L -9.50536,28.4805 L -9.82643,27.5346 L -9.76111,26.5379 L -9.64224,26.2969
 L -10.2862,26.0497 L -12.9792,24.3008 L -15.2498,22.0302 L -16.9747,19.3741 L -16.5089,19.3741 L -16.0141,19.3199
 L -14.158,20.4797 L -11.7441,21.3583 L -9.20018,21.7158 L -7.95953,21.7158 L -6.71413,22.6207 L -4.53558,23.982
 L -2.12161,24.8606 L -0.15918,25.1364 L 0.310211,25.6267 L 1.81021,26.7165 L 1.93636,26.772 L -0.910049,27.5347
 L -4.11676,27.7028 L -4.798,27.5949 L -4.81557,27.863 L -5.25737,28.7589 L -6.00835,29.4175 L -6.95421,29.7386
 z
M 10.6867,35.9773 L 9.67982,35.239 L 9.03209,34.1716 L 8.98099,33.8396 L 8.14442,34.0482 L 4.133,34.1883
 L 0.180084,33.4913 L -3.54153,31.9877 L -4.13803,31.5853 L -3.5813,31.1808 L -2.84837,30.5381 L 0.0169983,30.3879
 L 3.11867,29.5568 L 5.9798,28.099 L 7.18689,27.222 L 7.32002,27.2431 L 9.17412,27.2431 L 12.3808,27.075
 L 15.4825,26.2439 L 17.8594,25.0329 L 18.0054,25.1304 L 18.9851,25.3253 L 20.8392,25.3253 L 21.7203,25.15
 L 21.3898,25.7716 L 18.8097,28.8464 L 15.6468,31.3176 L 14.8719,31.6955 L 15.0461,31.9827 L 15.2361,33.2168
 L 14.9393,34.4295 L 14.201,35.4364 L 13.1336,36.0842 L 11.8995,36.2741 z
M -30,51.9615 L -31.4667,50.6752 L -32.3296,48.9255 L -32.4572,46.9788 L -31.8301,45.1314 L -31.4841,44.7368
 L -32.5739,43.945 L -36.7705,39.2842 L -39.9063,33.8527 L -41.8444,27.888 L -42.1254,25.2144 L -40.6301,25.4445
 L -38.9882,25.4445 L -36.2986,28.3287 L -34.7986,29.4185 L -30.6886,32.2964 L -26.0701,34.2568 L -24.2509,34.6104
 L -23.3374,36.1308 L -19.9156,39.8003 L -18.4156,40.8901 L -14.3056,43.7679 L -10.5425,45.3652 L -10.0768,46.7987
 L -9.32607,48.167 L -8.10887,49.1439 L -6.60887,50.2337 L -5.28583,50.6194 L -9.36415,51.4863 L -15.6358,51.4863
 L -21.7705,50.1823 L -23.0012,49.6344 L -23.1699,50.1314 L -24.4562,51.5981 L -26.2059,52.461 L -28.1526,52.5886
 z
M 26.2059,52.461 L 24.4562,51.5981 L 23.1699,50.1314 L 23.0012,49.6344 L 21.7705,50.1823 L 15.6358,51.4863
 L 9.36415,51.4863 L 3.22948,50.1823 L 0.649292,49.0335 L 1.16335,48.6601 L 2.14024,47.4429 L 2.43953,46.5218
 L 6.99756,45.4695 L 11.5448,43.3491 L 13.0448,42.2592 L 17.0519,39.2397 L 17.9684,38.1853 L 20.2349,38.1458
 L 25.1237,37.0171 L 29.671,34.8967 L 31.171,33.8069 L 33.8235,31.8081 L 34.2499,31.9957 L 35.8102,32.0297
 L 37.6643,32.0297 L 39.1189,31.4641 L 40.6189,30.3743 L 41.2251,29.794 L 39.9063,33.8527 L 36.7705,39.2842
 L 32.5739,43.945 L 31.4841,44.7368 L 31.8301,45.1314 L 32.4572,46.9788 L 32.3296,48.9255 L 31.4667,50.6752
 L 30,51.9615 L 28.1526,52.5886 z
M -5.68182,47.3806 L -6.89902,46.4037 L -7.6497,45.0354 L -7.81963,43.4839 L -7.70212,43.0808 L -8.76003,42.8752
 L -13.3785,40.9147 L -17.4885,38.0369 L -20.9104,34.3674 L -21.7286,33.0057 L -21.4202,33.0057 L -20.2215,32.6563
 L -19.6976,32.2757 L -16.5039,33.5661 L -12.551,34.2631 L -10.6969,34.2631 L -6.68542,34.123 L -5.84387,33.9132
 L -4.46858,34.8408 L -0.746964,36.3445 L 3.20595,37.0415 L 5.06004,37.0415 L 7.23048,36.9657 L 7.25278,37.0024
 L 8.25967,37.7407 L 9.75967,38.8305 L 10.9725,39.1273 L 12.434,39.1273 L 10.6178,40.4959 L 6.07051,42.6163
 L 1.18175,43.745 L 0.104202,43.7638 L 0.149933,44.1812 L -0.286804,45.6795 L -1.2637,46.8967 L -2.63203,47.6474
 L -4.18347,47.8173 z
" stroke="black" fill="lightgray" stroke-width="0.5"/>
</svg>
