<?xml version="1.0" encoding="UTF-8" standalone="no"?>
<svg
   xmlns:dc="http://purl.org/dc/elements/1.1/"
   xmlns:cc="http://creativecommons.org/ns#"
   xmlns:rdf="http://www.w3.org/1999/02/22-rdf-syntax-ns#"
   xmlns:svg="http://www.w3.org/2000/svg"
   xmlns="http://www.w3.org/2000/svg"
   xmlns:sodipodi="http://sodipodi.sourceforge.net/DTD/sodipodi-0.dtd"
   xmlns:inkscape="http://www.inkscape.org/namespaces/inkscape"
   width="94mm"
   height="98mm"
   viewBox="-47 -49 94 98"
   version="1.1"
   id="svg8364"
   sodipodi:docname="mandalathing_arrows_to_center.svg"
   inkscape:version="0.92.3 (5aff6bad34, 2018-11-25, custom)">
  <metadata
     id="metadata8370">
    <rdf:RDF>
      <cc:Work
         rdf:about="">
        <dc:format>image/svg+xml</dc:format>
        <dc:type
           rdf:resource="http://purl.org/dc/dcmitype/StillImage" />
      </cc:Work>
    </rdf:RDF>
  </metadata>
  <defs
     id="defs8368" />
  <sodipodi:namedview
     pagecolor="#ffffff"
     bordercolor="#666666"
     borderopacity="1"
     objecttolerance="10"
     gridtolerance="10"
     guidetolerance="10"
     inkscape:pageopacity="0"
     inkscape:pageshadow="2"
     inkscape:window-width="3840"
     inkscape:window-height="2104"
     id="namedview8366"
     showgrid="false"
     inkscape:zoom="4.6492759"
     inkscape:cx="110.1004"
     inkscape:cy="185.19685"
     inkscape:window-x="3840"
     inkscape:window-y="0"
     inkscape:window-maximized="1"
     inkscape:current-layer="svg8364" />
  <title
     id="title8360">OpenSCAD Model</title>
  <path
     d="m 9.67073,48.1818 0.25255,-0.0676 0.23692,-0.1105 26.332,-15.2028 0.2142,-0.15 0.1849,-0.1849 0.15,-0.2142 9.4103,-16.299 0.1105,-0.237 0.0676,-0.2525 0.0228,-0.2605 v -30.4056 l -0.0228,-0.2605 -0.0676,-0.2525 -0.1105,-0.237 -9.4103,-16.299 -0.15,-0.2142 -0.1849,-0.1849 -0.2141,-0.15 -26.332,-15.2028 -0.23702,-0.1105 -0.25255,-0.0676 -0.26047,-0.0228 H -9.41026 l -0.26047,0.0228 -0.25255,0.0676 -0.23692,0.1105 -26.332,15.2028 -0.2142,0.15 -0.1849,0.1849 -0.15,0.2142 -9.4103,16.299 -0.1105,0.237 -0.0676,0.2525 -0.0228,0.2605 v 30.4056 l 0.0228,0.2605 0.0676,0.2525 0.1105,0.237 9.4103,16.299 0.15,0.2142 0.1849,0.1849 0.2141,0.15 26.332,15.2028 0.23702,0.1105 0.25255,0.0676 0.26047,0.0228 H 9.41026 Z"
     id="path9171"
     style="fill:none;stroke:#800080;stroke-width:0.1;stroke-miterlimit:4;stroke-dasharray:none" />
  <path
     d="m 26.271,-20.4962 -0.1664,-0.1664 -1.5047,-1.453 -0.1927,-0.135 -1.7342,-1.1697 -0.2132,-0.0994 -0.2006,-0.0893 1.1448,-7.228 0.0205,-0.2344 -0.0205,-0.2345 -0.0609,-0.2273 -0.0994,-0.2132 -0.135,-0.1928 -0.1664,-0.1664 -0.1928,-0.135 -0.2132,-0.0994 -0.2273,-0.0609 -5.5311,-0.8761 -0.2344,-0.0205 -0.2344,0.0205 -0.2273,0.061 -0.2133,0.0994 -0.1928,0.135 -0.1664,0.1664 -0.1349,0.1927 -0.0995,0.2133 -0.0609,0.2273 -1.1522,7.2746 -0.4056,0.0426 -0.2273,0.0609 -2.0107,0.5766 -0.2133,0.0994 -0.0986,0.0481 -0.1525,-0.1192 -0.1735,-0.1214 -0.3588,-0.1908 -0.0405,-0.1415 -0.0995,-0.2132 -0.91695,-1.8801 -0.13498,-0.1927 -0.12903,-0.1776 4.60546,-5.6873 0.135,-0.1927 0.0994,-0.2133 0.0609,-0.2273 0.0205,-0.2344 -0.0205,-0.2345 -0.0609,-0.2272 -0.0994,-0.2133 -0.135,-0.1928 -0.1664,-0.1664 -4.35204,-3.5242 -0.19276,-0.135 -0.21328,-0.0994 -0.22729,-0.0609 -0.23442,-0.0205 -0.23442,0.0205 -0.2273,0.0609 -0.21327,0.0994 -0.19276,0.135 -0.1664,0.1664 -2.10901,2.6044 -2.52788,-9.4341 6.76149,-1.8117 2.70924,10.111 1.6878,1e-4 2.575,0.454 2.4569,0.8943 2.2644,1.3073 2.003,1.6807 1.6807,2.0029 0.8439,1.4617 10.1111,-2.7092 1.8117,6.7614 -10.1111,2.7093 v 1.6878 l -0.2072,1.175 z"
     id="path9169"
     style="fill:none;stroke:#550000;stroke-width:0.1;stroke-miterlimit:4;stroke-dasharray:none" />
  <path
     d="m -16.1593,-21.3165 -0.2344,-0.0205 -2.0866,-0.1459 -0.2344,0.0205 -0.2184,0.023 -2.6226,-6.8321 -0.0994,-0.2133 -0.135,-0.1927 -0.1664,-0.1664 -0.1927,-0.135 -0.2133,-0.0994 -0.2273,-0.061 -0.2344,-0.0205 -0.2345,0.0205 -0.2272,0.061 -5.2281,2.0068 -0.2133,0.0995 -0.1927,0.1349 -0.1664,0.1664 -0.135,0.1928 -0.0994,0.2133 -0.061,0.2273 -0.0205,0.2344 0.0205,0.2344 0.061,0.2273 1.2009,3.1287 -9.4341,-2.5279 1.8117,-6.7614 10.1111,2.7092 0.8439,-1.4617 1.6807,-2.0029 2.003,-1.6807 2.2644,-1.3073 2.4569,-0.8943 2.575,-0.454 1.6878,-1e-4 2.70924,-10.111 6.76149,1.8117 -2.70926,10.1111 1.46168,0.8439 0.91397,0.7669 -1.63232,0.1716 -0.2273,0.0609 -2.01069,0.5766 -0.21327,0.0994 -1.88004,0.9169 -0.19276,0.135 -0.1776,0.1291 -5.68724,-4.6055 -0.1928,-0.135 -0.2133,-0.0994 -0.2273,-0.0609 -0.2344,-0.0205 -0.2344,0.0205 -0.2273,0.0609 -0.2133,0.0994 -0.1927,0.135 -0.1664,0.1664 -3.5242,4.352 -0.135,0.1928 -0.0995,0.2133 -0.0609,0.2273 -0.0205,0.2344 0.0205,0.2344 0.0609,0.2273 0.0995,0.2133 0.135,0.1927 0.1664,0.1664 5.7238,4.6351 -0.1659,0.3727 -0.0609,0.2273 -0.506,2.0295 -0.0205,0.2345 -0.0077,0.1094 -0.1794,0.0725 -0.192,0.0895 -0.3445,0.2153 z"
     id="path9167"
     style="fill:none;stroke:#550000;stroke-width:0.1;stroke-miterlimit:4;stroke-dasharray:none" />
  <path
     d="m -4.87004,-20.9938 -1.47752,-0.7856 -0.19196,-0.0895 -0.18243,-0.0592 0.30517,-5.823 -0.01846,-0.211 -0.05481,-0.2046 -0.08951,-0.1919 -0.12147,-0.1735 -0.14977,-0.1498 -0.17348,-0.1215 -0.19195,-0.0895 -0.20458,-0.0548 -0.21096,-0.0184 -4.47383,-0.2345 -0.211,0.0185 -0.2046,0.0548 -0.1919,0.0895 -0.1735,0.1214 -0.1498,0.1498 -0.1215,0.1735 -0.0895,0.1919 -0.0548,0.2046 -0.0184,0.211 -0.131,2.4982 -5.944,-4.8134 3.5242,-4.352 6.50801,5.27 1.09238,-0.7936 1.88003,-0.917 2.0107,-0.5765 2.08029,-0.2187 2.086642,0.1459 2.029588,0.5061 1.23352,0.5491 5.27005,-6.5079 4.35199,3.5242 -5.27002,6.5079 0.79364,1.0924 0.33499,0.6869 -1.01108,-0.3286 -0.20457,-0.0548 -1.65711,-0.2329 -0.21096,-0.0184 -1.67237,0.0584 -0.21097,0.0184 -0.18763,0.0399 -2.64722,-5.1954 -0.121475,-0.1735 -0.149765,-0.1498 -0.173477,-0.1215 -0.1919556,-0.0895 -0.2045744,-0.0548 -0.210968,-0.0184 -0.210968,0.0184 -0.204575,0.0548 -0.191955,0.0895 -3.991717,2.0339 -0.17348,0.1215 -0.14976,0.1498 -0.12148,0.1734 -0.0895,0.192 -0.05481,0.2046 -0.01847,0.2109 0.01847,0.211 0.05481,0.2046 0.0895,0.1919 2.58948,5.0822 -0.07951,0.0716 -0.14977,0.1498 -1.03024,1.3186 -0.12147,0.1735 -0.06441,0.1211 -0.13378,-0.0047 -0.18988,0.0167 -0.18095,0.0254 z"
     id="path9165"
     style="fill:none;stroke:#550000;stroke-width:0.1;stroke-miterlimit:4;stroke-dasharray:none" />
  <path
     d="m 2.27795,-32.5052 -0.06747,-0.0181 1.68587,-1.4146 0.0915,-0.0528 -1.33729,1.6514 z"
     id="path9163"
     style="fill:none;stroke:#550000;stroke-width:0.1;stroke-miterlimit:4;stroke-dasharray:none" />
  <path
     d="m 26.0274,-6.34431 -0.0548,-0.20458 -0.6269,-1.55153 -0.0895,-0.19195 -0.8867,-1.41912 -0.1215,-0.17347 -0.1284,-0.14254 3.1758,-4.8903 0.0895,-0.192 0.0548,-0.2045 0.0185,-0.211 -0.0185,-0.211 -0.0548,-0.2046 -0.0895,-0.1919 -0.1215,-0.1735 -0.1497,-0.1498 -0.1735,-0.1214 -3.7573,-2.44 -0.1919,-0.0895 -0.2046,-0.0548 -0.211,-0.0185 -0.2109,0.0185 -0.2046,0.0548 -0.192,0.0895 -0.1734,0.1215 -0.1498,0.1497 -0.1215,0.1735 -3.1065,4.7836 -0.1018,-0.0331 -0.2046,-0.0548 -1.6571,-0.2328 -0.2109,-0.0185 -0.1371,0.0048 -0.0629,-0.1182 -0.1093,-0.1561 -0.1125,-0.144 0.0151,-0.1726 -0.0584,-1.6723 -0.0185,-0.211 -0.0399,-0.1877 5.1955,-2.6472 0.1735,-0.1215 0.1497,-0.1497 0.1215,-0.1735 0.0895,-0.192 0.0548,-0.2045 0.0185,-0.211 -0.0185,-0.211 -0.0548,-0.2045 -0.0895,-0.192 -2.0339,-3.9917 -0.1214,-0.1735 -0.1498,-0.1497 -0.1735,-0.1215 -0.1919,-0.0895 -0.2046,-0.0548 -0.211,-0.0185 -0.2109,0.0185 -0.2046,0.0548 -0.192,0.0895 -2.2289,1.1357 1.1965,-7.5544 5.5311,0.8761 -1.3101,8.2711 1.2335,0.5492 1.7342,1.1697 1.5046,1.453 1.2295,1.6923 0.917,1.88 0.5765,2.0107 0.1412,1.3428 8.2711,1.3101 -0.876,5.53102 -8.2712,-1.31001 -0.5491,1.2335 -0.4274,0.63353 z"
     id="path9161"
     style="fill:none;stroke:#550000;stroke-width:0.1;stroke-miterlimit:4;stroke-dasharray:none" />
  <path
     d="m 3.60876,-16.8446 -0.17121,-0.0491 -0.00499,-0.0094 -0.10933,-0.1561 -0.82421,-1.0549 -0.12637,-0.1264 2.02667,-3.9776 0.08055,-0.1728 0.04934,-0.1841 0.01661,-0.1898 -0.01661,-0.1899 -0.04934,-0.1841 -0.08055,-0.1728 -0.10933,-0.1561 -0.13478,-0.1348 -0.15614,-0.1093 -3.19336,-1.6271 -0.172745,-0.0806 -0.184112,-0.0493 -0.189881,-0.0166 -0.1898802,0.0166 -0.1841128,0.0493 -0.172745,0.0806 -0.156143,0.1093 -0.134781,0.1348 -0.109329,0.1561 -0.917601,1.8009 -2.70981,-5.3183 3.991715,-2.0338 3.041445,5.9691 1.05659,-0.2245 1.67237,-0.0584 1.6571,0.2329 1.59149,0.5171 1.09224,0.5807 -0.10301,-0.009 -3.5791,0.1876 -0.18988,0.0166 -0.18412,0.0493 -0.17274,0.0806 -0.15614,0.1093 -0.13478,0.1348 -0.10933,0.1561 -0.08055,0.1728 -0.04934,0.1841 -0.01661,0.1899 0.23959,4.5717 -0.06145,0.0199 -0.17274,0.0806 -1.18201,0.6285 -0.13826,0.0968 z"
     id="path9159"
     style="fill:none;stroke:#550000;stroke-width:0.1;stroke-miterlimit:4;stroke-dasharray:none" />
  <path
     d="m -14,-20.5283 -0.1727,-0.0805 -0.1842,-0.0494 -0.1457,-0.0127 0.9898,-0.3999 1.0565,-0.2246 0.3507,-6.6902 4.47383,0.2345 -0.35062,6.6901 1.02733,0.3339 0.39074,0.2077 -0.7659,0.2489 -0.17274,0.0805 -1.18201,0.6285 -0.15614,0.1094 -1.05492,0.8241 -0.12637,0.1264 z"
     id="path9157"
     style="fill:none;stroke:#550000;stroke-width:0.1;stroke-miterlimit:4;stroke-dasharray:none" />
  <path
     d="m -37.9459,-3.58139 7.818,-3.00105 -0.1412,-1.34285 0.146,-2.08661 0.506,-2.0296 0.8508,-1.9109 1.1697,-1.7342 1.453,-1.5046 1.0924,-0.7937 -3.0011,-7.818 5.2281,-2.0069 3.001,7.818 1.3429,-0.1411 0.7623,0.0533 -0.7901,0.7114 -0.1497,0.1498 -1.0302,1.3186 -0.1215,0.1735 -0.7856,1.4775 -0.0895,0.1919 -0.0593,0.1825 -5.823,-0.3052 -0.211,0.0185 -0.2046,0.0548 -0.1919,0.0895 -0.1735,0.1214 -0.1498,0.1498 -0.1214,0.1735 -0.0895,0.1919 -0.0548,0.2046 -0.0185,0.211 -0.2345,4.4738 0.0185,0.211 0.0548,0.2046 0.0895,0.19194 0.1215,0.17348 0.1497,0.14977 0.1735,0.12147 0.192,0.08951 0.2045,0.05481 0.211,0.01846 5.696,0.29853 0.0223,0.10467 0.0548,0.20458 0.6268,1.55152 0.0895,0.19196 0.0727,0.11633 -0.0709,0.11353 -0.0805,0.17274 -0.0685,0.16944 -0.1569,0.07318 -1.4192,0.88676 -0.1734,0.12148 -0.1426,0.12836 -4.8903,-3.17579 -0.1919,-0.0895 -0.2046,-0.05481 -0.211,-0.01847 -0.211,0.01847 -0.2045,0.05481 -0.192,0.0895 -0.1735,0.12148 -0.1497,0.14976 -0.1215,0.17348 -2.44,3.75725 -0.0895,0.19195 -0.0548,0.20458 -0.0185,0.21097 0.0185,0.21097 0.0548,0.20457 0.0895,0.19196 0.1215,0.17347 0.1498,0.14977 0.1734,0.12147 2.098,1.36246 -7.1405,2.74098 z"
     id="path9155"
     style="fill:none;stroke:#550000;stroke-width:0.1;stroke-miterlimit:4;stroke-dasharray:none" />
  <path
     d="m 13.8897,-16.4834 -0.1562,-0.1093 -1.1353,-0.7095 -0.1727,-0.0805 -1.2412,-0.5015 -0.1727,-0.0463 -0.2336,-4.458 -0.0166,-0.1899 -0.0493,-0.1841 -0.0619,-0.1326 0.8412,0.6572 0.7228,0.8027 5.9692,-3.0414 2.0339,3.9917 -5.9692,3.0415 0.2246,1.0566 0.0154,0.4423 z"
     id="path9153"
     style="fill:none;stroke:#550000;stroke-width:0.1;stroke-miterlimit:4;stroke-dasharray:none" />
  <path
     d="m -3.50584,-19.6767 -0.1213,-0.1212 -0.02935,-0.0206 0.63704,0.0222 0.84527,0.1797 2.433152,-4.7754 3.193358,1.6272 -2.43315,4.7753 0.64218,0.5782 0.12598,0.1613 -0.43886,-0.0461 -0.17088,-0.015 -1.068362,0.0747 -0.1708835,0.015 -1.0391345,0.2591 -0.16571,0.0444 -0.00397,0.0017 z"
     id="path9151"
     style="fill:none;stroke:#550000;stroke-width:0.1;stroke-miterlimit:4;stroke-dasharray:none" />
  <path
     d="m 12.4222,-23.0189 -0.0741,-0.074 1.0226,-0.2932 -0.8769,0.4468 z"
     id="path9149"
     style="fill:none;stroke:#550000;stroke-width:0.1;stroke-miterlimit:4;stroke-dasharray:none" />
  <path
     d="m -13.5676,-23.2724 -0.0515,0.9828 -0.1047,0.0223 -0.1012,0.0271 z"
     id="path9147"
     style="fill:none;stroke:#550000;stroke-width:0.1;stroke-miterlimit:4;stroke-dasharray:none" />
  <path
     d="m 8.1409,-11.2485 -0.02924,-0.0246 -0.00375,-0.0428 -0.25909,-1.0392 -0.04441,-0.1657 -0.00175,-0.0039 2.76044,-2.2354 0.1213,-0.1213 0.0984,-0.1406 0.0725,-0.1554 0.0444,-0.1657 0.015,-0.1709 -0.015,-0.1709 -0.0444,-0.1657 -0.0725,-0.1555 -0.0984,-0.1405 -1.80436,-2.2282 -0.1213,-0.1213 -0.14053,-0.0984 -0.15547,-0.0725 -0.16571,-0.0444 -0.17089,-0.015 -0.17088,0.015 -0.16571,0.0444 -0.15547,0.0725 -0.14053,0.0984 -1.14537,0.9275 -0.24277,-4.6323 3.5791,-0.1876 0.28049,5.3522 0.8453,0.1796 1.2412,0.5015 1.1353,0.7094 0.9949,0.8958 0.4635,0.5934 -2.6226,-1.0068 -0.1657,-0.0444 -0.1709,-0.0149 -0.1709,0.0149 -0.1657,0.0444 -0.1555,0.0725 -0.1405,0.0984 -0.1213,0.1213 -0.0984,0.1405 -0.0725,0.1555 -1.26149,3.2863 -0.0378,-0.0033 -1.06836,0.0747 -0.17088,0.015 -0.02862,0.0071 z"
     id="path9145"
     style="fill:none;stroke:#550000;stroke-width:0.1;stroke-miterlimit:4;stroke-dasharray:none" />
  <path
     d="m -2.78087,-20.8628 0.04624,-0.0592 -0.03173,0.0623 z"
     id="path9143"
     style="fill:none;stroke:#550000;stroke-width:0.1;stroke-miterlimit:4;stroke-dasharray:none" />
  <path
     d="m -27.4429,-20.3433 v -0.1057 l 0.7615,1.9839 -0.33,0.2397 -0.0493,0.0494 z"
     id="path9141"
     style="fill:none;stroke:#550000;stroke-width:0.1;stroke-miterlimit:4;stroke-dasharray:none" />
  <path
     d="m -26.8014,-10.4908 0.2345,-4.4738 6.6902,0.3506 0.3338,-1.0273 0.7856,-1.4775 1.0302,-1.3187 1.2436,-1.1197 1.0491,-0.6555 -0.0593,0.0847 -1.6271,3.1934 -0.0806,0.1727 -0.0493,0.1841 -0.0166,0.1899 0.0166,0.1899 0.0493,0.1841 0.0806,0.1727 0.1093,0.1562 0.1348,0.1348 0.1561,0.1093 4.079,2.0783 -0.0134,0.0633 -0.0166,0.1898 -0.0468,1.3379 0.0147,0.1681 -0.0798,0.0559 -0.1281,0.1237 -0.0106,-3e-4 -0.1899,0.0166 -1.3257,0.1863 -0.1726,0.0463 -2.4314,-3.744 -0.1093,-0.1561 -0.1348,-0.1348 -0.1561,-0.1093 -0.1728,-0.0806 -0.1841,-0.0493 -0.1899,-0.0166 -0.1898,0.0166 -0.1841,0.0493 -0.1728,0.0806 -3.0058,1.952 -0.1561,0.1093 -0.1348,0.1348 -0.1093,0.1561 -0.0806,0.1728 -0.0493,0.1841 -0.0166,0.1899 0.0166,0.1898 0.0493,0.1842 0.0806,0.1727 1.1008,1.6951 z"
     id="path9139"
     style="fill:none;stroke:#550000;stroke-width:0.1;stroke-miterlimit:4;stroke-dasharray:none" />
  <path
     d="m -45.1525,15.2028 7.4018,-7.40185 -0.8439,-1.46169 -0.8943,-2.45698 -0.454,-2.57494 v -2.61468 l 0.454,-2.57494 0.8943,-2.45698 0.8439,-1.46169 -7.4018,-7.40185 4.9497,-4.9497 7.4019,7.4018 1.4616,-0.8439 1.1212,-0.4081 -0.6676,1.4994 -0.0609,0.2273 -0.506,2.0296 -0.0205,0.2345 -0.1459,2.08661 0.0205,0.23442 0.0229,0.21834 -6.832,2.62257 -0.2133,0.09944 -0.1928,0.13498 -0.1664,0.1664 -0.135,0.19276 -0.0994,0.21327 -0.0609,0.2273 -0.0205,0.23442 0.0205,0.23442 0.0609,0.2273 2.0069,5.22804 0.0994,0.21327 0.135,0.19276 0.1664,0.1664 0.1927,0.13498 0.2133,0.09944 0.2273,0.06092 0.2344,0.0205 0.2344,-0.0205 0.2273,-0.06092 6.8761,-2.639463 0.2397,0.329971 0.1664,0.166397 1.5047,1.453015 0.1928,0.13498 0.0909,0.06136 -0.0269,0.19169 -0.0185,0.21097 0.0142,0.40612 -0.1022,0.10585 -0.135,0.19276 -1.1697,1.73413 -0.0994,0.21327 -0.0893,0.20053 -7.2281,-1.1448 -0.2344,-0.02051 -0.2344,0.02051 -0.2273,0.06091 -0.2133,0.09944 -0.1927,0.13498 -0.1664,0.1664 -0.135,0.19276 -0.0994,0.21328 -0.061,0.22729 -0.876,5.53104 -0.0205,0.2344 0.0205,0.2345 0.0609,0.2272 0.0995,0.2133 0.1349,0.1928 0.1664,0.1664 0.1928,0.135 0.2133,0.0994 0.2273,0.0609 3.31,0.5243 -6.9063,6.9062 z"
     id="path9137"
     style="fill:none;stroke:#550000;stroke-width:0.1;stroke-miterlimit:4;stroke-dasharray:none" />
  <path
     d="m 32.8009,12.7507 -1.4616,0.8439 -1.1212,0.4081 0.6676,-1.4994 0.0609,-0.2273 0.506,-2.0296 0.0205,-0.2345 0.1459,-2.08661 -0.0205,-0.23442 -0.0229,-0.21834 6.832,-2.62257 0.2133,-0.09944 0.1928,-0.13498 0.1664,-0.1664 0.135,-0.19276 0.0994,-0.21327 0.0609,-0.2273 0.0205,-0.23442 -0.0205,-0.23442 -0.0609,-0.2273 -2.0069,-5.22804 -0.0994,-0.21327 -0.135,-0.19276 -0.1664,-0.1664 -0.1927,-0.13498 -0.2133,-0.09944 -0.2273,-0.06092 -0.2344,-0.0205 -0.2344,0.0205 -0.2273,0.06092 -6.8761,2.639463 -0.2397,-0.329971 -0.1664,-0.166397 -1.5047,-1.453015 -0.1928,-0.13498 -0.0909,-0.06136 0.0269,-0.19169 0.0185,-0.21097 -0.0142,-0.40612 0.1022,-0.10585 0.135,-0.19276 1.1697,-1.73413 0.0994,-0.21327 0.0893,-0.20053 7.2281,1.1448 0.2344,0.02051 0.2344,-0.02051 0.2273,-0.06091 0.2133,-0.09944 0.1927,-0.13498 0.1664,-0.1664 0.135,-0.19276 0.0994,-0.21328 0.061,-0.22729 0.876,-5.53104 0.0205,-0.2344 -0.0205,-0.2345 -0.0609,-0.2272 -0.0995,-0.2133 -0.1349,-0.1928 -0.1664,-0.1664 -0.1928,-0.135 -0.2133,-0.0994 -0.2273,-0.0609 -3.31,-0.5243 6.9063,-6.9062 4.9497,4.9497 -7.4018,7.40185 0.8439,1.46169 0.8943,2.45698 0.454,2.57494 v 2.61468 l -0.454,2.57494 -0.8943,2.45698 -0.8439,1.46169 7.4018,7.40185 -4.9497,4.9497 z"
     id="path9135"
     style="fill:none;stroke:#550000;stroke-width:0.1;stroke-miterlimit:4;stroke-dasharray:none" />
  <path
     d="m -5.74593,-12.6796 -1.02948,-0.2952 -0.16571,-0.0444 -0.00428,-5e-4 -0.55567,-3.5083 -0.0444,-0.1657 -0.0725,-0.1555 -0.0984,-0.1405 -0.12129,-0.1213 -0.14054,-0.0984 -0.15547,-0.0725 -0.16571,-0.0444 -0.17088,-0.0149 -0.17088,0.0149 -2.83196,0.4485 -0.1657,0.0444 -0.1554,0.0725 -0.1406,0.0984 -0.1213,0.1213 -0.0984,0.1406 -0.0725,0.1554 -0.0444,0.1657 -0.0149,0.1709 0.0149,0.1709 0.2306,1.4557 -4.133,-2.1059 1.6271,-3.1934 4.77531,2.4332 0.57824,-0.6422 1.05492,-0.8242 1.18201,-0.6285 1.27319,-0.4137 0.74564,-0.1048 -2.18318,1.7679 -0.1213,0.1213 -0.0984,0.1406 -0.0725,0.1554 -0.0444,0.1657 -0.01495,0.1709 0.01495,0.1709 0.0444,0.1657 0.0725,0.1555 0.0984,0.1405 2.21529,2.7357 -0.02176,0.0311 -0.46948,0.9625 -0.0725,0.1555 -0.00813,0.0284 -0.07262,0.0194 -0.03585,0.0131 z"
     id="path9133"
     style="fill:none;stroke:#550000;stroke-width:0.1;stroke-miterlimit:4;stroke-dasharray:none" />
  <path
     d="m -6.48798,-17.2397 2.22824,-1.8044 2.59708,3.2072 -1.26709,-0.3395 -0.15379,-0.0135 -0.1538,0.0135 -0.14913,0.0399 -0.13993,0.0653 -0.12648,0.0885 -0.10916,0.1092 -0.08856,0.1265 -0.06525,0.1399 -0.3108,1.1599 z"
     id="path9131"
     style="fill:none;stroke:#550000;stroke-width:0.1;stroke-miterlimit:4;stroke-dasharray:none" />
  <path
     d="m 25.1782,-3.35394 -1.9519,-3.0058 -0.1094,-0.15614 -0.1348,-0.13479 -0.1561,-0.10932 -0.1727,-0.08056 -0.1842,-0.04933 -0.1898,-0.01661 -0.1899,0.01661 -0.1841,0.04933 -0.1728,0.08056 -3.8394,2.49333 -0.048,-0.04325 -0.1562,-0.10933 -1.1353,-0.70939 -0.1529,-0.07131 -0.0085,-0.09706 -0.043,-0.17283 0.0056,-0.00902 0.0805,-0.17275 0.5015,-1.24124 0.0463,-0.17264 4.458,-0.23362 0.1899,-0.01662 0.1841,-0.04933 0.1728,-0.08055 0.1561,-0.10933 0.1348,-0.13478 0.1093,-0.15615 0.0806,-0.17274 0.0493,-0.18411 0.0166,-0.18988 -0.1876,-3.57911 -0.0166,-0.1899 -0.0493,-0.1841 -0.0806,-0.1727 -0.1093,-0.1562 -0.1348,-0.1348 -0.1561,-0.1093 -0.1728,-0.0805 -0.1841,-0.0494 -0.1899,-0.0166 -2.0184,0.1058 3.2508,-5.0059 3.7573,2.44 -3.6487,5.61856 0.7227,0.80275 0.8868,1.41911 0.6269,1.55153 0.3479,1.63684 0.0432,1.23632 z"
     id="path9129"
     style="fill:none;stroke:#550000;stroke-width:0.1;stroke-miterlimit:4;stroke-dasharray:none" />
  <path
     d="m 6.61609,-12.3162 -0.13992,-0.0653 -0.8051,-0.293 -0.14914,-0.0399 -0.84375,-0.1488 -0.02776,-0.0025 -0.73419,-2.74 0.31853,0.1554 0.55929,0.4063 3.33209,-2.6982 1.8044,2.2282 -3.33209,2.6983 0.28117,0.6315 0.00586,0.0235 z"
     id="path9127"
     style="fill:none;stroke:#550000;stroke-width:0.1;stroke-miterlimit:4;stroke-dasharray:none" />
  <path
     d="m -11.5568,-11.1944 0.2938,-0.1982 0.6316,-0.2812 -0.6708,-4.2348 2.83194,-0.4485 0.67073,4.2348 0.68753,0.0723 0.02329,0.0067 -0.26938,0.1555 -0.12648,0.0885 -0.65633,0.5508 -0.10916,0.1091 -0.55072,0.6564 -0.01599,0.0228 z"
     id="path9125"
     style="fill:none;stroke:#550000;stroke-width:0.1;stroke-miterlimit:4;stroke-dasharray:none" />
  <path
     d="m -0.0356293,-15.0134 -0.0652467,-0.14 -0.088562,-0.1264 -0.109161,-0.1092 -0.12648,-0.0886 -0.139923,-0.0652 -0.859288,-0.2303 0.494389,-0.22 1.039139,-0.2591 1.068362,-0.0748 1.06511,0.112 0.40139,0.1151 -2.079098,0.5571 -0.139923,0.0652 -0.12648,0.0886 -0.109161,0.1092 -0.088562,0.1264 -0.0652467,0.14 L 0,-14.8805 Z"
     id="path9123"
     style="fill:none;stroke:#550000;stroke-width:0.1;stroke-miterlimit:4;stroke-dasharray:none" />
  <path
     d="m 0.867935,-14.7105 2.215605,-0.5937 0.81435,3.0392 -0.65926,-0.5339 -0.11383,-0.0797 -0.12593,-0.0587 -0.13423,-0.036 -0.13841,-0.0121 -0.13842,0.0121 -0.13423,0.036 -0.12593,0.0587 -0.11383,0.0797 -0.09825,0.0983 -0.53279,0.6579 z"
     id="path9121"
     style="fill:none;stroke:#550000;stroke-width:0.1;stroke-miterlimit:4;stroke-dasharray:none" />
  <path
     d="m -4.68463,-11.9627 0.16025,-0.0283 h 0.55307 l 0.88777,-3.3132 2.215605,0.5937 -0.887775,3.3132 0.37184,0.2147 -0.18986,0.02 -0.13423,0.0359 -0.65888,0.1889 -0.12593,0.0588 -0.53274,0.2598 z"
     id="path9119"
     style="fill:none;stroke:#550000;stroke-width:0.1;stroke-miterlimit:4;stroke-dasharray:none" />
  <path
     d="M -0.0510864,-11.2485 -0.707413,-11.7993 -0.73024,-11.8152 0,-14.5405 0.73024,-11.8152 0.707413,-11.7993 0.0510864,-11.2485 0,-11.1974 Z"
     id="path9117"
     style="fill:none;stroke:#550000;stroke-width:0.1;stroke-miterlimit:4;stroke-dasharray:none" />
  <path
     d="m -18.6538,-7.28319 0.5782,-0.64221 -2.919,-4.4948 3.0058,-1.952 2.919,4.49482 0.8219,-0.26702 0.2026,-0.0285 -0.2593,0.357 -0.0984,0.14053 -0.4695,0.96259 -0.0725,0.15547 -0.2952,1.02948 -0.0444,0.16571 -5e-4,0.00429 -3.5083,0.55566 -0.1657,0.0444 -0.0325,0.01514 z"
     id="path9115"
     style="fill:none;stroke:#550000;stroke-width:0.1;stroke-miterlimit:4;stroke-dasharray:none" />
  <path
     d="m 29.332,-13.8742 -0.0427,-0.4056 -0.0181,-0.0675 2.0681,0.7527 0.0914,0.0528 z"
     id="path9113"
     style="fill:none;stroke:#550000;stroke-width:0.1;stroke-miterlimit:4;stroke-dasharray:none" />
  <path
     d="m 12.5443,-10.6254 -0.0652,-0.14 -0.0886,-0.1264 -0.1091,-0.1092 -0.1265,-0.0886 -0.1399,-0.0652 -0.1492,-0.04 -0.1538,-0.0134 -0.1538,0.0134 -1.1599,0.3108 1.2877,-3.3546 2.6768,1.0275 -1.4789,3.85275 z"
     id="path9111"
     style="fill:none;stroke:#550000;stroke-width:0.1;stroke-miterlimit:4;stroke-dasharray:none" />
  <path
     d="m 15.6531,-7.48024 -0.0725,-0.15547 -0.5988,-0.88786 -0.0984,-0.14054 -0.744,-0.7704 -0.1213,-0.12129 -0.0035,-0.00255 1.273,-3.31615 0.0444,-0.1657 0.0031,-0.0357 0.2992,0.5629 0.2671,0.8218 5.3521,-0.2805 0.1876,3.57911 -5.3521,0.28048 -0.1797,0.84528 -0.0767,0.18971 z"
     id="path9109"
     style="fill:none;stroke:#550000;stroke-width:0.1;stroke-miterlimit:4;stroke-dasharray:none" />
  <path
     d="m 16.6773,-12.8397 0.0743,0.0104 -0.0697,0.0037 z"
     id="path9107"
     style="fill:none;stroke:#550000;stroke-width:0.1;stroke-miterlimit:4;stroke-dasharray:none" />
  <path
     d="m 2.45233,-8.7579 -0.543,-0.07633 -0.12457,-0.01089 -0.49413,0.01725 -0.72044,-1.41393 0.024949,0.0062 0.404205,0.1799 1.726886,-2.1325 1.42607,1.1548 -1.72688,2.13255 0.12245,0.16855 z"
     id="path9105"
     style="fill:none;stroke:#550000;stroke-width:0.1;stroke-miterlimit:4;stroke-dasharray:none" />
  <path
     d="m 5.55937,-11.2536 -0.13841,-0.0121 -0.13841,0.0121 -0.13423,0.036 -0.12594,0.0587 -0.07907,0.0554 -0.00596,-0.0683 -0.03597,-0.1342 -0.05873,-0.126 -0.0797,-0.1138 -0.09825,-0.0982 -0.4284,-0.347 h 0.28808 l 0.84375,0.1488 0.8051,0.2931 0.74201,0.4283 0.12033,0.101 z"
     id="path9103"
     style="fill:none;stroke:#550000;stroke-width:0.1;stroke-miterlimit:4;stroke-dasharray:none" />
  <path
     d="m -8.12228,-9.91371 0.55072,-0.65629 0.65632,-0.5508 0.74201,-0.4283 0.1476,-0.0538 -0.94057,1.1615 -0.0797,0.1139 -0.05873,0.1259 -0.03596,0.1342 -0.0121,0.13843 0.0084,0.09615 -0.0621,-0.02897 -0.13423,-0.03596 -0.13841,-0.0121 -0.13842,0.0121 -0.13423,0.03596 -0.51465,0.19756 z"
     id="path9101"
     style="fill:none;stroke:#550000;stroke-width:0.1;stroke-miterlimit:4;stroke-dasharray:none" />
  <path
     d="m -6.35555,-9.92897 1.15482,-1.42603 1.85194,1.49962 -0.61798,-0.03238 -0.12457,0.0109 -0.1208,0.03238 -0.11335,0.05284 -0.10243,0.07173 -0.08844,0.08844 -0.07173,0.10243 -0.05284,0.11334 -0.03238,0.12081 -0.01089,0.12457 -0.02991,0.57056 z"
     id="path9099"
     style="fill:none;stroke:#550000;stroke-width:0.1;stroke-miterlimit:4;stroke-dasharray:none" />
  <path
     d="M 6.57967,-8.37921 6.50793,-8.48164 6.41949,-8.57008 6.31706,-8.64182 6.20372,-8.69466 6.08292,-8.72704 5.95834,-8.73793 l -0.12457,0.01089 -0.1208,0.03238 -0.11335,0.05284 -0.50906,0.25939 0.3304,-2.08617 1.81242,0.2871 -0.37277,2.35366 z"
     id="path9097"
     style="fill:none;stroke:#550000;stroke-width:0.1;stroke-miterlimit:4;stroke-dasharray:none" />
  <path
     d="m -2.14206,-9.71481 -0.11334,-0.05284 -0.12081,-0.03238 -0.12457,-0.0109 -0.29457,-0.01544 0.08511,-0.06183 0.61605,-0.3005 0.65887,-0.1889 0.642534,-0.0675 -0.980014,0.4993 -0.10243,0.07173 -0.08844,0.08844 -0.07173,0.10243 -0.01514,0.03247 z"
     id="path9095"
     style="fill:none;stroke:#550000;stroke-width:0.1;stroke-miterlimit:4;stroke-dasharray:none" />
  <path
     d="m -14.3154,-7.19124 0.2952,-1.02948 0.4694,-0.96258 0.6296,-0.8664 0.3003,-0.2901 -0.5571,2.07909 -0.0134,0.15379 0.0134,0.1538 0.04,0.14913 0.0652,0.13993 0.0886,0.12648 0.0974,0.09738 -0.1331,-0.03565 -0.1537,-0.01345 -0.1538,0.01345 -0.1492,0.03997 -0.1399,0.06524 -0.1265,0.08857 -0.629,0.62901 z"
     id="path9093"
     style="fill:none;stroke:#550000;stroke-width:0.1;stroke-miterlimit:4;stroke-dasharray:none" />
  <path
     d="m -12.3057,-8.10692 0.5937,-2.21558 3.03915,0.81432 -0.79196,0.304 -0.12593,0.05873 -0.11383,0.0797 -0.09826,0.09825 -0.07969,0.11383 -0.05873,0.12593 -0.03597,0.13423 -0.0121,0.13842 0.0121,0.13841 0.03597,0.13423 0.30339,0.79038 z"
     id="path9091"
     style="fill:none;stroke:#550000;stroke-width:0.1;stroke-miterlimit:4;stroke-dasharray:none" />
  <path
     d="M 8.88026,-6.94423 8.78201,-7.04248 8.28896,-7.51862 8.17513,-7.59831 7.68372,-7.92976 l 0.33396,-2.10864 0.1046,0.12469 0.27654,0.47896 3.31318,-0.88775 0.5937,2.21558 -3.31321,0.88777 -10e-6,0.42937 z"
     id="path9089"
     style="fill:none;stroke:#550000;stroke-width:0.1;stroke-miterlimit:4;stroke-dasharray:none" />
  <path
     d="M 3.6763,-8.32542 3.41644,-8.85817 4.58809,-10.305 4.2968,-8.46585 4.27904,-8.46109 3.69159,-8.29265 Z"
     id="path9087"
     style="fill:none;stroke:#550000;stroke-width:0.1;stroke-miterlimit:4;stroke-dasharray:none" />
  <path
     d="M -0.890533,8.03496 -1.23677,8.10855 -1.78476,8.12769 -2.32776,8.05136 -2.84926,7.88193 -3.33342,7.6245 -3.7655,7.28691 -4.00235,7.02386 -5.95834,8.02049 -6.6248,6.71248 -4.66882,5.71585 -4.7424,5.36963 -4.76155,4.82162 -4.68523,4.27864 -4.65765,4.19377 -4.74493,4.21233 -5.29294,4.23146 -5.83594,4.15515 -6.17258,4.04578 -7.36819,5.88686 -8.59937,5.08733 -7.40375,3.24623 -7.64059,2.98318 -7.93117,2.51817 -8.13657,2.00977 -8.25058,1.47342 -8.26971,0.925415 -8.19341,0.382416 -8.08403,0.0457764 -9.92511,-1.14983 -9.12558,-2.381 l 1.8411,1.19562 0.26304,-0.23685 0.46501,-0.29057 0.50841,-0.20541 0.08727,-0.01854 -0.0597,-0.06632 -0.29057,-0.46501 -0.20541,-0.50841 -0.0736,-0.34622 -2.19224,-0.1149 0.07683,-1.46598 2.19224,0.11488 0.10938,-0.33663 0.25743,-0.48416 0.33758,-0.43208 0.4075,-0.36691 0.46502,-0.29058 0.5084,-0.20541 0.34622,-0.07359 0.1149,-2.19225 1.46599,0.07683 -0.11488,2.19224 0.33662,0.10938 0.48416,0.25743 0.4321,0.33759 0.05969,0.06631 0.02758,-0.08487 0.25743,-0.48414 0.337584,-0.4321 0.263046,-0.23683 -0.99663,-1.956 1.308016,-0.66646 0.996597,1.95598 0.346237,-0.07359 0.54799,-0.01914 0.543,0.07633 0.5215,0.16943 0.48416,0.25743 0.43208,0.33759 0.23685,0.26305 1.95599,-0.99663 0.66646,1.30801 -1.95598,0.99663 0.07358,0.34622 0.01915,0.54801 -0.07632,0.54298 -0.02758,0.08487 0.08728,-0.01856 0.54801,-0.01913 0.543,0.07631 0.33664,0.10937 1.19561,-1.84108 1.23118,0.79953 -1.19562,1.8411 0.23684,0.26305 0.29058,0.46501 0.2054,0.5084 0.11401,0.53635 0.01913,0.548005 -0.0763,0.542999 L 8.08403,-0.0457764 9.92511,1.14983 9.12558,2.381 7.28448,1.18538 7.02144,1.42223 6.55643,1.7128 6.04802,1.91821 5.96075,1.93675 6.02045,2.00307 6.31102,2.46808 6.51643,2.97649 6.59003,3.32271 8.78227,3.43761 8.70544,4.90359 6.5132,4.78871 6.40382,5.12534 6.14639,5.6095 5.80881,6.04158 5.40131,6.40849 4.93629,6.69907 4.42789,6.90448 4.08167,6.97807 3.96677,9.17032 2.50078,9.09349 2.61566,6.90125 2.27904,6.79187 1.79488,6.53444 1.36278,6.19685 1.30309,6.13054 1.27551,6.21541 1.01808,6.69955 0.680496,7.13165 0.41745,7.36848 1.41408,9.32448 0.106064,9.99094 Z"
     id="path9085"
     style="fill:none;stroke:#0000ff;stroke-width:0.1;stroke-miterlimit:4;stroke-dasharray:none" />
  <path
     d="m -5.37187,-7.34648 -0.59131,-0.04134 -0.66719,-1.7381 1.44713,1.17186 -0.00476,0.01778 -0.14785,0.59294 z"
     id="path9081"
     style="fill:none;stroke:#550000;stroke-width:0.1;stroke-miterlimit:4;stroke-dasharray:none" />
  <path
     d="m 13.743,-7.28207 -0.1265,-0.08857 -0.1399,-0.06524 -0.1492,-0.03997 -0.1538,-0.01345 -0.1537,0.01345 -0.1331,0.03565 0.0974,-0.09738 0.0886,-0.12648 0.0652,-0.13993 0.04,-0.14913 0.0134,-0.1538 -0.0134,-0.15379 -0.2303,-0.8593 0.4378,0.3181 0.744,0.7704 0.5988,0.88786 0.4357,0.97838 0.101,0.4052 z"
     id="path9079"
     style="fill:none;stroke:#550000;stroke-width:0.1;stroke-miterlimit:4;stroke-dasharray:none" />
  <path
     d="m -8.58461,-5.6147 0.01788,-0.01852 0.35794,-0.26006 -0.98338,-2.56181 1.71314,-0.65761 0.98338,2.56181 0.20718,-0.02177 -0.06993,0.06993 -0.33758,0.43208 -0.07174,0.10243 -0.23211,0.43657 z"
     id="path9077"
     style="fill:none;stroke:#550000;stroke-width:0.1;stroke-miterlimit:4;stroke-dasharray:none" />
  <path
     d="m -1.87273,-7.38788 0.05982,-1.14123 0.51881,1.01825 -0.2377,0.30424 z"
     id="path9075"
     style="fill:none;stroke:#550000;stroke-width:0.1;stroke-miterlimit:4;stroke-dasharray:none" />
  <path
     d="m -19.4863,-8.0928 0.0381,0.0587 -0.0099,0.01104 z"
     id="path9073"
     style="fill:none;stroke:#550000;stroke-width:0.1;stroke-miterlimit:4;stroke-dasharray:none" />
  <path
     d="M 7.72691,-6.50818 7.61357,-6.56102 7.49277,-6.5934 7.36819,-6.60429 7.3325,-6.60117 7.34224,-6.71248 7.33134,-6.83705 7.29897,-6.95786 7.24612,-7.0712 7.1122,-7.33403 l 0.09611,0.04279 0.56824,0.38328 0.49306,0.47614 0.37974,0.52269 z"
     id="path9071"
     style="fill:none;stroke:#550000;stroke-width:0.1;stroke-miterlimit:4;stroke-dasharray:none" />
  <path
     d="M 10.5722,-5.28697 9.76707,-5.58 l -0.0698,-0.01871 0.0187,-0.06982 0.14878,-0.84375 0.00242,-0.02776 2.72533,-0.73025 -1.9951,1.9951 z"
     id="path9069"
     style="fill:none;stroke:#550000;stroke-width:0.1;stroke-miterlimit:4;stroke-dasharray:none" />
  <path
     d="m -12.5925,-7.27029 2.72533,0.73025 0.00242,0.02776 0.14878,0.84375 0.0187,0.06981 -0.0698,0.0187 -0.80513,0.29305 -0.0252,0.01178 z"
     id="path9067"
     style="fill:none;stroke:#550000;stroke-width:0.1;stroke-miterlimit:4;stroke-dasharray:none" />
  <path
     d="m -25.0043,1.16705 0.3338,-1.027325 -5.6186,-3.648725 2.44,-3.75725 5.6186,3.64873 0.8027,-0.72278 0.3753,-0.23451 -0.1674,0.78772 -0.0166,0.18988 -0.0467,1.3379 0.0166,0.18988 0.1863,1.325671 0.0463,0.172638 -3.744,2.431331 -0.1561,0.10933 -0.1348,0.13478 -0.084,0.11992 z"
     id="path9065"
     style="fill:none;stroke:#550000;stroke-width:0.1;stroke-miterlimit:4;stroke-dasharray:none" />
  <path
     d="m 12.7035,-3.5947 0.0121,-0.13841 -0.0121,-0.13841 -0.036,-0.13423 -0.0587,-0.12593 -0.0797,-0.11383 -0.0983,-0.09826 -0.1138,-0.07969 -0.1259,-0.05873 -0.1343,-0.03597 -0.8361,-0.13243 1.9529,-1.95299 1.622,1.62194 -2.2248,2.22482 z"
     id="path9063"
     style="fill:none;stroke:#550000;stroke-width:0.1;stroke-miterlimit:4;stroke-dasharray:none" />
  <path
     d="m -12.6467,-2.07724 0.2766,-0.47897 -2.4255,-2.42543 1.622,-1.62194 2.4254,2.42543 0.3718,-0.21467 -0.0776,0.17441 -0.036,0.13423 -0.1658,0.66507 -0.0121,0.13841 -0.0413,0.59129 -1.9931,0.76506 z"
     id="path9061"
     style="fill:none;stroke:#550000;stroke-width:0.1;stroke-miterlimit:4;stroke-dasharray:none" />
  <path
     d="m -18.6225,-5.83298 4.076,-0.64558 -0.9276,0.92758 -0.0885,0.12648 -0.0653,0.13992 -0.0399,0.14914 -0.0135,0.1538 0.0135,0.15379 0.0399,0.14914 0.0653,0.13992 0.0885,0.12648 0.8491,0.84912 -3.549,0.56212 z"
     id="path9059"
     style="fill:none;stroke:#550000;stroke-width:0.1;stroke-miterlimit:4;stroke-dasharray:none" />
  <path
     d="M 5.4752,-4.9299 5.46172,-5.31575 6.47997,-5.83458 5.85756,-4.87616 Z"
     id="path9057"
     style="fill:none;stroke:#550000;stroke-width:0.1;stroke-miterlimit:4;stroke-dasharray:none" />
  <path
     d="M 19.1432,2.83018 19.0988,2.66447 19.0263,2.509 18.9279,2.36847 18.8066,2.24718 18.666,2.14877 18.5106,2.07628 18.3449,2.03188 18.174,2.01692 18.0031,2.03188 14.5263,2.58255 14.5103,2.54817 13.9114,1.66031 13.813,1.51978 13.7925,1.49857 13.812,1.42593 l 0.0066,-0.03758 0.0352,-0.02467 0.7704,-0.743944 0.1213,-0.121292 0.0026,-0.00351 3.3161,1.272936 0.1657,0.0444 0.1709,0.01495 0.1709,-0.01495 0.1657,-0.0444 0.1555,-0.0725 0.1405,-0.0984 0.1213,-0.12129 0.0984,-0.14054 0.0725,-0.15547 1.0275,-2.67674 0.0444,-0.16571 0.015,-0.17088 -0.015,-0.17089 -0.0444,-0.16571 -0.0725,-0.15547 -0.0984,-0.14053 -0.1213,-0.12129 -0.1405,-0.09841 -0.1555,-0.07249 -1.3759,-0.52817 3.8903,-2.52638 1.9519,3.00579 -4.4948,2.918981 0.267,0.821869 0.1863,1.32567 -0.0467,1.3379 -0.2783,1.30947 -0.2821,0.69812 z"
     id="path9055"
     style="fill:none;stroke:#550000;stroke-width:0.1;stroke-miterlimit:4;stroke-dasharray:none" />
  <path
     d="m -24.2312,2.80721 4.4948,-2.918981 -0.267,-0.821869 -0.1863,-1.32567 0.0467,-1.3379 0.2783,-1.30947 0.2821,-0.69812 0.4394,2.77462 0.0444,0.16571 0.0725,0.15547 0.0984,0.14053 0.1213,0.12129 0.1406,0.09841 0.1554,0.07249 0.1657,0.0444 0.1709,0.01496 0.1709,-0.01496 3.4768,-0.55067 0.016,0.03438 0.5989,0.88786 0.0984,0.14053 0.0205,0.02121 -0.0195,0.07264 -0.0066,0.03758 -0.0352,0.02467 -0.7704,0.743944 -0.1213,0.121292 -0.0026,0.00351 -3.3161,-1.272936 -0.1657,-0.0444 -0.1709,-0.01495 -0.1709,0.01495 -0.1657,0.0444 -0.1555,0.0725 -0.1405,0.0984 -0.1213,0.12129 -0.0984,0.14054 -0.0725,0.15547 -1.0275,2.67674 -0.0444,0.16571 -0.015,0.17088 0.015,0.17089 0.0444,0.16571 0.0725,0.15547 0.0984,0.14053 0.1213,0.12129 0.1405,0.09841 0.1555,0.07249 1.3759,0.52817 -3.8903,2.52638 z"
     id="path9053"
     style="fill:none;stroke:#550000;stroke-width:0.1;stroke-miterlimit:4;stroke-dasharray:none" />
  <path
     d="m 8.92107,-2.34995 -0.08474,0.19031 -0.0256,-0.0955 -0.2054,-0.50841 -0.05284,-0.11334 -0.26201,-0.41931 0.86431,-1.33092 0.00709,0.02473 0.04625,0.44002 2.71027,0.42926 -0.2871,1.81243 z"
     id="path9051"
     style="fill:none;stroke:#550000;stroke-width:0.1;stroke-miterlimit:4;stroke-dasharray:none" />
  <path
     d="m -9.91856,-2.59695 0.04782,-0.68375 0.16581,-0.66507 0.26278,-0.59023 -0.05756,1.09839 0.01089,0.12458 0.03238,0.1208 0.05285,0.11334 0.02055,0.02936 -0.10126,0.04721 -0.10243,0.07173 -0.08844,0.08844 -0.07173,0.10243 -0.16066,0.24741 z"
     id="path9049"
     style="fill:none;stroke:#550000;stroke-width:0.1;stroke-miterlimit:4;stroke-dasharray:none" />
  <path
     d="m 14.398,-0.693436 -0.4064,0.559281 -0.0174,0.016815 v -0.311035 l -0.0134,-0.153794 -0.1488,-0.843761 -0.04,-0.14914 -0.293,-0.8051 -0.0118,-0.02526 2.0058,-2.00584 0.0248,0.35352 -0.0723,0.68754 4.0028,1.53655 -1.0275,2.676739 z"
     id="path9047"
     style="fill:none;stroke:#550000;stroke-width:0.1;stroke-miterlimit:4;stroke-dasharray:none" />
  <path
     d="m -8.29289,-2.69452 1.14125,0.05982 0.14464,0.35798 -0.32746,0.20461 z"
     id="path9045"
     style="fill:none;stroke:#550000;stroke-width:0.1;stroke-miterlimit:4;stroke-dasharray:none" />
  <path
     d="m 12.5256,-0.81221 -0.0587,-0.125931 -0.0797,-0.113829 -0.0983,-0.09825 -0.1138,-0.0797 -0.0875,-0.0408 0.0562,-0.03931 0.0982,-0.09825 0.0797,-0.11383 0.0587,-0.12593 0.036,-0.13423 0.0862,-0.54447 0.1441,0.2495 0.293,0.8051 0.1488,0.843765 v 0.85675 l -0.0273,0.154724 z"
     id="path9043"
     style="fill:none;stroke:#550000;stroke-width:0.1;stroke-miterlimit:4;stroke-dasharray:none" />
  <path
     d="M 22.2305,3.61752 21.4278,4.3403 21.0525,4.57481 21.2199,3.78709 21.2365,3.59721 21.2832,2.25931 21.2666,2.06943 21.0803,0.743759 21.034,0.571121 l 3.744,-2.431331 0.1561,-0.10933 0.1348,-0.13478 0.084,-0.11992 -0.1486,1.05719 -0.3338,1.027325 5.6186,3.648725 -2.44,3.75725 z"
     id="path9041"
     style="fill:none;stroke:#550000;stroke-width:0.1;stroke-miterlimit:4;stroke-dasharray:none" />
  <path
     d="m -12.4341,-1.17355 2.2247,-0.85399 -0.337,0.519 -0.0529,0.11334 -0.0324,0.1208 -0.0108,0.12457 0.0108,0.12458 0.0324,0.120801 0.0529,0.113342 0.0717,0.102432 0.0884,0.08844 0.1025,0.071732 0.47913,0.311157 -1.97183,0.756912 z"
     id="path9039"
     style="fill:none;stroke:#550000;stroke-width:0.1;stroke-miterlimit:4;stroke-dasharray:none" />
  <path
     d="m 19.8232,19.9918 -1.3429,0.1411 -0.7623,-0.0533 0.7901,-0.7114 0.1497,-0.1498 1.0302,-1.3186 0.1215,-0.1735 0.7856,-1.4775 0.0895,-0.1919 0.0593,-0.1825 5.823,0.3052 0.211,-0.0185 0.2046,-0.0548 0.1919,-0.0895 0.1735,-0.1214 0.1498,-0.1498 0.1214,-0.1735 0.0895,-0.1919 0.0548,-0.2046 0.0185,-0.211 0.2345,-4.4738 -0.0185,-0.211 L 27.9431,10.0752 27.8536,9.88326 27.7321,9.70978 27.5824,9.56001 27.4089,9.43854 27.2169,9.34903 27.0124,9.29422 26.8014,9.27576 21.1054,8.97723 21.0831,8.87256 21.0283,8.66798 20.4015,7.11646 20.312,6.9245 20.2393,6.80817 20.3102,6.69464 20.3907,6.5219 l 0.0685,-0.16944 0.1569,-0.07318 1.4192,-0.88676 0.1734,-0.12148 0.1426,-0.12836 4.8903,3.17579 0.1919,0.0895 0.2046,0.05481 0.211,0.01847 0.211,-0.01847 0.2045,-0.05481 0.192,-0.0895 0.1735,-0.12148 0.1497,-0.14976 0.1215,-0.17348 2.44,-3.75725 L 31.4308,3.92455 31.4856,3.71997 31.5041,3.509 31.4856,3.29803 31.4308,3.09346 31.3413,2.9015 31.2198,2.72803 31.07,2.57826 30.8966,2.45679 l -2.098,-1.36246 7.1405,-2.74098 2.0068,5.22804 -7.818,3.00105 0.1412,1.34285 -0.146,2.08661 -0.506,2.0296 -0.8508,1.9109 -1.1697,1.7342 -1.453,1.5046 -1.0924,0.7937 3.0011,7.818 -5.2281,2.0069 z"
     id="path9037"
     style="fill:none;stroke:#550000;stroke-width:0.1;stroke-miterlimit:4;stroke-dasharray:none" />
  <path
     d="M 9.46704,-0.524796 9.02744,-0.94931 9.04817,-0.978943 9.37962,-1.47035 11.2185,-1.17911 9.48004,-0.511795 Z"
     id="path9035"
     style="fill:none;stroke:#550000;stroke-width:0.1;stroke-miterlimit:4;stroke-dasharray:none" />
  <path
     d="m 26.1129,-0.649719 0.0331,-0.101792 0.0271,-0.101135 0.7652,0.738907 z"
     id="path9033"
     style="fill:none;stroke:#550000;stroke-width:0.1;stroke-miterlimit:4;stroke-dasharray:none" />
  <path
     d="m -15.4978,4.05775 0.0723,-0.68754 -4.0028,-1.53655 1.0275,-2.676739 4.0028,1.536515 0.4064,-0.559281 0.0174,-0.016815 v 0.311035 l 0.0134,0.153794 0.1488,0.843761 0.04,0.14914 0.293,0.8051 0.0118,0.02526 -2.0058,2.00584 z"
     id="path9031"
     style="fill:none;stroke:#550000;stroke-width:0.1;stroke-miterlimit:4;stroke-dasharray:none" />
  <path
     d="m -12.6467,2.07724 -0.293,-0.8051 -0.1488,-0.843765 v -0.85675 l 0.0273,-0.154724 0.5356,1.395309 0.0587,0.125931 0.0797,0.113829 0.0983,0.09825 0.1138,0.0797 0.0875,0.0408 -0.0562,0.03931 -0.0982,0.09825 -0.0797,0.11383 -0.0587,0.12593 -0.036,0.13423 -0.0862,0.54447 z"
     id="path9029"
     style="fill:none;stroke:#550000;stroke-width:0.1;stroke-miterlimit:4;stroke-dasharray:none" />
  <path
     d="M 10.5464,1.50854 10.5993,1.3952 10.6317,1.2744 10.6425,1.14983 10.6317,1.02525 10.5993,0.904449 10.5464,0.791107 10.4747,0.688675 10.3863,0.600235 10.2838,0.528503 9.80467,0.217346 11.7765,-0.539566 12.4341,1.17355 10.2094,2.02754 Z"
     id="path9027"
     style="fill:none;stroke:#550000;stroke-width:0.1;stroke-miterlimit:4;stroke-dasharray:none" />
  <path
     d="m -26.9383,0.113739 0.8254,0.53598 -0.0331,0.101792 -0.0271,0.101135 z"
     id="path9025"
     style="fill:none;stroke:#550000;stroke-width:0.1;stroke-miterlimit:4;stroke-dasharray:none" />
  <path
     d="m -11.2185,1.17911 1.73846,-0.667315 0.013,0.013001 0.4396,0.424514 -0.02073,0.029633 -0.33145,0.491407 z"
     id="path9023"
     style="fill:none;stroke:#550000;stroke-width:0.1;stroke-miterlimit:4;stroke-dasharray:none" />
  <path
     d="m -9.16188,4.60239 -0.04625,-0.44002 -2.71027,-0.42926 0.2871,-1.81243 2.71023,0.42927 0.08474,-0.19031 0.0256,0.0955 0.2054,0.50841 0.05284,0.11334 0.26201,0.41931 -0.86431,1.33092 z"
     id="path9021"
     style="fill:none;stroke:#550000;stroke-width:0.1;stroke-miterlimit:4;stroke-dasharray:none" />
  <path
     d="M 10.7482,4.17815 10.3764,4.39282 10.454,4.21841 10.49,4.08418 10.6558,3.41911 10.6679,3.2807 l 0.0413,-0.59129 1.9931,-0.76506 -0.0556,0.15289 -0.2766,0.47897 2.4255,2.42543 -1.622,1.62194 z"
     id="path9019"
     style="fill:none;stroke:#550000;stroke-width:0.1;stroke-miterlimit:4;stroke-dasharray:none" />
  <path
     d="M 7.15164,2.6347 7.007,2.27672 7.33446,2.07211 8.29289,2.69452 Z"
     id="path9017"
     style="fill:none;stroke:#550000;stroke-width:0.1;stroke-miterlimit:4;stroke-dasharray:none" />
  <path
     d="M 9.49971,3.43761 9.48882,3.31303 9.45644,3.19223 9.40359,3.07889 9.38304,3.04953 9.4843,3.00232 9.58673,2.93059 9.67517,2.84215 9.7469,2.73972 9.90756,2.49231 9.91856,2.59695 9.87074,3.2807 9.70493,3.94577 9.44215,4.536 Z"
     id="path9015"
     style="fill:none;stroke:#550000;stroke-width:0.1;stroke-miterlimit:4;stroke-dasharray:none" />
  <path
     d="m -14.7956,4.98164 2.2248,-2.22482 -0.1327,0.83788 -0.0121,0.13841 0.0121,0.13841 0.036,0.13423 0.0587,0.12593 0.0797,0.11383 0.0983,0.09826 0.1138,0.07969 0.1259,0.05873 0.1343,0.03597 0.8361,0.13243 -1.9529,1.95299 z"
     id="path9013"
     style="fill:none;stroke:#550000;stroke-width:0.1;stroke-miterlimit:4;stroke-dasharray:none" />
  <path
     d="M 15.4741,5.55098 15.5626,5.4245 15.6279,5.28458 15.6678,5.13544 15.6813,4.98164 15.6678,4.82785 15.6279,4.67871 15.5626,4.53879 15.4741,4.41231 14.625,3.56319 l 3.549,-0.56212 0.4485,2.83191 -4.076,0.64558 z"
     id="path9011"
     style="fill:none;stroke:#550000;stroke-width:0.1;stroke-miterlimit:4;stroke-dasharray:none" />
  <path
     d="m -26.2432,15.5253 3.6487,-5.61856 -0.7227,-0.80275 -0.8868,-1.41911 -0.6269,-1.55153 -0.3479,-1.63684 -0.0432,-1.23632 0.0438,0.09375 1.9519,3.0058 0.1094,0.15614 0.1348,0.13479 0.1561,0.10932 0.1727,0.08056 0.1842,0.04933 0.1898,0.01661 0.1899,-0.01661 0.1841,-0.04933 0.1728,-0.08056 3.8394,-2.49333 0.048,0.04325 0.1562,0.10933 1.1353,0.70939 0.1529,0.07131 0.0085,0.09706 0.043,0.17283 -0.0056,0.00902 -0.0805,0.17275 -0.5015,1.24124 -0.0463,0.17264 -4.458,0.23362 -0.1899,0.01662 -0.1841,0.04933 -0.1728,0.08055 -0.1561,0.10933 -0.1348,0.13478 -0.1093,0.15615 -0.0806,0.17274 -0.0493,0.18411 -0.0166,0.18988 0.1876,3.57911 0.0166,0.1899 0.0493,0.1841 0.0806,0.1727 0.1093,0.1562 0.1348,0.1348 0.1561,0.1093 0.1728,0.0805 0.1841,0.0494 0.1899,0.0166 2.0184,-0.1058 -3.2508,5.0059 z"
     id="path9009"
     style="fill:none;stroke:#550000;stroke-width:0.1;stroke-miterlimit:4;stroke-dasharray:none" />
  <path
     d="M -5.85756,4.87616 -5.4752,4.9299 -5.46172,5.31575 -6.47997,5.83458 Z"
     id="path9007"
     style="fill:none;stroke:#550000;stroke-width:0.1;stroke-miterlimit:4;stroke-dasharray:none" />
  <path
     d="m -10.5974,5.27519 0.0252,0.01178 0.80513,0.29303 0.0698,0.01871 -0.0187,0.06982 -0.14878,0.84375 -0.00242,0.02776 -2.72533,0.73025 z"
     id="path9005"
     style="fill:none;stroke:#550000;stroke-width:0.1;stroke-miterlimit:4;stroke-dasharray:none" />
  <path
     d="M 9.86717,6.54004 9.86475,6.51228 9.71597,5.66853 9.69727,5.59872 l 0.0698,-0.0187 0.80513,-0.29305 0.0252,-0.01178 1.9951,1.9951 z"
     id="path9003"
     style="fill:none;stroke:#550000;stroke-width:0.1;stroke-miterlimit:4;stroke-dasharray:none" />
  <path
     d="m -22.0746,31.0714 1.3101,-8.2711 -1.2335,-0.5492 -1.7342,-1.1697 -1.5046,-1.453 -1.2295,-1.6923 -0.917,-1.88 -0.5765,-2.0107 -0.1412,-1.3428 -8.2711,-1.3101 0.876,-5.53102 8.2712,1.31001 0.5491,-1.2335 0.4274,-0.63353 0.221,1.03985 0.0548,0.20458 0.6269,1.55153 0.0895,0.19195 0.8867,1.41912 0.1215,0.17347 0.1284,0.14254 -3.1758,4.8903 -0.0895,0.192 -0.0548,0.2045 -0.0185,0.211 0.0185,0.211 0.0548,0.2046 0.0895,0.1919 0.1215,0.1735 0.1497,0.1498 0.1735,0.1214 3.7573,2.44 0.1919,0.0895 0.2046,0.0548 0.211,0.0185 0.2109,-0.0185 0.2046,-0.0548 0.192,-0.0895 0.1734,-0.1215 0.1498,-0.1497 0.1215,-0.1735 3.1065,-4.7836 0.1018,0.0331 0.2046,0.0548 1.6571,0.2328 0.2109,0.0185 0.1371,-0.0048 0.0629,0.1182 0.1093,0.1561 0.1125,0.144 -0.0151,0.1726 0.0584,1.6723 0.0185,0.211 0.0399,0.1877 -5.1955,2.6472 -0.1735,0.1215 -0.1497,0.1497 -0.1215,0.1735 -0.0895,0.192 -0.0548,0.2045 -0.0185,0.211 0.0185,0.211 0.0548,0.2045 0.0895,0.192 2.0339,3.9917 0.1214,0.1735 0.1498,0.1497 0.1735,0.1215 0.1919,0.0895 0.2046,0.0548 0.211,0.0185 0.2109,-0.0185 0.2046,-0.0548 0.192,-0.0895 2.2289,-1.1357 -1.1965,7.5544 z"
     id="path9001"
     style="fill:none;stroke:#550000;stroke-width:0.1;stroke-miterlimit:4;stroke-dasharray:none" />
  <path
     d="M 6.49565,6.55089 6.28847,6.57266 6.3584,6.50273 6.69598,6.07065 6.76772,5.96822 6.99983,5.53165 8.58461,5.6147 8.56673,5.63322 8.20879,5.89328 9.19217,8.45509 7.47903,9.1127 Z"
     id="path8999"
     style="fill:none;stroke:#550000;stroke-width:0.1;stroke-miterlimit:4;stroke-dasharray:none" />
  <path
     d="m -13.3855,8.80191 -0.744,-0.7704 -0.5988,-0.88786 -0.4357,-0.97838 -0.101,-0.4052 1.522,1.522 0.1265,0.08857 0.1399,0.06524 0.1492,0.03997 0.1538,0.01345 0.1537,-0.01345 0.1331,-0.03565 -0.0974,0.09738 -0.0886,0.12648 -0.0652,0.13993 -0.04,0.14913 -0.0134,0.1538 0.0134,0.15379 0.2303,0.8593 z"
     id="path8997"
     style="fill:none;stroke:#550000;stroke-width:0.1;stroke-miterlimit:4;stroke-dasharray:none" />
  <path
     d="M -7.20831,7.29124 -7.77655,6.90796 -8.26961,6.43182 -8.64935,5.90913 l 0.92244,0.59905 0.11334,0.05284 0.1208,0.03238 0.12458,0.01089 0.03569,-0.00312 -0.00974,0.11131 0.0109,0.12457 0.03237,0.12081 0.05285,0.11334 0.13392,0.26283 z"
     id="path8995"
     style="fill:none;stroke:#550000;stroke-width:0.1;stroke-miterlimit:4;stroke-dasharray:none" />
  <path
     d="M 13.178,8.26071 13.1914,8.10692 13.178,7.95312 13.138,7.80399 13.0728,7.66406 12.9842,7.53758 12.8868,7.4402 13.0199,7.47585 13.1736,7.4893 13.3274,7.47585 13.4766,7.43588 13.6165,7.37064 13.743,7.28207 14.372,6.65306 14.3154,7.19124 14.0202,8.22072 13.5508,9.1833 l -0.6296,0.8664 -0.3003,0.2901 z"
     id="path8993"
     style="fill:none;stroke:#550000;stroke-width:0.1;stroke-miterlimit:4;stroke-dasharray:none" />
  <path
     d="m 15.0698,9.87738 -0.8219,0.26702 -0.2026,0.0285 0.2593,-0.357 0.0984,-0.14053 0.4695,-0.96259 0.0725,-0.15547 0.2952,-1.02948 0.0444,-0.16571 5e-4,-0.00429 3.5083,-0.55566 0.1657,-0.0444 0.0325,-0.01514 -0.3378,0.54056 -0.5782,0.64221 2.919,4.4948 -3.0058,1.952 z"
     id="path8991"
     style="fill:none;stroke:#550000;stroke-width:0.1;stroke-miterlimit:4;stroke-dasharray:none" />
  <path
     d="m -12.3057,8.10692 3.31321,-0.88777 10e-6,-0.42937 0.11222,0.15445 0.09825,0.09825 0.49305,0.47614 0.11383,0.07969 0.49141,0.33145 -0.33396,2.10864 -0.1046,-0.12469 -0.27654,-0.47896 -3.31318,0.88775 z"
     id="path8989"
     style="fill:none;stroke:#550000;stroke-width:0.1;stroke-miterlimit:4;stroke-dasharray:none" />
  <path
     d="m -15.6343,12.513 -0.2671,-0.8218 -5.3521,0.2805 -0.1876,-3.57911 5.3521,-0.28048 0.1797,-0.84528 0.0767,-0.18971 0.1795,0.40312 0.0725,0.15547 0.5988,0.88786 0.0984,0.14054 0.744,0.7704 0.1213,0.12129 0.0035,0.00255 -1.273,3.31615 -0.0444,0.1657 -0.0031,0.0357 z"
     id="path8987"
     style="fill:none;stroke:#550000;stroke-width:0.1;stroke-miterlimit:4;stroke-dasharray:none" />
  <path
     d="M 1.2941,7.51086 1.5318,7.20662 1.87273,7.38788 1.81291,8.52911 Z"
     id="path8985"
     style="fill:none;stroke:#550000;stroke-width:0.1;stroke-miterlimit:4;stroke-dasharray:none" />
  <path
     d="M 5.18324,7.95406 5.188,7.93628 5.33585,7.34334 5.37187,7.34648 5.96318,7.38782 6.63037,9.12592 Z"
     id="path8983"
     style="fill:none;stroke:#550000;stroke-width:0.1;stroke-miterlimit:4;stroke-dasharray:none" />
  <path
     d="M 8.67285,9.50818 9.46481,9.20418 9.59074,9.14545 9.70457,9.06575 9.80283,8.9675 9.88252,8.85367 9.94125,8.72774 9.97722,8.59351 9.98932,8.45509 9.97722,8.31668 9.94125,8.18245 9.63786,7.39207 12.3057,8.10692 11.712,10.3225 Z"
     id="path8981"
     style="fill:none;stroke:#550000;stroke-width:0.1;stroke-miterlimit:4;stroke-dasharray:none" />
  <path
     d="m -7.23338,10.1815 0.37277,-2.35366 0.28094,0.55137 0.07174,0.10243 0.08844,0.08844 0.10243,0.07174 0.11334,0.05284 0.1208,0.03238 0.12458,0.01089 0.12457,-0.01089 0.1208,-0.03238 0.11335,-0.05284 0.50906,-0.25939 -0.3304,2.08617 z"
     id="path8979"
     style="fill:none;stroke:#550000;stroke-width:0.1;stroke-miterlimit:4;stroke-dasharray:none" />
  <path
     d="M 19.4482,8.0341 19.4581,8.02306 19.4863,8.0928 Z"
     id="path8977"
     style="fill:none;stroke:#550000;stroke-width:0.1;stroke-miterlimit:4;stroke-dasharray:none" />
  <path
     d="M -4.2968,8.46585 -4.27904,8.46109 -3.69159,8.29265 -3.6763,8.32542 -3.41644,8.85817 -4.58809,10.305 Z"
     id="path8975"
     style="fill:none;stroke:#550000;stroke-width:0.1;stroke-miterlimit:4;stroke-dasharray:none" />
  <path
     d="M 3.34879,9.85538 3.96677,9.88776 4.09134,9.87686 4.21214,9.84448 4.32549,9.79164 4.42792,9.71991 4.51636,9.63147 4.58809,9.52904 4.64093,9.4157 4.67331,9.29489 4.6842,9.17032 4.71411,8.59976 6.35555,9.92897 5.20073,11.355 Z"
     id="path8973"
     style="fill:none;stroke:#550000;stroke-width:0.1;stroke-miterlimit:4;stroke-dasharray:none" />
  <path
     d="m -4.1523,11.0334 1.72688,-2.13255 -0.12245,-0.16855 0.09554,0.0256 0.543,0.07633 0.12457,0.01089 0.49413,-0.01725 0.72044,1.41393 -0.024949,-0.0062 -0.404205,-0.1799 -1.726886,2.1325 z"
     id="path8971"
     style="fill:none;stroke:#550000;stroke-width:0.1;stroke-miterlimit:4;stroke-dasharray:none" />
  <path
     d="m -14.3628,13.2111 1.4789,-3.85275 0.3396,1.26705 0.0652,0.14 0.0886,0.1264 0.1091,0.1092 0.1265,0.0886 0.1399,0.0652 0.1492,0.04 0.1538,0.0134 0.1538,-0.0134 1.1599,-0.3108 -1.2877,3.3546 z"
     id="path8969"
     style="fill:none;stroke:#550000;stroke-width:0.1;stroke-miterlimit:4;stroke-dasharray:none" />
  <path
     d="M 1.7728,9.9458 1.87523,9.87407 1.96367,9.78563 2.0354,9.6832 2.05054,9.65073 2.14206,9.71481 2.2554,9.76765 2.37621,9.80003 2.50078,9.81093 2.79535,9.82637 2.71024,9.8882 2.09419,10.1887 1.43532,10.3776 0.792786,10.4451 Z"
     id="path8967"
     style="fill:none;stroke:#550000;stroke-width:0.1;stroke-miterlimit:4;stroke-dasharray:none" />
  <path
     d="M 6.9662,10.4414 7.0459,10.3275 7.10463,10.2016 7.14059,10.0674 7.15269,9.92897 7.14429,9.83282 7.20639,9.86179 7.34062,9.89775 7.47903,9.90985 7.61745,9.89775 7.75168,9.86179 8.26633,9.66423 8.12228,9.91371 7.57156,10.57 6.91524,11.1208 6.17323,11.5491 6.02563,11.6029 Z"
     id="path8965"
     style="fill:none;stroke:#550000;stroke-width:0.1;stroke-miterlimit:4;stroke-dasharray:none" />
  <path
     d="m 15.4937,20.128 1.6271,-3.1934 0.0806,-0.1727 0.0493,-0.1841 0.0166,-0.1899 -0.0166,-0.1899 -0.0493,-0.1841 -0.0806,-0.1727 -0.1093,-0.1562 -0.1348,-0.1348 -0.1561,-0.1093 -4.079,-2.0783 0.0134,-0.0633 0.0166,-0.1898 0.0468,-1.3379 -0.0147,-0.1681 0.0798,-0.0559 0.1281,-0.1237 0.0106,3e-4 0.1899,-0.0166 1.3257,-0.1863 0.1726,-0.0463 2.4314,3.744 0.1093,0.1561 0.1348,0.1348 0.1561,0.1093 0.1728,0.0806 0.1841,0.0493 0.1899,0.0166 0.1898,-0.0166 0.1841,-0.0493 0.1728,-0.0806 3.0058,-1.952 0.1561,-0.1093 0.1348,-0.1348 0.1093,-0.1561 0.0806,-0.1728 0.0493,-0.1841 0.0166,-0.1899 -0.0166,-0.1898 -0.0493,-0.1842 -0.0806,-0.1727 -1.1008,-1.6951 5.9607,0.3124 -0.2345,4.4738 -6.6902,-0.3506 -0.3338,1.0273 -0.7856,1.4775 -1.0302,1.3187 -1.2436,1.1197 -1.0491,0.6555 z"
     id="path8963"
     style="fill:none;stroke:#550000;stroke-width:0.1;stroke-miterlimit:4;stroke-dasharray:none" />
  <path
     d="M 7.79953,12.1223 7.112,12.05 7.08871,12.0433 7.35809,11.8878 7.48457,11.7993 8.1409,11.2485 8.25006,11.1394 8.80078,10.483 l 0.01599,-0.0228 2.74003,0.7342 -0.2938,0.1982 -0.6316,0.2812 0.6708,4.2348 -2.83194,0.4485 z"
     id="path8961"
     style="fill:none;stroke:#550000;stroke-width:0.1;stroke-miterlimit:4;stroke-dasharray:none" />
  <path
     d="M 0.867935,14.7105 1.75571,11.3973 1.38387,11.1826 1.57373,11.1626 1.70796,11.1267 2.36684,10.9378 2.49277,10.879 3.02551,10.6192 4.68463,11.9627 4.52438,11.991 H 3.97131 l -0.88777,3.3132 z"
     id="path8959"
     style="fill:none;stroke:#550000;stroke-width:0.1;stroke-miterlimit:4;stroke-dasharray:none" />
  <path
     d="m -4.52438,11.991 -0.84375,-0.1488 -0.8051,-0.2931 -0.74201,-0.4283 -0.12033,-0.101 1.4762,0.2338 0.13841,0.0121 0.13841,-0.0121 0.13423,-0.036 0.12594,-0.0587 0.07907,-0.0554 0.00596,0.0683 0.03597,0.1342 0.05873,0.126 0.0797,0.1138 0.09825,0.0982 0.4284,0.347 z"
     id="path8957"
     style="fill:none;stroke:#550000;stroke-width:0.1;stroke-miterlimit:4;stroke-dasharray:none" />
  <path
     d="m -9.965,17.0363 -0.8453,-0.1796 -1.2412,-0.5015 -1.1353,-0.7094 -0.9949,-0.8958 -0.4635,-0.5934 2.6226,1.0068 0.1657,0.0444 0.1709,0.0149 0.1709,-0.0149 0.1657,-0.0444 0.1555,-0.0725 0.1405,-0.0984 0.1213,-0.1213 0.0984,-0.1405 0.0725,-0.1555 1.26149,-3.2863 0.0378,0.0033 1.06836,-0.0747 0.17088,-0.015 0.02862,-0.0071 0.05315,0.0531 0.02924,0.0246 0.00375,0.0428 0.25909,1.0392 0.04441,0.1657 0.00175,0.0039 -2.76044,2.2354 -0.1213,0.1213 -0.0984,0.1406 -0.0725,0.1554 -0.0444,0.1657 -0.015,0.1709 0.015,0.1709 0.0444,0.1657 0.0725,0.1555 0.0984,0.1405 1.80436,2.2282 0.1213,0.1213 0.14053,0.0984 0.15547,0.0725 0.16571,0.0444 0.17089,0.015 0.17088,-0.015 0.16571,-0.0444 0.15547,-0.0725 0.14053,-0.0984 1.14537,-0.9275 0.24277,4.6323 -3.5791,0.1876 z"
     id="path8955"
     style="fill:none;stroke:#550000;stroke-width:0.1;stroke-miterlimit:4;stroke-dasharray:none" />
  <path
     d="M -0.73024,11.8152 -0.707413,11.7993 -0.0510864,11.2485 0,11.1974 0.0510864,11.2485 0.707413,11.7993 0.73024,11.8152 0,14.5405 Z"
     id="path8953"
     style="fill:none;stroke:#550000;stroke-width:0.1;stroke-miterlimit:4;stroke-dasharray:none" />
  <path
     d="m -3.89789,12.265 0.65926,0.5339 0.11383,0.0797 0.12593,0.0587 0.13423,0.036 0.13841,0.0121 0.13842,-0.0121 0.13423,-0.036 0.12593,-0.0587 0.11383,-0.0797 0.09825,-0.0983 0.53279,-0.6579 0.714845,2.6678 -2.215605,0.5937 z"
     id="path8951"
     style="fill:none;stroke:#550000;stroke-width:0.1;stroke-miterlimit:4;stroke-dasharray:none" />
  <path
     d="m -9.93054,15.514 3.33209,-2.6983 -0.28117,-0.6315 -0.00586,-0.0235 0.26939,0.1555 0.13992,0.0653 0.8051,0.293 0.14914,0.0399 0.84375,0.1488 0.02776,0.0025 0.73419,2.74 -0.31853,-0.1554 -0.55929,-0.4063 -3.33209,2.6982 z"
     id="path8949"
     style="fill:none;stroke:#550000;stroke-width:0.1;stroke-miterlimit:4;stroke-dasharray:none" />
  <path
     d="m 7.12057,17.9936 0.1213,-0.1213 0.0984,-0.1406 0.0725,-0.1554 0.0444,-0.1657 0.01495,-0.1709 -0.01495,-0.1709 -0.0444,-0.1657 -0.0725,-0.1555 -0.0984,-0.1405 -2.21529,-2.7357 0.02176,-0.0311 0.46948,-0.9625 0.0725,-0.1555 0.00813,-0.0284 0.07262,-0.0194 0.03585,-0.0131 0.03901,0.0182 1.02948,0.2952 0.16571,0.0444 0.00428,5e-4 0.55567,3.5083 0.0444,0.1657 0.0725,0.1555 0.0984,0.1405 0.12129,0.1213 0.14054,0.0984 0.15547,0.0725 0.16571,0.0444 0.17088,0.0149 0.17088,-0.0149 2.83196,-0.4485 0.1657,-0.0444 0.1554,-0.0725 0.1406,-0.0984 0.1213,-0.1213 0.0984,-0.1406 0.0725,-0.1554 0.0444,-0.1657 0.0149,-0.1709 -0.0149,-0.1709 -0.2306,-1.4557 4.133,2.1059 -1.6271,3.1934 -4.77531,-2.4332 -0.57824,0.6422 -1.05492,0.8242 -1.18201,0.6285 -1.27319,0.4137 -0.74564,0.1048 z"
     id="path8947"
     style="fill:none;stroke:#550000;stroke-width:0.1;stroke-miterlimit:4;stroke-dasharray:none" />
  <path
     d="m -16.7516,12.8293 0.0697,-0.0037 0.0046,0.0141 z"
     id="path8945"
     style="fill:none;stroke:#550000;stroke-width:0.1;stroke-miterlimit:4;stroke-dasharray:none" />
  <path
     d="m -31.3393,13.5946 -0.0914,-0.0528 2.0987,0.3324 0.0427,0.4056 0.0181,0.0675 z"
     id="path8943"
     style="fill:none;stroke:#550000;stroke-width:0.1;stroke-miterlimit:4;stroke-dasharray:none" />
  <path
     d="m 1.66266,15.8369 1.26709,0.3395 0.15379,0.0135 0.1538,-0.0135 0.14913,-0.0399 0.13993,-0.0653 0.12648,-0.0885 0.10916,-0.1092 0.08856,-0.1265 0.06525,-0.1399 0.3108,-1.1599 2.26133,2.7925 -2.22824,1.8044 z"
     id="path8941"
     style="fill:none;stroke:#550000;stroke-width:0.1;stroke-miterlimit:4;stroke-dasharray:none" />
  <path
     d="m -2.24271,16.215 -0.40139,-0.1151 2.079098,-0.5571 0.139923,-0.0652 0.12648,-0.0886 0.109161,-0.1092 0.088562,-0.1264 0.0652467,-0.14 L 0,14.8805 l 0.0356293,0.1329 0.0652467,0.14 0.088562,0.1264 0.109161,0.1092 0.12648,0.0886 0.139923,0.0652 0.859288,0.2303 -0.494389,0.22 -1.039139,0.2591 -1.068362,0.0748 z"
     id="path8939"
     style="fill:none;stroke:#550000;stroke-width:0.1;stroke-miterlimit:4;stroke-dasharray:none" />
  <path
     d="m -20.2173,20.4849 5.9692,-3.0415 -0.2246,-1.0566 -0.0154,-0.4423 0.5984,0.5389 0.1562,0.1093 1.1353,0.7095 0.1727,0.0805 1.2412,0.5015 0.1727,0.0463 0.2336,4.458 0.0166,0.1899 0.0493,0.1841 0.0619,0.1326 -0.8412,-0.6572 -0.7228,-0.8027 -5.9692,3.0414 z"
     id="path8937"
     style="fill:none;stroke:#550000;stroke-width:0.1;stroke-miterlimit:4;stroke-dasharray:none" />
  <path
     d="m -2.71773,24.5208 -1.05659,0.2245 -1.67237,0.0584 -1.6571,-0.2329 -1.59149,-0.5171 -1.09224,-0.5807 0.10301,0.009 3.5791,-0.1876 0.18988,-0.0166 0.18412,-0.0493 0.17274,-0.0806 0.15614,-0.1093 0.13478,-0.1348 0.10933,-0.1561 0.08055,-0.1728 0.04934,-0.1841 0.01661,-0.1899 -0.23959,-4.5717 0.06145,-0.0199 0.17274,-0.0806 1.18201,-0.6285 0.13826,-0.0968 0.08829,0.0412 0.17121,0.0491 0.00499,0.0094 0.10933,0.1561 0.82421,1.0549 0.12637,0.1264 -2.02667,3.9776 -0.08055,0.1728 -0.04934,0.1841 -0.01661,0.1898 0.01661,0.1899 0.04934,0.1841 0.08055,0.1728 0.10933,0.1561 0.13478,0.1348 0.15614,0.1093 3.19336,1.6271 0.172745,0.0806 0.184112,0.0493 0.189881,0.0166 0.1898802,-0.0166 0.1841128,-0.0493 0.172745,-0.0806 0.156143,-0.1093 0.134781,-0.1348 0.109329,-0.1561 0.917601,-1.8009 2.70981,5.3183 -3.991715,2.0338 z"
     id="path8935"
     style="fill:none;stroke:#550000;stroke-width:0.1;stroke-miterlimit:4;stroke-dasharray:none" />
  <path
     d="m -3.45233,22.7648 2.43315,-4.7753 -0.64218,-0.5782 -0.12598,-0.1613 0.43886,0.0461 0.17088,0.015 1.068362,-0.0747 0.1708835,-0.015 1.0391345,-0.2591 0.16571,-0.0444 0.00397,-0.0017 2.23538,2.7605 0.1213,0.1212 0.02935,0.0206 -0.63704,-0.0222 -0.84527,-0.1797 -2.433152,4.7754 z"
     id="path8933"
     style="fill:none;stroke:#550000;stroke-width:0.1;stroke-miterlimit:4;stroke-dasharray:none" />
  <path
     d="m 26.6814,18.4651 0.33,-0.2397 0.0493,-0.0494 0.3822,2.1673 v 0.1057 z"
     id="path8931"
     style="fill:none;stroke:#550000;stroke-width:0.1;stroke-miterlimit:4;stroke-dasharray:none" />
  <path
     d="M 7.63177,27.7511 7.98239,21.061 6.95506,20.7271 6.56432,20.5194 7.33022,20.2705 7.50296,20.19 8.68497,19.5615 8.84111,19.4521 9.89603,18.628 10.0224,18.5016 14,20.5283 l 0.1727,0.0805 0.1842,0.0494 0.1457,0.0127 -0.9898,0.3999 -1.0565,0.2246 -0.3507,6.6902 z"
     id="path8929"
     style="fill:none;stroke:#550000;stroke-width:0.1;stroke-miterlimit:4;stroke-dasharray:none" />
  <path
     d="m -12.1195,36.5936 -1.6878,-1e-4 -2.575,-0.454 -2.4569,-0.8943 -2.2644,-1.3073 -2.003,-1.6807 -1.6807,-2.0029 -0.8439,-1.4617 -10.1111,2.7092 -1.8117,-6.7614 10.1111,-2.7093 v -1.6878 l 0.2072,-1.175 0.9647,1.3279 0.1664,0.1664 1.5047,1.453 0.1927,0.135 1.7342,1.1697 0.2132,0.0994 0.2006,0.0893 -1.1448,7.228 -0.0205,0.2344 0.0205,0.2345 0.0609,0.2273 0.0994,0.2132 0.135,0.1928 0.1664,0.1664 0.1928,0.135 0.2132,0.0994 0.2273,0.0609 5.5311,0.8761 0.2344,0.0205 0.2344,-0.0205 0.2273,-0.061 0.2133,-0.0994 0.1928,-0.135 0.1664,-0.1664 0.1349,-0.1927 0.0995,-0.2133 0.0609,-0.2273 1.1522,-7.2746 0.4056,-0.0426 0.2273,-0.0609 2.0107,-0.5766 0.2133,-0.0994 0.0986,-0.0481 0.1525,0.1192 0.1735,0.1214 0.3588,0.1908 0.0405,0.1415 0.0995,0.2132 0.91695,1.8801 0.13498,0.1927 0.12903,0.1776 -4.60546,5.6873 -0.135,0.1927 -0.0994,0.2133 -0.0609,0.2273 -0.0205,0.2344 0.0205,0.2345 0.0609,0.2272 0.0994,0.2133 0.135,0.1928 0.1664,0.1664 4.35204,3.5242 0.19276,0.135 0.21328,0.0994 0.22729,0.0609 0.23442,0.0205 0.23442,-0.0205 0.2273,-0.0609 0.21327,-0.0994 0.19276,-0.135 0.1664,-0.1664 2.10901,-2.6044 2.52788,9.4341 -6.76149,1.8117 z"
     id="path8927"
     style="fill:none;stroke:#550000;stroke-width:0.1;stroke-miterlimit:4;stroke-dasharray:none" />
  <path
     d="M 2.76636,20.8597 2.78087,20.8628 2.73463,20.922 Z"
     id="path8925"
     style="fill:none;stroke:#550000;stroke-width:0.1;stroke-miterlimit:4;stroke-dasharray:none" />
  <path
     d="m -12.6718,33.6712 5.27002,-6.5079 -0.79364,-1.0924 -0.33499,-0.6869 1.01108,0.3286 0.20457,0.0548 1.65711,0.2329 0.21096,0.0184 1.67237,-0.0584 0.21097,-0.0184 0.18763,-0.0399 2.64722,5.1954 0.121475,0.1735 0.149765,0.1498 0.173477,0.1215 0.1919556,0.0895 0.2045744,0.0548 0.210968,0.0184 0.210968,-0.0184 0.204575,-0.0548 0.191955,-0.0895 3.991717,-2.0339 0.17348,-0.1215 0.14976,-0.1498 0.12148,-0.1734 0.0895,-0.192 0.05481,-0.2046 0.01847,-0.2109 -0.01847,-0.211 -0.05481,-0.2046 -0.0895,-0.1919 -2.58948,-5.0822 0.07951,-0.0716 0.14977,-0.1498 1.03024,-1.3186 0.12147,-0.1735 0.06441,-0.1211 0.13378,0.0047 0.18988,-0.0167 0.18095,-0.0254 0.14186,0.0994 1.47752,0.7856 0.19196,0.0895 0.18243,0.0592 -0.30517,5.823 0.01846,0.211 0.05481,0.2046 0.08951,0.1919 0.12147,0.1735 0.14977,0.1498 0.17348,0.1215 0.19195,0.0895 0.20458,0.0548 0.21096,0.0184 4.47383,0.2345 0.211,-0.0185 0.2046,-0.0548 0.1919,-0.0895 0.1735,-0.1214 0.1498,-0.1498 0.1215,-0.1735 0.0895,-0.1919 0.0548,-0.2046 0.0184,-0.211 0.131,-2.4982 5.944,4.8134 -3.5242,4.352 -6.50801,-5.27 -1.09238,0.7936 -1.88003,0.917 -2.0107,0.5765 -2.08029,0.2187 -2.086642,-0.1459 -2.029588,-0.5061 -1.23352,-0.5491 -5.27005,6.5079 z"
     id="path8923"
     style="fill:none;stroke:#550000;stroke-width:0.1;stroke-miterlimit:4;stroke-dasharray:none" />
  <path
     d="M 2.64877,44.8929 5.35803,34.7818 3.89635,33.9379 2.98238,33.171 4.6147,32.9994 4.842,32.9385 6.85269,32.3619 7.06596,32.2625 8.946,31.3456 l 0.19276,-0.135 0.1776,-0.1291 5.68724,4.6055 0.1928,0.135 0.2133,0.0994 0.2273,0.0609 0.2344,0.0205 0.2344,-0.0205 0.2273,-0.0609 0.2133,-0.0994 0.1927,-0.135 0.1664,-0.1664 3.5242,-4.352 0.135,-0.1928 0.0995,-0.2133 0.0609,-0.2273 0.0205,-0.2344 -0.0205,-0.2344 -0.0609,-0.2273 -0.0995,-0.2133 -0.135,-0.1927 -0.1664,-0.1664 -5.7238,-4.6351 0.1659,-0.3727 0.0609,-0.2273 0.506,-2.0295 0.0205,-0.2345 0.0077,-0.1094 0.1794,-0.0725 0.192,-0.0895 0.3445,-0.2153 0.1429,0.0356 0.2344,0.0205 2.0866,0.1459 0.2344,-0.0205 0.2184,-0.023 2.6226,6.8321 0.0994,0.2133 0.135,0.1927 0.1664,0.1664 0.1927,0.135 0.2133,0.0994 0.2273,0.061 0.2344,0.0205 0.2345,-0.0205 0.2272,-0.061 5.2281,-2.0068 0.2133,-0.0995 0.1927,-0.1349 0.1664,-0.1664 0.135,-0.1928 0.0994,-0.2133 0.061,-0.2273 0.0205,-0.2344 -0.0205,-0.2344 -0.061,-0.2273 -1.2009,-3.1287 9.4341,2.5279 -1.8117,6.7614 -10.1111,-2.7092 -0.8439,1.4617 -1.6807,2.0029 -2.003,1.6807 -2.2644,1.3073 -2.4569,0.8943 -2.575,0.454 -1.6878,1e-4 -2.70924,10.111 z"
     id="path8921"
     style="fill:none;stroke:#550000;stroke-width:0.1;stroke-miterlimit:4;stroke-dasharray:none" />
  <path
     d="m 13.6191,22.2896 0.1047,-0.0223 0.1012,-0.0271 -0.2574,1.0322 z"
     id="path8919"
     style="fill:none;stroke:#550000;stroke-width:0.1;stroke-miterlimit:4;stroke-dasharray:none" />
  <path
     d="m -12.4938,22.9393 0.0716,0.0796 0.0741,0.074 -1.0226,0.2932 z"
     id="path8917"
     style="fill:none;stroke:#550000;stroke-width:0.1;stroke-miterlimit:4;stroke-dasharray:none" />
  <path
     d="m -2.65056,32.3393 0.37261,0.1659 0.06747,0.0181 -1.68587,1.4146 -0.0915,0.0528 z"
     id="path8362"
     style="fill:none;stroke:#550000;stroke-width:0.1;stroke-miterlimit:4;stroke-dasharray:none" />
</svg>
