<?xml version="1.0" encoding="UTF-8" standalone="no"?>
<svg
   xmlns:dc="http://purl.org/dc/elements/1.1/"
   xmlns:cc="http://creativecommons.org/ns#"
   xmlns:rdf="http://www.w3.org/1999/02/22-rdf-syntax-ns#"
   xmlns:svg="http://www.w3.org/2000/svg"
   xmlns="http://www.w3.org/2000/svg"
   xmlns:sodipodi="http://sodipodi.sourceforge.net/DTD/sodipodi-0.dtd"
   xmlns:inkscape="http://www.inkscape.org/namespaces/inkscape"
   width="89mm"
   height="89mm"
   viewBox="-43 -45 89 89"
   version="1.1"
   id="svg11570"
   sodipodi:docname="mandalathing_hearts.svg"
   inkscape:version="0.92.3 (5aff6bad34, 2018-11-25, custom)">
  <metadata
     id="metadata11576">
    <rdf:RDF>
      <cc:Work
         rdf:about="">
        <dc:format>image/svg+xml</dc:format>
        <dc:type
           rdf:resource="http://purl.org/dc/dcmitype/StillImage" />
      </cc:Work>
    </rdf:RDF>
  </metadata>
  <defs
     id="defs11574" />
  <sodipodi:namedview
     pagecolor="#ffffff"
     bordercolor="#666666"
     borderopacity="1"
     objecttolerance="10"
     gridtolerance="10"
     guidetolerance="10"
     inkscape:pageopacity="0"
     inkscape:pageshadow="2"
     inkscape:window-width="3840"
     inkscape:window-height="2104"
     id="namedview11572"
     showgrid="false"
     inkscape:zoom="5.1194274"
     inkscape:cx="106.85399"
     inkscape:cy="168.18898"
     inkscape:window-x="3840"
     inkscape:window-y="0"
     inkscape:window-maximized="1"
     inkscape:current-layer="svg11570" />
  <title
     id="title11566">OpenSCAD Model</title>
  <path
     style="fill:none;stroke-width:0.1;stroke-miterlimit:4;stroke-dasharray:none;stroke:#00ffff;stroke-opacity:1"
     d="m -10.8168,43.5594 0.8665,-0.0933 33.3231,-5.2492 0.2525,-0.0677 0.8309,-0.2631 0.237,-0.1105 0.7726,-0.4034 0.2141,-0.15 0.6908,-0.5314 0.1849,-0.1849 0.588,-0.6433 0.15,-0.2142 L 27.761,34.9128 44.4336,5.58687 44.5441,5.3499 44.8564,4.53622 44.9241,4.28368 45.0904,3.42815 45.1132,3.16768 45.1284,2.29623 45.1056,2.03577 44.9692,1.17496 44.9016,0.922409 44.6178,0.0983276 32.0851,-31.2212 l -0.1105,-0.237 -0.4414,-0.7515 -0.15,-0.2142 -0.5652,-0.6634 -0.1849,-0.1849 -0.6718,-0.5552 -0.2142,-0.15 -0.758,-0.4301 -0.237,-0.1105 -0.8212,-0.292 -32.30061,-9.7289 -0.25254,-0.0677 -0.86277,-0.1234 -0.26046,-0.0228 -0.8711,0.0282 -0.26046,0.0228 -0.85297,0.1791 -0.25255,0.0677 -0.8089,0.3244 -0.23697,0.1105 -0.74028,0.4601 -27.74549,19.1877 -0.2142,0.15 -0.6344,0.5976 -0.1849,0.1849 -0.5211,0.6986 -0.1499,0.2142 -0.3918,0.7785 -0.1105,0.237 -0.2507,0.8347 -0.0677,0.2526 -0.1019,0.8655 -0.0228,0.2605 -2.2974,33.6557 0.0716,0.8686 0.0228,0.2605 0.2214,0.8429 0.0677,0.2526 0.3643,0.7917 0.1106,0.237 0.4963,0.7164 0.15,0.2142 0.6132,0.6193 0.1848,0.1849 24.8807,22.7802 0.2142,0.15 0.7237,0.4855 0.237,0.1105 0.7971,0.3525 0.2525,0.0677 0.8462,0.2088 0.2605,0.0228 0.8696,0.0586 z"
     id="path12219" />
  <path
     style="fill:none;stroke-width:0.1;stroke-miterlimit:4;stroke-dasharray:none;stroke:#a02c2c;stroke-opacity:1"
     d="m -10.6937,-25.1156 -0.8283,-0.2714 -0.7685,-0.411 -0.6854,-0.5383 -0.5816,-0.6492 -0.46,-0.7403 -0.3245,-0.8089 -0.1791,-0.8529 -0.0282,-0.8711 0.1234,-0.8628 0.2714,-0.8282 0.4111,-0.7685 0.5383,-0.6855 0.6492,-0.5816 0.7402,-0.46 0.8089,-0.3244 0.853,-0.1791 0.40174,-0.0131 -0.26824,-0.2993 -0.46,-0.7403 -0.3245,-0.8089 -0.179,-0.853 -0.0283,-0.8711 0.1235,-0.8627 0.2714,-0.8283 0.411,-0.7685 0.53834,-0.6854 0.64914,-0.5816 0.74028,-0.46 0.8089,-0.3245 0.85296,-0.1791 0.8711,-0.0282 0.86276,0.1234 0.82823,0.2714 0.76851,0.4111 0.68546,0.5383 0.58157,0.6491 0.46001,0.7403 0.32447,0.8089 3.31702,8.6417 0.05971,0.2844 0.0094,0.2903 -0.04114,0.2876 -0.09047,0.2761 -0.13702,0.2562 -0.17945,0.2284 -0.21637,0.1939 -0.24676,0.1533 -8.53845,3.5745 -0.8089,0.3245 -0.85297,0.179 -0.87109,0.0283 z"
     id="path12217" />
  <path
     style="fill:none;stroke-width:0.1;stroke-miterlimit:4;stroke-dasharray:none;stroke:#d45500;stroke-opacity:1"
     d="m 23.7972,-17.0754 -0.2738,-0.0973 -8.1182,-4.447 -0.7581,-0.4301 -0.6718,-0.5552 -0.5652,-0.6635 -0.4414,-0.7515 -0.3042,-0.8167 -0.1578,-0.8572 -0.0065,-0.8715 0.1449,-0.8595 0.292,-0.8212 0.4301,-0.758 0.5552,-0.6718 0.6635,-0.5652 0.7515,-0.4414 0.8167,-0.3042 0.8572,-0.1578 0.8715,-0.0065 0.8594,0.1449 0.8212,0.292 0.7581,0.4301 0.6718,0.5552 0.2607,0.306 0.0668,-0.3964 0.2919,-0.8212 0.4302,-0.758 0.5552,-0.6719 0.6634,-0.5652 0.7515,-0.4414 0.8168,-0.3042 0.8572,-0.1577 0.8715,-0.0065 0.8594,0.1449 0.8212,0.2919 0.758,0.4301 0.6719,0.5553 0.5652,0.6634 0.4414,0.7515 0.3042,0.8168 0.1577,0.8571 0.0066,0.8715 -0.145,0.8595 -0.2919,0.8212 -0.4301,0.758 -4.6883,7.9814 -0.185,0.2239 -0.2212,0.1884 -0.2505,0.1472 -0.2722,0.1014 -0.2858,0.0526 -0.2905,0.0021 z"
     id="path12215" />
  <path
     style="fill:none;stroke-width:0.1;stroke-miterlimit:4;stroke-dasharray:none;stroke:#d45500;stroke-opacity:1"
     d="m 2.2326,-18.4481 -0.60998,-0.0107 -0.59889,-0.1164 -0.569567,-0.2186 -0.5229344,-0.3142 -0.4604496,-0.4003 -0.383926,-0.4741 -0.295793,-0.5336 -0.19862,-0.5769 -0.09545,-0.6026 0.01065,-0.61 0.11641,-0.5988 0.21865,-0.5696 0.314221,-0.5229 0.400254,-0.4605 0.4741055,-0.3839 0.5335995,-0.2958 0.57686,-0.1986 0.60257,-0.0955 0.61,0.0107 0.59889,0.1164 0.26267,0.1008 -0.0916,-0.266 -0.09545,-0.6026 0.01065,-0.61 0.11641,-0.5989 0.21863,-0.5696 0.31423,-0.5229 0.40025,-0.4604 0.47414,-0.384 0.53358,-0.2958 0.57684,-0.1986 0.60259,-0.0954 0.60998,0.0106 0.59891,0.1164 0.56955,0.2187 0.52295,0.3142 0.46045,0.4002 0.38393,0.4742 0.29579,0.5336 0.19861,0.5768 0.09549,0.6026 -0.0107,0.61 -0.21011,6.4761 -0.03881,0.1996 -0.07287,0.1899 -0.10474,0.1743 -0.13342,0.1535 -0.15805,0.128 -0.17786,0.0986 -0.19228,0.0662 -0.20086,0.0318 z"
     id="path12213" />
  <path
     style="fill:none;stroke-width:0.1;stroke-miterlimit:4;stroke-dasharray:none;stroke:#a02c2c;stroke-opacity:1"
     d="m -16.7938,-11.8463 -0.5749,-0.2044 -0.5306,-0.3011 -0.4703,-0.3886 -0.3956,-0.4644 -0.309,-0.5261 -0.213,-0.5717 -0.1104,-0.6 -0.0045,-0.6101 0.1014,-0.6016 0.2044,-0.5749 0.301,-0.5306 0.3887,-0.4702 0.4644,-0.3957 0.2426,-0.1425 -0.2651,-0.0942 -0.5306,-0.3011 -0.4703,-0.3887 -0.3956,-0.4644 -0.309,-0.526 -0.213,-0.5718 -0.1104,-0.6 -0.0046,-0.6101 0.1015,-0.6015 0.2043,-0.5749 0.3011,-0.5306 0.3887,-0.4703 0.4644,-0.3956 0.5261,-0.309 0.5717,-0.213 0.6,-0.1104 0.6101,-0.0046 0.6016,0.1015 0.5748,0.2044 0.5306,0.301 0.4703,0.3887 4.93221,4.2021 0.13188,0.1548 0.103,0.1753 0.07098,0.1906 0.03681,0.2 0.00152,0.2033 -0.03381,0.2006 -0.06813,0.1916 -0.10036,0.1769 -4.0524,5.0559 -0.3887,0.4702 -0.4644,0.3957 -0.526,0.309 -0.5718,0.2129 -0.6,0.1104 -0.61,0.0046 z"
     id="path12211" />
  <path
     style="fill:none;stroke-width:0.1;stroke-miterlimit:4;stroke-dasharray:none;stroke:#225500;stroke-opacity:1"
     d="m -30.4167,-6.32739 -0.8347,-0.25066 -0.7785,-0.3918 -0.6987,-0.52104 -0.5975,-0.63445 -0.4784,-0.72856 -0.3445,-0.80058 -0.2003,-0.84822 -0.05,-0.8701 0.102,-0.8656 0.2506,-0.8347 0.3918,-0.7786 0.2403,-0.3222 -0.4013,0.0231 -0.8656,-0.1019 -0.8347,-0.2507 -0.7785,-0.3918 -0.6987,-0.521 -0.5976,-0.6345 -0.4783,-0.7286 -0.3445,-0.8005 -0.2003,-0.8483 -0.05,-0.8701 0.1019,-0.8656 0.2507,-0.8347 0.3918,-0.7785 0.521,-0.6987 0.6345,-0.5976 0.7285,-0.4783 0.8006,-0.3445 0.8482,-0.2003 0.8702,-0.05 0.8655,0.1019 0.8348,0.2507 8.8245,2.7947 0.2595,0.1306 0.2329,0.1736 0.1992,0.2115 0.1594,0.2429 0.1149,0.2668 0.0667,0.2828 0.0167,0.29 -0.034,0.2885 -2.529,8.9043 -0.2507,0.83475 -0.3918,0.77852 -0.521,0.69867 -0.6345,0.59756 -0.7286,0.47833 -0.8005,0.34455 -0.8483,0.20028 -0.8701,0.04996 z"
     id="path12209" />
  <path
     style="fill:none;stroke-width:0.1;stroke-miterlimit:4;stroke-dasharray:none;stroke:#d45500;stroke-opacity:1"
     d="m -6.43924,-11.7237 -0.41705,-0.0919 -0.17533,-0.0724 -0.34797,-0.2411 -0.24825,-0.1666 -0.16334,-0.0761 -0.13556,-0.1239 -0.26039,-0.3385 -0.19767,-0.3786 -0.12893,-0.4071 -0.05628,-0.4233 0.0181,-0.4267 0.09192,-0.4171 0.16293,-0.3947 0.22902,-0.3605 0.28813,-0.3152 0.33849,-0.2604 0.37855,-0.1977 0.40714,-0.1289 0.19525,-0.026 -0.14539,-0.1329 -0.2604,-0.3384 -0.19766,-0.3786 -0.12893,-0.4072 -0.05627,-0.4233 0.0181,-0.4267 0.0919,-0.417 0.16295,-0.3948 0.229,-0.3604 0.28813,-0.3153 0.33849,-0.2604 0.37856,-0.1976 0.40715,-0.129 0.42334,-0.0562 0.42668,0.0181 0.41704,0.0919 0.39476,0.1629 0.36047,0.229 0.31522,0.2881 0.2604,0.3385 0.19766,0.3786 2.038883,4.0516 0.042984,0.1357 0.012635,0.0951 -0.126175,0.1783 -0.128586,0.1836 -0.127686,0.2703 -0.090637,0.1944 -3.885648,2.1036 -0.37856,0.1977 -0.40715,0.1289 -0.42332,0.0563 z"
     id="path12207" />
  <path
     style="fill:none;stroke-width:0.1;stroke-miterlimit:4;stroke-dasharray:none;stroke:#225500;stroke-opacity:1"
     d="m 6.45622,-11.2926 -0.39056,-0.1727 -0.35465,-0.238 -0.30795,-0.2959 -0.25188,-0.3448 -0.18817,-0.3834 -0.05084,-0.1757 -0.01599,-0.2372 -0.02457,-0.2979 -0.01954,-0.2233 -0.03724,-0.1418 0.01249,-0.185 0.10228,-0.4147 0.17273,-0.3905 0.23793,-0.3547 0.29588,-0.3079 0.34488,-0.2519 0.38338,-0.1882 0.41021,-0.1187 0.42461,-0.0457 0.4261,0.0287 0.41463,0.1023 0.39058,0.1727 0.35464,0.238 0.14202,0.1364 0.01325,-0.1965 0.10228,-0.4146 0.17273,-0.3906 0.23793,-0.3546 0.29589,-0.308 0.34483,-0.2519 0.3834,-0.1881 0.4103,-0.1188 0.4246,-0.0457 0.426,0.0287 0.4147,0.1023 0.3906,0.1728 0.3546,0.2379 0.3079,0.2959 0.2519,0.3449 0.1882,0.3833 0.1187,0.4103 0.0457,0.4246 -0.0287,0.4261 -0.1023,0.4146 -0.1727,0.3906 -1.8964,4.12015 -0.0793,0.11822 -0.0642,0.0668 -0.2525,0.0145 -0.2233,0.01955 -0.2909,0.06869 -0.1737,0.04652 z"
     id="path12205" />
  <path
     style="fill:none;stroke-width:0.1;stroke-miterlimit:4;stroke-dasharray:none;stroke:#225500;stroke-opacity:1"
     d="m 20.5511,-4.31322 -0.1986,-0.04376 -0.188,-0.07761 -0.1717,-0.10903 -0.1501,-0.13721 -4.0274,-5.07587 -0.372,-0.4835 -0.2824,-0.5409 -0.1841,-0.5816 -0.0804,-0.6048 0.0258,-0.6095 0.1313,-0.5958 0.2328,-0.5639 0.3272,-0.515 0.4116,-0.4503 0.4835,-0.372 0.5408,-0.2824 0.5817,-0.1842 0.6047,-0.0803 0.6096,0.0258 0.5958,0.1313 0.5639,0.2328 0.515,0.3271 0.4503,0.4117 0.372,0.4835 0.2824,0.5408 0.0849,0.2682 0.1509,-0.2374 0.4116,-0.4504 0.4836,-0.372 0.5408,-0.2824 0.5816,-0.1841 0.6047,-0.0804 0.6096,0.0258 0.5958,0.1313 0.5639,0.2328 0.515,0.3272 0.4503,0.4116 0.372,0.4835 0.2824,0.5408 0.1842,0.5817 0.0803,0.6047 -0.0258,0.6096 -0.1313,0.5958 -0.2328,0.56391 -0.3271,0.51494 -0.4116,0.45033 -0.4836,0.37199 -5.1942,3.87351 -0.1803,0.09413 -0.1939,0.06138 -0.2016,0.02681 z"
     id="path12203" />
  <path
     style="fill:none;stroke-width:0.1;stroke-miterlimit:4;stroke-dasharray:none;stroke:#225500;stroke-opacity:1"
     d="m -0.407104,-9.10655 -0.256608,-0.07013 -0.457948,-0.72084 -0.11485,-0.17488 -0.12215,-0.1745 -0.14348,-0.1523 -0.15059,-0.1506 -0.15161,-0.1131 -0.01152,-0.1396 0.02755,-0.2977 0.07881,-0.2884 0.12768,-0.2703 0.17269,-0.244 0.21243,-0.2103 0.245742,-0.1703 0.27156,-0.125 0.289139,-0.0759 0.2979281,-0.0246 0.2976529,0.0276 0.132996,0.0363 -0.057648,-0.1252 -0.075928,-0.2892 -0.024566,-0.2979 0.027542,-0.2977 0.078812,-0.2883 0.127685,-0.2703 0.172684,-0.2441 0.212433,-0.2103 0.245738,-0.1702 0.27157,-0.125 0.28913,-0.0759 0.29793,-0.0246 0.29769,0.0275 0.28836,0.0788 0.27031,0.1277 0.24401,0.1727 0.21033,0.2124 0.17024,0.2458 0.12499,0.2715 0.07593,0.2892 0.02456,0.2979 0.20005,2.9678 -0.16572,0.0773 -0.17774,0.11044 -0.17446,0.12215 -0.15585,0.13963 -0.15059,0.15059 -0.12924,0.16458 -0.13005,0.00423 -0.21215,0.01857 -0.20478,0.043 -0.18476,0.0495 -1.936353,0.18892 -0.297913,0.02458 z"
     id="path12201" />
  <path
     style="fill:none;stroke-width:0.1;stroke-miterlimit:4;stroke-dasharray:none;stroke:#d45500;stroke-opacity:1"
     d="m -8.4075,-5.28914 -0.20836,-0.01927 -0.21214,-0.01857 -0.20856,0.0172 -0.21214,0.01857 -0.2024,0.05314 -0.00808,0.00217 -0.11876,-0.07967 -0.21556,-0.20714 -0.17632,-0.2414 -0.13168,-0.26836 -0.0832,-0.28716 -0.0319,-0.29722 0.0201,-0.29827 0.0716,-0.29025 0.1209,-0.27341 0.16652,-0.24824 0.20712,-0.21556 0.11135,-0.08132 -0.13387,-0.03302 -0.27339,-0.12091 -0.24823,-0.16655 -0.2156,-0.20712 -0.1763,-0.24141 -0.1317,-0.26835 -0.0831,-0.28717 -0.032,-0.29723 0.0201,-0.29826 0.0716,-0.29028 0.1209,-0.2734 0.1665,-0.2482 0.2072,-0.2156 0.24138,-0.1763 0.26836,-0.1317 0.28715,-0.0831 0.29724,-0.032 0.29827,0.0201 0.29023,0.0716 0.27341,0.1209 0.24825,0.1665 2.44638,1.69498 -0.03932,0.14676 -0.02448,0.20782 -0.01857,0.21215 0.01199,0.20892 0.01857,0.21214 0.0481,0.20366 0.00786,0.02931 -0.06069,0.08136 -0.12214,0.17446 -0.09407,0.18692 -0.09002,0.19301 -0.00378,0.01259 -1.05717,1.62797 -0.16655,0.24825 -0.20713,0.21556 -0.21682,0.15835 z"
     id="path12199" />
  <path
     style="fill:none;stroke-width:0.1;stroke-miterlimit:4;stroke-dasharray:none;stroke:#a02c2c;stroke-opacity:1"
     d="m -15.1388,-1.60103 -0.4192,-0.0815 -0.3987,-0.15304 -0.3661,-0.21996 -0.3223,-0.28016 -0.2687,-0.3319 -0.2071,-0.37352 -0.139,-0.40381 -0.0668,-0.42179 0.0074,-0.42701 0.0815,-0.4192 0.1531,-0.39871 0.1014,-0.16881 -0.1945,0.03081 -0.427,-0.00747 -0.4192,-0.08148 -0.3987,-0.15304 -0.3661,-0.21996 -0.3223,-0.28018 -0.2688,-0.33189 -0.207,-0.37351 -0.1391,-0.40379 -0.0668,-0.4218 0.0075,-0.427 0.0815,-0.41922 0.153,-0.3987 0.22,-0.36606 0.2802,-0.32231 0.3318,-0.26877 0.3736,-0.20703 0.4038,-0.13906 0.4217,-0.0668 0.4271,0.0075 0.4192,0.0814 4.4388,0.9321 0.1329,0.05101 0.0833,0.05002 0.0287,0.10709 0.0831,0.28717 0.0947,0.20317 0.1317,0.26835 0.0123,0.01757 -0.7782,4.35081 -0.0815,0.41921 -0.153,0.39869 -0.22,0.36608 -0.2802,0.32231 -0.3319,0.26875 -0.1566,0.08684 -0.3847,0.11551 -0.285,0.09025 -0.1989,0.09275 -0.1739,0.02754 z"
     id="path12197" />
  <path
     style="fill:none;stroke-width:0.1;stroke-miterlimit:4;stroke-dasharray:none;stroke:#225500;stroke-opacity:1"
     d="m -3.86864,-5.98445 -0.12916,-0.06909 -0.18335,-0.08551 -0.13921,-0.04561 -0.19543,-0.05237 -0.14501,-0.02075 -0.1658,-0.0145 -0.03697,-0.1566 -0.01199,-0.20892 0.02446,-0.20783 0.06018,-0.20042 0.09407,-0.18692 0.1251,-0.16774 0.15233,-0.14348 0.17493,-0.11485 0.19221,-0.08272 0.09394,-0.02219 -0.07737,-0.05769 -0.14347,-0.15233 -0.11486,-0.17493 -0.08271,-0.19221 -0.0481,-0.20366 -0.01199,-0.20892 0.02447,-0.20783 0.06018,-0.20042 0.09407,-0.18692 0.12511,-0.16776 0.15233,-0.14346 0.17492,-0.11485 0.19222,-0.08272 0.20366,-0.0481 0.20892,-0.01199 0.20783,0.02448 0.20041,0.06018 0.18693,0.09407 0.16774,0.12509 0.14348,0.15234 0.11485,0.17493 0.94342,1.48501 -0.06227,0.07535 -0.11604,0.16574 -0.07228,0.12741 -0.08551,0.18335 -0.04908,0.13802 -0.04907,0.18312 -0.13846,0.09694 -0.11151,0.09499 -0.14305,0.14305 -0.09331,0.11291 -0.11604,0.16574 -0.07229,0.12741 -0.08552,0.18335 -0.00227,0.00641 -0.49881,0.33827 -0.16058,0.10544 z"
     id="path12195" />
  <path
     style="fill:none;stroke-width:0.1;stroke-miterlimit:4;stroke-dasharray:none;stroke:#a02c2c;stroke-opacity:1"
     d="M 4.38034,-5.62686 4.18491,-5.67923 4.04112,-5.70718 3.83958,-5.72481 3.69312,-5.72736 3.49158,-5.70973 3.34689,-5.68683 3.17535,-5.64087 2.59688,-5.82086 2.41451,-5.88062 2.26212,-6.78442 2.2356,-6.92848 2.18323,-7.12392 2.1321,-7.26118 2.04659,-7.44453 1.9724,-7.57083 1.89369,-7.68324 l 0.10022,-0.1276 0.15586,-0.13963 0.17773,-0.11046 0.19423,-0.07789 0.20479,-0.043 0.20915,-0.00679 0.20715,0.02964 0.19885,0.06516 0.18453,0.09871 0.0759,0.0596 -0.00313,-0.09645 0.02965,-0.20716 0.06515,-0.19886 0.09871,-0.18451 0.12924,-0.16458 0.15586,-0.13964 0.17775,-0.11044 0.19421,-0.07791 0.2048,-0.043 0.20914,-0.00679 0.20715,0.02965 0.19886,0.06515 0.18452,0.09871 0.16458,0.12924 0.13963,0.15587 0.11046,0.17774 0.0779,0.19421 0.043,0.20479 0.00679,0.20915 -0.02965,0.20715 -0.06515,0.19887 -0.5729,1.66364 -0.12661,-0.0022 -0.20154,0.01762 -0.14467,0.02291 -0.19543,0.05237 -0.13851,0.04769 -0.14085,0.06569 z"
     id="path12193" />
  <path
     style="fill:none;stroke-width:0.1;stroke-miterlimit:4;stroke-dasharray:none;stroke:#a02c2c;stroke-opacity:1"
     d="M 10.3295,-3.36568 10.1365,-3.45569 9.93936,-3.52579 9.73364,-3.5809 9.5273,-3.61571 9.31516,-3.63428 9.13661,-3.63293 9.03268,-3.75493 8.8821,-3.90552 8.72079,-4.03882 8.59642,-4.1259 7.23499,-5.52863 7.03001,-5.74625 6.86595,-5.99614 l -0.10461,-0.2431 0.2883,-0.83721 0.06515,-0.19886 0.05512,-0.20572 0.02964,-0.20716 0.01857,-0.21214 -0.00518,-0.15984 0.10064,-0.0948 0.24991,-0.16408 0.2746,-0.11818 0.29094,-0.06869 0.29844,-0.01714 0.29691,0.03496 0.28632,0.08597 0.26703,0.13438 0.23963,0.17873 0.20498,0.21761 0.16406,0.2499 0.0545,0.12664 0.062,-0.12316 0.1787,-0.23964 0.2176,-0.20495 0.2499,-0.16408 0.2746,-0.11818 0.2909,-0.06869 0.2985,-0.01714 0.2969,0.03496 0.2863,0.08597 0.267,0.1344 0.2397,0.17871 0.205,0.21762 0.164,0.24989 0.1182,0.2746 0.0687,0.29094 0.0171,0.29844 -0.0349,0.29691 -0.086,0.28632 -0.1344,0.26702 -0.1787,0.23964 -0.2176,0.20497 -2.1939,2.00519 z"
     id="path12191" />
  <path
     style="fill:none;stroke-width:0.1;stroke-miterlimit:4;stroke-dasharray:none;stroke:#225500;stroke-opacity:1"
     d="M 29.5357,8.93867 29.2505,8.88324 28.9793,8.77913 28.7303,8.6295 28.511,8.4389 28.3282,8.21313 28.1873,7.95905 28.0928,7.68434 l -1.5849,-9.11976 -0.1363,-0.86081 0.0152,-0.87143 0.1663,-0.85555 0.3123,-0.81367 0.4489,-0.74707 0.5718,-0.65776 0.6774,-0.5485 0.7622,-0.42254 0.8241,-0.28376 0.8608,-0.13633 0.8715,0.01521 0.8555,0.16631 0.8137,0.31233 0.747,0.44888 0.6578,0.57179 0.5485,0.67734 0.4226,0.76228 0.2837,0.82407 0.1363,0.86083 -0.0152,0.87142 -0.0767,0.39457 0.3516,-0.19487 0.8241,-0.28376 0.8608,-0.13633 0.8714,0.01521 0.8556,0.16629 0.8136,0.31235 0.7471,0.44888 0.6578,0.571793 0.5485,0.677322 0.4225,0.762268 0.2837,0.824077 0.1364,0.86081 -0.0152,0.87145 -0.1663,0.85553 -0.3124,0.81367 -0.4488,0.74707 -0.5718,0.65776 -0.6774,0.5485 -0.7622,0.42253 -0.8241,0.28377 -0.8609,0.13633 -9.1631,1.3109 z"
     id="path12189" />
  <path
     style="fill:none;stroke-width:0.1;stroke-miterlimit:4;stroke-dasharray:none;stroke:#a02c2c;stroke-opacity:1"
     d="m -0.671173,-5.13025 -0.06453,-0.0797 -0.13591,-0.13591 -0.077377,-0.06726 -0.15744,-0.11024 -0.08789,-0.05281 -0.12921,-0.06024 0.05577,-0.09829 0.09331,-0.11291 0.11151,-0.09499 0.12631,-0.07418 0.137268,-0.05114 0.144058,-0.02652 0.146484,-0.00108 0.066605,0.01123 -0.03421,-0.05826 -0.051132,-0.13727 -0.02652,-0.14405 -0.001084,-0.14649 0.024354,-0.14444 0.049072,-0.13801 0.072281,-0.12741 0.093322,-0.11292 0.111496,-0.09499 0.1263126,-0.07418 0.1372528,-0.05114 0.1440586,-0.0265 0.146484,-0.0011 0.14444,0.02435 0.138031,0.04908 0.127395,0.07228 0.112915,0.09332 0.094986,0.11151 0.074191,0.1263 0.05113,0.13727 0.02652,0.14405 0.15507,0.91974 -0.10073,0.04697 -0.0909,0.04747 -0.157441,0.11024 -0.081268,0.06252 -0.13591,0.13591 -0.069183,0.07568 -0.002655,0.00379 -0.083008,0.02224 -0.097763,0.03096 -0.174195,0.08123 -0.090881,0.04745 -0.1574401,0.11025 -0.0812683,0.06253 -0.1359096,0.13591 -0.069184,0.07568 -0.005859,0.00838 z"
     id="path12187" />
  <path
     style="fill:none;stroke-width:0.1;stroke-miterlimit:4;stroke-dasharray:none;stroke:#a02c2c;stroke-opacity:1"
     d="M 14.7465,2.90886 14.5554,2.69553 14.3969,2.53702 14.1618,2.35239 14.042,2.26852 12.8543,-1.99313 12.7458,-2.40619 12.7107,-2.8318 l 0.0394,-0.42525 0.1126,-0.41196 0.1824,-0.38615 0.1009,-0.14253 0.205,-0.18746 0.2176,-0.20497 0.1586,-0.15851 0.0725,-0.09723 0.1466,-0.10157 0.3879,-0.17856 0.4131,-0.10846 0.4256,-0.0351 0.4253,0.03934 0.4119,0.11258 0.3862,0.18242 0.3486,0.24669 0.3004,0.30349 0.2432,0.35103 0.1786,0.38796 0.1085,0.41305 0.0351,0.42562 -0.0182,0.19612 0.1619,-0.11217 0.388,-0.17854 0.413,-0.10848 0.4256,-0.03509 0.4253,0.03933 0.412,0.11258 0.3861,0.18242 0.3486,0.24669 0.3005,0.3035 0.2432,0.35104 0.1785,0.38794 0.1085,0.41306 0.0351,0.425626 -0.0393,0.425232 -0.1126,0.411942 -0.1824,0.386154 -0.2467,0.348602 -0.3035,0.300464 -0.3511,0.24321 -0.3879,0.17854 -0.4131,0.10847 -4.4037,1.08622 -0.1418,0.0117 z"
     id="path12185" />
  <path
     style="fill:none;stroke-width:0.1;stroke-miterlimit:4;stroke-dasharray:none;stroke:#225500;stroke-opacity:1"
     d="m -22.6278,6.35173 -0.5798,-0.18999 -0.538,-0.28775 -0.4798,-0.37681 -0.4071,-0.45441 -0.322,-0.51819 -0.2271,-0.56622 -0.1254,-0.59706 -0.0197,-0.60979 0.0398,-0.27853 -0.239,0.14851 -0.5662,0.22713 -0.5971,0.12536 -0.6098,0.01976 -0.6039,-0.08641 -0.5797,-0.18997 -0.538,-0.28776 -0.4798,-0.3768 -0.4071,-0.45441 -0.322,-0.51819 -0.2272,-0.566238 -0.1253,-0.5970461 -0.0198,-0.6097719 0.0864,-0.603944 0.19,-0.57974 0.2878,-0.53798 0.3768,-0.47981 0.4544,-0.40709 0.5182,-0.32202 0.5662,-0.22713 0.5971,-0.12535 6.3605,-1.23621 0.2032,-0.0066 0.2013,0.02882 0.1933,0.06331 0.1793,0.09593 0.1599,0.12559 0.1357,0.15148 0.1074,0.17273 0.0757,0.18873 1.4262,6.32059 0.1254,0.59708 0.0197,0.60977 -0.0864,0.60393 -0.19,0.57977 -0.2877,0.53795 -0.3768,0.47983 -0.4544,0.40709 -0.5182,0.32202 -0.5663,0.22712 -0.597,0.12536 -0.6098,0.01977 z"
     id="path12183" />
  <path
     style="fill:none;stroke-width:0.1;stroke-miterlimit:4;stroke-dasharray:none;stroke:#225500;stroke-opacity:1"
     d="m -5.274,-2.58434 -0.03011,-0.14335 -0.00474,-0.14641 0.02075,-0.145 0.04561,-0.13921 0.06909,-0.12915 0.09048,-0.11522 0.05031,-0.04507 -0.06688,-0.00957 -0.13919,-0.04561 -0.12916,-0.06909 -0.11521,-0.09047 -0.09775,-0.1091 -0.07731,-0.12442 -0.05454,-0.13596 -0.03009,-0.14335 -0.00474,-0.14641 0.02073,-0.14501 0.04563,-0.1392 0.06909,-0.12917 0.09047,-0.1152 0.1091,-0.09773 0.12442,-0.07732 0.13594,-0.05454 0.14336,-0.0301 0.1464,-0.00475 0.14501,0.02076 0.13921,0.0456 0.12916,0.0691 0.8158,0.45222 -0.02169,0.0809 -0.01956,0.10065 -0.01675,0.19147 -0.00179,0.10252 0.01676,0.19147 0.01603,0.10129 0.00745,0.0278 -0.02632,0.05646 -0.03674,0.09573 -0.04975,0.18565 -0.01956,0.10065 -0.01675,0.19147 -0.0018,0.10252 0.01675,0.19147 0.01605,0.10129 0.00972,0.03628 -0.64087,-0.00481 -0.10254,7.7e-4 -0.19146,0.01675 -0.10085,0.01857 -0.18565,0.04975 -0.09609,0.03578 -0.15393,0.07177 z"
     id="path12181" />
  <path
     style="fill:none;stroke-width:0.1;stroke-miterlimit:4;stroke-dasharray:none;stroke:#d45500;stroke-opacity:1"
     d="M 2.04904,-2.74632 0.982147,-2.96474 0.882019,-2.98682 0.787231,-3.02594 0.700684,-3.08092 0.625,-3.1501 0.562485,-3.23137 0.51503,-3.32227 0.48407,-3.42001 0.470551,-3.52165 0.474899,-3.6241 0.496964,-3.72424 0.536087,-3.81902 0.59108,-3.90556 0.660263,-3.98125 0.741531,-4.04378 0.832413,-4.09123 0.930176,-4.12219 1.03181,-4.1357 l 0.10245,0.00434 0.10013,0.02208 0.09479,0.0391 0.03991,0.02536 -0.00622,-0.04687 0.00433,-0.10245 0.02208,-0.10013 0.03913,-0.09478 0.05497,-0.08655 0.06919,-0.07568 0.08126,-0.06252 0.0909,-0.04747 0.09775,-0.03094 0.10164,-0.01352 0.10245,0.00434 0.10014,0.02207 0.09477,0.03912 0.08655,0.05499 0.07568,0.06917 0.06253,0.08129 0.04746,0.09088 0.03096,0.09776 0.0135,0.10164 -0.00433,0.10245 -0.02208,0.10013 -0.25028,1.05986 -0.01304,0.0316 -0.01833,0.02885 -0.02305,0.02522 -0.0271,0.02085 -0.03029,0.01582 -0.03259,0.01032 -0.03388,0.0045 z"
     id="path12179" />
  <path
     style="fill:none;stroke-width:0.1;stroke-miterlimit:4;stroke-dasharray:none;stroke:#a02c2c;stroke-opacity:1"
     d="M -2.17567,-2.4545 -2.27634,-2.47406 -2.37206,-2.5108 -2.45995,-2.56361 -2.53734,-2.63089 -2.60187,-2.71057 -2.65158,-2.80026 -2.68495,-2.8972 -2.701,-2.99849 l 0.0018,-0.10252 0.01956,-0.10065 0.03674,-0.09573 0.05281,-0.08789 0.06728,-0.07738 0.07968,-0.06453 0.08968,-0.04971 0.04472,-0.0154 -0.04054,-0.02435 -0.07738,-0.06728 -0.06453,-0.07968 -0.04971,-0.08969 -0.03339,-0.09694 -0.01604,-0.10129 0.00179,-0.10252 0.01956,-0.10065 0.03674,-0.09573 0.05281,-0.08789 0.06728,-0.07738 0.07968,-0.06453 0.08969,-0.04971 0.09696,-0.03339 0.10127,-0.01604 0.10252,0.00179 0.10065,0.01956 0.09573,0.03676 0.08789,0.05281 0.07738,0.06726 0.06453,0.0797 0.672594,0.85649 0.016571,0.02989 0.011123,0.03232 0.005341,0.03375 -5.95e-4,0.03418 -0.006516,0.03355 -0.012253,0.03191 -0.017593,0.0293 -0.02243,0.02578 -0.835972,0.69796 -0.07968,0.06453 -0.08967,0.04969 -0.09696,0.03339 -0.10127,0.01604 z"
     id="path12177" />
  <path
     style="fill:none;stroke-width:0.1;stroke-miterlimit:4;stroke-dasharray:none;stroke:#d45500;stroke-opacity:1"
     d="M 5.0968,-2.59393 5.00302,-2.63541 4.81737,-2.68515 4.71782,-2.7097 4.52635,-2.72646 4.44853,-2.7317 4.35413,-2.79781 4.26898,-2.85493 4.09479,-2.93616 4.00101,-2.97763 3.81535,-3.02737 3.71581,-3.05193 3.52434,-3.06868 3.43802,-3.07449 3.59763,-3.75043 3.61971,-3.85056 3.63646,-4.04202 3.64079,-4.14447 3.62404,-4.33594 3.61053,-4.43758 3.5807,-4.5489 l 0.11242,-0.0178 0.14646,0.00255 0.14379,0.02796 0.13676,0.05249 0.12555,0.07545 0.11055,0.0961 0.0922,0.11383 0.03274,0.05908 0.02422,-0.06306 0.07544,-0.12557 0.0961,-0.11055 0.11384,-0.09217 0.12811,-0.07102 0.13851,-0.0477 0.14467,-0.0229 0.14647,0.00255 0.14378,0.02795 0.13676,0.05249 0.12555,0.07544 0.11055,0.0961 0.0922,0.11385 0.07101,0.12811 0.04769,0.1385 0.02291,0.14469 -0.00256,0.14645 -0.02794,0.1438 -0.0525,0.13675 -0.07544,0.12556 -0.0961,0.11055 -0.62189,0.69413 z"
     id="path12175" />
  <path
     style="fill:none;stroke-width:0.1;stroke-miterlimit:4;stroke-dasharray:none;stroke:#d45500;stroke-opacity:1"
     d="m -8.05869,-0.205841 -0.17082,-0.12088 -0.14723,-0.148697 -0.11917,-0.172012 -0.08749,-0.19011 -0.05315,-0.20239 -0.0172,-0.20854 0.01927,-0.20838 0.05518,-0.20186 0.04121,-0.08726 -0.09333,0.02452 -0.20856,0.0172 -0.20838,-0.01929 -0.20185,-0.05516 -0.18921,-0.08939 -0.17081,-0.12088 -0.14723,-0.14871 -0.11917,-0.17201 -0.0875,-0.1901 -0.05317,-0.20239 -0.0172,-0.20856 0.0193,-0.20835 0.05516,-0.20186 0.08939,-0.18923 0.12088,-0.1708 0.1487,-0.14724 0.17202,-0.11917 0.1901,-0.08749 0.20239,-0.05315 0.20856,-0.01719 0.20836,0.01927 1.74986,0.18837 0.0141,0.06715 0.05237,0.19544 0.05453,0.13595 0.08551,0.18335 0.07732,0.12442 0.11604,0.16574 0.01242,0.01387 -0.01202,0.13756 0.00474,0.14641 0.01763,0.20154 0.0301,0.14335 0.05237,0.19544 0.05454,0.13595 0.08551,0.18335 0.01844,0.02968 -0.0466,0.60187 -0.01779,0.19224 -0.79326,0.327397 -0.13455,0.057907 -0.18335,0.08551 -0.12245,0.080399 -0.16574,0.116043 -0.10663,0.100433 -0.13857,0.138565 z"
     id="path12173" />
  <path
     style="fill:none;stroke-width:0.1;stroke-miterlimit:4;stroke-dasharray:none;stroke:#d45500;stroke-opacity:1"
     d="M 7.87476,0.524094 7.78543,0.40799 7.64238,0.264938 7.53426,0.166107 7.36852,0.0500641 7.24489,-0.0284882 7.12993,-0.0821075 7.1208,-0.110931 7.03529,-0.294281 6.96748,-0.424118 6.85144,-0.589859 6.76213,-0.705963 6.61908,-0.849014 6.51096,-0.94783 6.39102,-1.0318 6.17006,-1.59892 6.10284,-1.7794 l 0.63071,-0.70395 0.0961,-0.11055 0.11604,-0.16574 0.07544,-0.12557 0.08551,-0.18335 0.05251,-0.13675 0.02801,-0.10455 0.16279,-0.00121 0.20634,0.03479 0.19717,0.0701 0.18201,0.10327 0.1613,0.13331 0.13571,0.1593 0.10598,0.18043 0.07304,0.19609 0.03787,0.20581 7.3e-4,0.09652 0.07346,-0.0626 0.18043,-0.10598 0.19611,-0.07305 0.20581,-0.03787 0.20925,-0.00157 0.20634,0.0348 0.19717,0.0701 0.18201,0.10327 0.16132,0.13331 0.1357,0.1593 0.106,0.18043 0.073,0.19609 0.0379,0.20581 0.0016,0.20926 -0.0348,0.206347 -0.0701,0.197174 -0.1033,0.182007 -0.1333,0.1613 -0.15931,0.135697 -0.18044,0.105987 -0.19609,0.0730442 -1.65913,0.5897978 z"
     id="path12171" />
  <path
     style="fill:none;stroke-width:0.1;stroke-miterlimit:4;stroke-dasharray:none;stroke:#000000;stroke-opacity:1"
     d="M 3.56235,-0.0179596 3.52916,-0.0261383 3.49791,-0.0399628 3.46953,-0.0590057 3.44487,-0.0826874 3.42471,-0.110291 2.9303,-1.0806 2.88512,-1.17265 2.85661,-1.27115 2.84564,-1.37309 l 0.0069,-0.10231 0.02455,-0.09955 0.04147,-0.09378 0.05713,-0.08515 0.07105,-0.07394 0.08281,-0.06047 0.09204,-0.04518 0.09849,-0.02851 0.10195,-0.01097 0.10231,0.0069 0.09955,0.02455 0.09378,0.04148 0.08514,0.05712 0.07394,0.07105 0.06048,0.08281 0.04518,0.09204 0.0285,0.0985 0.00507,0.04701 0.03276,-0.03409 0.08281,-0.06049 0.09205,-0.04518 0.0985,-0.0285 0.10194,-0.01097 0.10231,0.00689 0.09955,0.02456 0.09378,0.04147 0.08514,0.05713 0.07395,0.07104 0.06047,0.08281 0.04518,0.09204 0.0285,0.0985 0.01098,0.10194 -0.0069,0.102314 -0.02455,0.099548 -0.04148,0.09378 -0.05713,0.08516 -0.07104,0.073929 -0.08281,0.060485 -0.09204,0.045166 -0.98468,0.4651341 -0.03284,0.0095063 -0.03398,0.0036621 z"
     id="path12169" />
  <path
     style="fill:none;stroke-width:0.1;stroke-miterlimit:4;stroke-dasharray:none;stroke:#225500;stroke-opacity:1"
     d="M -3.84256,0.327148 -3.93918,0.292801 -4.02835,0.242203 -4.10739,0.17688 -4.17389,0.0988159 -4.22583,0.0104065 -4.26161,-0.0856628 -4.28018,-0.186508 l -7.6e-4,-0.102539 0.01705,-0.101105 0.01584,-0.044556 -0.04432,0.01651 -0.10083,0.018555 -0.10254,7.63e-4 -0.10112,-0.017044 -0.09661,-0.034348 -0.08918,-0.050613 -0.07904,-0.065323 -0.0665,-0.078049 -0.05193,-0.088409 -0.03579,-0.096085 -0.01856,-0.100845 -7.6e-4,-0.102544 0.01704,-0.1011 0.03435,-0.09662 0.05061,-0.08919 0.06531,-0.07904 0.07806,-0.06648 0.08841,-0.05194 0.09609,-0.03578 0.10084,-0.01857 0.10254,-7.6e-4 1.08899,0.00816 0.03369,0.00569 0.03221,0.01144 0.02973,0.01688 0.02635,0.02177 0.02216,0.02602 0.01731,0.02947 0.01194,0.03202 0.00618,0.03362 0.02446,1.088744 7.6e-4,0.102524 -0.01704,0.10112 -0.03435,0.09658815 -0.0506,0.08918765 -0.06532,0.0790402 -0.07807,0.066498 -0.08841,0.051926 -0.09608,0.035797 -0.10085,0.018555 -0.10254,7.63e-4 z"
     id="path12167" />
  <path
     style="fill:none;stroke-width:0.1;stroke-miterlimit:4;stroke-dasharray:none;stroke:#a02c2c;stroke-opacity:1"
     d="m -10.7226,4.20085 -0.292,-0.06434 -0.2763,-0.11405 -0.2523,-0.16031 -0.2207,-0.2017 -0.1823,-0.23694 -0.1383,-0.26499 -0.0903,-0.28498 -0.0394,-0.29635 0.0059,-0.13775 -0.1093,0.08407 -0.265,0.13837 -0.285,0.09024 -0.2964,0.0394 -0.2986,-0.01268 -0.292,-0.06433 -0.2763,-0.11406 -0.2523,-0.16031 -0.2207,-0.20169 -0.1823,-0.23694 -0.1383,-0.265 -0.0903,-0.28499 -0.0394,-0.29634 0.0127,-0.298674 0.0643,-0.291931 0.1141,-0.276336 0.1603,-0.2523198 0.2017,-0.2206422 0.2369,-0.182281 0.265,-0.138367 0.285,-0.090256 2.8512,-0.856113 0.0696,0.09938 0.1473,0.14872 0.1505,0.15059 0.1709,0.120875 0.1744,0.122147 0.18922,0.089386 0.05638,0.026291 0.01811,0.068954 0.05511,0.205719 0.0875,0.19011 0.09001,0.1930079 0.02061,0.02975468 0.61608,1.84876542 0.09025,0.28501 0.03939,0.29634 -0.01146,0.27029 -0.7056,0.71263 -0.14499,0.15088 -0.12215,0.17446 -0.11657,0.17378 -0.09001,0.19301 -0.01467,0.03317 -0.13451,0.0426 -0.2964,0.03939 z"
     id="path12165" />
  <path
     style="fill:none;stroke-width:0.1;stroke-miterlimit:4;stroke-dasharray:none;stroke:#000000;stroke-opacity:1"
     d="M 6.16881,2.55585 5.23999,2.5025 5.22044,2.42807 5.1707,2.24242 5.12782,2.14928 5.0466,1.97508 4.9882,1.89079 4.91087,1.78036 4.90605,1.72194 4.8893,1.53047 4.86327,1.43129 4.81352,1.24564 4.77065,1.1525 4.68942,0.978302 4.63103,0.894012 4.54439,0.770294 5.19926,0.460953 5.29131,0.415787 5.44875,0.305542 5.53156,0.245056 5.66747,0.109146 5.73851,0.0352173 5.78891,-0.0367584 5.87302,0.0401001 5.96233,0.156204 6.03014,0.286041 6.07436,0.42569 6.09366,0.570892 6.08745,0.717255 6.05592,0.860306 6.03015,0.922745 6.09456,0.902344 6.23976,0.883057 6.38611,0.889252 6.52916,0.920792 6.66457,0.976669 6.78819,1.05522 6.89632,1.15405 6.98564,1.27016 7.05344,1.39999 7.09767,1.53964 7.11696,1.68484 7.11076,1.83121 7.07922,1.97426 7.02335,2.10965 6.94479,2.23329 6.84596,2.34142 6.72986,2.43074 6.60002,2.49854 6.46037,2.54276 6.31516,2.56206 Z"
     id="path12163" />
  <path
     style="fill:none;stroke-width:0.1;stroke-miterlimit:4;stroke-dasharray:none;stroke:#d45500;stroke-opacity:1"
     d="M -5.30881,2.51207 -5.43965,2.44621 -5.55708,2.35864 -5.65752,2.25201 -5.7379,2.12956 -5.79581,1.99501 -5.82947,1.85245 -5.83334,1.785 -5.88252,1.83133 -6.00497,1.91171 -6.13953,1.96962 -6.28209,2.00328 -6.42833,2.01169 -6.57381,1.99455 -6.7141,1.95242 -6.84494,1.88658 -6.96237,1.79901 -7.06281,1.69238 -7.14319,1.56993 -7.2011,1.43538 -7.23477,1.29282 -7.24316,1.14658 -7.22603,1.0011 -7.1839,0.860794 -7.11806,0.72995 -7.03049,0.612534 -6.92386,0.5121 l 0.12245,-0.080398 0.13456,-0.057907 0.86158,-0.3555913 0.03241,0.0462952 0.0665,0.0780491 0.13591,0.13591 0.07904,0.065323 0.15744,0.110244 0.08919,0.050614 0.04782,0.022293 0.01622,0.03479 0.05194,0.088409 0.11025,0.15744 0.06649,0.078064 0.13591,0.135915 0.07904,0.06532 0.15744,0.11024 0.08918,0.0506 0.05926,0.02763 -0.38678,0.4776 -0.06332,0.08065 -0.11025,0.15744 -0.04837,0.09042 -0.08122,0.1742 -0.03192,0.09744 -0.04975,0.18565 -7e-4,0.00493 z"
     id="path12161" />
  <path
     style="fill:none;stroke-width:0.1;stroke-miterlimit:4;stroke-dasharray:none;stroke:#d45500;stroke-opacity:1"
     d="M 12.0075,6.44362 9.07178,5.97858 9.06685,5.94745 9.01173,5.74173 8.9436,5.54387 8.85359,5.35086 8.75215,5.16783 8.63,4.99338 8.53676,4.87823 8.57317,4.69093 8.59174,4.47879 8.5954,4.26956 8.5851,4.15196 8.8334,2.2095 8.87573,1.91357 8.96883,1.62949 9.09355,1.39633 9.95673,1.08948 10.1528,1.01643 l 0.193,-0.090008 0.1805,-0.105987 0.1744,-0.122147 0.099,-0.084305 0.1361,0.01947 0.2841,0.093079 0.2636,0.141006 0.2351,0.184632 0.1994,0.22266 0.1578,0.25392 0.1113,0.27745 0.0615,0.29257 0.0096,0.29878 -0.0423,0.29593 -0.0931,0.28409 -0.065,0.12157 0.1349,-0.02834 0.2988,-0.00969 0.2959,0.04234 0.2841,0.0931 0.2636,0.141 0.2351,0.18464 0.1995,0.22265 0.1578,0.25391 0.1113,0.27746 0.0614,0.29256 0.0097,0.2988 -0.0424,0.29591 -0.093,0.28409 -0.141,0.26361 -0.1847,0.23511 -0.2226,0.19948 -0.254,0.15777 -0.2774,0.1113 -0.2926,0.06143 -0.2988,0.00968 z"
     id="path12159" />
  <path
     style="fill:none;stroke-width:0.1;stroke-miterlimit:4;stroke-dasharray:none;stroke:#225500;stroke-opacity:1"
     d="M 3.47577,3.39676 3.37685,3.36974 3.28413,3.32593 2.30655,2.84608 2.27864,2.82634 2.25459,2.80205 2.23512,2.77396 2.22084,2.7429 2.21216,2.70985 2.20935,2.67578 2.21249,2.64175 2.22151,2.60878 2.67186,1.61725 2.71565,1.52454 2.77489,1.44084 2.84775,1.3687 2.93204,1.3103 3.02519,1.26743 3.12436,1.24138 3.22655,1.23296 3.32866,1.2424 3.42757,1.26944 3.52028,1.31323 3.60397,1.37247 3.67612,1.44533 3.73451,1.52962 3.77739,1.62276 3.80342,1.72194 3.81186,1.82413 3.80241,1.92622 3.77538,2.02515 3.73158,2.11786 3.67235,2.20155 3.63875,2.23483 3.68584,2.23918 3.78474,2.26622 3.87746,2.31001 3.96115,2.36925 4.03329,2.44211 4.09169,2.5264 4.13457,2.61954 4.16061,2.71872 4.16904,2.82091 4.15959,2.923 4.13255,3.02191 4.08876,3.11464 4.02953,3.19833 3.95667,3.27048 3.87238,3.32887 3.77924,3.37173 3.68005,3.39778 3.57787,3.4062 Z"
     id="path12157" />
  <path
     style="fill:none;stroke-width:0.1;stroke-miterlimit:4;stroke-dasharray:none;stroke:#d45500;stroke-opacity:1"
     d="M -3.67789,3.4368 -3.77531,3.40486 -3.86574,3.35651 -3.94638,3.29317 -4.0148,3.2168 -4.06892,3.12971 -4.10709,3.03455 -4.12816,2.93419 -4.13148,2.83171 -4.11696,2.73021 -4.08504,2.63277 -4.03667,2.54234 -3.97334,2.4617 -3.28798,1.6154 -3.26253,1.59259 -3.23349,1.57455 -3.20177,1.56183 -3.16832,1.55481 -3.13416,1.5537 l 0.03383,0.00483 0.03249,0.01065 0.03014,0.01612 0.86645,0.6597 0.08064,0.06332 0.06842,0.07637 0.05413,0.0871 0.03817,0.09517 0.02108,0.10035 0.00331,0.10248 -0.01453,0.1015 -0.03192,0.09744 -0.04837,0.09041 -0.06332,0.08065 -0.07637,0.06843 -0.0871,0.05411 -0.09517,0.03818 -0.10034,0.02107 -0.1025,0.00333 L -2.62662,3.31038 -2.72406,3.27844 -2.81447,3.23009 -2.89511,3.16675 -2.96353,3.09038 -2.98849,3.05022 -3.00322,3.09515 -3.05157,3.18556 -3.11491,3.2662 -3.19128,3.33463 -3.27838,3.38875 -3.37354,3.42693 -3.47389,3.448 -3.57637,3.45132 Z"
     id="path12155" />
  <path
     style="fill:none;stroke-width:0.1;stroke-miterlimit:4;stroke-dasharray:none;stroke:#a02c2c;stroke-opacity:1"
     d="M -7.96378,6.2818 -8.16695,6.23167 -8.35832,6.14703 -8.5321,6.03046 -8.68298,5.88547 -8.80641,5.71648 -8.89861,5.52863 -8.9568,5.32762 -8.97919,5.11955 -8.96512,4.91077 -8.91499,4.7076 l 0.08464,-0.19138 0.11657,-0.17378 0.14499,-0.15088 1.23928,-1.25165 0.03509,0.01767 0.18335,0.08551 0.14029,0.04213 0.19544,0.05237 0.14547,0.01713 0.20154,0.01763 0.04707,-0.0027 0.07811,0.07811 0.11744,0.08757 0.16574,0.11604 0.13084,0.06586 0.18335,0.08551 0.1403,0.04213 0.19544,0.05237 0.06164,0.00724 0.4431,0.4132 0.14052,0.13501 -0.23034,0.79576 -0.03862,0.14129 -0.05237,0.19544 -0.01349,0.14586 -0.01762,0.20153 0.01202,0.14599 0.01762,0.20153 0.00569,0.02166 L -5.18544,6.1722 -5.38646,6.23038 -5.59451,6.25278 -5.8033,6.23869 -6.00647,6.18858 -6.19786,6.10394 -6.37163,5.98735 -6.52252,5.84236 -6.64594,5.67337 -6.68846,5.58675 -6.72749,5.675 l -0.1166,0.17379 -0.14498,0.15089 -0.169,0.12341 -0.18785,0.09221 -0.201,0.05818 -0.20807,0.02239 z"
     id="path12153" />
  <path
     style="fill:none;stroke-width:0.1;stroke-miterlimit:4;stroke-dasharray:none;stroke:#a02c2c;stroke-opacity:1"
     d="M -0.0900116,5.13255 -0.188217,5.10306 -0.279816,5.05696 -0.362015,4.99567 -0.432312,4.92102 -0.488586,4.83531 -0.529129,4.74112 -0.552689,4.64133 -0.787048,3.57784 -0.789001,3.54372 -0.785004,3.50977 -0.775177,3.47704 -0.759811,3.4465 -0.73938,3.4191 -0.714493,3.39566 -0.685928,3.37691 -0.654526,3.3634 0.401459,3.09729 0.501251,3.07372 0.603622,3.06784 0.705444,3.07983 0.80365,3.10933 0.895248,3.15541 0.977448,3.21672 1.04774,3.29135 1.10402,3.37708 1.14456,3.47127 1.16812,3.57104 1.174,3.67342 1.162,3.77525 1.13252,3.87346 1.08643,3.96506 1.02513,4.04726 0.950485,4.11755 0.864761,4.17383 0.770584,4.21437 0.670792,4.23793 0.56842,4.2438 0.521454,4.23828 0.547409,4.2778 0.587936,4.37199 0.611511,4.47179 0.617386,4.57416 0.605392,4.67599 0.575897,4.7742 0.529816,4.86578 0.468506,4.94798 0.393875,5.0183 0.308151,5.07457 0.213974,5.1151 0.114182,5.13866 0.0118103,5.14455 Z"
     id="path12151" />
  <path
     style="fill:none;stroke-width:0.1;stroke-miterlimit:4;stroke-dasharray:none;stroke:#a02c2c;stroke-opacity:1"
     d="m 23.6664,15.6709 -0.5924,-0.1461 -6.267,-1.6459 -0.186,-0.0823 -0.1688,-0.1133 -0.1467,-0.1409 -0.1199,-0.1642 -0.0896,-0.1826 -0.0566,-0.1953 -0.0217,-0.2022 0.0137,-0.2029 1.4574,-6.31348 0.1461,-0.59234 0.2468,-0.55796 0.3399,-0.50663 0.4227,-0.43993 0.4926,-0.35982 0.5477,-0.26881 0.5861,-0.16962 0.6065,-0.06529 0.6088,0.04105 0.5923,0.14611 0.558,0.24675 0.5066,0.33989 0.4399,0.42272 0.3598,0.49267 0.2689,0.54767 0.1696,0.58605 0.0653,0.60658 -0.0411,0.6087 -0.1461,0.59235 -0.2468,0.55795 -0.1567,0.23366 0.2797,-0.03012 0.6087,0.04104 0.5924,0.14612 0.5579,0.24677 0.5067,0.33989 0.4399,0.4227 0.3598,0.49273 0.2689,0.5476 0.1696,0.5861 0.0653,0.6066 -0.0411,0.6087 -0.1461,0.5923 -0.2468,0.558 -0.3399,0.5066 -0.4227,0.4399 -0.4926,0.3598 -0.5477,0.2689 -0.5861,0.1696 -0.6065,0.0653 z"
     id="path12149" />
  <path
     style="fill:none;stroke-width:0.1;stroke-miterlimit:4;stroke-dasharray:none;stroke:#000000;stroke-opacity:1"
     d="M 6.57335,7.64394 6.36794,7.604 6.17256,7.52901 5.99319,7.42123 4.4959,6.49075 4.50546,6.45506 4.54054,6.31284 4.55817,6.1113 4.56802,5.96515 4.5504,5.76361 4.53473,5.61797 4.50887,5.52147 4.54124,5.47322 4.62675,5.28987 4.68599,5.1559 4.73836,4.96046 4.77345,4.81825 4.79108,4.61671 4.80092,4.47057 4.79077,4.35454 5.09706,3.82704 5.19701,3.66069 6.16881,3.71651 6.31516,3.72272 6.51669,3.70509 6.66191,3.68579 6.85735,3.63342 6.99699,3.5892 7.06898,3.55562 7.17131,3.68199 7.27277,3.86502 7.3409,4.06288 7.37364,4.26956 7.36998,4.47879 7.33005,4.6842 7.25507,4.87956 7.14728,5.05894 7.00999,5.21687 6.935,5.2776 7.02972,5.29602 7.2251,5.37102 7.40446,5.47879 7.56239,5.61607 7.69409,5.7787 7.79553,5.96173 7.86366,6.15959 7.89641,6.36627 7.89275,6.5755 7.85283,6.78091 7.77783,6.97627 7.67006,7.15564 7.53276,7.31358 7.37015,7.44527 7.18712,7.54672 6.98926,7.61485 6.78258,7.64758 Z"
     id="path12147" />
  <path
     style="fill:none;stroke-width:0.1;stroke-miterlimit:4;stroke-dasharray:none;stroke:#225500;stroke-opacity:1"
     d="m -13.0523,11.4895 -0.4024,-0.143 -0.3715,-0.2108 -0.3291,-0.272 -0.277,-0.3251 -0.2163,-0.3683 -0.0687,-0.18452 -0.0972,0.17132 -0.2721,0.3292 -0.3251,0.2769 -0.3682,0.2163 -0.4002,0.1491 -0.42,0.0773 -0.4271,0.0032 -0.4211,-0.071 -0.4024,-0.1431 -0.3714,-0.2108 -0.3292,-0.272 -0.277,-0.3251 -0.2163,-0.36825 -0.149,-0.40021 -0.0773,-0.42 -0.0032,-0.42705 0.071,-0.42111 0.1431,-0.4024 0.2107,-0.37143 0.2721,-0.3292 0.325,-0.27694 3.4963,-2.88933 0.1228,-0.0721 0.0904,-0.03367 0.072,0.03353 0.2763,0.11406 0.2165,0.05802 0.292,0.06433 0.0512,0.00449 2.9182,3.32319 0.2769,0.32509 0.2163,0.36823 0.1491,0.4002 0.07727,0.42002 0.0032,0.42704 -0.02867,0.16993 -0.1401,0.34922 -0.1071,0.27914 -0.058,0.2165 -0.0059,0.0302 -0.0851,0.15 -0.272,0.3292 -0.3251,0.2769 -0.3682,0.2163 -0.4002,0.1491 -0.4201,0.0773 -0.427,0.0031 z"
     id="path12145" />
  <path
     style="fill:none;stroke-width:0.1;stroke-miterlimit:4;stroke-dasharray:none;stroke:#225500;stroke-opacity:1"
     d="M 2.43779,6.81224 2.29556,6.77716 2.16161,6.71791 2.03996,6.63631 1.93434,6.53481 1.84795,6.41652 1.31149,5.65842 1.31317,5.65674 1.37448,5.57454 1.48473,5.4171 1.53081,5.32552 1.61203,5.15132 1.64153,5.05312 1.66812,4.95386 1.73389,4.89192 1.8698,4.75601 1.93109,4.67381 2.04134,4.51637 2.08743,4.42477 2.16866,4.25058 2.19814,4.15237 2.22986,4.03397 2.73282,4.28084 2.82553,4.32465 2.99973,4.40587 3.09865,4.43289 3.2843,4.48264 3.3864,4.49208 3.57787,4.50883 3.63802,4.50388 3.63042,4.61671 3.59532,4.75893 3.53609,4.8929 3.45447,5.01454 3.35298,5.12016 3.23468,5.20656 3.1032,5.2711 3.0383,5.28989 3.09439,5.32751 3.20003,5.42902 3.28642,5.5473 3.35095,5.6788 3.39169,5.8195 3.40736,5.96515 3.39751,6.1113 3.36243,6.25352 3.30318,6.3875 3.22157,6.50914 3.12007,6.61476 3.00179,6.70116 2.87029,6.76569 2.72958,6.80641 2.58394,6.8221 Z"
     id="path12143" />
  <path
     style="fill:none;stroke-width:0.1;stroke-miterlimit:4;stroke-dasharray:none;stroke:#a02c2c;stroke-opacity:1"
     d="M -3.22629,6.56361 -3.36758,6.52499 -3.50003,6.46242 -3.6196,6.37781 -3.72267,6.27371 -3.80609,6.15331 -3.86732,6.02023 -3.90454,5.87856 -3.91656,5.73257 l 0.01348,-0.14585 0.03862,-0.1413 0.25879,-0.89403 0.0293,0.00257 0.10248,-0.00333 0.19147,-0.01676 0.10035,-0.02107 0.18566,-0.04974 0.09515,-0.03818 0.06934,-0.03233 0.01384,0.00371 0.1015,0.01452 0.19146,0.01676 0.1025,-0.00333 0.19146,-0.01675 0.10035,-0.02108 0.18565,-0.04974 0.09517,-0.03818 0.08494,-0.03961 0.12648,0.57394 0.02356,0.0998 0.04975,0.18565 0.04054,0.09419 0.08122,0.1742 0.05628,0.08571 0.11024,0.15744 0.02239,0.02377 -0.09137,0.06329 -0.13307,0.06125 -0.14168,0.0372 -0.14598,0.01204 -0.14586,-0.01349 -0.1413,-0.03862 -0.13246,-0.06257 -0.05513,-0.03902 0.00555,0.06732 -0.0135,0.14586 -0.03862,0.1413 -0.06256,0.13246 -0.08463,0.11957 -0.10408,0.10305 -0.12042,0.08342 -0.13306,0.06125 -0.14167,0.0372 -0.146,0.01204 z"
     id="path12141" />
  <path
     style="fill:none;stroke-width:0.1;stroke-miterlimit:4;stroke-dasharray:none;stroke:#000000;stroke-opacity:1"
     d="m -27.999,20.9091 -0.8407,-0.2298 -0.7881,-0.3723 -0.7114,-0.5034 -0.6132,-0.6194 -0.4964,-0.7164 -0.3644,-0.7917 -0.1021,-0.3888 -0.2321,0.3281 -0.6194,0.6132 -0.7164,0.4963 -0.7917,0.3644 -0.843,0.2214 -0.8686,0.0717 -0.8679,-0.0803 -0.8407,-0.2298 -0.788,-0.3723 -0.7115,-0.5034 -0.6132,-0.6194 -0.4963,-0.7164 -0.3644,-0.7917 -0.2214,-0.843 -0.0716,-0.8686 0.0803,-0.8679 0.2297,-0.8407 0.3723,-0.788 0.5035,-0.7115 0.6193,-0.6132 0.7164,-0.4963 7.687,-5.15684 0.2639,-0.12148 0.281,-0.07379 0.2895,-0.02388 0.2893,0.02676 0.2802,0.0766 0.2627,0.12409 0.2372,0.16781 0.2044,0.20645 5.3848,7.52898 0.4963,0.7164 0.3644,0.7918 0.2214,0.843 0.0716,0.8686 -0.0803,0.8678 -0.2298,0.8407 -0.3722,0.7881 -0.5035,0.7114 -0.6193,0.6132 -0.7164,0.4964 -0.7918,0.3644 -0.8429,0.2213 -0.8686,0.0717 z"
     id="path12139" />
  <path
     style="fill:none;stroke-width:0.1;stroke-miterlimit:4;stroke-dasharray:none;stroke:#225500;stroke-opacity:1"
     d="M -1.02138,10.4493 -1.22574,10.4043 -1.41916,10.3244 -1.59579,10.2122 -1.75026,10.071 -1.87785,9.90517 -1.9747,9.71967 -2.03789,9.52017 -2.06546,9.31274 -2.27161,7.56137 -2.26273,7.55728 -2.07938,7.47177 -1.95895,7.38835 -1.79321,7.27231 -1.68913,7.16925 -1.54608,7.0262 -1.50325,6.96568 -1.41917,6.95833 -1.2775,6.92113 -1.08206,6.86876 -0.94899,6.80751 -0.76564,6.722 -0.645233,6.63858 -0.479492,6.52254 -0.416809,6.46048 0.185852,6.37117 0.380493,6.34531 0.958832,7.16258 1.04523,7.28087 1.18828,7.42392 1.2939,7.52542 1.45964,7.64146 1.58128,7.72307 1.62733,7.74455 1.59254,7.90245 1.5127,8.09589 1.40048,8.27251 1.25931,8.42697 1.09344,8.55457 0.907944,8.65143 0.70845,8.7146 0.501022,8.74217 0.291946,8.73331 0.197693,8.71254 0.242371,8.79808 0.305542,8.99757 0.333115,9.20502 0.324249,9.41409 0.279205,9.61844 0.199371,9.81187 0.0871582,9.98851 -0.0540161,10.143 l -0.1658629,0.1276 -0.185486,0.0968 -0.199509,0.0632 -0.207428,0.0276 z"
     id="path12137" />
  <path
     style="fill:none;stroke-width:0.1;stroke-miterlimit:4;stroke-dasharray:none;stroke:#225500;stroke-opacity:1"
     d="m -7.59181,12.73 -0.29346,-0.057 -0.27908,-0.1071 -0.25624,-0.154 -0.22562,-0.1961 -0.18814,-0.2324 -0.14493,-0.2614 -0.09732,-0.2827 -0.04677,-0.2952 0.00522,-0.2989 0.05704,-0.2935 0.10713,-0.2791 1.10765,-2.76113 0.09134,0.00615 0.21214,-0.01857 0.20807,-0.02238 0.20572,-0.05512 0.20101,-0.05818 0.193,-0.09001 0.08043,-0.03949 0.0389,0.01814 0.19139,0.08464 0.20572,0.05512 0.20317,0.05011 0.06056,0.00529 1.83516,0.6731 0.27908,0.10712 0.25626,0.15397 0.20178,0.1754 0.11395,0.96813 0.02758,0.20743 0.05511,0.20571 0.06319,0.19947 0.09001,0.193 0.03154,0.0604 -0.04979,0.1297 -0.15396,0.2563 -0.19612,0.2256 -0.23233,0.1881 -0.26146,0.145 -0.28266,0.0973 -0.29527,0.0467 -0.2989,-0.0052 -0.29345,-0.057 -0.27908,-0.1071 -0.25625,-0.154 -0.10405,-0.0905 -0.0024,0.1379 -0.05705,0.2934 -0.10713,0.2791 -0.15397,0.2563 -0.19612,0.2256 -0.23233,0.1881 -0.26146,0.145 -0.28265,0.0973 -0.29527,0.0467 z"
     id="path12135" />
  <path
     style="fill:none;stroke-width:0.1;stroke-miterlimit:4;stroke-dasharray:none;stroke:#d45500;stroke-opacity:1"
     d="M 11.7951,16.8581 11.3861,16.7352 11.0046,16.5433 10.6622,16.2879 7.06737,13.5222 6.96976,13.4186 6.91917,13.3416 6.92393,13.3238 6.97363,13.029 6.99318,12.8057 6.99095,12.5067 6.98103,12.3934 9.57283,8.80719 9.82814,8.46486 10.139,8.17204 10.496,7.93767 10.8883,7.76884 11.3039,7.6707 l 0.1698,-0.00975 0.3105,0.04918 0.2959,0.04233 0.2233,0.01954 0.0935,-0.00302 0.1665,0.04999 0.3815,0.19199 0.3423,0.25531 0.2929,0.31088 0.2344,0.35699 0.1688,0.39228 0.0981,0.41563 0.0245,0.42635 -0.0499,0.4241 -0.1229,0.4091 -0.192,0.3814 -0.2553,0.3424 -0.3108,0.2928 -0.1647,0.1081 0.1887,0.0566 0.3814,0.192 0.3424,0.2553 0.2928,0.3109 0.2344,0.357 0.1688,0.3923 0.0981,0.4156 0.0245,0.4264 -0.0499,0.4241 -0.1228,0.409 -0.192,0.3815 -0.2553,0.3424 -0.3109,0.2928 -0.357,0.2343 -0.3923,0.1689 -0.4156,0.0981 -0.4264,0.0245 z"
     id="path12133" />
  <path
     style="fill:none;stroke-width:0.1;stroke-miterlimit:4;stroke-dasharray:none;stroke:#000000;stroke-opacity:1"
     d="M 3.56612,14.3288 3.28444,14.2287 3.02444,14.0811 2.79401,13.8907 2.60014,13.6631 2.44873,13.4054 0.981445,10.8194 1.02307,10.7738 1.14522,10.5994 1.25743,10.4227 1.34744,10.2297 1.42728,10.0363 1.48239,9.83058 1.50797,9.71454 1.51881,9.70949 1.70432,9.61263 1.87877,9.49048 2.04463,9.36288 2.10692,9.3006 3.78008,8.28383 4.03784,8.13243 4.31798,8.02808 4.57895,7.98004 5.38232,8.47929 5.56169,8.58707 5.7547,8.67708 l 0.19537,0.075 0.20572,0.05511 0.09757,0.01897 0.06973,0.11871 0.10434,0.28015 0.05411,0.29401 0.00224,0.29893 -0.04971,0.29474 -0.10015,0.2817 -0.14752,0.26 -0.19044,0.2305 -0.22756,0.1938 -0.25776,0.1514 -0.28016,0.1044 -0.13559,0.0249 0.10628,0.0879 0.19386,0.2275 0.1514,0.2578 0.10436,0.2801 0.05411,0.294 0.00222,0.299 -0.0497,0.2947 -0.10014,0.2817 -0.14754,0.26 -0.19043,0.2305 -0.22757,0.1938 -0.25776,0.1514 -0.28014,0.1044 -0.294,0.0541 -0.29894,0.0022 z"
     id="path12131" />
  <path
     style="fill:none;stroke-width:0.1;stroke-miterlimit:4;stroke-dasharray:none;stroke:#000000;stroke-opacity:1"
     d="m -18.0033,24.3079 -0.5843,-0.1755 -0.5449,-0.2742 -0.4891,-0.3647 -0.4183,-0.4442 -0.3348,-0.51 -0.2412,-0.5604 -0.1402,-0.5937 -0.035,-0.6091 0.0714,-0.6059 0.1754,-0.5843 0.2743,-0.545 2.9992,-5.7436 0.1216,-0.163 0.148,-0.1394 0.17,-0.1117 0.1868,-0.0804 0.1979,-0.0467 0.203,-0.0117 0.202,0.0238 0.1948,0.0585 5.8309,2.8258 0.54493,0.2743 0.48906,0.3647 0.41829,0.4441 0.33482,0.51 0.2412,0.5604 0.14019,0.5938 0.03498,0.6091 -0.07134,0.6058 -0.17547,0.5844 -0.27425,0.5449 -0.36473,0.4891 -0.44411,0.4183 -0.51001,0.3348 -0.56036,0.2412 -0.5938,0.1402 -0.6091,0.035 -0.6059,-0.0714 -0.5843,-0.1754 -0.545,-0.2743 -0.489,-0.3647 -0.1929,-0.2048 -0.0329,0.2794 -0.1755,0.5843 -0.2743,0.545 -0.3647,0.489 -0.4441,0.4184 -0.51,0.3348 -0.5604,0.2412 -0.5938,0.1402 -0.609,0.0349 z"
     id="path12129" />
  <path
     style="fill:none;stroke-width:0.1;stroke-miterlimit:4;stroke-dasharray:none;stroke:#000000;stroke-opacity:1"
     d="m -4.19739,21.0116 -0.40584,-0.133 -0.37657,-0.2014 -0.33587,-0.2638 -0.28496,-0.3181 -0.2254,-0.3627 -0.159,-0.3964 -0.08775,-0.4179 -0.01384,-0.4268 -0.07906,-4.535 0.02016,-0.1409 0.02954,-0.0902 0.044,-0.0205 0.26146,-0.1449 0.18364,-0.1286 0.23233,-0.1881 0.05811,-0.0581 4.419265,-0.2097 0.426834,-0.0138 0.4227598,0.0605 0.4058072,0.133 0.376572,0.2014 0.335872,0.2638 0.11301,0.1261 0.1713,0.3019 0.15141,0.2578 0.12858,0.1836 0.0411,0.0482 0.06398,0.1595 0.08774,0.418 0.01383,0.4268 -0.06048,0.4228 -0.13298,0.4058 -0.20143,0.3766 -0.26377,0.3359 -0.318081,0.2849 -0.362732,0.2255 -0.3963621,0.1589 -0.4179379,0.0878 -0.426834,0.0138 -0.422773,-0.0605 -0.18715,-0.0613 0.07332,0.1828 0.08775,0.418 0.01384,0.4268 -0.06049,0.4227 -0.13298,0.4059 -0.20143,0.3766 -0.26376,0.3358 -0.31809,0.285 -0.36273,0.2254 -0.39636,0.159 -0.41795,0.0877 -0.42684,0.0139 z"
     id="path12127" />
  <path
     style="fill:none;stroke-width:0.1;stroke-miterlimit:4;stroke-dasharray:none;stroke:#d45500;stroke-opacity:1"
     d="M 4.91852,29.9827 4.33002,29.8218 3.77838,29.5612 3.28036,29.2088 2.85114,28.7753 2.50369,28.2738 2.24863,27.7196 l -2.620563,-5.926 -0.051651,-0.1967 -0.016724,-0.2027 0.018738,-0.2025 0.05362,-0.1961 0.086868,-0.1839 0.117462,-0.166 0.144516,-0.1431 0.167145,-0.1158 5.844789,-2.7969 0.5542,-0.2551 0.59009,-0.155 0.60803,-0.0501 0.60748,0.0562 0.58852,0.1608 0.55163,0.2606 0.498,0.3525 0.42922,0.4335 0.3475,0.5015 0.255,0.5542 0.155,0.5901 0.0501,0.608 -0.0562,0.6075 -0.1608,0.5885 -0.2606,0.5517 -0.3524,0.498 -0.43355,0.4292 -0.5015,0.3474 -0.55421,0.2551 -0.59009,0.155 -0.28041,0.0231 0.19797,0.1999 0.34744,0.5015 0.25507,0.5542 0.15495,0.5901 0.05016,0.6081 -0.0562,0.6074 -0.16084,0.5886 -0.26059,0.5516 -0.35244,0.498 -0.43353,0.4292 -0.50149,0.3475 -0.55422,0.2551 -0.59009,0.1549 -0.60801,0.0502 z"
     id="path12125" />
  <path
     style="fill:none;stroke-width:0.1;stroke-miterlimit:4;stroke-dasharray:none;stroke:#a02c2c;stroke-opacity:1"
     d="m 21.3776,36.8176 -0.8512,-0.1876 -0.8056,-0.3325 -0.7356,-0.4674 -0.6433,-0.588 -6.7381,-6.3467 -0.1771,-0.2303 -0.1345,-0.2575 -0.0877,-0.277 -0.0383,-0.2879 0.0123,-0.2903 0.0626,-0.2837 0.1108,-0.2685 0.1558,-0.2453 6.142,-6.9251 0.588,-0.6433 0.6908,-0.5315 0.7726,-0.4034 0.8309,-0.2631 0.8639,-0.1148 0.8708,0.0369 0.8511,0.1876 0.8057,0.3325 0.7356,0.4674 0.6433,0.588 0.5314,0.6908 0.4034,0.7725 0.2632,0.8309 0.1148,0.864 -0.0369,0.8708 -0.1876,0.8511 -0.3325,0.8056 -0.4674,0.7357 -0.588,0.6433 -0.6908,0.5314 -0.3563,0.1861 0.3715,0.1533 0.7357,0.4674 0.6433,0.588 0.5314,0.6908 0.4034,0.7726 0.2631,0.8309 0.1149,0.8639 -0.0369,0.8708 -0.1876,0.8511 -0.3325,0.8057 -0.4674,0.7356 -0.588,0.6433 -0.6908,0.5315 -0.7726,0.4034 -0.8309,0.2631 -0.8639,0.1148 z"
     id="path12123" />
  <path
     style="fill:none;stroke-width:0.1;stroke-miterlimit:4;stroke-dasharray:none;stroke:#d45500;stroke-opacity:1"
     d="m -11.9469,42.0236 -0.8462,-0.2088 -0.7971,-0.3525 -0.7237,-0.4855 -0.6285,-0.6039 -0.5141,-0.7038 -0.384,-0.7824 -0.2423,-0.8372 -0.0932,-0.8666 0.0586,-0.8696 0.7609,-9.2251 0.0696,-0.2821 0.1175,-0.2656 0.1619,-0.2413 0.2013,-0.2095 0.2346,-0.1713 0.2608,-0.128 0.279,-0.0808 0.2889,-0.0311 9.24377,0.4843 0.86958,0.0586 0.84619,0.2087 0.79709,0.3525 0.72377,0.4856 0.628452,0.6039 0.514038,0.7038 0.384002,0.7824 0.242325,0.8372 0.093262,0.8665 -0.058624,0.8696 -0.208741,0.8462 -0.3524929,0.7971 -0.4855651,0.7237 -0.603866,0.6285 -0.70383,0.514 -0.78239,0.3841 -0.83721,0.2423 -0.86654,0.0933 -0.86959,-0.0587 -0.84619,-0.2087 -0.3676,-0.1626 0.11176,0.3861 0.09326,0.8666 -0.05862,0.8695 -0.20876,0.8462 -0.35249,0.7971 -0.48557,0.7238 -0.60388,0.6285 -0.70383,0.514 -0.78239,0.384 -0.83722,0.2423 -0.8665,0.0933 z"
     id="path11568" />
</svg>
