<?xml version="1.0" standalone="no"?>
<!DOCTYPE svg PUBLIC "-//W3C//DTD SVG 1.1//EN" "http://www.w3.org/Graphics/SVG/1.1/DTD/svg11.dtd">
<svg width="140mm" height="16mm" viewBox="-20 -5 140 16" xmlns="http://www.w3.org/2000/svg" version="1.1">
<title>OpenSCAD Model</title>
<path d="
M 120,-0 L -0.0166626,-0 L 0.0166626,-0.000213623 L 0.0666656,-0.00154114 L 0.116653,-0.00384521 L 0.166656,-0.00714111
 L 0.21666,-0.0114136 L 0.266663,-0.0166626 L 0.316666,-0.0228882 L 0.366653,-0.0300751 L 0.416656,-0.0382385 L 0.46666,-0.0473328
 L 0.516663,-0.0573883 L 0.566666,-0.0683746 L 0.616653,-0.0802917 L 0.666656,-0.0931091 L 0.71666,-0.106842 L 0.766663,-0.12146
 L 0.816666,-0.136948 L 0.866653,-0.15329 L 0.916656,-0.170486 L 0.96666,-0.188507 L 1.01666,-0.207336 L 1.06667,-0.226959
 L 1.11665,-0.24736 L 1.16666,-0.268509 L 1.21666,-0.290405 L 1.26666,-0.312988 L 1.31667,-0.336288 L 1.36665,-0.360245
 L 1.41666,-0.384842 L 1.46666,-0.410065 L 1.51666,-0.435883 L 1.56667,-0.462265 L 1.61665,-0.489197 L 1.66666,-0.516663
 L 1.71666,-0.544601 L 1.76666,-0.573029 L 1.81667,-0.601883 L 1.86665,-0.631149 L 1.91666,-0.660797 L 1.96666,-0.690796
 L 2.01666,-0.721115 L 2.06667,-0.75174 L 2.11665,-0.782623 L 2.16666,-0.813751 L 2.21666,-0.845078 L 2.26666,-0.876572
 L 2.31667,-0.908218 L 2.36665,-0.939987 L 2.41666,-0.971817 L 2.56667,-1.06754 L 2.61665,-1.0994 L 2.66666,-1.1312
 L 2.71666,-1.16287 L 2.76666,-1.19443 L 2.81667,-1.22581 L 2.86665,-1.257 L 2.91666,-1.28798 L 2.96666,-1.3187
 L 3.01666,-1.34912 L 3.06667,-1.37923 L 3.11665,-1.409 L 3.16666,-1.4384 L 3.21666,-1.46739 L 3.26666,-1.49596
 L 3.31667,-1.52406 L 3.36665,-1.55168 L 3.41666,-1.5788 L 3.46666,-1.60538 L 3.51666,-1.63138 L 3.56667,-1.6568
 L 3.61665,-1.68161 L 3.66666,-1.7058 L 3.71666,-1.72931 L 3.76666,-1.75214 L 3.81667,-1.77426 L 3.86665,-1.79565
 L 3.91666,-1.8163 L 3.96666,-1.83618 L 4.01666,-1.85529 L 4.06667,-1.87358 L 4.11665,-1.89105 L 4.16666,-1.90768
 L 4.21666,-1.92346 L 4.26666,-1.93837 L 4.31667,-1.95239 L 4.36665,-1.96552 L 4.41666,-1.97774 L 4.46666,-1.98903
 L 4.51666,-1.9994 L 4.56667,-2.00882 L 4.61665,-2.01729 L 4.66666,-2.02481 L 4.71666,-2.03136 L 4.76666,-2.03693
 L 4.81667,-2.04153 L 4.86665,-2.04515 L 4.91666,-2.04779 L 4.96666,-2.04944 L 5.01666,-2.05011 L 5.06667,-2.04979
 L 5.11665,-2.04848 L 5.16666,-2.04619 L 5.21666,-2.04291 L 5.26666,-2.03865 L 5.31667,-2.03343 L 5.36665,-2.02724
 L 5.41666,-2.02008 L 5.46666,-2.01198 L 5.51666,-2.00293 L 5.56667,-1.99294 L 5.61665,-1.98203 L 5.66666,-1.9702
 L 5.71666,-1.95747 L 5.76666,-1.94386 L 5.81667,-1.92937 L 5.86665,-1.91402 L 5.91666,-1.89783 L 5.96666,-1.88081
 L 6.01666,-1.86298 L 6.06667,-1.84435 L 6.11665,-1.82495 L 6.16666,-1.80481 L 6.21666,-1.78392 L 6.26666,-1.76233
 L 6.31667,-1.74004 L 6.36665,-1.71709 L 6.41666,-1.69348 L 6.46666,-1.66927 L 6.51666,-1.64444 L 6.56667,-1.61905
 L 6.61665,-1.59311 L 6.66666,-1.56667 L 6.71666,-1.5397 L 6.76666,-1.5123 L 6.81667,-1.48444 L 6.86665,-1.45618
 L 6.91666,-1.42752 L 6.96666,-1.39853 L 7.01666,-1.3692 L 7.06667,-1.33958 L 7.11665,-1.30969 L 7.16666,-1.27957
 L 7.21666,-1.24924 L 7.26666,-1.21873 L 7.31667,-1.1881 L 7.36665,-1.15733 L 7.41666,-1.1265 L 7.61665,-1.00291
 L 7.66666,-0.972137 L 7.71666,-0.941437 L 7.76666,-0.910889 L 7.81667,-0.880508 L 7.86665,-0.850311 L 7.91666,-0.820343
 L 7.96666,-0.790634 L 8.01666,-0.7612 L 8.06667,-0.732086 L 8.11665,-0.703323 L 8.16666,-0.674927 L 8.21666,-0.646927
 L 8.26666,-0.61937 L 8.31667,-0.592255 L 8.36665,-0.565628 L 8.41666,-0.53952 L 8.46666,-0.513947 L 8.51666,-0.488937
 L 8.56667,-0.464508 L 8.61665,-0.440704 L 8.66666,-0.417526 L 8.71666,-0.39502 L 8.76666,-0.373184 L 8.81667,-0.352066
 L 8.86665,-0.331665 L 8.91666,-0.312012 L 8.96666,-0.293137 L 9.01666,-0.275024 L 9.06667,-0.257736 L 9.11665,-0.241272
 L 9.16666,-0.225632 L 9.21666,-0.210861 L 9.26666,-0.196945 L 9.31667,-0.183929 L 9.36665,-0.171799 L 9.41666,-0.160583
 L 9.46666,-0.150284 L 9.51666,-0.140915 L 9.56667,-0.132492 L 9.61665,-0.125031 L 9.66666,-0.118515 L 9.71666,-0.112961
 L 9.76666,-0.108383 L 9.81667,-0.104782 L 9.86665,-0.102173 L 9.91666,-0.100525 L 9.96666,-0.099884 L 10.0167,-0.10022
 L 10.0667,-0.101532 L 10.1167,-0.103851 L 10.1667,-0.107132 L 10.2167,-0.111404 L 10.2667,-0.116669 L 10.3167,-0.122894
 L 10.3667,-0.130081 L 10.4167,-0.138229 L 10.4667,-0.147339 L 10.5167,-0.157394 L 10.5667,-0.168381 L 10.6167,-0.180283
 L 10.6667,-0.193115 L 10.7167,-0.206833 L 10.7667,-0.221451 L 10.8167,-0.236938 L 10.8667,-0.253296 L 10.9167,-0.270493
 L 10.9667,-0.288513 L 11.0167,-0.307343 L 11.0667,-0.326965 L 11.1167,-0.347366 L 11.1667,-0.368515 L 11.2167,-0.390396
 L 11.2667,-0.412994 L 11.3167,-0.436279 L 11.3667,-0.460236 L 11.4167,-0.484833 L 11.4667,-0.510056 L 11.5167,-0.535873
 L 11.5667,-0.562271 L 11.6167,-0.589203 L 11.6667,-0.616653 L 11.7167,-0.644608 L 11.7667,-0.673019 L 11.8167,-0.701874
 L 11.8667,-0.73114 L 11.9167,-0.760788 L 11.9667,-0.790787 L 12.0167,-0.821121 L 12.0667,-0.851746 L 12.1167,-0.882629
 L 12.1667,-0.913742 L 12.2167,-0.945068 L 12.2667,-0.976578 L 12.3167,-1.00822 L 12.3667,-1.03998 L 12.4667,-1.10371
 L 12.5667,-1.16754 L 12.6167,-1.1994 L 12.6667,-1.23119 L 12.7167,-1.26288 L 12.7667,-1.29443 L 12.8167,-1.32582
 L 12.8667,-1.35701 L 12.9167,-1.38799 L 12.9667,-1.41869 L 13.0167,-1.44911 L 13.0667,-1.47923 L 13.1167,-1.509
 L 13.1667,-1.53839 L 13.2167,-1.56738 L 13.2667,-1.59596 L 13.3167,-1.62407 L 13.3667,-1.65169 L 13.4167,-1.6788
 L 13.4667,-1.70537 L 13.5167,-1.73138 L 13.5667,-1.75681 L 13.6167,-1.78162 L 13.6667,-1.80579 L 13.7167,-1.8293
 L 13.7667,-1.85213 L 13.8167,-1.87425 L 13.8667,-1.89566 L 13.9167,-1.91631 L 13.9667,-1.93619 L 14.0167,-1.95529
 L 14.0667,-1.97359 L 14.1167,-1.99106 L 14.1667,-2.00769 L 14.2167,-2.02347 L 14.2667,-2.03838 L 14.3167,-2.0524
 L 14.3667,-2.06552 L 14.4167,-2.07774 L 14.4667,-2.08904 L 14.5167,-2.0994 L 14.5667,-2.10883 L 14.6167,-2.11729
 L 14.6667,-2.1248 L 14.7167,-2.13135 L 14.7667,-2.13693 L 14.8167,-2.14153 L 14.8667,-2.14516 L 14.9167,-2.14778
 L 14.9667,-2.14944 L 15.0167,-2.1501 L 15.0667,-2.14978 L 15.1167,-2.14847 L 15.1667,-2.14618 L 15.2167,-2.14291
 L 15.2667,-2.13866 L 15.3167,-2.13342 L 15.3667,-2.12724 L 15.4167,-2.12009 L 15.4667,-2.11198 L 15.5167,-2.10292
 L 15.5667,-2.09294 L 15.6167,-2.08203 L 15.6667,-2.07021 L 15.7167,-2.05748 L 15.7667,-2.04387 L 15.8167,-2.02937
 L 15.8667,-2.01402 L 15.9167,-1.99783 L 15.9667,-1.9808 L 16.0167,-1.96298 L 16.0667,-1.94435 L 16.1167,-1.92496
 L 16.1667,-1.9048 L 16.2167,-1.88393 L 16.2667,-1.86232 L 16.3167,-1.84004 L 16.3667,-1.81708 L 16.4167,-1.79347
 L 16.4667,-1.76926 L 16.5167,-1.74445 L 16.5667,-1.71906 L 16.6167,-1.69312 L 16.6667,-1.66666 L 16.7167,-1.63971
 L 16.7667,-1.61229 L 16.8167,-1.58444 L 16.8667,-1.55617 L 16.9167,-1.52753 L 16.9667,-1.49852 L 17.0167,-1.46919
 L 17.0667,-1.43958 L 17.1167,-1.4097 L 17.1667,-1.37958 L 17.2167,-1.34924 L 17.2667,-1.31874 L 17.3167,-1.2881
 L 17.3667,-1.25734 L 17.4167,-1.2265 L 17.6167,-1.10292 L 17.6667,-1.07213 L 17.7167,-1.04144 L 17.7667,-1.01089
 L 17.8167,-0.980499 L 17.8667,-0.950302 L 17.9167,-0.920334 L 17.9667,-0.890625 L 18.0167,-0.861206 L 18.0667,-0.832092
 L 18.1167,-0.803314 L 18.1667,-0.774918 L 18.2167,-0.746933 L 18.2667,-0.71936 L 18.3167,-0.692261 L 18.3667,-0.665634
 L 18.4167,-0.639526 L 18.4667,-0.613953 L 18.5167,-0.588928 L 18.5667,-0.564514 L 18.6167,-0.540695 L 18.6667,-0.517532
 L 18.7167,-0.49501 L 18.7667,-0.47319 L 18.8167,-0.452057 L 18.8667,-0.431671 L 18.9167,-0.412018 L 18.9667,-0.393127
 L 19.0167,-0.375031 L 19.0667,-0.357742 L 19.1167,-0.341263 L 19.1667,-0.325638 L 19.2167,-0.310852 L 19.2667,-0.296951
 L 19.3167,-0.28392 L 19.3667,-0.27179 L 19.4167,-0.260574 L 19.4667,-0.25029 L 19.5167,-0.240921 L 19.5667,-0.232498
 L 19.6167,-0.225021 L 19.6667,-0.218506 L 19.7167,-0.212967 L 19.7667,-0.208389 L 19.8167,-0.204788 L 19.8667,-0.202164
 L 19.9167,-0.200531 L 19.9667,-0.199875 L 20.0167,-0.200211 L 20.0667,-0.201538 L 20.1167,-0.203842 L 20.1667,-0.207138
 L 20.2167,-0.211411 L 20.2667,-0.21666 L 20.3167,-0.222885 L 20.3667,-0.230087 L 20.4167,-0.238235 L 20.4667,-0.247345
 L 20.5167,-0.257385 L 20.5667,-0.268372 L 20.6167,-0.280289 L 20.6667,-0.293106 L 20.7167,-0.306839 L 20.7667,-0.321457
 L 20.8167,-0.336945 L 20.8667,-0.353302 L 20.9167,-0.370483 L 20.9667,-0.388504 L 21.0167,-0.407349 L 21.0667,-0.426971
 L 21.1167,-0.447357 L 21.1667,-0.468521 L 21.2167,-0.490402 L 21.2667,-0.513 L 21.3167,-0.536285 L 21.3667,-0.560242
 L 21.4167,-0.584839 L 21.4667,-0.610062 L 21.5167,-0.63588 L 21.5667,-0.662262 L 21.6167,-0.689209 L 21.6667,-0.71666
 L 21.7167,-0.744614 L 21.7667,-0.773026 L 21.8167,-0.80188 L 21.8667,-0.831146 L 21.9167,-0.860794 L 21.9667,-0.890793
 L 22.0167,-0.921112 L 22.0667,-0.951736 L 22.1167,-0.98262 L 22.1667,-1.01375 L 22.2167,-1.04507 L 22.2667,-1.07657
 L 22.3167,-1.10822 L 22.3667,-1.13998 L 22.4667,-1.20372 L 22.6167,-1.29939 L 22.6667,-1.33119 L 22.7167,-1.36287
 L 22.7667,-1.39442 L 22.8167,-1.42581 L 22.8667,-1.45702 L 22.9167,-1.48798 L 22.9667,-1.51869 L 23.0167,-1.54912
 L 23.0667,-1.57922 L 23.1167,-1.60899 L 23.1667,-1.6384 L 23.2167,-1.66739 L 23.2667,-1.69595 L 23.3167,-1.72406
 L 23.3667,-1.75168 L 23.4167,-1.77879 L 23.4667,-1.80537 L 23.5167,-1.83139 L 23.5667,-1.85681 L 23.6167,-1.88162
 L 23.6667,-1.90579 L 23.7167,-1.92931 L 23.7667,-1.95213 L 23.8167,-1.97426 L 23.8667,-1.99565 L 23.9167,-2.01631
 L 23.9667,-2.03619 L 24.0167,-2.05528 L 24.0667,-2.07358 L 24.1167,-2.09105 L 24.1667,-2.10768 L 24.2167,-2.12346
 L 24.2667,-2.13837 L 24.3167,-2.15239 L 24.3667,-2.16553 L 24.4167,-2.17773 L 24.4667,-2.18904 L 24.5167,-2.1994
 L 24.5667,-2.20882 L 24.6167,-2.2173 L 24.6667,-2.22481 L 24.7167,-2.23135 L 24.7667,-2.23694 L 24.8167,-2.24153
 L 24.8667,-2.24515 L 24.9167,-2.24779 L 24.9667,-2.24944 L 25.0167,-2.25011 L 25.0667,-2.24979 L 25.1167,-2.24847
 L 25.1667,-2.24619 L 25.2167,-2.2429 L 25.2667,-2.23865 L 25.3167,-2.23343 L 25.3667,-2.22723 L 25.4167,-2.22008
 L 25.4667,-2.21198 L 25.5167,-2.20293 L 25.5667,-2.19295 L 25.6167,-2.18202 L 25.6667,-2.17021 L 25.7167,-2.15747
 L 25.7667,-2.14386 L 25.8167,-2.12938 L 25.8667,-2.11403 L 25.9167,-2.09782 L 25.9667,-2.08081 L 26.0167,-2.06297
 L 26.0667,-2.04436 L 26.1167,-2.02495 L 26.1667,-2.00481 L 26.2167,-1.98392 L 26.2667,-1.96233 L 26.3167,-1.94003
 L 26.3667,-1.91708 L 26.4167,-1.89348 L 26.4667,-1.86926 L 26.5167,-1.84444 L 26.5667,-1.81905 L 26.6167,-1.79312
 L 26.6667,-1.76666 L 26.7167,-1.73972 L 26.7667,-1.7123 L 26.8167,-1.68443 L 26.8667,-1.65617 L 26.9167,-1.62753
 L 26.9667,-1.59853 L 27.0167,-1.5692 L 27.0667,-1.53958 L 27.1167,-1.50969 L 27.1667,-1.47957 L 27.2167,-1.44925
 L 27.2667,-1.41875 L 27.3167,-1.38809 L 27.3667,-1.35733 L 27.4667,-1.29561 L 27.5667,-1.23378 L 27.6167,-1.20293
 L 27.6667,-1.17213 L 27.7167,-1.14145 L 27.7667,-1.11089 L 27.8167,-1.08051 L 27.8667,-1.05031 L 27.9167,-1.02034
 L 27.9667,-0.990631 L 28.0167,-0.961197 L 28.0667,-0.932083 L 28.1167,-0.90332 L 28.1667,-0.874924 L 28.2167,-0.846924
 L 28.2667,-0.819366 L 28.3167,-0.792252 L 28.3667,-0.765625 L 28.4167,-0.739517 L 28.4667,-0.713943 L 28.5167,-0.688934
 L 28.5667,-0.664505 L 28.6167,-0.640701 L 28.6667,-0.617523 L 28.7167,-0.595016 L 28.7667,-0.573181 L 28.8167,-0.552063
 L 28.8667,-0.531662 L 28.9167,-0.512009 L 28.9667,-0.493134 L 29.0167,-0.475037 L 29.0667,-0.457733 L 29.1167,-0.441269
 L 29.1667,-0.425629 L 29.2167,-0.410858 L 29.2667,-0.396942 L 29.3167,-0.383926 L 29.3667,-0.371796 L 29.4167,-0.36058
 L 29.4667,-0.350281 L 29.5167,-0.340912 L 29.5667,-0.332489 L 29.6167,-0.325027 L 29.6667,-0.318512 L 29.7167,-0.312958
 L 29.7667,-0.30838 L 29.8167,-0.304779 L 29.8667,-0.30217 L 29.9167,-0.300537 L 29.9667,-0.299881 L 30.0167,-0.300217
 L 30.0667,-0.301529 L 30.1167,-0.303848 L 30.1667,-0.307144 L 30.2167,-0.311417 L 30.2667,-0.316666 L 30.3167,-0.322891
 L 30.3667,-0.330078 L 30.4167,-0.338226 L 30.4667,-0.347336 L 30.5167,-0.357391 L 30.5667,-0.368378 L 30.6167,-0.380295
 L 30.6667,-0.393112 L 30.7167,-0.406845 L 30.7667,-0.421463 L 30.8167,-0.436951 L 30.8667,-0.453293 L 30.9167,-0.47049
 L 30.9667,-0.48851 L 31.0167,-0.507339 L 31.0667,-0.526962 L 31.1167,-0.547363 L 31.1667,-0.568512 L 31.2167,-0.590393
 L 31.2667,-0.612991 L 31.3167,-0.636276 L 31.3667,-0.660233 L 31.4167,-0.684845 L 31.4667,-0.710052 L 31.5167,-0.73587
 L 31.5667,-0.762268 L 31.6167,-0.7892 L 31.6667,-0.816666 L 31.7167,-0.844604 L 31.7667,-0.873016 L 31.8167,-0.901871
 L 31.8667,-0.931137 L 31.9167,-0.960785 L 31.9667,-0.990799 L 32.0167,-1.02112 L 32.0667,-1.05174 L 32.1167,-1.08263
 L 32.1667,-1.11375 L 32.2167,-1.14508 L 32.2667,-1.17657 L 32.3167,-1.20822 L 32.3667,-1.23997 L 32.4667,-1.30371
 L 32.5667,-1.36754 L 32.6167,-1.3994 L 32.6667,-1.43118 L 32.7167,-1.46288 L 32.7667,-1.49443 L 32.8167,-1.52582
 L 32.8667,-1.55701 L 32.9167,-1.58798 L 32.9667,-1.6187 L 33.0167,-1.64912 L 33.0667,-1.67923 L 33.1167,-1.709
 L 33.1667,-1.73839 L 33.2167,-1.7674 L 33.2667,-1.79596 L 33.3167,-1.82407 L 33.3667,-1.85168 L 33.4167,-1.8788
 L 33.4667,-1.90536 L 33.5167,-1.93138 L 33.5667,-1.9568 L 33.6167,-1.98161 L 33.6667,-2.00578 L 33.7167,-2.0293
 L 33.7667,-2.05214 L 33.8167,-2.07425 L 33.8667,-2.09566 L 33.9167,-2.1163 L 33.9667,-2.13618 L 34.0167,-2.15529
 L 34.0667,-2.17358 L 34.1167,-2.19106 L 34.1667,-2.20769 L 34.2167,-2.22346 L 34.2667,-2.23837 L 34.3167,-2.2524
 L 34.3667,-2.26552 L 34.4167,-2.27774 L 34.4667,-2.28903 L 34.5167,-2.29939 L 34.5667,-2.30882 L 34.6167,-2.31729
 L 34.6667,-2.32481 L 34.7167,-2.33136 L 34.7667,-2.33693 L 34.8167,-2.34154 L 34.8667,-2.34515 L 34.9167,-2.34779
 L 34.9667,-2.34944 L 35.0167,-2.3501 L 35.0667,-2.34978 L 35.1167,-2.34848 L 35.1667,-2.34618 L 35.2167,-2.34291
 L 35.2667,-2.33865 L 35.3167,-2.33344 L 35.3667,-2.32724 L 35.4167,-2.32008 L 35.4667,-2.31198 L 35.5167,-2.30293
 L 35.5667,-2.29294 L 35.6167,-2.28203 L 35.6667,-2.2702 L 35.7167,-2.25748 L 35.7667,-2.24387 L 35.8167,-2.22937
 L 35.8667,-2.21402 L 35.9167,-2.19783 L 35.9667,-2.1808 L 36.0167,-2.16298 L 36.0667,-2.14435 L 36.1167,-2.12495
 L 36.1667,-2.1048 L 36.2167,-2.08392 L 36.2667,-2.06232 L 36.3167,-2.04004 L 36.3667,-2.01707 L 36.4167,-1.99348
 L 36.4667,-1.96925 L 36.5167,-1.94444 L 36.5667,-1.91905 L 36.6167,-1.89311 L 36.6667,-1.86665 L 36.7167,-1.83971
 L 36.7667,-1.8123 L 36.8167,-1.78444 L 36.8667,-1.75618 L 36.9167,-1.72752 L 36.9667,-1.69853 L 37.0167,-1.6692
 L 37.0667,-1.63957 L 37.1167,-1.6097 L 37.1667,-1.57957 L 37.2167,-1.54924 L 37.2667,-1.51874 L 37.3167,-1.4881
 L 37.3667,-1.45734 L 37.4167,-1.4265 L 37.6167,-1.30292 L 37.6667,-1.27213 L 37.7167,-1.24144 L 37.7667,-1.21089
 L 37.8167,-1.1805 L 37.8667,-1.15031 L 37.9167,-1.12035 L 37.9667,-1.09062 L 38.0167,-1.0612 L 38.0667,-1.03209
 L 38.1167,-1.00331 L 38.1667,-0.97493 L 38.2167,-0.94693 L 38.2667,-0.919357 L 38.3167,-0.892258 L 38.3667,-0.865631
 L 38.4167,-0.839523 L 38.4667,-0.81395 L 38.5167,-0.78894 L 38.5667,-0.764511 L 38.6167,-0.740707 L 38.6667,-0.717529
 L 38.7167,-0.695023 L 38.7667,-0.673187 L 38.8167,-0.652069 L 38.8667,-0.631668 L 38.9167,-0.612015 L 38.9667,-0.593124
 L 39.0167,-0.575027 L 39.0667,-0.557739 L 39.1167,-0.54126 L 39.1667,-0.525635 L 39.2167,-0.510849 L 39.2667,-0.496948
 L 39.3167,-0.483917 L 39.3667,-0.471802 L 39.4167,-0.460571 L 39.4667,-0.450287 L 39.5167,-0.440918 L 39.5667,-0.432495
 L 39.6167,-0.425018 L 39.6667,-0.418518 L 39.7167,-0.412964 L 39.7667,-0.408386 L 39.8167,-0.404785 L 39.8667,-0.402161
 L 39.9167,-0.400528 L 39.9667,-0.399872 L 40.0167,-0.400208 L 40.0667,-0.401535 L 40.1167,-0.403839 L 40.1667,-0.407135
 L 40.2167,-0.411407 L 40.2667,-0.416656 L 40.3167,-0.422882 L 40.3667,-0.430084 L 40.4167,-0.438232 L 40.4667,-0.447342
 L 40.5167,-0.457397 L 40.5667,-0.468384 L 40.6167,-0.480286 L 40.6667,-0.493118 L 40.7167,-0.506836 L 40.7667,-0.521454
 L 40.8167,-0.536942 L 40.8667,-0.553299 L 40.9167,-0.570496 L 40.9667,-0.588516 L 41.0167,-0.607346 L 41.0667,-0.626968
 L 41.1167,-0.647369 L 41.1667,-0.668518 L 41.2167,-0.690399 L 41.2667,-0.712997 L 41.3167,-0.736282 L 41.3667,-0.760239
 L 41.4167,-0.784836 L 41.4667,-0.810059 L 41.5167,-0.835876 L 41.5667,-0.862274 L 41.6167,-0.889206 L 41.6667,-0.916656
 L 41.7167,-0.944611 L 41.7667,-0.973022 L 41.8167,-1.00188 L 41.8667,-1.03114 L 41.9167,-1.06079 L 41.9667,-1.09079
 L 42.0167,-1.12112 L 42.0667,-1.15173 L 42.1167,-1.18263 L 42.1667,-1.21375 L 42.2167,-1.24507 L 42.2667,-1.27658
 L 42.3167,-1.30823 L 42.3667,-1.33998 L 42.4667,-1.40372 L 42.6167,-1.49939 L 42.6667,-1.53119 L 42.7167,-1.56288
 L 42.7667,-1.59442 L 42.8167,-1.62582 L 42.8667,-1.65701 L 42.9167,-1.68797 L 42.9667,-1.71869 L 43.0167,-1.74911
 L 43.0667,-1.77924 L 43.1167,-1.80901 L 43.1667,-1.83839 L 43.2167,-1.86739 L 43.2667,-1.89595 L 43.3167,-1.92406
 L 43.3667,-1.95169 L 43.4167,-1.97881 L 43.4667,-2.00537 L 43.5167,-2.03139 L 43.5667,-2.05681 L 43.6167,-2.08162
 L 43.6667,-2.10579 L 43.7167,-2.1293 L 43.7667,-2.15213 L 43.8167,-2.17426 L 43.8667,-2.19565 L 43.9167,-2.21631
 L 43.9667,-2.23619 L 44.0167,-2.25528 L 44.0667,-2.27357 L 44.1167,-2.29105 L 44.1667,-2.30768 L 44.2167,-2.32346
 L 44.2667,-2.33836 L 44.3167,-2.3524 L 44.3667,-2.36552 L 44.4167,-2.37775 L 44.4667,-2.38904 L 44.5167,-2.3994
 L 44.5667,-2.40883 L 44.6167,-2.4173 L 44.6667,-2.4248 L 44.7167,-2.43135 L 44.7667,-2.43694 L 44.8167,-2.44153
 L 44.8667,-2.44514 L 44.9167,-2.44778 L 44.9667,-2.44943 L 45.0167,-2.4501 L 45.0667,-2.44978 L 45.1167,-2.44847
 L 45.1667,-2.44618 L 45.2167,-2.4429 L 45.2667,-2.43866 L 45.3167,-2.43343 L 45.3667,-2.42723 L 45.4167,-2.42009
 L 45.4667,-2.41197 L 45.5167,-2.40292 L 45.5667,-2.39294 L 45.6167,-2.38203 L 45.6667,-2.37021 L 45.7167,-2.35748
 L 45.7667,-2.34386 L 45.8167,-2.32938 L 45.8667,-2.31403 L 45.9167,-2.29784 L 45.9667,-2.28081 L 46.0167,-2.26297
 L 46.0667,-2.24435 L 46.1167,-2.22496 L 46.1667,-2.2048 L 46.2167,-2.18391 L 46.2667,-2.16232 L 46.3167,-2.14003
 L 46.3667,-2.11708 L 46.4167,-2.09348 L 46.4667,-2.06926 L 46.5167,-2.04443 L 46.5667,-2.01904 L 46.6167,-1.99312
 L 46.6667,-1.96666 L 46.7167,-1.93971 L 46.7667,-1.91229 L 46.8167,-1.88445 L 46.8667,-1.85617 L 46.9167,-1.82753
 L 46.9667,-1.79852 L 47.0167,-1.7692 L 47.0667,-1.73958 L 47.1167,-1.70969 L 47.1667,-1.67957 L 47.2167,-1.64925
 L 47.2667,-1.61874 L 47.3167,-1.58809 L 47.3667,-1.55734 L 47.4667,-1.49561 L 47.5667,-1.43378 L 47.6167,-1.40292
 L 47.6667,-1.37213 L 47.7167,-1.34145 L 47.7667,-1.3109 L 47.8167,-1.2805 L 47.8667,-1.25031 L 47.9167,-1.22034
 L 47.9667,-1.19063 L 48.0167,-1.16119 L 48.0667,-1.13208 L 48.1167,-1.10332 L 48.1667,-1.07492 L 48.2167,-1.04692
 L 48.2667,-1.01936 L 48.3167,-0.992249 L 48.3667,-0.965637 L 48.4167,-0.939514 L 48.4667,-0.91394 L 48.5167,-0.888931
 L 48.5667,-0.864517 L 48.6167,-0.840698 L 48.6667,-0.817535 L 48.7167,-0.795013 L 48.7667,-0.773193 L 48.8167,-0.75206
 L 48.8667,-0.731659 L 48.9167,-0.712006 L 48.9667,-0.69313 L 49.0167,-0.675034 L 49.0667,-0.657745 L 49.1167,-0.641266
 L 49.1667,-0.625641 L 49.2167,-0.610855 L 49.2667,-0.596954 L 49.3167,-0.583923 L 49.3667,-0.571793 L 49.4167,-0.560577
 L 49.4667,-0.550278 L 49.5167,-0.540924 L 49.5667,-0.532501 L 49.6167,-0.525024 L 49.6667,-0.518509 L 49.7167,-0.51297
 L 49.7667,-0.508392 L 49.8167,-0.504791 L 49.8667,-0.502167 L 49.9167,-0.500534 L 49.9667,-0.499878 L 50.0167,-0.500214
 L 50.0667,-0.501541 L 50.1167,-0.503845 L 50.1667,-0.507141 L 50.2167,-0.511414 L 50.2667,-0.516663 L 50.3167,-0.522888
 L 50.3667,-0.530075 L 50.4167,-0.538239 L 50.4667,-0.547333 L 50.5167,-0.557388 L 50.5667,-0.568375 L 50.6167,-0.580292
 L 50.6667,-0.593109 L 50.7167,-0.606842 L 50.7667,-0.62146 L 50.8167,-0.636948 L 50.8667,-0.65329 L 50.9167,-0.670486
 L 50.9667,-0.688507 L 51.0167,-0.707336 L 51.0667,-0.726959 L 51.1167,-0.74736 L 51.1667,-0.768509 L 51.2167,-0.790405
 L 51.2667,-0.812988 L 51.3167,-0.836288 L 51.3667,-0.860245 L 51.4167,-0.884842 L 51.4667,-0.910065 L 51.5167,-0.935883
 L 51.5667,-0.962265 L 51.6167,-0.989197 L 51.6667,-1.01666 L 51.7167,-1.0446 L 51.7667,-1.07303 L 51.8167,-1.10188
 L 51.8667,-1.13115 L 51.9167,-1.1608 L 51.9667,-1.1908 L 52.0167,-1.22112 L 52.0667,-1.25174 L 52.1167,-1.28262
 L 52.1667,-1.31375 L 52.2167,-1.34508 L 52.2667,-1.37657 L 52.3167,-1.40822 L 52.3667,-1.43999 L 52.4167,-1.47182
 L 52.5667,-1.56754 L 52.6167,-1.5994 L 52.6667,-1.6312 L 52.7167,-1.66287 L 52.7667,-1.69443 L 52.8167,-1.72581
 L 52.8667,-1.757 L 52.9167,-1.78798 L 52.9667,-1.8187 L 53.0167,-1.84912 L 53.0667,-1.87923 L 53.1167,-1.909
 L 53.1667,-1.9384 L 53.2167,-1.96739 L 53.2667,-1.99596 L 53.3167,-2.02406 L 53.3667,-2.05168 L 53.4167,-2.0788
 L 53.4667,-2.10538 L 53.5167,-2.13138 L 53.5667,-2.1568 L 53.6167,-2.18161 L 53.6667,-2.2058 L 53.7167,-2.22931
 L 53.7667,-2.25214 L 53.8167,-2.27426 L 53.8667,-2.29565 L 53.9167,-2.3163 L 53.9667,-2.33618 L 54.0167,-2.35529
 L 54.0667,-2.37358 L 54.1167,-2.39105 L 54.1667,-2.40768 L 54.2167,-2.42346 L 54.2667,-2.43837 L 54.3167,-2.45239
 L 54.3667,-2.46552 L 54.4167,-2.47774 L 54.4667,-2.48903 L 54.5167,-2.4994 L 54.5667,-2.50882 L 54.6167,-2.51729
 L 54.6667,-2.52481 L 54.7167,-2.53136 L 54.7667,-2.53693 L 54.8167,-2.54153 L 54.8667,-2.54515 L 54.9167,-2.54779
 L 54.9667,-2.54944 L 55.0167,-2.55011 L 55.0667,-2.54979 L 55.1167,-2.54848 L 55.1667,-2.54619 L 55.2167,-2.54291
 L 55.2667,-2.53865 L 55.3167,-2.53343 L 55.3667,-2.52724 L 55.4167,-2.52008 L 55.4667,-2.51198 L 55.5167,-2.50293
 L 55.5667,-2.49294 L 55.6167,-2.48203 L 55.6667,-2.4702 L 55.7167,-2.45747 L 55.7667,-2.44386 L 55.8167,-2.42937
 L 55.8667,-2.41402 L 55.9167,-2.39783 L 55.9667,-2.38081 L 56.0167,-2.36298 L 56.0667,-2.34435 L 56.1167,-2.32495
 L 56.1667,-2.30481 L 56.2167,-2.28392 L 56.2667,-2.26233 L 56.3167,-2.24004 L 56.3667,-2.21709 L 56.4167,-2.19348
 L 56.4667,-2.16927 L 56.5167,-2.14444 L 56.5667,-2.11905 L 56.6167,-2.09311 L 56.6667,-2.06667 L 56.7167,-2.0397
 L 56.7667,-2.0123 L 56.8167,-1.98444 L 56.8667,-1.95618 L 56.9167,-1.92752 L 56.9667,-1.89853 L 57.0167,-1.8692
 L 57.0667,-1.83958 L 57.1167,-1.80969 L 57.1667,-1.77957 L 57.2167,-1.74924 L 57.2667,-1.71873 L 57.3167,-1.6881
 L 57.3667,-1.65733 L 57.4167,-1.6265 L 57.6167,-1.50291 L 57.6667,-1.47214 L 57.7167,-1.44144 L 57.7667,-1.41089
 L 57.8167,-1.38051 L 57.8667,-1.35031 L 57.9167,-1.32034 L 57.9667,-1.29063 L 58.0167,-1.2612 L 58.0667,-1.23209
 L 58.1167,-1.20332 L 58.1667,-1.17493 L 58.2167,-1.14693 L 58.2667,-1.11937 L 58.3167,-1.09225 L 58.3667,-1.06563
 L 58.4167,-1.03952 L 58.4667,-1.01395 L 58.5167,-0.988937 L 58.5667,-0.964508 L 58.6167,-0.940704 L 58.6667,-0.917526
 L 58.7167,-0.89502 L 58.7667,-0.873184 L 58.8167,-0.852066 L 58.8667,-0.831665 L 58.9167,-0.812012 L 58.9667,-0.793137
 L 59.0167,-0.775024 L 59.0667,-0.757736 L 59.1167,-0.741272 L 59.1667,-0.725632 L 59.2167,-0.710861 L 59.2667,-0.696945
 L 59.3167,-0.683929 L 59.3667,-0.671799 L 59.4167,-0.660583 L 59.4667,-0.650284 L 59.5167,-0.640915 L 59.5667,-0.632492
 L 59.6167,-0.625031 L 59.6667,-0.618515 L 59.7167,-0.612961 L 59.7667,-0.608383 L 59.8167,-0.604782 L 59.8667,-0.602173
 L 59.9167,-0.600525 L 59.9667,-0.599884 L 60.0167,-0.60022 L 60.0667,-0.601532 L 60.1167,-0.603851 L 60.1667,-0.607132
 L 60.2167,-0.611404 L 60.2667,-0.616669 L 60.3167,-0.622894 L 60.3667,-0.630081 L 60.4167,-0.638229 L 60.4667,-0.647339
 L 60.5167,-0.657394 L 60.5667,-0.668381 L 60.6167,-0.680283 L 60.6667,-0.693115 L 60.7167,-0.706833 L 60.7667,-0.721451
 L 60.8167,-0.736938 L 60.8667,-0.753296 L 60.9167,-0.770493 L 60.9667,-0.788513 L 61.0167,-0.807343 L 61.0667,-0.826965
 L 61.1167,-0.847366 L 61.1667,-0.868515 L 61.2167,-0.890396 L 61.2667,-0.912994 L 61.3167,-0.936279 L 61.3667,-0.960236
 L 61.4167,-0.984833 L 61.4667,-1.01006 L 61.5167,-1.03587 L 61.5667,-1.06227 L 61.6167,-1.0892 L 61.6667,-1.11665
 L 61.7167,-1.14461 L 61.7667,-1.17302 L 61.8167,-1.20187 L 61.8667,-1.23114 L 61.9167,-1.26079 L 61.9667,-1.29079
 L 62.0167,-1.32112 L 62.0667,-1.35175 L 62.1167,-1.38263 L 62.1667,-1.41374 L 62.2167,-1.44507 L 62.2667,-1.47658
 L 62.3167,-1.50822 L 62.3667,-1.53998 L 62.4667,-1.60371 L 62.5667,-1.66754 L 62.6167,-1.6994 L 62.6667,-1.73119
 L 62.7167,-1.76288 L 62.7667,-1.79443 L 62.8167,-1.82582 L 62.8667,-1.85701 L 62.9167,-1.88799 L 62.9667,-1.91869
 L 63.0167,-1.94911 L 63.0667,-1.97923 L 63.1167,-2.009 L 63.1667,-2.03839 L 63.2167,-2.06738 L 63.2667,-2.09596
 L 63.3167,-2.12407 L 63.3667,-2.15169 L 63.4167,-2.1788 L 63.4667,-2.20537 L 63.5167,-2.23138 L 63.5667,-2.25681
 L 63.6167,-2.28162 L 63.6667,-2.30579 L 63.7167,-2.3293 L 63.7667,-2.35213 L 63.8167,-2.37425 L 63.8667,-2.39566
 L 63.9167,-2.41631 L 63.9667,-2.43619 L 64.0167,-2.45529 L 64.0667,-2.47359 L 64.1167,-2.49106 L 64.1667,-2.50769
 L 64.2167,-2.52347 L 64.2667,-2.53838 L 64.3167,-2.5524 L 64.3667,-2.56552 L 64.4167,-2.57774 L 64.4667,-2.58904
 L 64.5167,-2.5994 L 64.5667,-2.60883 L 64.6167,-2.61729 L 64.6667,-2.6248 L 64.7167,-2.63135 L 64.7667,-2.63693
 L 64.8167,-2.64153 L 64.8667,-2.64516 L 64.9167,-2.64778 L 64.9667,-2.64944 L 65.0167,-2.6501 L 65.0667,-2.64978
 L 65.1167,-2.64847 L 65.1667,-2.64618 L 65.2167,-2.64291 L 65.2667,-2.63866 L 65.3167,-2.63342 L 65.3667,-2.62724
 L 65.4167,-2.62009 L 65.4667,-2.61198 L 65.5167,-2.60292 L 65.5667,-2.59294 L 65.6167,-2.58203 L 65.6667,-2.57021
 L 65.7167,-2.55748 L 65.7667,-2.54387 L 65.8167,-2.52937 L 65.8667,-2.51402 L 65.9167,-2.49783 L 65.9667,-2.4808
 L 66.0167,-2.46298 L 66.0667,-2.44435 L 66.1167,-2.42496 L 66.1667,-2.4048 L 66.2167,-2.38393 L 66.2667,-2.36232
 L 66.3167,-2.34004 L 66.3667,-2.31708 L 66.4167,-2.29347 L 66.4667,-2.26926 L 66.5167,-2.24445 L 66.5667,-2.21906
 L 66.6167,-2.19312 L 66.6667,-2.16666 L 66.7167,-2.13971 L 66.7667,-2.11229 L 66.8167,-2.08444 L 66.8667,-2.05617
 L 66.9167,-2.02753 L 66.9667,-1.99852 L 67.0167,-1.96919 L 67.0667,-1.93958 L 67.1167,-1.9097 L 67.1667,-1.87958
 L 67.2167,-1.84924 L 67.2667,-1.81874 L 67.3167,-1.7881 L 67.3667,-1.75734 L 67.4167,-1.7265 L 67.6167,-1.60292
 L 67.6667,-1.57213 L 67.7167,-1.54144 L 67.7667,-1.51089 L 67.8167,-1.4805 L 67.8667,-1.4503 L 67.9167,-1.42033
 L 67.9667,-1.39062 L 68.0167,-1.36121 L 68.0667,-1.33209 L 68.1167,-1.30331 L 68.1667,-1.27492 L 68.2167,-1.24693
 L 68.2667,-1.21936 L 68.3167,-1.19226 L 68.3667,-1.16563 L 68.4167,-1.13953 L 68.4667,-1.11395 L 68.5167,-1.08893
 L 68.5667,-1.06451 L 68.6167,-1.0407 L 68.6667,-1.01753 L 68.7167,-0.99501 L 68.7667,-0.97319 L 68.8167,-0.952057
 L 68.8667,-0.931671 L 68.9167,-0.912018 L 68.9667,-0.893127 L 69.0167,-0.875031 L 69.0667,-0.857742 L 69.1167,-0.841263
 L 69.1667,-0.825638 L 69.2167,-0.810852 L 69.2667,-0.796951 L 69.3167,-0.78392 L 69.3667,-0.77179 L 69.4167,-0.760574
 L 69.4667,-0.75029 L 69.5167,-0.740921 L 69.5667,-0.732498 L 69.6167,-0.725021 L 69.6667,-0.718506 L 69.7167,-0.712967
 L 69.7667,-0.708389 L 69.8167,-0.704788 L 69.8667,-0.702164 L 69.9167,-0.700531 L 69.9667,-0.699875 L 70.0167,-0.700211
 L 70.0667,-0.701538 L 70.1167,-0.703842 L 70.1667,-0.707138 L 70.2167,-0.711411 L 70.2667,-0.71666 L 70.3167,-0.722885
 L 70.3667,-0.730087 L 70.4167,-0.738235 L 70.4667,-0.747345 L 70.5167,-0.757385 L 70.5667,-0.768372 L 70.6167,-0.780289
 L 70.6667,-0.793106 L 70.7167,-0.806839 L 70.7667,-0.821457 L 70.8167,-0.836945 L 70.8667,-0.853302 L 70.9167,-0.870483
 L 70.9667,-0.888504 L 71.0167,-0.907349 L 71.0667,-0.926971 L 71.1167,-0.947357 L 71.1667,-0.968521 L 71.2167,-0.990402
 L 71.2667,-1.013 L 71.3167,-1.03629 L 71.3667,-1.06024 L 71.4167,-1.08484 L 71.4667,-1.11006 L 71.5167,-1.13588
 L 71.5667,-1.16226 L 71.6167,-1.18921 L 71.6667,-1.21666 L 71.7167,-1.24461 L 71.7667,-1.27303 L 71.8167,-1.30188
 L 71.8667,-1.33115 L 71.9167,-1.36079 L 71.9667,-1.39079 L 72.0167,-1.42111 L 72.0667,-1.45174 L 72.1167,-1.48262
 L 72.1667,-1.51375 L 72.2167,-1.54507 L 72.2667,-1.57657 L 72.3167,-1.60822 L 72.3667,-1.63998 L 72.4667,-1.70372
 L 72.6167,-1.79939 L 72.6667,-1.83119 L 72.7167,-1.86287 L 72.7667,-1.89442 L 72.8167,-1.92581 L 72.8667,-1.95702
 L 72.9167,-1.98798 L 72.9667,-2.01869 L 73.0167,-2.04912 L 73.0667,-2.07922 L 73.1167,-2.10899 L 73.1667,-2.1384
 L 73.2167,-2.16739 L 73.2667,-2.19595 L 73.3167,-2.22406 L 73.3667,-2.25168 L 73.4167,-2.27879 L 73.4667,-2.30537
 L 73.5167,-2.33139 L 73.5667,-2.35681 L 73.6167,-2.38162 L 73.6667,-2.40579 L 73.7167,-2.42931 L 73.7667,-2.45213
 L 73.8167,-2.47426 L 73.8667,-2.49565 L 73.9167,-2.51631 L 73.9667,-2.53619 L 74.0167,-2.55528 L 74.0667,-2.57358
 L 74.1167,-2.59105 L 74.1667,-2.60768 L 74.2167,-2.62346 L 74.2667,-2.63837 L 74.3167,-2.65239 L 74.3667,-2.66553
 L 74.4167,-2.67773 L 74.4667,-2.68904 L 74.5167,-2.6994 L 74.5667,-2.70882 L 74.6167,-2.7173 L 74.6667,-2.72481
 L 74.7167,-2.73135 L 74.7667,-2.73694 L 74.8167,-2.74153 L 74.8667,-2.74515 L 74.9167,-2.74779 L 74.9667,-2.74944
 L 75.0167,-2.75011 L 75.0667,-2.74979 L 75.1167,-2.74847 L 75.1667,-2.74619 L 75.2167,-2.7429 L 75.2667,-2.73865
 L 75.3167,-2.73343 L 75.3667,-2.72723 L 75.4167,-2.72008 L 75.4667,-2.71198 L 75.5167,-2.70293 L 75.5667,-2.69295
 L 75.6167,-2.68202 L 75.6667,-2.67021 L 75.7167,-2.65747 L 75.7667,-2.64386 L 75.8167,-2.62938 L 75.8667,-2.61403
 L 75.9167,-2.59782 L 75.9667,-2.58081 L 76.0167,-2.56297 L 76.0667,-2.54436 L 76.1167,-2.52495 L 76.1667,-2.50481
 L 76.2167,-2.48392 L 76.2667,-2.46233 L 76.3167,-2.44003 L 76.3667,-2.41708 L 76.4167,-2.39348 L 76.4667,-2.36926
 L 76.5167,-2.34444 L 76.5667,-2.31905 L 76.6167,-2.29312 L 76.6667,-2.26666 L 76.7167,-2.23972 L 76.7667,-2.2123
 L 76.8167,-2.18443 L 76.8667,-2.15617 L 76.9167,-2.12753 L 76.9667,-2.09853 L 77.0167,-2.0692 L 77.0667,-2.03958
 L 77.1167,-2.00969 L 77.1667,-1.97957 L 77.2167,-1.94925 L 77.2667,-1.91875 L 77.3167,-1.88809 L 77.3667,-1.85733
 L 77.4667,-1.79561 L 77.5667,-1.73378 L 77.6167,-1.70293 L 77.6667,-1.67213 L 77.7167,-1.64145 L 77.7667,-1.61089
 L 77.8167,-1.58051 L 77.8667,-1.55031 L 77.9167,-1.52034 L 77.9667,-1.49063 L 78.0167,-1.4612 L 78.0667,-1.43208
 L 78.1167,-1.40332 L 78.1667,-1.37492 L 78.2167,-1.34692 L 78.2667,-1.31937 L 78.3167,-1.29225 L 78.3667,-1.26562
 L 78.4167,-1.23952 L 78.4667,-1.21394 L 78.5167,-1.18893 L 78.5667,-1.16451 L 78.6167,-1.1407 L 78.6667,-1.11752
 L 78.7167,-1.09502 L 78.7667,-1.07318 L 78.8167,-1.05206 L 78.8667,-1.03166 L 78.9167,-1.01201 L 78.9667,-0.993134
 L 79.0167,-0.975037 L 79.0667,-0.957733 L 79.1167,-0.941269 L 79.1667,-0.925629 L 79.2167,-0.910858 L 79.2667,-0.896942
 L 79.3167,-0.883926 L 79.3667,-0.871796 L 79.4167,-0.86058 L 79.4667,-0.850281 L 79.5167,-0.840912 L 79.5667,-0.832489
 L 79.6167,-0.825027 L 79.6667,-0.818512 L 79.7167,-0.812958 L 79.7667,-0.80838 L 79.8167,-0.804779 L 79.8667,-0.80217
 L 79.9167,-0.800537 L 79.9667,-0.799881 L 80.0167,-0.800217 L 80.0667,-0.801529 L 80.1167,-0.803848 L 80.1667,-0.807144
 L 80.2167,-0.811417 L 80.2667,-0.816666 L 80.3167,-0.822891 L 80.3667,-0.830078 L 80.4167,-0.838226 L 80.4667,-0.847336
 L 80.5167,-0.857391 L 80.5667,-0.868378 L 80.6167,-0.880295 L 80.6667,-0.893112 L 80.7167,-0.906845 L 80.7667,-0.921463
 L 80.8167,-0.936951 L 80.8667,-0.953293 L 80.9167,-0.97049 L 80.9667,-0.98851 L 81.0167,-1.00734 L 81.0667,-1.02696
 L 81.1167,-1.04736 L 81.1667,-1.06851 L 81.2167,-1.09039 L 81.2667,-1.11299 L 81.3167,-1.13628 L 81.3667,-1.16023
 L 81.4167,-1.18484 L 81.4667,-1.21005 L 81.5167,-1.23587 L 81.5667,-1.26227 L 81.6167,-1.2892 L 81.6667,-1.31667
 L 81.7167,-1.3446 L 81.7667,-1.37302 L 81.8167,-1.40187 L 81.8667,-1.43114 L 81.9167,-1.46078 L 81.9667,-1.4908
 L 82.0167,-1.52112 L 82.0667,-1.55174 L 82.1167,-1.58263 L 82.1667,-1.61375 L 82.2167,-1.64508 L 82.2667,-1.67657
 L 82.3167,-1.70822 L 82.3667,-1.73997 L 82.4667,-1.80371 L 82.5667,-1.86754 L 82.6167,-1.8994 L 82.6667,-1.93118
 L 82.7167,-1.96288 L 82.7667,-1.99443 L 82.8167,-2.02582 L 82.8667,-2.05701 L 82.9167,-2.08798 L 82.9667,-2.1187
 L 83.0167,-2.14912 L 83.0667,-2.17923 L 83.1167,-2.209 L 83.1667,-2.23839 L 83.2167,-2.2674 L 83.2667,-2.29596
 L 83.3167,-2.32407 L 83.3667,-2.35168 L 83.4167,-2.3788 L 83.4667,-2.40536 L 83.5167,-2.43138 L 83.5667,-2.4568
 L 83.6167,-2.48161 L 83.6667,-2.50578 L 83.7167,-2.5293 L 83.7667,-2.55214 L 83.8167,-2.57425 L 83.8667,-2.59566
 L 83.9167,-2.6163 L 83.9667,-2.63618 L 84.0167,-2.65529 L 84.0667,-2.67358 L 84.1167,-2.69106 L 84.1667,-2.70769
 L 84.2167,-2.72346 L 84.2667,-2.73837 L 84.3167,-2.7524 L 84.3667,-2.76552 L 84.4167,-2.77774 L 84.4667,-2.78903
 L 84.5167,-2.79939 L 84.5667,-2.80882 L 84.6167,-2.81729 L 84.6667,-2.82481 L 84.7167,-2.83136 L 84.7667,-2.83693
 L 84.8167,-2.84154 L 84.8667,-2.84515 L 84.9167,-2.84779 L 84.9667,-2.84944 L 85.0167,-2.8501 L 85.0667,-2.84978
 L 85.1167,-2.84848 L 85.1667,-2.84618 L 85.2167,-2.84291 L 85.2667,-2.83865 L 85.3167,-2.83344 L 85.3667,-2.82724
 L 85.4167,-2.82008 L 85.4667,-2.81198 L 85.5167,-2.80293 L 85.5667,-2.79294 L 85.6167,-2.78203 L 85.6667,-2.7702
 L 85.7167,-2.75748 L 85.7667,-2.74387 L 85.8167,-2.72937 L 85.8667,-2.71402 L 85.9167,-2.69783 L 85.9667,-2.6808
 L 86.0167,-2.66298 L 86.0667,-2.64435 L 86.1167,-2.62495 L 86.1667,-2.6048 L 86.2167,-2.58392 L 86.2667,-2.56232
 L 86.3167,-2.54004 L 86.3667,-2.51707 L 86.4167,-2.49348 L 86.4667,-2.46925 L 86.5167,-2.44444 L 86.5667,-2.41905
 L 86.6167,-2.39311 L 86.6667,-2.36665 L 86.7167,-2.33971 L 86.7667,-2.3123 L 86.8167,-2.28444 L 86.8667,-2.25618
 L 86.9167,-2.22752 L 86.9667,-2.19853 L 87.0167,-2.1692 L 87.0667,-2.13957 L 87.1167,-2.1097 L 87.1667,-2.07957
 L 87.2167,-2.04924 L 87.2667,-2.01874 L 87.3167,-1.9881 L 87.3667,-1.95734 L 87.4167,-1.9265 L 87.6167,-1.80292
 L 87.6667,-1.77213 L 87.7167,-1.74144 L 87.7667,-1.71089 L 87.8167,-1.6805 L 87.8667,-1.65031 L 87.9167,-1.62035
 L 87.9667,-1.59062 L 88.0167,-1.5612 L 88.0667,-1.53209 L 88.1167,-1.50331 L 88.1667,-1.47493 L 88.2167,-1.44693
 L 88.2667,-1.41936 L 88.3167,-1.39226 L 88.3667,-1.36563 L 88.4167,-1.33952 L 88.4667,-1.31395 L 88.5167,-1.28894
 L 88.5667,-1.26451 L 88.6167,-1.24071 L 88.6667,-1.21753 L 88.7167,-1.19502 L 88.7667,-1.17319 L 88.8167,-1.15207
 L 88.8667,-1.13167 L 88.9167,-1.11201 L 88.9667,-1.09312 L 89.0167,-1.07503 L 89.0667,-1.05774 L 89.1167,-1.04126
 L 89.1667,-1.02563 L 89.2167,-1.01085 L 89.2667,-0.996948 L 89.3167,-0.983917 L 89.3667,-0.971802 L 89.4167,-0.960571
 L 89.4667,-0.950287 L 89.5167,-0.940918 L 89.5667,-0.932495 L 89.6167,-0.925018 L 89.6667,-0.918518 L 89.7167,-0.912964
 L 89.7667,-0.908386 L 89.8167,-0.904785 L 89.8667,-0.902161 L 89.9167,-0.900528 L 89.9667,-0.899872 L 90.0167,-0.900208
 L 90.0667,-0.901535 L 90.1167,-0.903839 L 90.1667,-0.907135 L 90.2167,-0.911407 L 90.2667,-0.916656 L 90.3167,-0.922882
 L 90.3667,-0.930084 L 90.4167,-0.938232 L 90.4667,-0.947342 L 90.5167,-0.957397 L 90.5667,-0.968384 L 90.6167,-0.980286
 L 90.6667,-0.993118 L 90.7167,-1.00684 L 90.7667,-1.02145 L 90.8167,-1.03694 L 90.8667,-1.0533 L 90.9167,-1.0705
 L 90.9667,-1.08852 L 91.0167,-1.10735 L 91.0667,-1.12697 L 91.1167,-1.14737 L 91.1667,-1.16852 L 91.2167,-1.1904
 L 91.2667,-1.213 L 91.3167,-1.23628 L 91.3667,-1.26024 L 91.4167,-1.28484 L 91.4667,-1.31006 L 91.5167,-1.33588
 L 91.5667,-1.36227 L 91.6167,-1.38921 L 91.6667,-1.41666 L 91.7167,-1.44461 L 91.7667,-1.47302 L 91.8167,-1.50188
 L 91.8667,-1.53114 L 91.9167,-1.56079 L 91.9667,-1.59079 L 92.0167,-1.62112 L 92.0667,-1.65173 L 92.1167,-1.68263
 L 92.1667,-1.71375 L 92.2167,-1.74507 L 92.2667,-1.77658 L 92.3167,-1.80823 L 92.3667,-1.83998 L 92.4667,-1.90372
 L 92.6167,-1.99939 L 92.6667,-2.03119 L 92.7167,-2.06288 L 92.7667,-2.09442 L 92.8167,-2.12582 L 92.8667,-2.15701
 L 92.9167,-2.18797 L 92.9667,-2.21869 L 93.0167,-2.24911 L 93.0667,-2.27924 L 93.1167,-2.30901 L 93.1667,-2.33839
 L 93.2167,-2.36739 L 93.2667,-2.39595 L 93.3167,-2.42406 L 93.3667,-2.45169 L 93.4167,-2.47881 L 93.4667,-2.50537
 L 93.5167,-2.53139 L 93.5667,-2.55681 L 93.6167,-2.58162 L 93.6667,-2.60579 L 93.7167,-2.6293 L 93.7667,-2.65213
 L 93.8167,-2.67426 L 93.8667,-2.69565 L 93.9167,-2.71631 L 93.9667,-2.73619 L 94.0167,-2.75528 L 94.0667,-2.77357
 L 94.1167,-2.79105 L 94.1667,-2.80768 L 94.2167,-2.82346 L 94.2667,-2.83836 L 94.3167,-2.8524 L 94.3667,-2.86552
 L 94.4167,-2.87775 L 94.4667,-2.88904 L 94.5167,-2.8994 L 94.5667,-2.90883 L 94.6167,-2.9173 L 94.6667,-2.9248
 L 94.7167,-2.93135 L 94.7667,-2.93694 L 94.8167,-2.94153 L 94.8667,-2.94514 L 94.9167,-2.94778 L 94.9667,-2.94943
 L 95.0167,-2.9501 L 95.0667,-2.94978 L 95.1167,-2.94847 L 95.1667,-2.94618 L 95.2167,-2.9429 L 95.2667,-2.93866
 L 95.3167,-2.93343 L 95.3667,-2.92723 L 95.4167,-2.92009 L 95.4667,-2.91197 L 95.5167,-2.90292 L 95.5667,-2.89294
 L 95.6167,-2.88203 L 95.6667,-2.87021 L 95.7167,-2.85748 L 95.7667,-2.84386 L 95.8167,-2.82938 L 95.8667,-2.81403
 L 95.9167,-2.79784 L 95.9667,-2.78081 L 96.0167,-2.76297 L 96.0667,-2.74435 L 96.1167,-2.72496 L 96.1667,-2.7048
 L 96.2167,-2.68391 L 96.2667,-2.66232 L 96.3167,-2.64003 L 96.3667,-2.61708 L 96.4167,-2.59348 L 96.4667,-2.56926
 L 96.5167,-2.54443 L 96.5667,-2.51904 L 96.6167,-2.49312 L 96.6667,-2.46666 L 96.7167,-2.43971 L 96.7667,-2.41229
 L 96.8167,-2.38445 L 96.8667,-2.35617 L 96.9167,-2.32753 L 96.9667,-2.29852 L 97.0167,-2.2692 L 97.0667,-2.23958
 L 97.1167,-2.20969 L 97.1667,-2.17957 L 97.2167,-2.14925 L 97.2667,-2.11874 L 97.3167,-2.08809 L 97.3667,-2.05734
 L 97.4667,-1.99561 L 97.5667,-1.93378 L 97.6167,-1.90292 L 97.6667,-1.87213 L 97.7167,-1.84145 L 97.7667,-1.8109
 L 97.8167,-1.7805 L 97.8667,-1.75031 L 97.9167,-1.72034 L 97.9667,-1.69063 L 98.0167,-1.66119 L 98.0667,-1.63208
 L 98.1167,-1.60332 L 98.1667,-1.57492 L 98.2167,-1.54692 L 98.2667,-1.51936 L 98.3167,-1.49225 L 98.3667,-1.46564
 L 98.4167,-1.43951 L 98.4667,-1.41394 L 98.5167,-1.38893 L 98.5667,-1.36452 L 98.6167,-1.3407 L 98.6667,-1.31754
 L 98.7167,-1.29501 L 98.7667,-1.27319 L 98.8167,-1.25206 L 98.8667,-1.23166 L 98.9167,-1.21201 L 98.9667,-1.19313
 L 99.0167,-1.17503 L 99.0667,-1.15775 L 99.1167,-1.14127 L 99.1667,-1.12564 L 99.2167,-1.11086 L 99.2667,-1.09695
 L 99.3167,-1.08392 L 99.3667,-1.07179 L 99.4167,-1.06058 L 99.4667,-1.05028 L 99.5167,-1.04092 L 99.5667,-1.0325
 L 99.6167,-1.02502 L 99.6667,-1.01851 L 99.7167,-1.01297 L 99.7667,-1.00839 L 99.8167,-1.00479 L 99.8667,-1.00217
 L 99.9167,-1.00053 L 99.9667,-0.999878 L 100.017,-1.00021 L 100.067,-1.00154 L 100.117,-1.00385 L 100.167,-1.00714
 L 100.217,-1.01141 L 100.267,-1.01666 L 100.317,-1.02289 L 100.367,-1.03008 L 100.417,-1.03824 L 100.467,-1.04733
 L 100.517,-1.05739 L 100.567,-1.06837 L 100.617,-1.08029 L 100.667,-1.09311 L 100.717,-1.10684 L 100.767,-1.12146
 L 100.817,-1.13695 L 100.867,-1.15329 L 100.917,-1.17049 L 100.967,-1.18851 L 101.017,-1.20734 L 101.067,-1.22696
 L 101.117,-1.24736 L 101.167,-1.26851 L 101.217,-1.29041 L 101.267,-1.31299 L 101.317,-1.33629 L 101.367,-1.36024
 L 101.417,-1.38484 L 101.467,-1.41006 L 101.517,-1.43588 L 101.567,-1.46227 L 101.617,-1.4892 L 101.667,-1.51666
 L 101.717,-1.5446 L 101.767,-1.57303 L 101.817,-1.60188 L 101.867,-1.63115 L 101.917,-1.6608 L 101.967,-1.6908
 L 102.017,-1.72112 L 102.067,-1.75174 L 102.117,-1.78262 L 102.167,-1.81375 L 102.217,-1.84508 L 102.267,-1.87657
 L 102.317,-1.90822 L 102.367,-1.93999 L 102.417,-1.97182 L 102.567,-2.06754 L 102.617,-2.0994 L 102.667,-2.1312
 L 102.717,-2.16287 L 102.767,-2.19443 L 102.817,-2.22581 L 102.867,-2.257 L 102.917,-2.28798 L 102.967,-2.3187
 L 103.017,-2.34912 L 103.067,-2.37923 L 103.117,-2.409 L 103.167,-2.4384 L 103.217,-2.46739 L 103.267,-2.49596
 L 103.317,-2.52406 L 120,-5 L -20,-5 L -3.33333,-1.46666 L -3.28333,-1.43971 L -3.23332,-1.41229
 L -3.18332,-1.38445 L -3.13333,-1.35617 L -3.08333,-1.32753 L -3.03333,-1.29852 L -2.98332,-1.2692 L -2.93332,-1.23958
 L -2.88333,-1.20969 L -2.83333,-1.17957 L -2.78333,-1.14925 L -2.73332,-1.11874 L -2.68332,-1.08809 L -2.63333,-1.05734
 L -2.53333,-0.995605 L -2.43332,-0.933777 L -2.38333,-0.902924 L -2.33333,-0.872131 L -2.28333,-0.841446 L -2.23332,-0.810898
 L -2.18332,-0.780502 L -2.13333,-0.750305 L -2.08333,-0.720337 L -2.03333,-0.690628 L -1.98332,-0.661194 L -1.93332,-0.63208
 L -1.88333,-0.603317 L -1.83333,-0.574921 L -1.78333,-0.546921 L -1.73332,-0.519363 L -1.68332,-0.492249 L -1.63333,-0.465637
 L -1.58333,-0.439514 L -1.53333,-0.41394 L -1.48332,-0.388931 L -1.43332,-0.364517 L -1.38333,-0.340698 L -1.33333,-0.317535
 L -1.28333,-0.295013 L -1.23332,-0.273193 L -1.18332,-0.25206 L -1.13333,-0.231659 L -1.08333,-0.212006 L -1.03333,-0.19313
 L -0.983322,-0.175034 L -0.933319,-0.157745 L -0.883331,-0.141266 L -0.833328,-0.125641 L -0.783325,-0.110855 L -0.733322,-0.0969543
 L -0.683319,-0.0839233 L -0.633331,-0.0717926 L -0.583328,-0.0605774 L -0.533325,-0.0502777 L -0.483322,-0.0409241 L -0.433319,-0.0325012
 L -0.383331,-0.0250244 L -0.333328,-0.0185089 L -0.283325,-0.01297 L -0.233322,-0.00839233 L -0.183319,-0.00479126 L -0.133331,-0.00216675
 L -0.0833282,-0.000534058 L -0.0416565,-0 L -20,-0 L -20,1 L 120,1 z
M 67.9204,4.86389 L 67.9864,4.81989 L 68.0302,4.75374 L 68.0461,4.67139 L 68.0461,2.42839 L 68.0302,2.34602
 L 67.9864,2.27988 L 67.9204,2.23587 L 67.8381,2.21988 L 67.7558,2.23587 L 67.6896,2.27988 L 67.6456,2.34602
 L 67.6296,2.42839 L 67.6296,4.67139 L 67.6456,4.75374 L 67.6896,4.81989 L 67.7558,4.86389 L 67.8381,4.87988
 z
M 0.341522,5.82571 L 0.765045,5.74677 L 1.15997,5.61438 L 1.5106,5.42789 L 1.67677,5.30434 L 1.82999,5.16246
 L 1.96764,5.00229 L 2.08711,4.8239 L 2.17935,4.64078 L 2.24675,4.4472 L 2.28807,4.24585 L 2.30212,4.0394
 L 2.30212,3.99739 L 2.28183,3.78174 L 2.23212,3.57382 L 2.15503,3.37633 L 2.05261,3.19189 L 1.92799,3.02399
 L 1.78581,2.87427 L 1.62927,2.74274 L 1.46162,2.62939 L 1.11249,2.45996 L 0.74762,2.35095 L 0.374863,2.29266
 L 0.00210571,2.27539 L -0.400436,2.29419 L -0.80043,2.35796 L -1.19002,2.47768 L -1.56137,2.6644 L -1.73416,2.78391
 L -1.89519,2.92371 L -2.04054,3.0831 L -2.16637,3.2614 L -2.26353,3.45096 L -2.33543,3.65295 L -2.38005,3.86404
 L -2.39537,4.08089 L -2.39537,4.12239 L -2.37753,4.31798 L -2.33105,4.52533 L -2.25073,4.73784 L -2.13136,4.9489
 L -2.00168,5.12085 L -1.85362,5.27264 L -1.6898,5.40494 L -1.51286,5.51839 L -1.20053,5.66415 L -0.853561,5.76839
 L -0.481735,5.83099 L -0.0948639,5.8519 z
M -0.122864,5.4489 L -0.389648,5.43883 L -0.688431,5.39946 L -1.00156,5.31706 L -1.31137,5.17789 L -1.44771,5.08815
 L -1.57368,4.9854 L -1.68663,4.86951 L -1.78387,4.74039 L -1.87302,4.58244 L -1.93417,4.42371 L -1.97069,4.2688
 L -1.98587,4.12239 L -1.98587,4.09489 L -1.9744,3.93793 L -1.94136,3.78233 L -1.88884,3.63188 L -1.81886,3.49039
 L -1.72545,3.35522 L -1.61455,3.23183 L -1.48932,3.12146 L -1.35287,3.02539 L -1.04872,2.87186 L -0.722366,2.77101
 L -0.37764,2.71573 L -0.0183716,2.6989 L 0.260986,2.70927 L 0.574936,2.75089 L 0.903198,2.83937 L 1.22562,2.99039
 L 1.3567,3.08031 L 1.47743,3.18245 L 1.58513,3.29633 L 1.67712,3.42139 L 1.75255,3.55745 L 1.8103,3.70326
 L 1.84846,3.85564 L 1.86511,4.0114 L 1.86511,4.0394 L 1.85484,4.19089 L 1.82498,4.3412 L 1.77693,4.48637
 L 1.71211,4.62239 L 1.62497,4.75359 L 1.52161,4.87508 L 1.40401,4.98485 L 1.27411,5.08089 L 0.992432,5.23015
 L 0.678177,5.33783 L 0.345627,5.40904 L 0.0091095,5.4489 z
M 89.2753,5.05963 L 89.4945,5.00166 L 89.7019,4.90593 L 89.8916,4.7731 L 90.1042,4.55711 L 90.2461,4.33067
 L 90.3254,4.08594 L 90.3501,3.81511 L 90.3478,3.73441 L 90.3416,3.64992 L 90.3328,3.5629 L 90.3226,3.47461
 L 90.296,3.40767 L 90.2505,3.35498 L 90.1908,3.32048 L 90.1211,3.30811 L 90.034,3.32741 L 89.9656,3.37923
 L 89.9247,3.4545 L 89.9196,3.54411 L 89.9248,3.58572 L 89.9292,3.62735 L 89.9324,3.66898 L 89.9336,3.7106
 L 89.9311,3.77847 L 89.924,3.8463 L 89.9129,3.91402 L 89.8986,3.98161 L 89.8575,4.10568 L 89.7953,4.23354
 L 89.7094,4.35869 L 89.5971,4.47461 L 89.4689,4.56583 L 89.3289,4.63098 L 89.181,4.67007 L 89.0291,4.68311
 L 88.9591,4.68311 L 88.7915,4.65201 L 88.6285,4.59105 L 88.4747,4.5015 L 88.3346,4.38461 L 88.2424,4.27826
 L 88.1594,4.14848 L 88.092,3.99789 L 88.0471,3.8291 L 88.042,3.78719 L 88.0375,3.74542 L 88.0343,3.70374
 L 88.0331,3.66211 L 88.0408,3.54283 L 88.0629,3.42604 L 88.0981,3.31441 L 88.1451,3.2106 L 88.2059,3.12144
 L 88.283,3.0336 L 88.3772,2.95102 L 88.4891,2.87761 L 88.5979,2.82143 L 88.7134,2.77766 L 88.8343,2.74564
 L 88.9591,2.72461 L 89.0233,2.7155 L 89.0896,2.70911 L 89.1572,2.70534 L 89.2256,2.7041 L 89.3686,2.70917
 L 89.5129,2.72392 L 89.6574,2.74777 L 89.8006,2.78011 L 90.095,2.87605 L 90.3814,3.00505 L 90.658,3.16394
 L 90.9231,3.34961 L 91.1995,3.58122 L 91.4591,3.83679 L 91.7008,4.1144 L 91.9231,4.41211 L 91.9579,4.45261
 L 91.9991,4.48079 L 92.0454,4.49725 L 92.0956,4.50261 L 92.1263,4.50009 L 92.1566,4.49298 L 92.1855,4.48193
 L 92.2126,4.46761 L 92.2528,4.43275 L 92.2806,4.39136 L 92.2968,4.3447 L 92.3021,4.29411 L 92.2997,4.26302
 L 92.2928,4.23248 L 92.2821,4.20326 L 92.2681,4.1761 L 92.025,3.85226 L 91.7619,3.54929 L 91.4794,3.26985
 L 91.1781,3.0166 L 90.8846,2.81017 L 90.5741,2.63185 L 90.2475,2.48618 L 89.9056,2.37761 L 89.7361,2.34006
 L 89.5645,2.31154 L 89.3916,2.29344 L 89.2181,2.28711 L 89.1394,2.28842 L 89.0606,2.29236 L 88.9817,2.29892
 L 88.9026,2.30811 L 88.7453,2.33551 L 88.5891,2.37735 L 88.4354,2.43495 L 88.2856,2.50961 L 88.1253,2.62169
 L 87.9909,2.74629 L 87.8818,2.87755 L 87.7971,3.00961 L 87.7242,3.1602 L 87.672,3.31854 L 87.6406,3.48204
 L 87.6301,3.6481 L 87.6314,3.70547 L 87.6354,3.76286 L 87.6419,3.82024 L 87.6511,3.87761 L 87.7092,4.09566
 L 87.7979,4.29942 L 87.914,4.48489 L 88.0541,4.6481 L 88.2465,4.81314 L 88.4617,4.94092 L 88.6941,5.02829
 L 88.9376,5.07211 L 88.9682,5.07616 L 88.9967,5.07823 L 89.0238,5.07899 L 89.0501,5.0791 z
M 60.9919,5.27118 L 61.2231,5.22466 L 61.4037,5.16379 L 61.5357,5.10222 L 61.7151,4.98927 L 61.8777,4.84972
 L 62.0198,4.68539 L 62.1372,4.49821 L 62.2154,4.32651 L 62.2719,4.14639 L 62.3062,3.95982 L 62.3177,3.76871
 L 62.3176,3.72708 L 62.3169,3.68546 L 62.315,3.64383 L 62.3112,3.60222 L 62.2635,3.34689 L 62.1749,3.10583
 L 62.0486,2.88559 L 61.8877,2.69272 L 61.7166,2.54697 L 61.5274,2.43384 L 61.3252,2.35464 L 61.1152,2.31071
 L 61.0792,2.30667 L 61.0429,2.30458 L 61.0066,2.30382 L 60.9702,2.30371 L 60.7951,2.31532 L 60.6224,2.34972
 L 60.4547,2.40622 L 60.2947,2.48421 L 60.1398,2.58826 L 59.9978,2.71246 L 59.8713,2.85617 L 59.7628,3.01871
 L 59.6623,3.22285 L 59.5906,3.44327 L 59.5476,3.67015 L 59.5332,3.89371 L 59.5347,3.9707 L 59.5394,4.04497
 L 59.548,4.11661 L 59.5612,4.18571 L 59.5888,4.25266 L 59.6366,4.30534 L 59.6987,4.33984 L 59.7693,4.35222
 L 59.8564,4.33182 L 59.9246,4.27759 L 59.9655,4.19992 L 59.9707,4.10921 L 59.9616,4.05589 L 59.955,4.00066
 L 59.9511,3.94418 L 59.9498,3.88721 L 59.9498,3.78271 L 59.9677,3.64897 L 59.9999,3.51978 L 60.045,3.39705
 L 60.1017,3.28271 L 60.1815,3.16441 L 60.2741,3.05971 L 60.3771,2.96925 L 60.4877,2.89371 L 60.5999,2.83916
 L 60.7172,2.80008 L 60.837,2.77657 L 60.9567,2.76871 L 60.9826,2.76881 L 61.0085,2.76959 L 61.0344,2.77167
 L 61.0602,2.77571 L 61.2043,2.80426 L 61.3446,2.85753 L 61.477,2.93413 L 61.5977,3.03271 L 61.7084,3.16708
 L 61.7988,3.32545 L 61.8646,3.50072 L 61.9012,3.68571 L 61.9053,3.71286 L 61.9074,3.74208 L 61.9081,3.77261
 L 61.9082,3.80371 L 61.8994,3.94379 L 61.8739,4.08058 L 61.8327,4.21082 L 61.7772,4.33121 L 61.691,4.46384
 L 61.5894,4.57959 L 61.4748,4.67715 L 61.3497,4.75522 L 61.2486,4.79926 L 61.1101,4.84203 L 60.9328,4.87439
 L 60.7152,4.88721 L 60.6018,4.88338 L 60.4895,4.87233 L 60.3799,4.85472 L 60.2742,4.83121 L 59.9598,4.73163
 L 59.6624,4.59102 L 59.3712,4.41264 L 59.0753,4.19971 L 58.7596,3.92812 L 58.4719,3.61621 L 58.2168,3.26793
 L 57.9987,2.88721 L 57.9654,2.83643 L 57.9206,2.79927 L 57.8679,2.77647 L 57.8112,2.76871 L 57.7892,2.77002
 L 57.766,2.77396 L 57.7428,2.78052 L 57.7207,2.78972 L 57.67,2.82301 L 57.6331,2.8679 L 57.6104,2.92056
 L 57.6028,2.97722 L 57.6041,2.99922 L 57.608,3.02246 L 57.6146,3.0457 L 57.6237,3.06772 L 57.8639,3.4847
 L 58.1446,3.86859 L 58.4617,4.21478 L 58.8112,4.51871 L 59.1252,4.74663 L 59.4489,4.94589 L 59.7918,5.1087
 L 60.1637,5.22722 L 60.2954,5.25449 L 60.4309,5.27402 L 60.569,5.28578 L 60.7082,5.28972 z
M 31.6451,5.19058 L 31.6777,5.18275 L 31.7077,5.16978 L 31.735,5.1517 L 31.816,5.08533 L 31.8917,5.01189
 L 31.962,4.93198 L 32.027,4.84619 L 32.1664,4.60237 L 32.2562,4.34875 L 32.3042,4.09898 L 32.3185,3.8667
 L 32.3036,3.62103 L 32.2614,3.39545 L 32.1957,3.19197 L 32.1105,3.0127 L 32.0078,2.85916 L 31.8881,2.72263
 L 31.7527,2.60439 L 31.603,2.50569 L 31.4248,2.4229 L 31.2487,2.36945 L 31.0792,2.34074 L 30.921,2.3322
 L 30.744,2.34392 L 30.5695,2.37907 L 30.4003,2.43767 L 30.239,2.5197 L 30.232,2.5267 L 30.1169,2.60503
 L 30.0214,2.69057 L 29.9442,2.77744 L 29.884,2.8597 L 29.8698,2.88696 L 29.8589,2.91545 L 29.8519,2.94392
 L 29.8495,2.97119 L 29.8559,3.0226 L 29.8746,3.07156 L 29.905,3.11548 L 29.9465,3.1517 L 29.9738,3.16574
 L 30.0022,3.17664 L 30.0307,3.18369 L 30.058,3.1862 L 30.1097,3.17982 L 30.1588,3.16113 L 30.2028,3.13072
 L 30.239,3.0892 L 30.2684,3.04485 L 30.3137,2.99089 L 30.3719,2.9357 L 30.4405,2.8877 L 30.5499,2.83293
 L 30.6669,2.79388 L 30.7892,2.77048 L 30.914,2.7627 L 31.0271,2.7684 L 31.1461,2.78777 L 31.2691,2.82408
 L 31.394,2.88069 L 31.4955,2.94684 L 31.589,3.02919 L 31.672,3.12581 L 31.742,3.2347 L 31.8081,3.36885
 L 31.8586,3.52045 L 31.8907,3.68892 L 31.902,3.8737 L 31.8879,4.07567 L 31.8464,4.27039 L 31.7788,4.45074
 L 31.6865,4.6097 L 31.6421,4.66969 L 31.5932,4.72444 L 31.5405,4.77394 L 31.4845,4.81819 L 31.448,4.85294
 L 31.4219,4.89357 L 31.4062,4.93816 L 31.401,4.9847 L 31.4036,5.02005 L 31.4115,5.05263 L 31.4246,5.0825
 L 31.443,5.1097 L 31.4777,5.14616 L 31.5184,5.17226 L 31.5632,5.18796 L 31.61,5.19319 z
M 22.1764,4.51901 L 22.2424,4.47499 L 22.2862,4.40886 L 22.3021,4.32649 L 22.3021,2.54849 L 22.2862,2.46622
 L 22.2424,2.40025 L 22.1764,2.3564 L 22.0941,2.3405 L 22.0118,2.3564 L 21.9456,2.40025 L 21.9016,2.46622
 L 21.8856,2.54849 L 21.8856,4.32649 L 21.9016,4.40886 L 21.9456,4.47499 L 22.0118,4.51901 L 22.0941,4.535
 z
M 80.945,5.07053 L 80.9814,5.06976 L 81.0177,5.06769 L 81.0541,5.06364 L 81.3588,4.99695 L 81.6407,4.86464
 L 81.8876,4.67383 L 82.0871,4.43164 L 82.188,4.2413 L 82.2544,4.04964 L 82.291,3.86324 L 82.3021,3.68864
 L 82.297,3.57298 L 82.2814,3.45677 L 82.2555,3.34186 L 82.2191,3.23015 L 82.1016,2.98785 L 81.9406,2.77539
 L 81.7419,2.5993 L 81.5116,2.46614 L 81.373,2.41159 L 81.2285,2.37251 L 81.08,2.349 L 80.9296,2.34114
 L 80.8154,2.34627 L 80.7017,2.36121 L 80.5894,2.38522 L 80.4791,2.41765 L 80.2297,2.53003 L 80.007,2.68671
 L 79.8193,2.88248 L 79.6751,3.11214 L 79.6285,3.23373 L 79.5923,3.37614 L 79.5663,3.51855 L 79.5367,3.74815
 L 79.5176,3.84914 L 79.4959,3.93588 L 79.4741,4.00114 L 79.3998,4.13368 L 79.2943,4.25452 L 79.1626,4.35454
 L 79.0101,4.42464 L 78.958,4.43889 L 78.9052,4.44977 L 78.8512,4.45671 L 78.7951,4.45914 L 78.6799,4.45059
 L 78.5736,4.42708 L 78.4777,4.39185 L 78.3936,4.34814 L 78.2751,4.25525 L 78.1735,4.13557 L 78.0954,3.9937
 L 78.0471,3.83414 L 78.042,3.80301 L 78.0375,3.77184 L 78.0343,3.74055 L 78.0331,3.70914 L 78.0395,3.61562
 L 78.0582,3.52339 L 78.0886,3.43379 L 78.1301,3.34814 L 78.2022,3.24352 L 78.2919,3.15051 L 78.396,3.07307
 L 78.5111,3.01514 L 78.5758,2.99162 L 78.6444,2.97401 L 78.7156,2.96297 L 78.7881,2.95914 L 78.8558,2.96187
 L 78.9227,2.97052 L 78.9882,2.98572 L 79.0516,3.00815 L 79.0586,3.01514 L 79.1001,3.03191 L 79.141,3.05139
 L 79.1805,3.0735 L 79.2181,3.09814 L 79.2453,3.11652 L 79.2751,3.12964 L 79.3076,3.13751 L 79.3426,3.14014
 L 79.3892,3.1349 L 79.4337,3.1192 L 79.4744,3.09311 L 79.5091,3.05664 L 79.5272,3.02916 L 79.5402,2.99921
 L 79.548,2.96671 L 79.5506,2.93164 L 79.5454,2.8851 L 79.5298,2.84052 L 79.5038,2.79988 L 79.4676,2.76514
 L 79.409,2.72466 L 79.3479,2.68758 L 79.2843,2.65454 L 79.2181,2.62614 L 79.1168,2.58968 L 79.0117,2.56358
 L 78.904,2.54788 L 78.7951,2.54265 L 78.6861,2.54788 L 78.5777,2.56358 L 78.4707,2.58968 L 78.3656,2.62614
 L 78.1868,2.71521 L 78.0268,2.83426 L 77.8888,2.97939 L 77.7761,3.14664 L 77.7124,3.28065 L 77.6667,3.42039
 L 77.6393,3.56387 L 77.6301,3.70914 L 77.6314,3.76126 L 77.6354,3.81339 L 77.6419,3.86551 L 77.6511,3.91765
 L 77.7249,4.16144 L 77.8456,4.37782 L 78.0027,4.56036 L 78.1856,4.70264 L 78.314,4.77068 L 78.4592,4.82576
 L 78.62,4.86267 L 78.7951,4.87614 L 78.8784,4.87341 L 78.9616,4.86482 L 79.0449,4.84978 L 79.1281,4.82764
 L 79.3605,4.72842 L 79.5644,4.58177 L 79.732,4.39479 L 79.8556,4.17464 L 79.8835,4.08897 L 79.9127,3.97414
 L 79.9394,3.83981 L 79.9596,3.69565 L 79.9734,3.59485 L 79.9933,3.48296 L 80.017,3.38014 L 80.0426,3.30664
 L 80.1441,3.14467 L 80.2773,3.00539 L 80.4352,2.89348 L 80.6106,2.81364 L 80.6898,2.79021 L 80.771,2.77277
 L 80.8535,2.76189 L 80.9366,2.75815 L 81.0403,2.76331 L 81.1426,2.77882 L 81.2423,2.80476 L 81.3381,2.84114
 L 81.497,2.93552 L 81.6362,3.05846 L 81.7495,3.20473 L 81.8301,3.36914 L 81.8536,3.44438 L 81.871,3.52364
 L 81.8819,3.60553 L 81.8856,3.68864 L 81.8774,3.80882 L 81.851,3.93758 L 81.8038,4.07037 L 81.7331,4.20264
 L 81.5933,4.37067 L 81.4189,4.50545 L 81.2197,4.59984 L 81.0056,4.64664 L 80.9797,4.65068 L 80.9538,4.65277
 L 80.9278,4.65353 L 80.9016,4.65364 L 80.7563,4.64268 L 80.6228,4.61288 L 80.5023,4.56885 L 80.3961,4.51514
 L 80.3493,4.48242 L 80.3032,4.4472 L 80.2584,4.40945 L 80.2156,4.36914 L 80.1821,4.34187 L 80.1446,4.32233
 L 80.1045,4.31058 L 80.0631,4.30664 L 80.0258,4.31058 L 79.9879,4.32233 L 79.9513,4.34187 L 79.9176,4.36914
 L 79.8904,4.40257 L 79.8711,4.43933 L 79.8595,4.47749 L 79.8556,4.51514 L 79.8595,4.55655 L 79.8711,4.59663
 L 79.8904,4.63411 L 79.9176,4.66765 L 79.9774,4.72359 L 80.0417,4.77626 L 80.1098,4.825 L 80.1811,4.86914
 L 80.3328,4.94745 L 80.5059,5.01152 L 80.6985,5.05476 L 80.9086,5.07065 z
M 51.7605,5.06268 L 51.8006,5.04852 L 51.8381,5.02658 L 51.8716,4.99821 L 51.9369,4.9185 L 51.9969,4.83565
 L 52.0516,4.74895 L 52.1011,4.65771 L 52.1454,4.56276 L 52.1844,4.46584 L 52.2181,4.3676 L 52.2466,4.26871
 L 52.273,4.15437 L 52.2901,4.04059 L 52.2993,3.92812 L 52.3021,3.81772 L 52.2891,3.60812 L 52.2494,3.40771
 L 52.1823,3.2178 L 52.0871,3.03972 L 52.043,2.97235 L 51.9942,2.90614 L 51.9416,2.84248 L 51.8856,2.78271
 L 51.8258,2.72682 L 51.7616,2.67427 L 51.6935,2.62556 L 51.6221,2.58121 L 51.5479,2.54102 L 51.4718,2.50409
 L 51.3945,2.4711 L 51.3166,2.44272 L 51.2371,2.41916 L 51.1558,2.40096 L 51.0733,2.388 L 50.9901,2.38022
 L 50.9136,2.38022 L 50.8461,2.38162 L 50.7792,2.38628 L 50.7137,2.39476 L 50.6501,2.40771 L 50.5835,2.4247
 L 50.519,2.44421 L 50.4558,2.46635 L 50.3931,2.49121 L 50.332,2.51848 L 50.2727,2.54846 L 50.2146,2.58107
 L 50.1571,2.61621 L 50.0999,2.65915 L 50.0435,2.70471 L 49.9884,2.7529 L 49.9351,2.80371 L 49.8192,2.93602
 L 49.7222,3.08141 L 49.6448,3.23718 L 49.5876,3.40071 L 49.5563,3.52696 L 49.5347,3.6544 L 49.5222,3.78174
 L 49.5181,3.90771 L 49.5182,3.94934 L 49.519,3.99103 L 49.5211,4.03279 L 49.5251,4.07471 L 49.533,4.18393
 L 49.5461,4.29327 L 49.5643,4.40273 L 49.5876,4.51221 L 49.6099,4.6006 L 49.6346,4.68834 L 49.662,4.77477
 L 49.6921,4.85921 L 49.7253,4.91615 L 49.771,4.96002 L 49.8259,4.98824 L 49.8866,4.99821 L 49.9729,4.98026
 L 50.041,4.93297 L 50.0856,4.86617 L 50.1016,4.78972 L 50.1004,4.7701 L 50.0972,4.75165 L 50.0928,4.73311
 L 50.0876,4.71321 L 50.063,4.63925 L 50.0409,4.56328 L 50.0214,4.48589 L 50.0046,4.40771 L 49.9851,4.31396
 L 49.969,4.22021 L 49.9568,4.12646 L 49.9491,4.03271 L 49.9491,3.90771 L 49.9518,3.80486 L 49.9603,3.70471
 L 49.9753,3.60719 L 49.9976,3.51221 L 50.0404,3.39403 L 50.0957,3.28114 L 50.1626,3.17604 L 50.2406,3.08121
 L 50.2771,3.04614 L 50.3142,3.01364 L 50.3527,2.98369 L 50.3931,2.95621 L 50.4307,2.93156 L 50.4703,2.90945
 L 50.5113,2.88998 L 50.5531,2.87321 L 50.5959,2.85757 L 50.6407,2.84265 L 50.6866,2.82913 L 50.7331,2.81772
 L 50.78,2.80852 L 50.8269,2.80196 L 50.8737,2.79802 L 50.9206,2.79671 L 50.9346,2.79671 L 51,2.80327
 L 51.0614,2.81239 L 51.1201,2.82407 L 51.1776,2.83821 L 51.2338,2.8564 L 51.2879,2.87909 L 51.3407,2.90572
 L 51.3926,2.93571 L 51.4434,2.96815 L 51.4916,3.0032 L 51.5372,3.04089 L 51.5801,3.08121 L 51.6742,3.19095
 L 51.7799,3.35915 L 51.8673,3.57938 L 51.9066,3.84521 L 51.9018,3.92889 L 51.8892,4.01897 L 51.8714,4.10902
 L 51.8511,4.19272 L 51.8288,4.26941 L 51.8033,4.34352 L 51.774,4.41512 L 51.7463,4.47165 L 51.7079,4.5367
 L 51.6644,4.60046 L 51.617,4.66161 L 51.5666,4.72021 L 51.5431,4.75282 L 51.5255,4.78728 L 51.5145,4.82294
 L 51.5106,4.85921 L 51.5156,4.90062 L 51.5298,4.94078 L 51.5518,4.97839 L 51.5801,5.01221 L 51.6127,5.03543
 L 51.6472,5.0529 L 51.6828,5.06389 L 51.7191,5.06772 z
M 22.0055,5.08339 L 22.0419,5.08263 L 22.0785,5.08054 L 22.1151,5.07649 L 22.1882,5.05566 L 22.2476,5.0088
 L 22.2875,4.94368 L 22.3021,4.868 L 22.2839,4.78178 L 22.2345,4.71449 L 22.1616,4.67197 L 22.0731,4.66
 L 21.9691,4.66 L 21.7758,4.64577 L 21.5839,4.6035 L 21.3974,4.53386 L 21.2201,4.4375 L 21.0786,4.33774
 L 20.9105,4.19106 L 20.7099,3.97659 L 20.4711,3.67349 L 20.2979,3.43843 L 20.1157,3.19881 L 19.9154,2.96567
 L 19.6876,2.75 L 19.5746,2.66051 L 19.4536,2.58081 L 19.3248,2.51283 L 19.1881,2.4585 L 19.0935,2.43123
 L 18.9967,2.41168 L 18.8987,2.39993 L 18.8001,2.396 L 18.748,2.39731 L 18.6959,2.40125 L 18.644,2.40781
 L 18.5921,2.41699 L 18.3992,2.47638 L 18.2193,2.56963 L 18.0575,2.69417 L 17.9191,2.8475 L 17.7999,3.04236
 L 17.7203,3.245 L 17.6759,3.44501 L 17.6621,3.632 L 17.6621,3.646 L 17.6747,3.83725 L 17.716,4.04088
 L 17.7912,4.24843 L 17.9056,4.45149 L 18.0429,4.61613 L 18.2029,4.75343 L 18.3823,4.85951 L 18.5781,4.9305
 L 18.6709,4.93333 L 18.7533,4.89507 L 18.8121,4.82425 L 18.8346,4.72949 L 18.8233,4.65976 L 18.7912,4.59987
 L 18.741,4.55441 L 18.6751,4.528 L 18.5522,4.48389 L 18.4359,4.4158 L 18.33,4.32571 L 18.2386,4.2155
 L 18.1547,4.07596 L 18.0989,3.9325 L 18.0678,3.79166 L 18.0581,3.66 L 18.0581,3.646 L 18.0678,3.51828
 L 18.0989,3.38031 L 18.1547,3.23981 L 18.2386,3.10449 L 18.3289,3.00443 L 18.4317,2.92456 L 18.5436,2.86691
 L 18.6611,2.8335 L 18.6925,2.82835 L 18.7238,2.82387 L 18.755,2.82069 L 18.7861,2.8195 L 18.8487,2.82211
 L 18.9111,2.82994 L 18.9734,2.84291 L 19.0356,2.86099 L 19.1293,2.89874 L 19.2222,2.94812 L 19.3137,3.00781
 L 19.4031,3.07649 L 19.5887,3.25592 L 19.7646,3.46449 L 19.9366,3.69258 L 20.1106,3.9305 L 20.2946,4.16969
 L 20.4962,4.40106 L 20.72,4.61415 L 20.9706,4.79849 L 21.1962,4.91939 L 21.4342,5.00887 L 21.6813,5.06442
 L 21.9341,5.0835 L 21.9691,5.0835 z
M 42.1756,2.86072 L 42.242,2.81686 L 42.2861,2.7509 L 42.3021,2.66862 L 42.2861,2.58626 L 42.242,2.52013
 L 42.1756,2.4761 L 42.0926,2.46013 L 39.0701,2.46013 L 38.9881,2.4761 L 38.9223,2.52013 L 38.8785,2.58626
 L 38.8626,2.66862 L 38.8785,2.7509 L 38.9223,2.81686 L 38.9881,2.86072 L 39.0701,2.87662 L 42.0926,2.87662
 z
M 12.1762,2.93974 L 12.2423,2.89574 L 12.2862,2.82959 L 12.3021,2.74724 L 12.2862,2.66487 L 12.2423,2.59872
 L 12.1762,2.55472 L 12.0936,2.53873 L 8.60362,2.53873 L 8.52127,2.55472 L 8.45512,2.59872 L 8.4111,2.66487
 L 8.39513,2.74724 L 8.4111,2.82959 L 8.45512,2.89574 L 8.52127,2.93974 L 8.60362,2.95573 L 12.0936,2.95573
 z
M 102.161,2.93974 L 102.227,2.89574 L 102.271,2.82959 L 102.286,2.74724 L 102.271,2.66487 L 102.227,2.59872
 L 102.161,2.55472 L 102.078,2.53873 L 98.588,2.53873 L 98.5056,2.55472 L 98.4395,2.59872 L 98.3955,2.66487
 L 98.3795,2.74724 L 98.3955,2.82959 L 98.4395,2.89574 L 98.5056,2.93974 L 98.588,2.95573 L 102.078,2.95573
 z
M 98.4741,4.03081 L 98.4978,4.02611 L 98.5214,4.01747 L 98.5465,4.00423 L 98.5892,3.97223 L 98.6222,3.92973
 L 98.6435,3.87935 L 98.651,3.82373 L 98.6496,3.79865 L 98.6449,3.77498 L 98.6362,3.75131 L 98.623,3.72623
 L 97.9975,2.65024 L 97.9652,2.60753 L 97.9226,2.57454 L 97.8721,2.55327 L 97.8165,2.54573 L 97.7916,2.54715
 L 97.7679,2.55185 L 97.7442,2.5605 L 97.719,2.57373 L 97.6763,2.60573 L 97.6433,2.64822 L 97.622,2.69861
 L 97.6145,2.75423 L 97.616,2.77908 L 97.6208,2.80273 L 97.6295,2.82637 L 97.6425,2.85123 L 98.2685,3.92773
 L 98.3005,3.97043 L 98.343,4.00342 L 98.3934,4.02469 L 98.449,4.03223 z
M 8.4897,4.03081 L 8.51338,4.02611 L 8.53705,4.01747 L 8.56212,4.00423 L 8.60483,3.97223 L 8.63782,3.92973
 L 8.65909,3.87935 L 8.66663,3.82373 L 8.66521,3.79865 L 8.66051,3.77498 L 8.65186,3.75131 L 8.63863,3.72623
 L 8.01312,2.65024 L 7.98083,2.60753 L 7.93819,2.57454 L 7.88776,2.55327 L 7.83212,2.54573 L 7.80725,2.54715
 L 7.78357,2.55185 L 7.75978,2.5605 L 7.73462,2.57373 L 7.69193,2.60573 L 7.65894,2.64822 L 7.63766,2.69861
 L 7.63013,2.75423 L 7.63162,2.77908 L 7.63644,2.80273 L 7.6451,2.82637 L 7.65813,2.85123 L 8.28412,3.92773
 L 8.31613,3.97043 L 8.35863,4.00342 L 8.409,4.02469 L 8.46463,4.03223 z
M 28.6408,4.92732 L 28.7076,4.88406 L 28.7534,4.82001 L 28.7705,4.7417 L 28.758,4.67116 L 28.7233,4.60901
 L 28.6703,4.5612 L 28.603,4.53369 L 28.5663,4.52713 L 28.5298,4.51794 L 28.4932,4.50613 L 28.4565,4.4917
 L 28.4202,4.47493 L 28.3843,4.45544 L 28.3497,4.43333 L 28.317,4.40869 L 28.2859,4.38132 L 28.2554,4.35207
 L 28.2262,4.3215 L 28.199,4.29019 L 28.174,4.25775 L 28.1509,4.2227 L 28.1291,4.18501 L 28.108,4.1447
 L 28.0886,4.10297 L 28.0717,4.06058 L 28.0573,4.01686 L 28.0455,3.97119 L 28.0363,3.92432 L 28.0298,3.87744
 L 28.0258,3.83057 L 28.0245,3.78369 L 28.0245,3.7627 L 28.0258,3.72107 L 28.0298,3.67944 L 28.0363,3.63782
 L 28.0455,3.59619 L 28.0561,3.55428 L 28.0673,3.51251 L 28.0797,3.47083 L 28.094,3.4292 L 28.1109,3.39293
 L 28.1299,3.35725 L 28.1501,3.32281 L 28.171,3.29019 L 28.1971,3.25513 L 28.2239,3.22263 L 28.2522,3.19267
 L 28.2825,3.16519 L 28.3138,3.13942 L 28.3459,3.11426 L 28.3795,3.09032 L 28.415,3.06819 L 28.4962,3.02583
 L 28.5683,3.00038 L 28.6403,2.98798 L 28.7215,2.9847 L 28.8029,2.99255 L 28.9028,3.01607 L 29.0078,3.05515
 L 29.105,3.1097 L 29.1362,3.13182 L 29.1676,3.15582 L 29.199,3.18114 L 29.2305,3.2072 L 29.2563,3.23434
 L 29.2817,3.26357 L 29.3058,3.2941 L 29.328,3.3252 L 29.3579,3.36803 L 29.3853,3.41283 L 29.4102,3.45892
 L 29.4325,3.50569 L 29.447,3.55377 L 29.4594,3.60382 L 29.4705,3.65518 L 29.481,3.7072 L 29.4902,3.75931
 L 29.4967,3.81139 L 29.5007,3.86336 L 29.502,3.91519 L 29.518,3.99777 L 29.562,4.06389 L 29.6281,4.10779
 L 29.7105,4.1237 L 29.7928,4.10779 L 29.8587,4.06389 L 29.9026,3.99777 L 29.9185,3.91519 L 29.9173,3.84761
 L 29.9135,3.77995 L 29.9071,3.71228 L 29.898,3.6447 L 29.8861,3.57176 L 29.8709,3.49957 L 29.8519,3.4287
 L 29.8285,3.3597 L 29.7999,3.28818 L 29.766,3.21919 L 29.7268,3.15283 L 29.6825,3.0892 L 29.646,3.04243
 L 29.6089,2.99632 L 29.5704,2.95152 L 29.53,2.90869 L 29.4869,2.86809 L 29.4419,2.83026 L 29.3958,2.79514
 L 29.349,2.7627 L 29.2068,2.68066 L 29.0596,2.62207 L 28.9019,2.58691 L 28.7285,2.5752 L 28.5793,2.5831
 L 28.4497,2.60725 L 28.3305,2.64839 L 28.2125,2.7072 L 28.1564,2.73964 L 28.1029,2.77469 L 28.052,2.81238
 L 28.0035,2.85269 L 27.9579,2.89592 L 27.915,2.94157 L 27.8747,2.98967 L 27.837,3.04019 L 27.8019,3.09352
 L 27.7693,3.14882 L 27.7393,3.20543 L 27.712,3.2627 L 27.6873,3.3212 L 27.6659,3.38158 L 27.6484,3.44325
 L 27.6355,3.50569 L 27.6263,3.56824 L 27.6198,3.63069 L 27.6158,3.69315 L 27.6145,3.75569 L 27.6145,3.7767
 L 27.617,3.84427 L 27.6241,3.91194 L 27.6352,3.97961 L 27.6495,4.0472 L 27.6666,4.11386 L 27.6868,4.17851
 L 27.7109,4.24174 L 27.7395,4.3042 L 27.7722,4.36551 L 27.8074,4.42419 L 27.8452,4.48026 L 27.8855,4.53369
 L 27.9285,4.58423 L 27.9741,4.63232 L 28.0224,4.67798 L 28.0735,4.72119 L 28.1268,4.7614 L 28.1822,4.79832
 L 28.239,4.8313 L 28.2965,4.8597 L 28.3544,4.89342 L 28.4156,4.91982 L 28.4834,4.93704 L 28.561,4.94319
 z
M 72.1732,4.72687 L 72.2397,4.68613 L 72.2852,4.62065 L 72.3021,4.53238 L 72.2944,4.47595 L 72.2718,4.42326
 L 72.2348,4.37827 L 72.1841,4.34488 L 68.6586,2.60188 L 68.6365,2.59299 L 68.6132,2.58656 L 68.5899,2.58269
 L 68.5681,2.58139 L 68.4885,2.59532 L 68.4221,2.63588 L 68.3765,2.7012 L 68.3596,2.78938 L 68.3673,2.8461
 L 68.3899,2.89888 L 68.4269,2.94379 L 68.4776,2.97688 L 72.0031,4.71988 L 72.0252,4.72906 L 72.0486,4.73563
 L 72.0718,4.73956 L 72.0936,4.74089 z
M 47.9204,4.37781 L 47.9864,4.33395 L 48.0302,4.26799 L 48.0461,4.18571 L 48.0461,2.87321 L 48.0302,2.79085
 L 47.9864,2.72472 L 47.9204,2.68069 L 47.8381,2.66472 L 47.7558,2.68069 L 47.6896,2.72472 L 47.6456,2.79085
 L 47.6296,2.87321 L 47.6296,4.18571 L 47.6456,4.26799 L 47.6896,4.33395 L 47.7558,4.37781 L 47.8381,4.39371
 z
M 40.7441,5.1868 L 40.7701,5.18062 L 40.7962,5.17183 L 40.8221,5.16162 L 40.8677,5.12857 L 40.9002,5.09113
 L 40.9196,5.04729 L 40.9261,4.99512 L 40.9261,3.20312 L 40.9102,3.12083 L 40.8664,3.05487 L 40.8004,3.01103
 L 40.7181,2.99512 L 40.6358,3.01103 L 40.5696,3.05487 L 40.5256,3.12083 L 40.5096,3.20312 L 40.5096,4.58513
 L 37.9556,2.89763 L 37.9286,2.88338 L 37.9004,2.8725 L 37.8721,2.86555 L 37.8451,2.86313 L 37.7935,2.86949
 L 37.7446,2.88818 L 37.701,2.91859 L 37.6651,2.96013 L 37.6508,2.98738 L 37.6398,3.01581 L 37.6326,3.04414
 L 37.6301,3.07112 L 37.6366,3.1228 L 37.6554,3.17188 L 37.6858,3.21568 L 37.7271,3.25162 L 40.6071,5.15462
 L 40.6341,5.16887 L 40.6624,5.17975 L 40.6909,5.18669 L 40.7181,5.18912 z
M 12.0182,5.15504 L 12.166,5.05544 L 12.2656,4.90764 L 12.3021,4.72656 L 12.2656,4.54541 L 12.166,4.39743
 L 12.0182,4.29765 L 11.8371,4.26106 L 11.656,4.29765 L 11.508,4.39743 L 11.4082,4.54541 L 11.3716,4.72656
 L 11.4082,4.90764 L 11.508,5.05544 L 11.656,5.15504 L 11.8371,5.19156 z
M 49.3785,4.97522 L 49.4446,4.93121 L 49.4886,4.86507 L 49.5046,4.78271 L 49.4886,4.70042 L 49.4446,4.63446
 L 49.3785,4.59062 L 49.2961,4.57471 L 47.8381,4.57471 L 47.7558,4.59062 L 47.6896,4.63446 L 47.6456,4.70042
 L 47.6296,4.78271 L 47.6456,4.86507 L 47.6896,4.93121 L 47.7558,4.97522 L 47.8381,4.99121 L 49.2961,4.99121
 z
M 42.0182,6.11794 L 42.166,6.01833 L 42.2656,5.87053 L 42.3021,5.68945 L 42.2656,5.5083 L 42.166,5.36032
 L 42.0182,5.26054 L 41.8371,5.22395 L 41.656,5.26054 L 41.508,5.36032 L 41.4082,5.5083 L 41.3716,5.68945
 L 41.4082,5.87053 L 41.508,6.01833 L 41.656,6.11794 L 41.8371,6.15445 z
M 72.0182,6.2737 L 72.166,6.17409 L 72.2656,6.02629 L 72.3021,5.84521 L 72.2656,5.66406 L 72.166,5.51608
 L 72.0182,5.41631 L 71.8371,5.37971 L 71.656,5.41631 L 71.508,5.51608 L 71.4082,5.66406 L 71.3716,5.84521
 L 71.4082,6.02629 L 71.508,6.17409 L 71.656,6.2737 L 71.8371,6.31021 z
M 92.0182,6.38942 L 92.166,6.28981 L 92.2656,6.14201 L 92.3021,5.96094 L 92.2656,5.77979 L 92.166,5.63181
 L 92.0182,5.53203 L 91.8371,5.49544 L 91.656,5.53203 L 91.508,5.63181 L 91.4082,5.77979 L 91.3716,5.96094
 L 91.4082,6.14201 L 91.508,6.28981 L 91.656,6.38942 L 91.8371,6.42593 z
M 82.0182,6.45045 L 82.166,6.35085 L 82.2656,6.20305 L 82.3021,6.02197 L 82.2656,5.84082 L 82.166,5.69284
 L 82.0182,5.59306 L 81.8371,5.55647 L 81.656,5.59306 L 81.508,5.69284 L 81.4082,5.84082 L 81.3716,6.02197
 L 81.4082,6.20305 L 81.508,6.35085 L 81.656,6.45045 L 81.8371,6.48697 z
M 22.0182,6.47731 L 22.166,6.3777 L 22.2656,6.2299 L 22.3021,6.04883 L 22.2656,5.86768 L 22.166,5.7197
 L 22.0182,5.61992 L 21.8371,5.58333 L 21.656,5.61992 L 21.508,5.7197 L 21.4082,5.86768 L 21.3716,6.04883
 L 21.4082,6.2299 L 21.508,6.3777 L 21.656,6.47731 L 21.8371,6.51382 z
M 10.3415,9.13528 L 10.7651,9.05634 L 11.16,8.92395 L 11.5106,8.73746 L 11.6768,8.61391 L 11.83,8.47203
 L 11.9677,8.31186 L 12.0871,8.13347 L 12.1794,7.95035 L 12.2467,7.75677 L 12.2881,7.55542 L 12.3021,7.34897
 L 12.3021,7.30696 L 12.2818,7.09131 L 12.2321,6.88339 L 12.155,6.6859 L 12.0526,6.50146 L 11.928,6.33356
 L 11.7858,6.18384 L 11.6293,6.05231 L 11.4616,5.93896 L 11.1125,5.76953 L 10.7476,5.66052 L 10.3749,5.60223
 L 10.0021,5.58496 L 9.59955,5.60376 L 9.19957,5.66753 L 8.80998,5.78725 L 8.43863,5.97397 L 8.26584,6.09348
 L 8.10481,6.23328 L 7.95944,6.39267 L 7.83362,6.57097 L 7.73647,6.76053 L 7.66457,6.96252 L 7.61995,7.17361
 L 7.60463,7.39046 L 7.60463,7.43196 L 7.62247,7.62755 L 7.66893,7.8349 L 7.74925,8.04741 L 7.86862,8.25847
 L 7.99831,8.43042 L 8.14638,8.58221 L 8.31018,8.71451 L 8.48712,8.82796 L 8.79945,8.97372 L 9.14644,9.07796
 L 9.51826,9.14056 L 9.90512,9.16147 z
M 9.87712,8.75847 L 9.61035,8.7484 L 9.31157,8.70903 L 8.99843,8.62663 L 8.68863,8.48746 L 8.55229,8.39772
 L 8.42632,8.29497 L 8.31337,8.17908 L 8.21613,8.04996 L 8.12698,7.89201 L 8.06581,7.73328 L 8.02931,7.57837
 L 8.01413,7.43196 L 8.01413,7.40446 L 8.02559,7.2475 L 8.05862,7.0919 L 8.11116,6.94145 L 8.18112,6.79996
 L 8.27454,6.66479 L 8.38544,6.5414 L 8.51068,6.43103 L 8.64713,6.33496 L 8.95126,6.18143 L 9.27762,6.08058
 L 9.62236,6.0253 L 9.98163,6.00847 L 10.261,6.01884 L 10.5749,6.06046 L 10.9032,6.14894 L 11.2256,6.29996
 L 11.3567,6.38988 L 11.4774,6.49202 L 11.5851,6.6059 L 11.6771,6.73096 L 11.7525,6.86702 L 11.8103,7.01283
 L 11.8485,7.16521 L 11.8651,7.32097 L 11.8651,7.34897 L 11.8549,7.50046 L 11.825,7.65077 L 11.7769,7.79594
 L 11.7121,7.93196 L 11.625,8.06316 L 11.5216,8.18465 L 11.404,8.29442 L 11.2741,8.39046 L 10.9924,8.53972
 L 10.6782,8.6474 L 10.3456,8.71861 L 10.0091,8.75847 z
M 32.0026,6.53151 L 32.1504,6.4319 L 32.25,6.2841 L 32.2865,6.10303 L 32.25,5.92188 L 32.1504,5.7739
 L 32.0026,5.67412 L 31.8215,5.63753 L 31.6403,5.67412 L 31.4924,5.7739 L 31.3926,5.92188 L 31.356,6.10303
 L 31.3926,6.2841 L 31.4924,6.4319 L 31.6403,6.53151 L 31.8215,6.56802 z
M 62.0338,6.57253 L 62.1816,6.47292 L 62.2812,6.32512 L 62.3177,6.14404 L 62.2812,5.96289 L 62.1816,5.81491
 L 62.0338,5.71513 L 61.8527,5.67854 L 61.6716,5.71513 L 61.5236,5.81491 L 61.4238,5.96289 L 61.3872,6.14404
 L 61.4238,6.32512 L 61.5236,6.47292 L 61.6716,6.57253 L 61.8527,6.60904 z
M 52.0182,6.57253 L 52.166,6.47292 L 52.2656,6.32512 L 52.3021,6.14404 L 52.2656,5.96289 L 52.166,5.81491
 L 52.0182,5.71513 L 51.8371,5.67854 L 51.656,5.71513 L 51.508,5.81491 L 51.4082,5.96289 L 51.3716,6.14404
 L 51.4082,6.32512 L 51.508,6.47292 L 51.656,6.57253 L 51.8371,6.60904 z
M 40.3415,10.0982 L 40.7651,10.0192 L 41.16,9.88684 L 41.5106,9.70035 L 41.6768,9.5768 L 41.83,9.43492
 L 41.9677,9.27475 L 42.0871,9.09636 L 42.1794,8.91324 L 42.2467,8.71967 L 42.2881,8.51831 L 42.3021,8.31186
 L 42.3021,8.26985 L 42.2818,8.0542 L 42.2321,7.84628 L 42.155,7.64879 L 42.0526,7.46436 L 41.928,7.29645
 L 41.7858,7.14673 L 41.6293,7.0152 L 41.4616,6.90186 L 41.1125,6.73242 L 40.7476,6.62341 L 40.3749,6.56512
 L 40.0021,6.54785 L 39.5995,6.56665 L 39.1996,6.63042 L 38.81,6.75014 L 38.4386,6.93686 L 38.2658,7.05637
 L 38.1048,7.19617 L 37.9594,7.35556 L 37.8336,7.53386 L 37.7365,7.72342 L 37.6646,7.92542 L 37.6199,8.13651
 L 37.6046,8.35335 L 37.6046,8.39485 L 37.6225,8.59044 L 37.6689,8.79779 L 37.7493,9.0103 L 37.8686,9.22136
 L 37.9983,9.39331 L 38.1464,9.5451 L 38.3102,9.6774 L 38.4871,9.79085 L 38.7995,9.93661 L 39.1464,10.0408
 L 39.5183,10.1035 L 39.9051,10.1244 z
M 39.8771,9.72136 L 39.6104,9.71129 L 39.3116,9.67192 L 38.9984,9.58952 L 38.6886,9.45035 L 38.5523,9.36061
 L 38.4263,9.25786 L 38.3134,9.14197 L 38.2161,9.01285 L 38.127,8.8549 L 38.0658,8.69617 L 38.0293,8.54126
 L 38.0141,8.39485 L 38.0141,8.36736 L 38.0256,8.21039 L 38.0586,8.05479 L 38.1112,7.90434 L 38.1811,7.76285
 L 38.2745,7.62769 L 38.3854,7.50429 L 38.5107,7.39392 L 38.6471,7.29785 L 38.9513,7.14432 L 39.2776,7.04347
 L 39.6224,6.98819 L 39.9816,6.97136 L 40.261,6.98174 L 40.5749,7.02335 L 40.9032,7.11183 L 41.2256,7.26285
 L 41.3567,7.35277 L 41.4774,7.45491 L 41.5851,7.56879 L 41.6771,7.69385 L 41.7525,7.82991 L 41.8103,7.97572
 L 41.8485,8.1281 L 41.8651,8.28386 L 41.8651,8.31186 L 41.8549,8.46335 L 41.825,8.61366 L 41.7769,8.75883
 L 41.7121,8.89485 L 41.625,9.02605 L 41.5216,9.14754 L 41.404,9.25731 L 41.2741,9.35335 L 40.9924,9.50261
 L 40.6782,9.61029 L 40.3456,9.6815 L 40.0091,9.72136 z
M 70.3415,10.2539 L 70.7651,10.175 L 71.16,10.0426 L 71.5106,9.85611 L 71.6768,9.73256 L 71.83,9.59068
 L 71.9677,9.43051 L 72.0871,9.25212 L 72.1794,9.069 L 72.2467,8.87543 L 72.2881,8.67407 L 72.3021,8.46762
 L 72.3021,8.42561 L 72.2818,8.20996 L 72.2321,8.00204 L 72.155,7.80455 L 72.0526,7.62012 L 71.928,7.45221
 L 71.7858,7.30249 L 71.6293,7.17096 L 71.4616,7.05762 L 71.1125,6.88818 L 70.7476,6.77917 L 70.3749,6.72089
 L 70.0021,6.70361 L 69.5995,6.72241 L 69.1996,6.78618 L 68.81,6.9059 L 68.4386,7.09262 L 68.2658,7.21213
 L 68.1048,7.35193 L 67.9594,7.51132 L 67.8336,7.68962 L 67.7365,7.87918 L 67.6646,8.08118 L 67.6199,8.29227
 L 67.6046,8.50911 L 67.6046,8.55061 L 67.6225,8.7462 L 67.6689,8.95355 L 67.7493,9.16606 L 67.8686,9.37712
 L 67.9983,9.54907 L 68.1464,9.70087 L 68.3102,9.83316 L 68.4871,9.94661 L 68.7995,10.0924 L 69.1464,10.1966
 L 69.5183,10.2592 L 69.9051,10.2801 z
M 69.8771,9.87712 L 69.6104,9.86705 L 69.3116,9.82768 L 68.9984,9.74529 L 68.6886,9.60611 L 68.5523,9.51637
 L 68.4263,9.41362 L 68.3134,9.29773 L 68.2161,9.16861 L 68.127,9.01067 L 68.0658,8.85193 L 68.0293,8.69702
 L 68.0141,8.55061 L 68.0141,8.52312 L 68.0256,8.36615 L 68.0586,8.21056 L 68.1112,8.0601 L 68.1811,7.91861
 L 68.2745,7.78345 L 68.3854,7.66005 L 68.5107,7.54968 L 68.6471,7.45361 L 68.9513,7.30008 L 69.2776,7.19923
 L 69.6224,7.14395 L 69.9816,7.12712 L 70.261,7.1375 L 70.5749,7.17911 L 70.9032,7.26759 L 71.2256,7.41861
 L 71.3567,7.50853 L 71.4774,7.61067 L 71.5851,7.72455 L 71.6771,7.84961 L 71.7525,7.98567 L 71.8103,8.13148
 L 71.8485,8.28386 L 71.8651,8.43962 L 71.8651,8.46762 L 71.8549,8.61911 L 71.825,8.76942 L 71.7769,8.9146
 L 71.7121,9.05061 L 71.625,9.18181 L 71.5216,9.3033 L 71.404,9.41307 L 71.2741,9.50911 L 70.9924,9.65837
 L 70.6782,9.76605 L 70.3456,9.83727 L 70.0091,9.87712 z
M 90.3415,10.3697 L 90.7651,10.2907 L 91.16,10.1583 L 91.5106,9.97183 L 91.6768,9.84828 L 91.83,9.70641
 L 91.9677,9.54623 L 92.0871,9.36784 L 92.1794,9.18472 L 92.2467,8.99115 L 92.2881,8.78979 L 92.3021,8.58334
 L 92.3021,8.54134 L 92.2818,8.32568 L 92.2321,8.11777 L 92.155,7.92027 L 92.0526,7.73584 L 91.928,7.56793
 L 91.7858,7.41821 L 91.6293,7.28668 L 91.4616,7.17334 L 91.1125,7.00391 L 90.7476,6.8949 L 90.3749,6.83661
 L 90.0021,6.81934 L 89.5995,6.83813 L 89.1996,6.9019 L 88.81,7.02162 L 88.4386,7.20834 L 88.2658,7.32785
 L 88.1048,7.46765 L 87.9594,7.62704 L 87.8336,7.80534 L 87.7365,7.9949 L 87.6646,8.1969 L 87.6199,8.40799
 L 87.6046,8.62483 L 87.6046,8.66634 L 87.6225,8.86192 L 87.6689,9.06927 L 87.7493,9.28178 L 87.8686,9.49284
 L 87.9983,9.66479 L 88.1464,9.81659 L 88.3102,9.94888 L 88.4871,10.0623 L 88.7995,10.2081 L 89.1464,10.3123
 L 89.5183,10.3749 L 89.9051,10.3958 z
M 89.8771,9.99284 L 89.6104,9.98277 L 89.3116,9.94341 L 88.9984,9.86101 L 88.6886,9.72183 L 88.5523,9.6321
 L 88.4263,9.52934 L 88.3134,9.41345 L 88.2161,9.28433 L 88.127,9.12639 L 88.0658,8.96765 L 88.0293,8.81274
 L 88.0141,8.66634 L 88.0141,8.63884 L 88.0256,8.48187 L 88.0586,8.32628 L 88.1112,8.17583 L 88.1811,8.03433
 L 88.2745,7.89917 L 88.3854,7.77577 L 88.5107,7.66541 L 88.6471,7.56934 L 88.9513,7.4158 L 89.2776,7.31496
 L 89.6224,7.25967 L 89.9816,7.24284 L 90.261,7.25322 L 90.5749,7.29483 L 90.9032,7.38332 L 91.2256,7.53433
 L 91.3567,7.62425 L 91.4774,7.72639 L 91.5851,7.84027 L 91.6771,7.96533 L 91.7525,8.10139 L 91.8103,8.24721
 L 91.8485,8.39958 L 91.8651,8.55534 L 91.8651,8.58334 L 91.8549,8.73483 L 91.825,8.88515 L 91.7769,9.03032
 L 91.7121,9.16634 L 91.625,9.29753 L 91.5216,9.41902 L 91.404,9.52879 L 91.2741,9.62483 L 90.9924,9.77409
 L 90.6782,9.88177 L 90.3456,9.95299 L 90.0091,9.99284 z
M 80.3415,10.4307 L 80.7651,10.3517 L 81.16,10.2194 L 81.5106,10.0329 L 81.6768,9.90932 L 81.83,9.76744
 L 81.9677,9.60727 L 82.0871,9.42888 L 82.1794,9.24576 L 82.2467,9.05219 L 82.2881,8.85083 L 82.3021,8.64438
 L 82.3021,8.60237 L 82.2818,8.38672 L 82.2321,8.1788 L 82.155,7.98131 L 82.0526,7.79688 L 81.928,7.62897
 L 81.7858,7.47925 L 81.6293,7.34772 L 81.4616,7.23438 L 81.1125,7.06494 L 80.7476,6.95593 L 80.3749,6.89764
 L 80.0021,6.88037 L 79.5995,6.89917 L 79.1996,6.96294 L 78.81,7.08266 L 78.4386,7.26938 L 78.2658,7.38889
 L 78.1048,7.52869 L 77.9594,7.68808 L 77.8336,7.86638 L 77.7365,8.05594 L 77.6646,8.25793 L 77.6199,8.46902
 L 77.6046,8.68587 L 77.6046,8.72737 L 77.6225,8.92296 L 77.6689,9.13031 L 77.7493,9.34282 L 77.8686,9.55388
 L 77.9983,9.72583 L 78.1464,9.87762 L 78.3102,10.0099 L 78.4871,10.1234 L 78.7995,10.2691 L 79.1464,10.3734
 L 79.5183,10.436 L 79.9051,10.4569 z
M 79.8771,10.0539 L 79.6104,10.0438 L 79.3116,10.0044 L 78.9984,9.92204 L 78.6886,9.78287 L 78.5523,9.69313
 L 78.4263,9.59038 L 78.3134,9.47449 L 78.2161,9.34537 L 78.127,9.18742 L 78.0658,9.02869 L 78.0293,8.87378
 L 78.0141,8.72737 L 78.0141,8.69987 L 78.0256,8.54291 L 78.0586,8.38731 L 78.1112,8.23686 L 78.1811,8.09537
 L 78.2745,7.96021 L 78.3854,7.83681 L 78.5107,7.72644 L 78.6471,7.63037 L 78.9513,7.47684 L 79.2776,7.37599
 L 79.6224,7.32071 L 79.9816,7.30388 L 80.261,7.31425 L 80.5749,7.35587 L 80.9032,7.44435 L 81.2256,7.59537
 L 81.3567,7.68529 L 81.4774,7.78743 L 81.5851,7.90131 L 81.6771,8.02637 L 81.7525,8.16243 L 81.8103,8.30824
 L 81.8485,8.46062 L 81.8651,8.61638 L 81.8651,8.64438 L 81.8549,8.79587 L 81.825,8.94618 L 81.7769,9.09135
 L 81.7121,9.22737 L 81.625,9.35857 L 81.5216,9.48006 L 81.404,9.58983 L 81.2741,9.68587 L 80.9924,9.83513
 L 80.6782,9.94281 L 80.3456,10.014 L 80.0091,10.0539 z
M 20.3415,10.4576 L 20.7651,10.3786 L 21.16,10.2462 L 21.5106,10.0597 L 21.6768,9.93617 L 21.83,9.7943
 L 21.9677,9.63412 L 22.0871,9.45573 L 22.1794,9.27261 L 22.2467,9.07904 L 22.2881,8.87769 L 22.3021,8.67123
 L 22.3021,8.62923 L 22.2818,8.41357 L 22.2321,8.20566 L 22.155,8.00816 L 22.0526,7.82373 L 21.928,7.65582
 L 21.7858,7.5061 L 21.6293,7.37457 L 21.4616,7.26123 L 21.1125,7.0918 L 20.7476,6.98279 L 20.3749,6.9245
 L 20.0021,6.90723 L 19.5995,6.92603 L 19.1996,6.98979 L 18.81,7.10951 L 18.4386,7.29623 L 18.2658,7.41574
 L 18.1048,7.55554 L 17.9594,7.71494 L 17.8336,7.89323 L 17.7365,8.08279 L 17.6646,8.28479 L 17.6199,8.49588
 L 17.6046,8.71272 L 17.6046,8.75423 L 17.6225,8.94981 L 17.6689,9.15717 L 17.7493,9.36967 L 17.8686,9.58073
 L 17.9983,9.75269 L 18.1464,9.90448 L 18.3102,10.0368 L 18.4871,10.1502 L 18.7995,10.296 L 19.1464,10.4002
 L 19.5183,10.4628 L 19.9051,10.4837 z
M 19.8771,10.0807 L 19.6104,10.0707 L 19.3116,10.0313 L 18.9984,9.9489 L 18.6886,9.80972 L 18.5523,9.71999
 L 18.4263,9.61723 L 18.3134,9.50134 L 18.2161,9.37222 L 18.127,9.21428 L 18.0658,9.05554 L 18.0293,8.90063
 L 18.0141,8.75423 L 18.0141,8.72673 L 18.0256,8.56976 L 18.0586,8.41417 L 18.1112,8.26372 L 18.1811,8.12222
 L 18.2745,7.98706 L 18.3854,7.86366 L 18.5107,7.7533 L 18.6471,7.65723 L 18.9513,7.50369 L 19.2776,7.40285
 L 19.6224,7.34756 L 19.9816,7.33073 L 20.261,7.34111 L 20.5749,7.38272 L 20.9032,7.47121 L 21.2256,7.62222
 L 21.3567,7.71214 L 21.4774,7.81429 L 21.5851,7.92816 L 21.6771,8.05322 L 21.7525,8.18929 L 21.8103,8.3351
 L 21.8485,8.48747 L 21.8651,8.64323 L 21.8651,8.67123 L 21.8549,8.82272 L 21.825,8.97304 L 21.7769,9.11821
 L 21.7121,9.25423 L 21.625,9.38542 L 21.5216,9.50691 L 21.404,9.61668 L 21.2741,9.71272 L 20.9924,9.86198
 L 20.6782,9.96967 L 20.3456,10.0409 L 20.0091,10.0807 z
M 30.3259,10.5117 L 30.7494,10.4328 L 31.1444,10.3004 L 31.495,10.1139 L 31.6611,9.99037 L 31.8144,9.8485
 L 31.952,9.68832 L 32.0715,9.50993 L 32.1637,9.32681 L 32.2311,9.13324 L 32.2724,8.93188 L 32.2865,8.72543
 L 32.2865,8.68343 L 32.2662,8.46777 L 32.2165,8.25986 L 32.1394,8.06236 L 32.037,7.87793 L 31.9124,7.71002
 L 31.7702,7.5603 L 31.6136,7.42877 L 31.446,7.31543 L 31.0969,7.146 L 30.732,7.03699 L 30.3592,6.9787
 L 29.9865,6.96143 L 29.5839,6.98022 L 29.1839,7.04399 L 28.7944,7.16371 L 28.423,7.35043 L 28.2502,7.46994
 L 28.0892,7.60974 L 27.9438,7.76913 L 27.818,7.94743 L 27.7208,8.13699 L 27.6489,8.33899 L 27.6043,8.55008
 L 27.589,8.76692 L 27.589,8.80843 L 27.6068,9.00401 L 27.6533,9.21136 L 27.7336,9.42387 L 27.853,9.63493
 L 27.9827,9.80688 L 28.1308,9.95868 L 28.2946,10.091 L 28.4715,10.2044 L 28.7838,10.3502 L 29.1308,10.4544
 L 29.5026,10.517 L 29.8895,10.5379 z
M 29.8615,10.1349 L 29.5947,10.1249 L 29.2959,10.0855 L 28.9828,10.0031 L 28.673,9.86392 L 28.5367,9.77419
 L 28.4107,9.67143 L 28.2977,9.55554 L 28.2005,9.42642 L 28.1114,9.26848 L 28.0502,9.10974 L 28.0137,8.95483
 L 27.9985,8.80843 L 27.9985,8.78093 L 28.01,8.62396 L 28.043,8.46837 L 28.0955,8.31792 L 28.1655,8.17642
 L 28.2589,8.04126 L 28.3698,7.91786 L 28.4951,7.8075 L 28.6315,7.71143 L 28.9356,7.55789 L 29.262,7.45705
 L 29.6067,7.40176 L 29.966,7.38493 L 30.2454,7.39531 L 30.5593,7.43692 L 30.8876,7.52541 L 31.21,7.67642
 L 31.3411,7.76634 L 31.4618,7.86848 L 31.5695,7.98236 L 31.6615,8.10742 L 31.7369,8.24348 L 31.7947,8.3893
 L 31.8328,8.54167 L 31.8495,8.69743 L 31.8495,8.72543 L 31.8392,8.87692 L 31.8094,9.02724 L 31.7613,9.17241
 L 31.6965,9.30843 L 31.6093,9.43962 L 31.506,9.56111 L 31.3884,9.67088 L 31.2585,9.76692 L 30.9768,9.91618
 L 30.6626,10.0239 L 30.33,10.0951 L 29.9935,10.1349 z
M 60.3572,10.5528 L 60.7807,10.4738 L 61.1756,10.3414 L 61.5262,10.1549 L 61.6924,10.0314 L 61.8456,9.88951
 L 61.9833,9.72934 L 62.1027,9.55095 L 62.195,9.36783 L 62.2624,9.17426 L 62.3037,8.9729 L 62.3177,8.76645
 L 62.3177,8.72444 L 62.2975,8.50879 L 62.2477,8.30087 L 62.1707,8.10338 L 62.0682,7.91895 L 61.9436,7.75104
 L 61.8014,7.60132 L 61.6449,7.46979 L 61.4772,7.35645 L 61.1281,7.18701 L 60.7632,7.078 L 60.3905,7.01971
 L 60.0177,7.00244 L 59.6152,7.02124 L 59.2152,7.08501 L 58.8256,7.20473 L 58.4543,7.39145 L 58.2815,7.51096
 L 58.1204,7.65076 L 57.9751,7.81015 L 57.8492,7.98845 L 57.7521,8.17801 L 57.6802,8.38 L 57.6356,8.59109
 L 57.6203,8.80794 L 57.6203,8.84944 L 57.6381,9.04503 L 57.6846,9.25238 L 57.7649,9.46489 L 57.8842,9.67595
 L 58.0139,9.8479 L 58.162,9.99969 L 58.3258,10.132 L 58.5027,10.2454 L 58.8151,10.3912 L 59.1621,10.4954
 L 59.5339,10.558 L 59.9207,10.5789 z
M 59.8927,10.1759 L 59.626,10.1659 L 59.3272,10.1265 L 59.0141,10.0441 L 58.7043,9.90494 L 58.5679,9.8152
 L 58.4419,9.71245 L 58.329,9.59656 L 58.2318,9.46744 L 58.1426,9.30949 L 58.0814,9.15076 L 58.0449,8.99585
 L 58.0298,8.84944 L 58.0298,8.82195 L 58.0412,8.66498 L 58.0742,8.50938 L 58.1268,8.35893 L 58.1967,8.21744
 L 58.2902,8.08228 L 58.4011,7.95888 L 58.5263,7.84851 L 58.6628,7.75244 L 58.9669,7.59891 L 59.2932,7.49806
 L 59.638,7.44278 L 59.9973,7.42595 L 60.2766,7.43633 L 60.5906,7.47794 L 60.9188,7.56642 L 61.2412,7.71744
 L 61.3723,7.80736 L 61.4931,7.9095 L 61.6008,8.02338 L 61.6927,8.14844 L 61.7682,8.2845 L 61.8259,8.43031
 L 61.8641,8.58269 L 61.8807,8.73845 L 61.8807,8.76645 L 61.8705,8.91794 L 61.8406,9.06825 L 61.7926,9.21342
 L 61.7277,9.34944 L 61.6406,9.48064 L 61.5372,9.60213 L 61.4196,9.7119 L 61.2897,9.80794 L 61.0081,9.9572
 L 60.6938,10.0649 L 60.3613,10.1361 L 60.0247,10.1759 z
M 50.3415,10.5528 L 50.7651,10.4738 L 51.16,10.3414 L 51.5106,10.1549 L 51.6768,10.0314 L 51.83,9.88951
 L 51.9677,9.72934 L 52.0871,9.55095 L 52.1794,9.36783 L 52.2467,9.17426 L 52.2881,8.9729 L 52.3021,8.76645
 L 52.3021,8.72444 L 52.2818,8.50879 L 52.2321,8.30087 L 52.155,8.10338 L 52.0526,7.91895 L 51.928,7.75104
 L 51.7858,7.60132 L 51.6293,7.46979 L 51.4616,7.35645 L 51.1125,7.18701 L 50.7476,7.078 L 50.3749,7.01971
 L 50.0021,7.00244 L 49.5995,7.02124 L 49.1996,7.08501 L 48.81,7.20473 L 48.4386,7.39145 L 48.2658,7.51096
 L 48.1048,7.65076 L 47.9594,7.81015 L 47.8336,7.98845 L 47.7365,8.17801 L 47.6646,8.38 L 47.6199,8.59109
 L 47.6046,8.80794 L 47.6046,8.84944 L 47.6225,9.04503 L 47.6689,9.25238 L 47.7493,9.46489 L 47.8686,9.67595
 L 47.9983,9.8479 L 48.1464,9.99969 L 48.3102,10.132 L 48.4871,10.2454 L 48.7995,10.3912 L 49.1464,10.4954
 L 49.5183,10.558 L 49.9051,10.5789 z
M 49.8771,10.1759 L 49.6104,10.1659 L 49.3116,10.1265 L 48.9984,10.0441 L 48.6886,9.90494 L 48.5523,9.8152
 L 48.4263,9.71245 L 48.3134,9.59656 L 48.2161,9.46744 L 48.127,9.30949 L 48.0658,9.15076 L 48.0293,8.99585
 L 48.0141,8.84944 L 48.0141,8.82195 L 48.0256,8.66498 L 48.0586,8.50938 L 48.1112,8.35893 L 48.1811,8.21744
 L 48.2745,8.08228 L 48.3854,7.95888 L 48.5107,7.84851 L 48.6471,7.75244 L 48.9513,7.59891 L 49.2776,7.49806
 L 49.6224,7.44278 L 49.9816,7.42595 L 50.261,7.43633 L 50.5749,7.47794 L 50.9032,7.56642 L 51.2256,7.71744
 L 51.3567,7.80736 L 51.4774,7.9095 L 51.5851,8.02338 L 51.6771,8.14844 L 51.7525,8.2845 L 51.8103,8.43031
 L 51.8485,8.58269 L 51.8651,8.73845 L 51.8651,8.76645 L 51.8549,8.91794 L 51.825,9.06825 L 51.7769,9.21342
 L 51.7121,9.34944 L 51.625,9.48064 L 51.5216,9.60213 L 51.404,9.7119 L 51.2741,9.80794 L 50.9924,9.9572
 L 50.6782,10.0649 L 50.3456,10.1361 L 50.0091,10.1759 z
" stroke="black" fill="lightgray" stroke-width="0.5"/>
</svg>
